<?xml version="1.0" encoding="UTF-8"?>
<svg id="Badges" xmlns="http://www.w3.org/2000/svg" viewBox="0 0 500 500">
  <defs>
    <style>
      .cls-1 {
        fill: none;
        stroke: #0c4d53;
        stroke-linecap: round;
        stroke-miterlimit: 10;
        stroke-width: 8px;
      }

      .cls-2 {
        fill: #0c4d53;
        stroke-width: 0px;
      }
    </style>
  </defs>
  <path class="cls-1" d="M21.19,286.51c-2.43-13.47-3.69-27.34-3.69-41.51C17.5,116.59,121.59,12.5,250,12.5s232.5,104.09,232.5,232.5c0,13.17-1.09,26.08-3.2,38.64"/>
  <g>
    <path class="cls-2" d="M43.57,318.47c-.35.63-.86,1.05-1.53,1.24-.67.2-1.32.12-1.95-.23-.32-.17-.58-.4-.8-.68s-.37-.58-.46-.9-.13-.65-.1-.98.12-.65.29-.95c.71-1.29,1.13-2.61,1.25-3.98.13-1.36,0-2.7-.38-4-.39-1.35-1.02-2.56-1.89-3.61-.87-1.06-1.88-1.9-3.04-2.54s-2.43-1.04-3.79-1.22-2.75-.06-4.15.34c-1.34.39-2.54,1.01-3.6,1.86-1.06.85-1.92,1.85-2.58,3-.66,1.15-1.08,2.41-1.28,3.77-.2,1.36-.1,2.75.29,4.15.41,1.41,1.03,2.63,1.85,3.66.82,1.03,1.88,1.9,3.15,2.63.3.16.55.38.75.66.2.27.36.58.45.92.09.31.12.63.1.97-.03.34-.11.66-.26.95-.17.32-.4.58-.67.79-.27.21-.57.37-.89.46-.32.09-.65.12-1,.09-.34-.03-.66-.13-.96-.3-1.92-1.06-3.52-2.4-4.78-4.02-1.26-1.62-2.18-3.42-2.75-5.38-.39-1.35-.59-2.71-.6-4.09,0-1.37.15-2.7.48-3.99.33-1.29.81-2.52,1.46-3.69.65-1.17,1.44-2.24,2.36-3.21.93-.97,1.98-1.82,3.15-2.54,1.17-.72,2.44-1.29,3.81-1.68,1.32-.38,2.66-.59,4.01-.62,1.35-.03,2.67.11,3.96.41,1.29.3,2.53.76,3.73,1.38,1.2.62,2.29,1.38,3.29,2.29s1.88,1.96,2.63,3.16,1.34,2.52,1.76,3.96c.56,1.94.74,3.92.54,5.97-.21,2.04-.83,4.02-1.87,5.94Z"/>
    <path class="cls-2" d="M30.59,326.88c1.46-.63,2.94-.93,4.45-.92,1.51.01,2.95.29,4.32.83,1.37.54,2.6,1.33,3.7,2.37,1.1,1.03,1.96,2.27,2.58,3.71.63,1.46.94,2.94.94,4.46,0,1.52-.27,2.95-.82,4.31-.55,1.36-1.34,2.58-2.38,3.68s-2.28,1.95-3.74,2.58c-1.44.62-2.92.93-4.43.94-1.51,0-2.95-.26-4.31-.79-1.36-.54-2.6-1.33-3.7-2.37s-1.97-2.29-2.59-3.74c-.62-1.44-.93-2.92-.92-4.42,0-1.51.28-2.95.82-4.31.54-1.37,1.33-2.6,2.37-3.71,1.04-1.11,2.28-1.97,3.72-2.59ZM32.65,331.67c-.78.34-1.45.8-2.02,1.41s-1,1.28-1.3,2.02c-.3.75-.45,1.53-.45,2.35s.17,1.63.51,2.42c.34.79.81,1.47,1.41,2.04s1.27,1,2.02,1.29,1.53.43,2.35.42c.82,0,1.63-.18,2.41-.51.79-.34,1.47-.81,2.05-1.4.57-.59,1-1.26,1.3-2,.29-.74.44-1.52.44-2.34,0-.83-.17-1.64-.51-2.43-.33-.78-.8-1.45-1.41-2.02s-1.27-1-2.01-1.3c-.74-.3-1.52-.45-2.35-.45-.83,0-1.64.17-2.43.51Z"/>
    <path class="cls-2" d="M44.7,374.54c-.32.18-.65.29-.99.33-.34.04-.66.02-.98-.06-.31-.08-.6-.22-.87-.43-.27-.21-.49-.46-.66-.77-.17-.31-.29-.63-.34-.98-.05-.35-.04-.68.05-1.01.08-.32.22-.62.42-.9.2-.28.46-.51.78-.69l7.75-4.43c.11-.06.2-.1.26-.12.66-.42,1.22-.92,1.68-1.51.46-.59.78-1.23.98-1.91s.26-1.39.19-2.11c-.07-.72-.31-1.43-.71-2.13-.4-.71-.91-1.29-1.5-1.74s-1.25-.76-1.95-.92c-.7-.16-1.43-.19-2.19-.08s-1.49.37-2.2.77l-7.86,4.49c-.32.18-.65.3-.98.34s-.66.02-.98-.06c-.32-.09-.61-.23-.87-.43-.26-.2-.48-.46-.67-.78-.17-.31-.29-.63-.33-.97-.05-.34-.03-.68.05-1.01.08-.33.22-.64.42-.92.2-.28.46-.51.78-.69l7.85-4.49c1.33-.76,2.72-1.24,4.15-1.42,1.43-.18,2.82-.1,4.17.24,1.35.34,2.6.95,3.76,1.81,1.16.86,2.11,1.95,2.86,3.27.76,1.33,1.22,2.71,1.37,4.14.15,1.42.03,2.8-.36,4.13-.39,1.33-1.03,2.57-1.92,3.71-.89,1.14-2,2.09-3.33,2.86l-7.85,4.49Z"/>
    <path class="cls-2" d="M56.87,380.01c-.17-.73-.32-1.49-.46-2.3-.14-.8-.18-1.6-.12-2.39.06-.79.26-1.54.6-2.27.34-.72.91-1.37,1.7-1.93.82-.58,1.68-.95,2.59-1.11s1.8-.11,2.69.13c.89.24,1.74.67,2.56,1.28.82.61,1.57,1.4,2.25,2.35.39.55.75,1.14,1.08,1.79s.59,1.3.78,1.96.28,1.31.27,1.95c0,.63-.15,1.22-.42,1.74-.28.49-.64.86-1.09,1.09-.45.23-.89.33-1.32.28-.34-.03-.65-.13-.94-.29-.29-.16-.53-.37-.73-.65-.15-.21-.26-.47-.33-.79-.03-.39-.05-.75-.09-1.07-.03-.32-.09-.63-.17-.94-.08-.31-.19-.61-.34-.91-.15-.3-.34-.62-.58-.96-.6-.85-1.18-1.41-1.71-1.68-.54-.27-1.04-.24-1.51.09-.25.18-.39.4-.44.68s-.04.6.03.98.19.8.35,1.28c.17.48.34,1.01.54,1.58.31.94.56,1.86.75,2.78.18.92.24,1.8.17,2.65-.07.85-.3,1.64-.68,2.39-.38.74-1,1.42-1.84,2.02-.78.56-1.63.91-2.55,1.07-.92.15-1.84.12-2.77-.1-.93-.22-1.82-.64-2.69-1.24-.87-.6-1.65-1.38-2.33-2.34-.43-.6-.82-1.27-1.19-2.02s-.64-1.54-.83-2.36-.25-1.65-.21-2.49.26-1.64.65-2.41c.26-.54.58-.94.95-1.21s.75-.42,1.15-.45c.4-.04.78.04,1.14.22.37.18.67.45.92.8.22.31.39.69.49,1.12.1.44.13.93.07,1.48-.08.3-.13.62-.14.98,0,.36.02.73.09,1.12s.18.77.34,1.16.37.76.63,1.13c.23.33.49.61.76.84.28.24.56.42.85.55s.57.19.85.19.53-.08.76-.25c.27-.2.42-.52.45-.97.02-.45-.01-.95-.11-1.5-.1-.55-.23-1.1-.4-1.66-.17-.56-.32-1.03-.43-1.42Z"/>
    <path class="cls-2" d="M66.15,389.97c1.19-1.04,2.51-1.79,3.96-2.24,1.44-.45,2.9-.63,4.37-.53,1.47.1,2.88.48,4.24,1.12,1.36.65,2.56,1.56,3.59,2.75,1.04,1.19,1.79,2.51,2.26,3.96.46,1.44.64,2.9.54,4.36-.11,1.46-.49,2.87-1.14,4.23-.65,1.36-1.58,2.55-2.77,3.6-1.18,1.03-2.49,1.78-3.93,2.25-1.44.47-2.89.66-4.35.56-1.46-.09-2.88-.47-4.24-1.12-1.37-.65-2.57-1.58-3.61-2.77-1.03-1.18-1.77-2.49-2.23-3.93-.46-1.44-.64-2.89-.54-4.36s.48-2.89,1.12-4.26,1.57-2.57,2.75-3.61ZM69.57,393.9c-.64.56-1.14,1.21-1.5,1.96-.36.75-.56,1.52-.62,2.32-.05.8.04,1.59.29,2.38.25.78.65,1.5,1.22,2.15.57.65,1.22,1.16,1.97,1.51s1.52.56,2.31.61c.8.05,1.59-.06,2.37-.31.78-.26,1.49-.67,2.13-1.22.65-.57,1.16-1.22,1.52-1.96.36-.74.57-1.51.62-2.3s-.04-1.58-.3-2.37-.66-1.51-1.23-2.16c-.56-.64-1.21-1.14-1.96-1.5-.75-.36-1.52-.57-2.31-.63-.8-.06-1.59.04-2.38.29-.79.25-1.51.66-2.16,1.23Z"/>
    <path class="cls-2" d="M82.25,420.35c-.48.54-1.06.83-1.75.88-.69.04-1.3-.17-1.84-.65-.26-.23-.47-.51-.62-.82s-.24-.64-.28-.97c-.04-.33,0-.66.09-.99.1-.33.26-.63.5-.89l7.47-8.48c.79-.9,1.72-1.59,2.78-2.08,1.06-.49,2.15-.76,3.29-.81,1.14-.05,2.26.1,3.38.47,1.12.37,2.12.94,3.03,1.74.94.82,1.66,1.78,2.16,2.86.51,1.08.79,2.21.87,3.39,1.17-.08,2.34.08,3.49.45,1.15.38,2.2.97,3.13,1.8.91.8,1.62,1.72,2.11,2.76.5,1.03.79,2.11.87,3.23s-.04,2.22-.37,3.32c-.33,1.1-.86,2.11-1.61,3.03-.02.02-.04.05-.06.09-.02.04-.04.06-.06.09l-7.44,8.45c-.23.26-.5.47-.81.61-.31.14-.62.22-.95.24-.32.01-.64-.03-.96-.13-.32-.1-.61-.26-.87-.5-.27-.23-.48-.51-.63-.83-.16-.32-.25-.64-.28-.97-.03-.33,0-.66.1-.98.1-.33.26-.63.5-.89l7.49-8.5c.33-.4.55-.82.68-1.29s.17-.92.12-1.38c-.05-.46-.19-.9-.4-1.33s-.51-.8-.9-1.14c-.38-.34-.81-.59-1.29-.75-.48-.16-.95-.23-1.42-.21-.47.02-.93.13-1.37.33s-.83.49-1.17.87l-7.41,8.41c-.47.54-1.06.83-1.75.88-.69.04-1.3-.17-1.84-.65-.26-.23-.47-.51-.62-.82s-.25-.64-.28-.97c-.04-.33,0-.66.09-.99.1-.33.26-.63.5-.89l7.47-8.48c.33-.4.56-.82.7-1.29s.19-.92.14-1.38-.18-.9-.4-1.33c-.22-.43-.52-.81-.91-1.15-.38-.34-.81-.59-1.27-.75-.46-.16-.93-.24-1.41-.22-.48.02-.93.12-1.37.32-.44.19-.82.47-1.15.85l-7.45,8.47Z"/>
    <path class="cls-2" d="M111.18,444.06c-.39.61-.92.98-1.59,1.13-.67.15-1.31.03-1.92-.36-.3-.19-.54-.43-.74-.71-.2-.29-.34-.59-.43-.91-.09-.32-.11-.65-.06-.99.05-.34.16-.66.35-.96l6.08-9.53c.65-1.01,1.45-1.84,2.42-2.48.97-.64,2.01-1.08,3.13-1.31,1.11-.23,2.25-.25,3.41-.06,1.16.19,2.25.61,3.26,1.25,1.05.67,1.91,1.5,2.58,2.5.67.99,1.12,2.07,1.38,3.21,1.15-.25,2.32-.28,3.52-.09,1.2.19,2.32.63,3.37,1.3,1.03.65,1.86,1.45,2.51,2.4.65.95,1.1,1.96,1.35,3.06.25,1.09.3,2.21.15,3.34-.16,1.13-.53,2.21-1.13,3.24-.02.03-.03.06-.05.1s-.03.07-.05.1l-6.06,9.49c-.19.3-.43.54-.71.73-.28.19-.58.32-.9.38-.32.06-.64.07-.97.02-.33-.05-.64-.17-.94-.36s-.55-.43-.75-.72-.35-.6-.43-.91c-.08-.32-.1-.65-.05-.99s.16-.66.35-.96l6.1-9.55c.26-.44.42-.9.48-1.38.06-.48.02-.94-.1-1.39-.12-.45-.32-.87-.6-1.25-.28-.38-.63-.72-1.06-.99s-.89-.46-1.39-.54c-.49-.09-.97-.09-1.44,0-.47.09-.9.27-1.31.53-.41.26-.75.61-1.02,1.04l-6.03,9.45c-.39.61-.92.98-1.59,1.13-.67.15-1.31.03-1.92-.36-.3-.19-.54-.43-.74-.71-.2-.29-.34-.59-.43-.91-.09-.32-.11-.65-.06-.99.05-.34.16-.66.35-.96l6.08-9.53c.26-.44.43-.9.5-1.38.07-.48.04-.94-.07-1.38-.12-.44-.31-.86-.6-1.25s-.64-.72-1.07-1-.89-.46-1.37-.55c-.48-.09-.96-.09-1.42,0-.47.09-.9.26-1.3.52-.4.26-.73.59-1,1.01l-6.07,9.51Z"/>
    <path class="cls-2" d="M141.19,452.39c.66-1.44,1.56-2.66,2.69-3.66,1.13-1,2.39-1.76,3.77-2.27,1.38-.51,2.82-.75,4.33-.71s2.97.38,4.4,1.04c1.44.66,2.66,1.56,3.68,2.69,1.01,1.13,1.77,2.38,2.27,3.76.5,1.38.73,2.82.69,4.32-.04,1.5-.39,2.98-1.06,4.42l-3.56,7.71c-.15.33-.36.62-.62.85-.26.23-.55.41-.86.53-.32.12-.66.17-1.01.17-.36,0-.71-.09-1.04-.24-.57-.26-.97-.65-1.21-1.17-.24-.51-.3-1.06-.2-1.63-1.12.24-2.24.32-3.38.24-1.13-.08-2.23-.37-3.29-.86-1.42-.66-2.64-1.55-3.64-2.67-1.01-1.12-1.76-2.38-2.27-3.76-.51-1.38-.75-2.83-.72-4.35.03-1.52.38-2.99,1.03-4.41ZM145.92,454.58c-.36.77-.54,1.57-.56,2.4s.11,1.62.39,2.37.69,1.44,1.23,2.05c.55.61,1.21,1.1,2,1.46.78.36,1.59.55,2.42.57.83.02,1.61-.11,2.36-.39.75-.28,1.42-.7,2.03-1.26.61-.56,1.09-1.22,1.45-1.99.36-.79.56-1.59.58-2.41.03-.82-.09-1.61-.37-2.35-.27-.74-.69-1.42-1.24-2.04-.55-.62-1.22-1.11-2.01-1.47-.77-.36-1.57-.54-2.4-.56-.83-.02-1.62.1-2.37.38-.75.27-1.43.68-2.05,1.23-.62.55-1.1,1.22-1.47,2.01Z"/>
    <path class="cls-2" d="M175.66,455.01l7.92,2.65c.35.12.65.29.91.52s.47.5.62.8c.15.3.24.63.27.98s-.02.69-.13,1.04c-.11.33-.28.63-.51.88s-.49.45-.79.59c-.3.14-.62.23-.97.26s-.69-.02-1.04-.13l-7.92-2.65-1.93,5.76c-.27.8-.37,1.61-.29,2.42s.29,1.57.65,2.27c.36.7.84,1.32,1.46,1.87.62.54,1.34.95,2.16,1.23.73.24,1.44.37,2.13.37.69,0,1.38-.14,2.07-.43.34-.16.69-.26,1.07-.31s.73-.02,1.08.1c.56.19,1,.56,1.32,1.12.19.33.29.69.29,1.06s-.07.73-.21,1.08-.34.67-.61.95c-.26.28-.57.51-.93.67-1.21.58-2.47.89-3.81.94-1.33.05-2.68-.15-4.05-.61-1.5-.5-2.82-1.25-3.94-2.25-1.12-1-2.02-2.15-2.68-3.45-.66-1.3-1.06-2.7-1.19-4.21-.13-1.5.06-3,.56-4.51l4.89-14.61c.12-.35.29-.65.53-.91.24-.26.51-.46.81-.61.3-.15.63-.24.97-.27.35-.03.69.01,1.02.13.33.11.63.28.88.51.25.23.45.49.6.79.14.3.23.62.26.97.03.35-.02.69-.13,1.04l-1.33,3.96Z"/>
    <path class="cls-2" d="M192.85,480.65c-.09.34-.24.65-.45.93-.21.28-.46.5-.74.67-.28.17-.59.28-.93.33s-.68.04-1.04-.05c-.34-.09-.65-.23-.93-.45-.28-.21-.5-.46-.68-.74-.18-.28-.29-.6-.34-.94-.05-.34-.04-.69.05-1.03l4.21-16.61c.09-.34.24-.65.45-.91.22-.27.47-.49.76-.66.29-.17.61-.29.95-.34.34-.05.69-.03,1.05.06.36.09.67.24.93.45.26.21.48.45.64.74.17.29.27.6.32.94.05.33.03.67-.06,1.01l-4.21,16.61ZM193.69,455.04c.1-.39.26-.73.5-1.04.23-.3.51-.55.82-.73.31-.18.66-.31,1.04-.37.38-.06.75-.04,1.13.05.37.09.71.26,1.01.49.3.23.55.51.75.82.19.31.32.66.38,1.04.06.38.04.76-.06,1.15-.09.37-.26.71-.49,1-.23.3-.51.54-.83.72s-.67.31-1.05.37c-.38.06-.75.04-1.12-.05-.37-.09-.71-.26-1.01-.49-.3-.23-.55-.51-.73-.82-.19-.31-.31-.65-.37-1.02-.06-.37-.05-.74.05-1.12Z"/>
    <path class="cls-2" d="M199.34,473.63c.26-1.56.81-2.97,1.64-4.24.83-1.26,1.85-2.32,3.04-3.17s2.53-1.46,4-1.82,2.97-.41,4.52-.15c1.56.26,2.98.81,4.25,1.63,1.27.82,2.33,1.83,3.17,3.03s1.44,2.53,1.79,3.99c.35,1.46.4,2.98.13,4.54-.26,1.55-.8,2.96-1.62,4.23s-1.82,2.34-3.01,3.19c-1.19.85-2.52,1.46-4,1.82-1.47.36-2.99.41-4.55.14-1.55-.26-2.95-.8-4.21-1.63-1.26-.82-2.32-1.83-3.17-3.03-.85-1.2-1.46-2.54-1.83-4.01-.37-1.47-.42-2.98-.16-4.53ZM204.48,474.5c-.14.84-.12,1.66.08,2.46.2.8.53,1.53.99,2.19.46.65,1.04,1.21,1.73,1.66.69.45,1.46.75,2.31.89s1.68.12,2.48-.08,1.53-.53,2.18-.99c.65-.47,1.19-1.05,1.63-1.74.44-.7.73-1.46.88-2.3.14-.85.12-1.68-.07-2.48-.19-.8-.51-1.53-.97-2.17-.46-.65-1.04-1.19-1.73-1.64s-1.47-.75-2.32-.89c-.84-.14-1.66-.11-2.46.08s-1.53.52-2.19.98-1.21,1.03-1.66,1.73c-.45.69-.75,1.47-.89,2.32Z"/>
    <path class="cls-2" d="M247.01,487.7c-.02.37-.11.7-.26,1.01-.15.3-.35.57-.58.79-.24.22-.51.38-.83.49-.32.11-.65.16-1,.14-.35-.02-.69-.1-1.01-.25-.32-.15-.59-.34-.82-.59-.23-.25-.4-.53-.53-.85-.13-.32-.18-.66-.16-1.03l.5-8.91c0-.13.02-.22.04-.29.01-.78-.11-1.53-.36-2.23-.25-.7-.61-1.32-1.07-1.86s-1.02-.97-1.67-1.31c-.65-.33-1.37-.52-2.17-.57-.82-.05-1.57.06-2.28.32-.7.26-1.31.64-1.83,1.14-.52.5-.93,1.1-1.25,1.79-.32.7-.5,1.45-.55,2.26l-.51,9.03c-.02.37-.1.7-.25,1.01-.15.3-.34.57-.58.78-.25.22-.52.38-.83.49-.31.11-.65.16-1.02.14-.35-.02-.68-.1-1-.25-.31-.15-.59-.34-.82-.59-.24-.25-.42-.53-.54-.85-.13-.32-.18-.66-.16-1.03l.51-9.03c.08-1.53.44-2.95,1.07-4.26.63-1.3,1.45-2.43,2.47-3.37,1.02-.94,2.21-1.67,3.56-2.17,1.35-.5,2.78-.71,4.3-.62,1.53.09,2.94.45,4.22,1.1,1.28.65,2.37,1.5,3.27,2.55.9,1.05,1.59,2.26,2.07,3.63.48,1.36.67,2.81.59,4.35l-.5,9.03Z"/>
    <path class="cls-2" d="M285.56,476.5c.15,1.54,0,3.04-.47,4.48-.46,1.44-1.15,2.72-2.07,3.85-.92,1.13-2.03,2.06-3.35,2.8s-2.75,1.2-4.31,1.36c-1.58.17-3.08.02-4.52-.43-1.44-.45-2.73-1.14-3.86-2.06-1.14-.92-2.08-2.05-2.82-3.37s-1.2-2.76-1.36-4.32c-.17-1.58-.03-3.09.42-4.53.45-1.45,1.13-2.74,2.05-3.87.92-1.13,2.03-2.07,3.35-2.82,1.31-.74,2.76-1.2,4.33-1.36,1.15-.12,2.26-.07,3.33.14,1.08.22,2.1.57,3.07,1.06l-.79-7.45c-.04-.38-.01-.74.08-1.08.09-.34.24-.64.45-.92.21-.27.46-.49.75-.66.3-.17.63-.27,1.02-.31.37-.04.71,0,1.05.09s.63.26.88.49c.26.22.47.49.64.8.17.31.28.66.32,1.04l1.81,17.06ZM280.38,476.95c-.09-.86-.34-1.65-.75-2.37-.41-.72-.92-1.33-1.54-1.83s-1.33-.87-2.11-1.12c-.78-.25-1.6-.32-2.46-.23-.86.09-1.65.34-2.36.75s-1.32.92-1.83,1.53c-.51.62-.88,1.32-1.12,2.11-.24.79-.31,1.61-.22,2.47.09.84.33,1.63.73,2.35s.91,1.34,1.52,1.84c.62.51,1.32.88,2.11,1.13.79.25,1.62.32,2.47.23.86-.09,1.65-.34,2.36-.74s1.32-.92,1.83-1.55c.5-.62.88-1.33,1.13-2.12.25-.79.32-1.61.23-2.45Z"/>
    <path class="cls-2" d="M296.35,476.69c.33.53.74,1,1.21,1.39.47.39.99.7,1.55.93.56.23,1.15.37,1.77.42.62.05,1.25,0,1.89-.14,1.61-.36,2.78-1.07,3.51-2.12.26-.29.53-.52.81-.68s.54-.28.81-.34c.44-.1.85-.07,1.25.08.39.15.74.38,1.04.69.21.21.39.46.52.73.14.27.22.56.24.87.03.3,0,.62-.08.94-.08.32-.25.63-.49.93-.27.39-.6.78-.97,1.16-.37.39-.82.75-1.34,1.1-.52.35-1.12.67-1.8.96s-1.47.54-2.36.74c-1.55.35-3.06.38-4.55.1-1.49-.28-2.86-.82-4.1-1.6-1.24-.79-2.31-1.79-3.21-3.01-.9-1.22-1.52-2.6-1.86-4.15-.35-1.55-.38-3.06-.09-4.56.29-1.49.83-2.85,1.62-4.09.79-1.23,1.8-2.3,3.02-3.19,1.23-.89,2.61-1.51,4.16-1.85,1.53-.34,3.04-.38,4.51-.1,1.48.28,2.84.79,4.09,1.56,1.25.76,2.32,1.75,3.22,2.96.9,1.21,1.53,2.58,1.89,4.1.16.72.06,1.35-.3,1.9-.36.55-.92.91-1.67,1.07l-14.29,3.2ZM306.98,469.88c-.32-.6-.71-1.12-1.2-1.55-.48-.43-1.02-.77-1.62-1.02-.6-.24-1.23-.39-1.92-.43-.68-.04-1.38.01-2.1.17-.72.16-1.37.41-1.96.75-.59.34-1.1.75-1.52,1.23s-.76,1.01-1.01,1.6-.38,1.21-.42,1.88l11.73-2.63Z"/>
    <path class="cls-2" d="M322.28,469.33c-.74-.06-1.52-.14-2.33-.24-.81-.1-1.58-.3-2.32-.59-.74-.29-1.4-.7-1.99-1.24-.59-.54-1.04-1.27-1.35-2.2-.32-.96-.41-1.89-.29-2.8.12-.91.43-1.75.92-2.53.49-.78,1.15-1.47,1.98-2.07.83-.6,1.8-1.09,2.91-1.46.64-.21,1.32-.38,2.03-.51.72-.13,1.42-.18,2.11-.17.69.02,1.33.12,1.94.32.6.2,1.12.5,1.54.92.39.41.63.87.72,1.37.09.5.05.95-.12,1.34-.13.31-.32.58-.55.81s-.51.4-.83.5c-.24.08-.53.11-.86.08-.38-.09-.74-.17-1.05-.23-.32-.06-.63-.1-.95-.12-.32-.01-.64,0-.97.05-.33.05-.69.14-1.09.27-.99.33-1.69.71-2.11,1.14-.42.43-.54.92-.36,1.47.09.29.27.5.52.62.25.13.57.21.94.26.38.04.82.06,1.33.04.51-.02,1.06-.03,1.67-.05.99-.02,1.95.01,2.88.11.93.1,1.79.3,2.58.62.79.32,1.48.77,2.08,1.36.6.59,1.06,1.37,1.39,2.36.3.91.39,1.83.27,2.76-.12.93-.43,1.8-.92,2.62-.49.82-1.15,1.55-1.97,2.21-.83.65-1.8,1.17-2.93,1.54-.7.23-1.46.41-2.29.54-.83.13-1.66.16-2.5.09s-1.65-.25-2.44-.53-1.49-.73-2.11-1.34c-.44-.41-.73-.83-.87-1.26-.14-.43-.17-.84-.09-1.23.08-.39.26-.73.54-1.03.28-.3.63-.51,1.04-.65.36-.12.77-.17,1.22-.14.45.03.93.15,1.44.37.26.17.56.31.9.42.34.11.71.2,1.09.25s.79.05,1.21.02c.42-.04.84-.13,1.26-.27.38-.13.72-.29,1.03-.48.31-.19.56-.41.77-.65s.35-.49.43-.75c.08-.26.08-.53-.01-.8-.11-.32-.37-.56-.79-.71s-.91-.27-1.46-.34-1.12-.1-1.7-.11c-.58,0-1.08,0-1.48,0Z"/>
    <path class="cls-2" d="M354.07,464.03c.15.32.24.65.27.99.02.34-.02.67-.13.97-.11.3-.27.58-.49.84-.21.26-.48.46-.8.61-.33.16-.67.25-1.03.27-.35.02-.69-.02-1-.12s-.6-.26-.87-.48c-.27-.23-.48-.5-.63-.81l-3.37-6.98c-.72-1.48-1.11-3.02-1.17-4.6s.16-3.11.66-4.56c.51-1.45,1.28-2.78,2.31-3.98,1.04-1.2,2.29-2.16,3.76-2.87l.04-.02c.78-.38,1.49-.45,2.12-.21.64.23,1.12.69,1.45,1.37.16.33.25.67.25,1.02s-.05.68-.17,1c-.12.32-.3.61-.54.87-.24.27-.52.48-.85.64l-.04.02c-.82.4-1.53.93-2.11,1.61s-1.02,1.42-1.31,2.23c-.28.81-.41,1.67-.39,2.56.02.9.24,1.76.64,2.6l3.4,7.04Z"/>
    <path class="cls-2" d="M366.62,450.49c.48.4,1.01.71,1.59.94.57.22,1.16.36,1.76.4.6.04,1.2-.01,1.81-.16.6-.15,1.18-.39,1.75-.73,1.41-.85,2.3-1.89,2.67-3.11.16-.36.34-.66.55-.9s.43-.44.66-.58c.38-.23.79-.34,1.21-.32.42.02.82.13,1.2.33.27.14.51.31.72.53s.38.47.5.75c.12.28.19.59.22.92.02.33-.04.68-.17,1.04-.14.46-.32.93-.55,1.41s-.54.97-.92,1.47c-.38.49-.85.99-1.41,1.48-.55.49-1.22.97-2,1.44-1.36.82-2.79,1.33-4.29,1.53-1.5.2-2.97.13-4.39-.23-1.43-.36-2.76-.97-3.99-1.84-1.23-.87-2.26-1.99-3.07-3.35-.82-1.36-1.32-2.79-1.52-4.3-.2-1.51-.11-2.97.25-4.39.36-1.42.98-2.75,1.87-3.98.88-1.23,2-2.25,3.36-3.07,1.34-.81,2.76-1.31,4.25-1.52,1.49-.21,2.95-.14,4.37.19,1.42.33,2.75.93,3.99,1.79s2.27,1.96,3.09,3.3c.38.63.48,1.26.31,1.9-.17.63-.58,1.15-1.24,1.54l-12.55,7.54ZM374.56,440.68c-.49-.47-1.03-.84-1.62-1.1-.59-.26-1.21-.41-1.86-.45-.64-.04-1.29.02-1.95.2-.66.17-1.31.45-1.94.83s-1.17.82-1.62,1.33c-.45.51-.8,1.05-1.06,1.64s-.4,1.2-.45,1.84c-.05.64.02,1.27.2,1.91l10.31-6.19Z"/>
    <path class="cls-2" d="M388.88,435.36c-.72.18-1.49.35-2.29.5-.8.16-1.59.21-2.38.17s-1.55-.22-2.28-.55c-.73-.32-1.39-.88-1.97-1.66-.6-.81-.99-1.66-1.16-2.56-.17-.9-.14-1.8.08-2.69.22-.89.63-1.76,1.23-2.59.6-.83,1.36-1.6,2.3-2.29.54-.4,1.13-.77,1.77-1.12.64-.35,1.29-.62,1.95-.82.66-.2,1.31-.3,1.94-.31.63,0,1.22.13,1.75.39.5.27.87.62,1.11,1.07.24.45.34.89.3,1.31-.03.34-.12.66-.27.95-.15.29-.36.54-.63.74-.21.15-.47.27-.79.35-.39.03-.75.07-1.07.11-.32.04-.63.1-.94.19-.3.09-.6.21-.9.36-.3.15-.61.35-.95.6-.83.62-1.38,1.2-1.65,1.75-.26.54-.22,1.05.12,1.51.18.24.41.39.69.43.28.04.61.02.98-.05.37-.08.8-.2,1.27-.38s1-.36,1.57-.57c.93-.33,1.85-.6,2.77-.8.92-.2,1.8-.28,2.65-.22.85.06,1.65.27,2.4.64.75.37,1.44.97,2.06,1.8.57.77.95,1.62,1.12,2.53.17.92.16,1.84-.05,2.77-.21.93-.6,1.84-1.18,2.72-.58.88-1.35,1.67-2.3,2.38-.59.44-1.26.85-2,1.23-.74.38-1.52.67-2.34.87s-1.65.29-2.48.26c-.84-.03-1.65-.23-2.42-.61-.55-.25-.96-.56-1.23-.93-.27-.37-.43-.75-.48-1.14s.02-.78.19-1.15c.17-.37.43-.68.78-.94.31-.23.68-.4,1.11-.51.43-.11.93-.15,1.48-.1.3.08.63.12.99.12.36,0,.73-.04,1.11-.11.38-.08.77-.2,1.15-.36.38-.17.76-.38,1.12-.65.32-.24.6-.5.83-.78.23-.28.41-.57.53-.86.12-.29.18-.57.18-.85,0-.28-.09-.53-.27-.76-.2-.27-.53-.41-.97-.43s-.95.03-1.5.14c-.55.11-1.1.25-1.65.43s-1.02.34-1.41.46Z"/>
    <path class="cls-2" d="M404.67,422.75c-.71.24-1.45.47-2.24.7s-1.57.35-2.36.38c-.79.03-1.56-.09-2.32-.35-.75-.26-1.46-.76-2.1-1.49-.67-.75-1.13-1.57-1.37-2.46-.25-.88-.3-1.78-.15-2.69.15-.91.48-1.8,1-2.68.52-.88,1.22-1.71,2.1-2.48.5-.45,1.06-.87,1.67-1.27.61-.4,1.23-.73,1.87-.98s1.27-.41,1.91-.47c.63-.06,1.23.02,1.78.24.52.22.92.55,1.2.97.28.42.42.85.42,1.28,0,.34-.06.66-.19.97-.13.3-.32.57-.57.79-.19.17-.44.31-.76.41-.39.07-.74.13-1.06.2s-.62.16-.92.27c-.3.11-.59.26-.87.43-.28.17-.58.4-.89.68-.78.69-1.28,1.32-1.49,1.88-.22.57-.13,1.06.25,1.5.2.23.44.35.73.37.28.02.61-.03.97-.14.36-.11.78-.27,1.24-.49s.96-.45,1.51-.7c.9-.41,1.79-.75,2.69-1.04.89-.28,1.77-.43,2.62-.44.85-.02,1.67.13,2.45.43.78.3,1.52.84,2.21,1.62.64.72,1.08,1.53,1.33,2.43.25.9.31,1.82.19,2.77-.13.94-.44,1.88-.94,2.81-.5.93-1.2,1.78-2.09,2.57-.55.49-1.18.95-1.89,1.4-.71.45-1.46.8-2.26,1.07-.8.27-1.62.43-2.45.47s-1.66-.09-2.47-.4c-.57-.21-1-.48-1.3-.82-.3-.34-.49-.71-.57-1.1-.08-.39-.05-.78.1-1.16.14-.38.38-.72.7-1,.29-.25.64-.46,1.07-.61.42-.15.91-.22,1.47-.22.3.05.63.06.99.03.36-.03.73-.1,1.1-.21.37-.11.75-.26,1.12-.46s.72-.45,1.06-.74c.3-.26.55-.55.76-.85.21-.3.36-.6.45-.9s.13-.59.1-.86c-.03-.27-.14-.52-.33-.73-.22-.25-.56-.37-1.01-.34-.45.02-.94.11-1.48.27-.54.15-1.07.35-1.61.57-.54.23-.99.42-1.36.58Z"/>
    <path class="cls-2" d="M413.61,412.46c-1.16-1.08-2.04-2.31-2.64-3.7s-.93-2.82-.98-4.29c-.05-1.47.17-2.92.67-4.34.5-1.42,1.29-2.71,2.35-3.86,1.08-1.16,2.31-2.05,3.7-2.66,1.39-.61,2.81-.94,4.28-.99,1.46-.05,2.91.18,4.32.69,1.42.51,2.71,1.3,3.87,2.38,1.15,1.07,2.03,2.29,2.65,3.67.62,1.38.96,2.8,1.02,4.27s-.16,2.91-.67,4.34c-.51,1.43-1.3,2.72-2.38,3.88-1.07,1.15-2.29,2.03-3.67,2.63-1.38.61-2.81.94-4.28.99s-2.92-.17-4.36-.67-2.72-1.29-3.87-2.35ZM417.15,408.65c.62.58,1.32,1,2.1,1.28.78.28,1.57.4,2.37.37.8-.03,1.58-.21,2.33-.54.75-.33,1.42-.81,2.01-1.44.59-.63,1.02-1.34,1.3-2.12.28-.78.4-1.57.36-2.37-.04-.8-.22-1.57-.56-2.32s-.82-1.42-1.44-1.99c-.63-.59-1.34-1.02-2.11-1.31s-1.56-.41-2.35-.38c-.79.03-1.57.21-2.32.54-.76.33-1.43.82-2.02,1.45-.58.62-1,1.32-1.28,2.1-.28.78-.4,1.57-.38,2.37.02.8.2,1.57.54,2.33s.82,1.43,1.45,2.02Z"/>
    <path class="cls-2" d="M435.22,388.5c.66.48,1.36.82,2.11,1,.75.18,1.49.22,2.22.12s1.43-.35,2.1-.75c.67-.39,1.24-.92,1.73-1.57.49-.67.81-1.36.95-2.07s.13-1.41-.03-2.1c-.16-.69-.46-1.34-.89-1.97-.43-.63-.98-1.18-1.63-1.67l-7.14-5.28c-.3-.22-.53-.48-.69-.78-.17-.3-.27-.62-.31-.96s-.02-.67.06-1.01c.08-.34.23-.65.43-.93.22-.3.47-.53.76-.69s.6-.27.92-.32c.32-.05.65-.03.98.05.33.08.64.23.93.45l7.08,5.23c1.24.91,2.25,1.98,3.03,3.21.78,1.23,1.31,2.51,1.58,3.86.27,1.35.25,2.72-.04,4.12-.29,1.39-.9,2.71-1.81,3.94-.91,1.24-2,2.22-3.26,2.94s-2.6,1.19-4,1.39c-1.4.2-2.81.13-4.24-.2-1.42-.33-2.75-.95-3.97-1.86l-7.18-5.3c-.3-.22-.53-.48-.7-.77-.17-.29-.28-.6-.33-.93-.05-.32-.03-.66.05-.99.08-.34.23-.65.43-.93s.46-.51.76-.69c.3-.18.61-.29.94-.35.33-.06.66-.04.99.03.33.08.65.22.94.44l7.2,5.32Z"/>
    <path class="cls-2" d="M457.31,370.76c.3.18.56.41.77.68.21.27.35.57.42.88.07.31.09.64.05.97-.04.33-.15.65-.33.95-.19.32-.43.58-.71.79-.29.21-.59.36-.9.45-.32.09-.65.12-1,.07s-.67-.15-.98-.33l-6.65-3.99c-1.41-.85-2.58-1.92-3.5-3.21-.92-1.29-1.57-2.68-1.95-4.18-.37-1.49-.46-3.03-.25-4.6.21-1.57.73-3.06,1.57-4.46l.03-.04c.44-.74,1-1.19,1.66-1.34.66-.15,1.31-.04,1.96.35.32.19.57.43.77.72s.34.6.41.93.08.67.03,1.03c-.05.35-.17.68-.36,1l-.03.04c-.47.78-.76,1.62-.89,2.5s-.08,1.75.13,2.58c.21.83.57,1.62,1.08,2.35.51.74,1.16,1.34,1.96,1.82l6.71,4.03Z"/>
    <path class="cls-2" d="M457.96,352.16c.68.33,1.41.52,2.21.56s1.58-.05,2.34-.27c.76-.22,1.46-.58,2.11-1.07.65-.49,1.16-1.1,1.54-1.84.38-.78.62-1.51.72-2.2.1-.69.04-1.46-.17-2.31-.1-.41-.17-.84-.21-1.29s.05-.89.25-1.31c.12-.24.3-.48.54-.7s.55-.41.94-.58c.33-.14.68-.2,1.03-.18.35.02.69.12,1.01.28.32.17.6.39.85.68.25.29.45.64.61,1.06.47,1.33.64,2.73.52,4.19-.13,1.46-.52,2.87-1.18,4.22-.7,1.44-1.62,2.66-2.77,3.67-1.14,1.01-2.41,1.76-3.79,2.26-1.38.5-2.83.72-4.34.66-1.51-.06-2.98-.44-4.42-1.15,0-.02-.02-.04-.03-.04v.02c-1.45-.7-2.66-1.63-3.65-2.8-.99-1.16-1.72-2.44-2.18-3.84-.46-1.4-.65-2.87-.57-4.39.09-1.52.48-3.01,1.18-4.44.66-1.35,1.52-2.53,2.57-3.54,1.05-1.01,2.25-1.74,3.59-2.18.41-.14.81-.2,1.2-.19.39.01.75.1,1.08.25.33.15.61.36.84.64s.4.6.5.97c.1.41.14.76.12,1.07-.03.31-.1.58-.22.83-.2.42-.5.75-.88,1-.38.25-.77.47-1.16.65-.75.38-1.38.81-1.87,1.3s-.89,1.06-1.21,1.71c-.36.73-.55,1.51-.58,2.33-.03.82.09,1.61.36,2.37s.67,1.45,1.2,2.08c.53.63,1.16,1.13,1.89,1.49v.03Z"/>
    <path class="cls-2" d="M470.16,330.84c.63,0,1.24-.08,1.82-.27.59-.19,1.13-.46,1.62-.8.49-.35.93-.77,1.3-1.26.38-.49.67-1.05.9-1.67.56-1.55.6-2.92.11-4.1-.1-.38-.15-.73-.14-1.05s.05-.61.15-.87c.15-.42.4-.76.74-1.01.34-.25.72-.42,1.14-.51.3-.06.59-.08.9-.04s.59.12.86.26c.27.14.52.33.75.58s.4.55.52.92c.18.44.33.92.46,1.44.12.52.19,1.1.21,1.72.01.63-.04,1.3-.16,2.03-.12.73-.34,1.52-.65,2.38-.54,1.49-1.33,2.79-2.37,3.89-1.04,1.1-2.22,1.97-3.56,2.59-1.33.62-2.75.99-4.26,1.08-1.51.1-3.01-.12-4.5-.66-1.49-.54-2.78-1.33-3.88-2.38-1.1-1.05-1.96-2.23-2.58-3.56-.62-1.33-.97-2.75-1.06-4.26-.09-1.51.14-3.01.68-4.5.54-1.47,1.32-2.76,2.34-3.86,1.03-1.1,2.2-1.97,3.51-2.61s2.72-1.01,4.22-1.12c1.5-.11,3,.09,4.47.61.69.25,1.17.68,1.44,1.27.27.6.27,1.26,0,1.98l-4.99,13.76ZM470.14,318.22c-.68-.06-1.33,0-1.95.17-.62.17-1.2.45-1.73.82s-.99.83-1.4,1.38c-.4.55-.73,1.17-.98,1.87-.25.69-.39,1.38-.43,2.05s.04,1.33.21,1.94c.18.62.45,1.19.81,1.71s.82.98,1.36,1.36l4.1-11.3Z"/>
    <path class="cls-2" d="M477.91,305.01c-.45.6-.93,1.21-1.46,1.83-.52.63-1.1,1.17-1.74,1.64-.64.47-1.34.8-2.11,1.01-.77.21-1.63.19-2.58-.05-.98-.25-1.82-.67-2.52-1.26-.7-.59-1.25-1.3-1.64-2.14-.39-.83-.62-1.76-.68-2.78s.05-2.1.34-3.23c.17-.65.39-1.31.67-1.99.28-.67.61-1.29.99-1.87.38-.57.82-1.06,1.31-1.46.49-.4,1.02-.67,1.6-.81.56-.11,1.07-.06,1.54.13.47.19.83.47,1.07.83.19.28.32.58.39.9.07.32.06.65-.02.97-.06.25-.19.5-.39.77-.28.27-.54.53-.76.76-.22.23-.43.48-.61.74s-.34.54-.47.84c-.13.3-.25.66-.36,1.06-.26,1.01-.31,1.81-.17,2.39.14.59.49.95,1.05,1.09.29.08.56.04.81-.1s.48-.36.72-.66c.24-.29.49-.66.75-1.1.26-.44.55-.91.86-1.43.51-.84,1.06-1.63,1.64-2.37s1.22-1.35,1.92-1.84c.69-.49,1.45-.83,2.26-1.02.82-.19,1.73-.16,2.74.1.93.24,1.75.66,2.47,1.26.71.6,1.29,1.33,1.71,2.18s.69,1.8.8,2.85c.1,1.05.01,2.15-.28,3.3-.18.71-.44,1.45-.77,2.22-.33.77-.76,1.48-1.26,2.16-.51.67-1.1,1.26-1.76,1.77-.67.51-1.42.86-2.26,1.06-.58.15-1.1.17-1.54.06-.44-.11-.8-.31-1.09-.59-.28-.28-.47-.62-.57-1.01s-.09-.8.01-1.22c.09-.37.27-.74.54-1.1.26-.36.63-.7,1.09-1.01.28-.13.56-.3.84-.53.28-.23.54-.49.79-.79.25-.3.47-.64.66-1.01s.34-.78.46-1.21c.1-.39.15-.76.15-1.13,0-.36-.04-.7-.13-1-.09-.3-.22-.56-.4-.77s-.41-.35-.69-.42c-.33-.08-.67.01-1.03.29-.36.27-.71.62-1.07,1.05-.36.43-.69.89-1.01,1.38-.31.49-.58.91-.8,1.25Z"/>
  </g>
  <g>
    <path class="cls-2" d="M395.42,287.89c-2.36,2.08-5.2,2.42-8.24,2.42-37.6-.04-75.19-.02-112.79-.03-1.29,0-2.6.05-3.86-.18-3.05-.54-5.13-2.15-4.95-5.46.18-3.38,2.44-4.66,5.6-4.68,11.24-.04,22.48-.03,33.73-.04q8.38,0,8.38-8.27c0-18.42-.15-36.84.1-55.25.07-4.95-1.5-6.61-6.6-6.53-16.4.25-32.8.1-49.21.08-2.02,0-4.08-.01-6.05-.39-2.81-.54-4.65-2.22-4.57-5.24.08-2.76,1.79-4.3,4.43-4.75,1.98-.34,4.02-.52,6.03-.53,18.61-.04,37.23-.06,55.84,0,9.53.03,10.61,1.18,10.61,10.72,0,21.31.16,42.62-.11,63.92-.07,5.11,1.66,6.42,6.65,6.35,18.98-.25,37.96-.08,56.95-.11,3,0,5.95-.03,8.06,2.56v5.42Z"/>
    <path class="cls-2" d="M176.54,290.29c-18.24,0-36.47,0-54.71,0-1.66,0-3.34.08-4.96-.2-3.06-.52-5.13-2.2-4.86-5.5.24-3,2.26-4.47,5.19-4.56,4.05-.13,8.1-.09,12.16-.1,8.84-.01,17.69-.09,26.53.03,3.2.04,4.55-1.02,4.86-4.28,2.06-22.07,4.3-44.13,6.47-66.19,1.5-15.25,2.98-30.5,4.5-45.74.41-4.13,2.96-6.08,7.04-6.09,14.74-.05,29.47,0,44.21-.05,5.14-.01,7.21,2.92,7.65,7.43,1.22,12.74,2.37,25.49,3.6,38.23,2.4,24.76,4.84,49.51,7.27,74.27.09.9.23,1.79.3,2.69.6,8.19-1.07,10.03-9.41,10.06-14.74.05-29.47.02-44.21.02-3.87,0-7.74,0-11.61,0ZM200.64,279.93c7.18,0,14.37,0,21.55,0,8.57,0,8.76-.15,7.95-8.44-3.24-33-6.58-66-9.7-99.01-.34-3.55-1.71-4.61-5.13-4.56-9.39.14-18.79.21-28.18-.03-3.85-.1-5.34,1.55-5.66,4.94-.45,4.66-.96,9.32-1.41,13.99-2.81,29.42-5.54,58.85-8.5,88.26-.37,3.63.48,4.95,4.22,4.89,8.29-.14,16.58-.04,24.86-.04Z"/>
    <path class="cls-2" d="M254.27,325.78c2.11,3.53,3.92,6.39,5.57,9.33,4.91,8.75,3.18,17.04-2.04,24.99-1.92,2.93-4.65,4.4-7.94,2.32-3.06-1.94-2.94-4.91-1.12-7.61,4.62-6.85,3.58-13.23-1.16-19.52-1.19-1.58-2.32-3.31-3.03-5.14-1.38-3.59-2.27-7.04-6.86-2.41-1.78,1.8-4.56,1.26-6.45-.73-1.88-1.98-2.04-4.44-.31-6.41,4.32-4.91,8.71-9.79,13.43-14.31,2.72-2.61,5.8-1.57,8.27.97,3.67,3.79,7.34,7.59,10.92,11.47,2.24,2.42,3.84,5.2,1.05,8.13-2.65,2.79-5.55,2.16-8.29-.17-.35-.3-.88-.4-2.05-.91Z"/>
    <path class="cls-2" d="M165.66,323.93c-3.47,2.71-6.42,7.6-10.85,3.16-4.62-4.64.37-7.71,3.09-10.83,2.75-3.15,5.71-6.12,8.63-9.12,2.97-3.05,6.15-3.11,9.13-.14,3.48,3.47,6.76,7.13,10.12,10.71,2.41,2.57,5.2,5.29,2.33,8.91-3.1,3.9-6.45,1.53-10.77-1.46,2.53,4.39,4.42,7.38,6.03,10.51,4.55,8.85,2.71,17.14-2.67,24.97-1.73,2.52-4.26,3.7-7.13,2.04-3.01-1.73-3.76-4.54-1.78-7.41,4.94-7.18,3.88-13.83-1.2-20.44-2.4-3.13-3.98-6.75-4.92-10.91Z"/>
    <path class="cls-2" d="M330.83,325.78c1.74,2.75,3.59,5.43,5.2,8.25,5.1,8.95,4.23,17.62-1.54,25.98-1.97,2.86-4.58,4.52-7.91,2.44-3.07-1.92-2.97-4.97-1.14-7.62,4.73-6.85,3.71-13.19-1.11-19.46-1.1-1.43-2.28-2.96-2.81-4.63-1.41-4.45-2.74-7.64-7.77-2.73-1.58,1.54-4.27.82-5.92-1.09-1.61-1.86-1.92-4.24-.4-6,4.38-5.09,8.86-10.13,13.74-14.76,2.67-2.54,5.88-1.44,8.31,1.09,3.53,3.67,6.97,7.43,10.45,11.16,2.42,2.59,4.18,5.54,1.28,8.58-2.97,3.12-5.97,1.59-8.59-.97-.36-.35-.83-.59-1.26-.89-.18.21-.35.43-.53.64Z"/>
    <path class="cls-2" d="M177.64,139.34c-.31-17.54,14.35-34.05,32.16-37.06,6.58-1.11,13.19-1.03,19.81-.8,3.52.12,6.83,1.12,6.78,5.44-.05,4.31-3.41,5.19-6.91,5.33-4.96.19-9.94,0-14.9.2-13.34.56-24.38,10.81-25.81,23.81-.14,1.25-.18,2.53-.48,3.75-.73,2.91-2.48,5.09-5.74,4.73-3.47-.38-4.79-2.96-4.91-5.41Z"/>
    <path class="cls-2" d="M201.51,137.53c.54-7.9,8.14-15.11,17.1-15.59,7.15-.38,14.34-.18,21.51-.08,3.5.05,6.29,1.46,6.14,5.38-.15,3.96-3.11,4.9-6.58,4.91-6.07.01-12.14-.01-18.2.05-4.96.05-8.5,1.96-9.48,7.17-.63,3.38-2.44,5.96-6.29,5.31-3.89-.66-4.37-3.87-4.21-7.15Z"/>
    <path class="cls-2" d="M262.83,241.26c-3.58-.4-7.88-.28-8.05-5.24-.17-4.88,3.76-5.58,7.63-5.62,3.8-.04,7.86.34,8.12,5.16.27,5-3.92,5.27-7.7,5.7Z"/>
    <path class="cls-2" d="M291.79,241.27c-3.61-.31-7.51-.78-7.52-5.3-.01-5.21,4.29-5.55,8.28-5.58,3.99-.02,7.85,1.08,7.56,5.75-.3,4.67-4.56,4.89-8.31,5.13Z"/>
    <path class="cls-2" d="M215.59,229.11c-.19,2.71-1.52,4.71-2.53,6.81-2.42,5.06-4.86,10.1-7.35,15.12-1.49,2.99-4.01,4.49-7.22,3.07-3.54-1.57-3.78-4.55-2.24-7.77,1.32-2.77,2.68-5.53,4.02-8.3,1.28-2.65.7-3.81-2.57-4.06-13.43-1.03-13.86-1.94-7.83-14.14,2.08-4.21,4.06-8.48,6.15-12.69,1.53-3.07,3.86-5.15,7.47-3.53,3.59,1.61,3.61,4.63,2.16,7.81-1.2,2.63-2.28,5.33-3.67,7.86-1.76,3.21-1.18,4.63,2.74,4.36,2.01-.14,4.07-.12,6.05.16,3.15.45,4.85,2.34,4.82,5.28Z"/>
  </g>
</svg>