<?xml version="1.0" encoding="UTF-8"?>
<svg id="Badges" xmlns="http://www.w3.org/2000/svg" viewBox="0 0 500 500">
  <defs>
    <style>
      .cls-1 {
        fill: none;
        stroke: #0c4d53;
        stroke-linecap: round;
        stroke-miterlimit: 10;
        stroke-width: 8px;
      }

      .cls-2 {
        fill: #0c4d53;
        stroke-width: 0px;
      }
    </style>
  </defs>
  <path class="cls-1" d="M22.45,292.96c-3.25-15.48-4.95-31.52-4.95-47.96C17.5,116.59,121.59,12.5,250,12.5s232.5,104.09,232.5,232.5c0,11.57-.84,22.93-2.48,34.05"/>
  <g>
    <path class="cls-2" d="M13.6,310.08c-.14-.68-.06-1.3.26-1.88.32-.58.82-.97,1.51-1.18l24.37-7.55c.35-.11.7-.15,1.05-.11s.66.13.95.28.55.36.77.63.39.57.5.92l4.97,16.05c.11.35.14.7.11,1.04-.04.34-.13.65-.29.93-.16.28-.37.54-.63.76-.27.22-.57.39-.93.5-.34.1-.68.14-1.02.1s-.66-.13-.95-.27c-.29-.15-.54-.35-.77-.6-.22-.26-.39-.56-.5-.91l-4.2-13.57-6.83,2.12,3.29,10.61c.11.35.14.7.11,1.03-.04.34-.14.65-.3.95-.16.29-.37.55-.64.78s-.57.39-.92.5c-.34.1-.67.14-1.01.1-.34-.04-.65-.13-.94-.29-.29-.15-.54-.36-.76-.62-.21-.26-.38-.57-.49-.92l-3.29-10.62-7.61,2.36,4.2,13.57c.11.35.14.7.11,1.04-.04.34-.14.65-.3.93s-.38.54-.64.76c-.27.22-.57.39-.93.5-.72.22-1.38.17-1.98-.15-.6-.32-1.01-.84-1.23-1.54l-5.04-16.25Z"/>
    <path class="cls-2" d="M32.36,335.45c0-.75.01-1.53.05-2.34.04-.82.17-1.6.39-2.36.22-.76.58-1.45,1.07-2.08.49-.63,1.18-1.14,2.08-1.52.93-.39,1.85-.57,2.76-.52.91.04,1.78.28,2.6.71.82.43,1.56,1.03,2.23,1.8.67.78,1.23,1.7,1.69,2.78.26.62.49,1.28.67,1.98s.3,1.4.34,2.08c.04.69-.01,1.34-.16,1.96s-.41,1.16-.79,1.61c-.38.42-.81.7-1.3.83-.49.13-.94.13-1.35-.01-.32-.11-.61-.27-.86-.48-.25-.22-.44-.48-.57-.79-.1-.24-.15-.52-.15-.85.06-.39.11-.75.15-1.07.04-.32.05-.64.04-.96-.01-.32-.06-.64-.13-.96-.08-.32-.2-.68-.36-1.06-.41-.96-.84-1.63-1.31-2.01-.47-.38-.97-.46-1.5-.24-.28.12-.47.31-.58.57-.11.26-.17.58-.18.96-.01.38.01.82.07,1.33.06.5.12,1.06.18,1.66.1.98.15,1.94.13,2.88-.02.94-.15,1.81-.41,2.63s-.65,1.54-1.18,2.19c-.53.64-1.28,1.17-2.24,1.58-.88.38-1.79.54-2.72.49-.93-.05-1.83-.28-2.68-.7-.86-.42-1.64-1.01-2.36-1.78-.72-.77-1.31-1.7-1.78-2.79-.29-.68-.53-1.42-.73-2.23-.2-.81-.3-1.64-.3-2.48,0-.84.11-1.67.33-2.47.22-.81.61-1.54,1.16-2.21.37-.47.77-.8,1.19-.98.42-.18.83-.24,1.22-.19.39.05.75.2,1.07.46.32.26.56.58.73.98.15.35.23.75.24,1.2,0,.45-.08.94-.25,1.46-.15.27-.26.58-.35.93s-.14.72-.15,1.11.01.79.08,1.2c.07.41.2.83.37,1.24.16.37.34.7.56.99.22.29.46.53.71.72.25.19.51.31.78.37s.54.03.8-.08c.31-.13.52-.41.64-.85.12-.43.19-.93.21-1.49.02-.56.01-1.13-.04-1.71s-.09-1.07-.12-1.48Z"/>
    <path class="cls-2" d="M39.75,348.06c1.39-.76,2.83-1.21,4.34-1.35,1.51-.13,2.96,0,4.38.41,1.41.41,2.72,1.08,3.91,2,1.19.92,2.17,2.07,2.92,3.44.76,1.39,1.22,2.83,1.37,4.34.15,1.51.01,2.97-.4,4.37-.41,1.41-1.08,2.7-2.01,3.89-.93,1.19-2.08,2.16-3.47,2.93-1.37.76-2.81,1.21-4.32,1.36s-2.96.03-4.37-.37c-1.41-.4-2.71-1.07-3.91-2s-2.18-2.09-2.94-3.48c-.56-1.01-.94-2.05-1.16-3.13s-.29-2.16-.21-3.24l-6.12,3.37c-.34.19-.68.3-1.02.36-.34.05-.68.04-1-.04s-.62-.22-.89-.43c-.28-.2-.51-.47-.69-.81-.18-.32-.28-.66-.31-1.01-.03-.35,0-.69.1-1.01s.25-.63.47-.92.49-.52.83-.7l14.5-7.99ZM42.26,352.62c-.74.41-1.37.94-1.88,1.59-.51.65-.87,1.37-1.1,2.14s-.3,1.57-.22,2.38c.08.82.32,1.6.74,2.36s.95,1.39,1.61,1.9c.65.51,1.36.87,2.13,1.09.77.22,1.56.28,2.38.19.82-.09,1.6-.33,2.34-.74.76-.42,1.39-.95,1.9-1.6.51-.65.88-1.35,1.1-2.11.22-.76.29-1.55.21-2.38-.08-.82-.33-1.61-.74-2.37-.41-.74-.94-1.37-1.59-1.88-.65-.51-1.36-.88-2.13-1.1s-1.56-.3-2.38-.22c-.82.08-1.61.33-2.37.74Z"/>
    <path class="cls-2" d="M53.94,376.83c-.36.51-.63,1.06-.82,1.65s-.27,1.19-.26,1.79c0,.6.1,1.2.3,1.79.19.59.48,1.15.86,1.69.95,1.34,2.05,2.15,3.31,2.42.37.13.68.29.94.48s.47.39.63.61c.26.37.4.76.41,1.18.01.42-.06.83-.24,1.23-.12.28-.27.53-.47.76-.2.23-.44.42-.71.56-.27.14-.57.24-.9.29-.33.05-.68.02-1.05-.09-.46-.1-.95-.25-1.45-.44-.5-.19-1.01-.46-1.53-.81s-1.05-.78-1.58-1.29c-.53-.52-1.06-1.14-1.59-1.89-.92-1.29-1.53-2.68-1.85-4.16-.32-1.48-.35-2.95-.1-4.4.25-1.45.76-2.82,1.54-4.12.78-1.3,1.81-2.4,3.1-3.32,1.29-.92,2.68-1.53,4.17-1.84,1.49-.31,2.95-.34,4.4-.09,1.44.25,2.81.77,4.11,1.56,1.29.79,2.4,1.83,3.32,3.12.91,1.28,1.52,2.65,1.84,4.13.32,1.47.37,2.93.14,4.37-.22,1.44-.72,2.81-1.48,4.11-.77,1.3-1.78,2.41-3.05,3.33-.6.43-1.22.58-1.87.46-.65-.12-1.19-.5-1.63-1.12l-8.47-11.94ZM64.32,384c.43-.52.76-1.09.97-1.7.21-.61.32-1.24.31-1.88s-.12-1.29-.34-1.93c-.22-.65-.55-1.27-.97-1.87-.43-.6-.91-1.11-1.45-1.52-.54-.41-1.11-.72-1.72-.93-.61-.21-1.23-.31-1.87-.31-.64,0-1.27.11-1.89.34l6.95,9.81ZM70.96,370.17c-.06.38-.05.74.03,1.08.08.34.22.64.41.9.41.57.97.92,1.68,1.04.36.06.71.05,1.04-.02.34-.07.65-.21.92-.4.27-.19.5-.44.69-.74.19-.3.31-.63.37-.99l.74-4.23c.07-.37.07-.71-.02-1.04-.09-.33-.23-.63-.42-.91s-.44-.51-.73-.7-.62-.32-.98-.38c-.37-.07-.72-.07-1.05.01-.33.08-.64.22-.9.41-.27.19-.49.43-.68.73s-.3.62-.36.98l-.74,4.26Z"/>
    <path class="cls-2" d="M71.1,395.68c-.56.5-1.02,1.11-1.37,1.83-.35.72-.56,1.48-.64,2.26s-.03,1.57.17,2.36c.2.78.57,1.49,1.11,2.13.57.65,1.16,1.15,1.76,1.5.6.36,1.33.6,2.2.73.42.06.84.16,1.27.3.43.14.8.38,1.11.73.18.2.33.46.44.77.11.31.17.67.18,1.09,0,.36-.08.7-.24,1.02-.16.32-.37.59-.65.83-.28.23-.6.41-.96.53-.37.12-.77.17-1.21.15-1.41-.08-2.77-.46-4.07-1.13-1.3-.68-2.45-1.58-3.44-2.71-1.06-1.2-1.83-2.52-2.33-3.96-.49-1.44-.7-2.9-.63-4.37.07-1.47.42-2.89,1.06-4.26.64-1.37,1.55-2.59,2.75-3.64.02,0,.04,0,.05-.01l-.02-.02c1.2-1.06,2.53-1.82,3.98-2.29,1.45-.47,2.92-.65,4.39-.54,1.47.11,2.9.5,4.27,1.16s2.59,1.6,3.65,2.8c.99,1.13,1.75,2.37,2.28,3.73.53,1.36.74,2.74.64,4.16-.03.43-.12.82-.29,1.18-.17.36-.38.66-.64.9-.27.24-.57.42-.91.53-.34.11-.7.14-1.09.09-.42-.06-.76-.16-1.04-.3s-.5-.32-.68-.52c-.31-.35-.5-.75-.59-1.19s-.14-.89-.15-1.32c-.06-.84-.22-1.58-.49-2.22-.27-.64-.64-1.23-1.11-1.77-.54-.61-1.18-1.09-1.93-1.43-.75-.34-1.53-.53-2.33-.57-.8-.04-1.6.06-2.38.31s-1.49.64-2.1,1.18h-.03Z"/>
    <path class="cls-2" d="M86.1,415.13c-.25.58-.4,1.17-.45,1.79-.05.61-.01,1.21.12,1.8.13.59.35,1.15.67,1.69.31.54.71,1.03,1.19,1.47,1.21,1.12,2.46,1.67,3.74,1.68.39.05.73.14,1.02.27.29.13.54.29.74.47.33.3.55.66.65,1.07s.11.83.03,1.25c-.06.3-.16.58-.3.85s-.34.5-.57.7c-.23.2-.51.35-.82.47-.31.12-.66.16-1.05.13-.48,0-.98-.05-1.51-.13-.53-.09-1.09-.24-1.67-.47-.58-.23-1.19-.54-1.81-.93s-1.28-.9-1.95-1.51c-1.17-1.07-2.06-2.3-2.68-3.68-.62-1.38-.96-2.81-1.02-4.28-.06-1.47.15-2.92.64-4.35.49-1.43,1.27-2.73,2.34-3.89,1.07-1.17,2.3-2.06,3.69-2.67,1.39-.61,2.82-.95,4.28-1,1.46-.06,2.91.17,4.34.67s2.73,1.29,3.9,2.36c1.15,1.06,2.04,2.28,2.66,3.65.62,1.37.97,2.79,1.05,4.24.08,1.46-.11,2.9-.59,4.33-.48,1.43-1.24,2.73-2.29,3.89-.5.54-1.08.82-1.73.84-.66.02-1.27-.24-1.83-.75l-10.78-9.91ZM97.75,419.97c.31-.6.51-1.22.59-1.87.08-.64.05-1.28-.09-1.91-.14-.63-.39-1.24-.74-1.82-.35-.59-.8-1.13-1.34-1.62s-1.12-.89-1.73-1.18c-.61-.29-1.24-.47-1.88-.55-.64-.08-1.27-.05-1.89.09-.62.13-1.22.38-1.78.73l8.85,8.13Z"/>
    <path class="cls-2" d="M106.92,432.22c-.38-.64-.75-1.33-1.13-2.05-.38-.72-.66-1.47-.84-2.24-.18-.77-.22-1.55-.12-2.34.1-.79.45-1.58,1.04-2.36.61-.8,1.32-1.42,2.13-1.83.81-.42,1.68-.65,2.6-.68.92-.04,1.86.11,2.83.45.97.34,1.92.86,2.85,1.56.54.4,1.06.86,1.57,1.38.51.52.96,1.06,1.34,1.64.38.58.66,1.17.84,1.78.18.61.22,1.2.12,1.79-.12.55-.35,1.01-.71,1.37s-.75.58-1.17.66c-.33.07-.66.07-.98.01-.32-.06-.62-.2-.89-.4-.21-.15-.39-.37-.56-.66-.14-.37-.28-.7-.41-1-.13-.3-.28-.58-.45-.85-.17-.27-.37-.52-.6-.76-.23-.24-.51-.49-.84-.74-.83-.63-1.54-.99-2.14-1.09s-1.07.08-1.41.54c-.18.24-.25.5-.21.79.04.28.15.59.33.92.18.33.42.71.72,1.11.3.41.63.86.99,1.34.58.8,1.1,1.61,1.55,2.43s.77,1.65.96,2.48c.19.83.21,1.66.07,2.48-.14.83-.52,1.65-1.15,2.48-.58.77-1.28,1.36-2.11,1.79s-1.72.67-2.67.74c-.95.07-1.93-.06-2.94-.37-1.01-.31-1.99-.82-2.93-1.53-.59-.44-1.17-.97-1.75-1.57-.58-.6-1.08-1.27-1.5-2-.42-.73-.74-1.5-.95-2.31-.21-.81-.25-1.64-.1-2.5.09-.59.27-1.07.54-1.44s.59-.62.96-.78c.37-.15.75-.2,1.16-.14.4.06.78.22,1.12.48.31.23.58.54.81.92.23.38.4.85.51,1.39,0,.31.06.63.16.98s.24.69.42,1.04c.18.35.4.68.67,1,.27.32.58.62.94.89.32.24.65.43.98.57.33.14.66.23.97.27.31.04.6.01.86-.07s.48-.24.65-.47c.2-.27.25-.62.13-1.06-.11-.44-.3-.9-.56-1.4-.26-.49-.55-.98-.88-1.46-.33-.48-.61-.88-.84-1.22Z"/>
    <path class="cls-2" d="M132.22,449.83c-.1.62-.1,1.23,0,1.84.1.61.28,1.18.55,1.72.27.54.62,1.03,1.05,1.48.43.44.94.82,1.51,1.14,1.45.79,2.79,1.03,4.03.72.39-.04.74-.04,1.06.02.32.05.59.15.83.28.39.21.69.51.89.88.2.37.31.77.33,1.2.02.3-.01.6-.09.89-.08.29-.21.57-.39.81-.18.25-.41.46-.68.65s-.6.31-.99.38c-.46.11-.96.19-1.5.24-.54.04-1.11.03-1.73-.06-.62-.08-1.28-.24-1.99-.47s-1.46-.56-2.26-1c-1.39-.76-2.55-1.73-3.49-2.93-.93-1.19-1.61-2.49-2.03-3.91s-.56-2.87-.43-4.38c.13-1.51.57-2.95,1.33-4.35.76-1.39,1.74-2.55,2.94-3.48,1.2-.93,2.5-1.6,3.91-2.01,1.41-.41,2.87-.54,4.37-.41,1.51.14,2.96.59,4.35,1.35,1.38.75,2.53,1.72,3.46,2.9.93,1.18,1.62,2.47,2.05,3.86.43,1.39.59,2.84.47,4.34s-.54,2.95-1.28,4.33c-.35.65-.84,1.06-1.48,1.23-.63.17-1.29.08-1.96-.29l-12.86-7ZM144.69,451.71c.16-.66.2-1.31.12-1.96-.08-.64-.26-1.25-.55-1.83-.29-.58-.67-1.1-1.16-1.59s-1.05-.9-1.7-1.25c-.65-.35-1.3-.6-1.97-.73-.67-.13-1.32-.16-1.95-.08-.64.08-1.24.26-1.81.54-.57.28-1.09.66-1.55,1.14l10.56,5.75Z"/>
    <path class="cls-2" d="M168.81,473.81c-.14.34-.33.63-.57.87-.24.24-.51.42-.81.55s-.61.2-.95.2c-.34,0-.67-.06-1-.2-.33-.13-.62-.32-.87-.56-.26-.24-.45-.52-.59-.82-.14-.3-.21-.63-.23-.97-.02-.34.04-.69.18-1.03l3.36-8.27c.05-.12.09-.2.13-.26.27-.74.39-1.48.39-2.23s-.15-1.45-.41-2.11c-.27-.66-.65-1.25-1.16-1.78-.5-.52-1.13-.94-1.87-1.24-.76-.31-1.51-.45-2.26-.44-.75.02-1.45.18-2.1.48s-1.24.74-1.77,1.29c-.53.55-.95,1.21-1.25,1.97l-3.4,8.38c-.14.34-.33.63-.56.87-.24.24-.51.42-.81.55-.3.13-.62.19-.95.2-.33,0-.67-.06-1.01-.2-.33-.13-.61-.32-.86-.56-.25-.24-.44-.51-.59-.82s-.22-.63-.24-.98c-.02-.34.04-.68.18-1.03l3.4-8.38c.58-1.42,1.37-2.65,2.39-3.68,1.01-1.03,2.16-1.83,3.43-2.39,1.27-.56,2.63-.86,4.07-.9,1.44-.04,2.86.23,4.27.8,1.42.58,2.63,1.38,3.63,2.41s1.75,2.18,2.27,3.47c.51,1.29.77,2.65.78,4.1s-.28,2.88-.85,4.3l-3.4,8.38Z"/>
    <path class="cls-2" d="M195.35,475.33l8.34-10.78c.33-.43.74-.73,1.21-.91.48-.17.96-.21,1.44-.09.37.09.71.25,1,.48.29.22.52.48.69.78s.27.62.32.95c.05.33.03.67-.05,1.01-.08.34-.24.66-.47.95l-11.69,14.72c-.37.45-.8.75-1.28.89-.49.14-.92.18-1.3.12-.59-.14-1.06-.4-1.4-.79-.34-.39-.57-.83-.68-1.33l-3.88-18.43c-.08-.36-.08-.72,0-1.06.08-.34.22-.65.4-.93.19-.28.42-.51.71-.71.28-.2.6-.33.94-.39.19-.04.37-.06.56-.05.18,0,.36.02.53.06.5.12.92.36,1.27.73.35.37.57.82.68,1.36l2.68,13.41Z"/>
    <path class="cls-2" d="M208.31,475.42c.2-1.57.7-3,1.48-4.3.78-1.29,1.75-2.39,2.92-3.29,1.17-.9,2.47-1.55,3.92-1.97,1.45-.42,2.95-.52,4.51-.32,1.57.2,3.01.69,4.31,1.47,1.3.77,2.4,1.74,3.29,2.91.89,1.16,1.54,2.47,1.95,3.92.41,1.45.51,2.96.31,4.53-.2,1.56-.68,2.98-1.45,4.29-.77,1.3-1.73,2.41-2.88,3.3-1.16.9-2.46,1.56-3.92,1.97-1.46.42-2.97.52-4.54.32-1.55-.2-2.98-.69-4.28-1.46-1.3-.77-2.39-1.74-3.29-2.91s-1.56-2.48-1.98-3.93c-.42-1.46-.54-2.97-.33-4.52ZM213.48,476.09c-.11.84-.05,1.66.18,2.46.23.8.59,1.51,1.08,2.15.49.64,1.09,1.17,1.79,1.59.7.42,1.48.69,2.34.8.86.11,1.68.05,2.48-.17s1.51-.59,2.14-1.08c.63-.49,1.15-1.09,1.57-1.81.42-.71.68-1.49.79-2.33.11-.86.06-1.68-.16-2.48-.22-.79-.57-1.51-1.06-2.13-.48-.63-1.08-1.15-1.79-1.58-.71-.42-1.5-.69-2.35-.8-.84-.11-1.66-.05-2.46.18-.8.23-1.51.58-2.15,1.07-.64.48-1.17,1.08-1.59,1.79-.42.71-.69,1.5-.8,2.35Z"/>
    <path class="cls-2" d="M240.34,487.23c-.02.35-.1.68-.25,1-.15.31-.35.58-.59.8-.24.22-.52.39-.84.51s-.66.17-1.03.15c-.35-.02-.68-.1-1-.25-.31-.15-.58-.35-.81-.59-.23-.24-.4-.53-.52-.86-.12-.33-.17-.67-.15-1.02l.85-17.11c.02-.35.11-.68.26-.98.16-.3.37-.57.62-.8.25-.23.54-.4.87-.52.33-.12.67-.17,1.04-.15.37.02.7.1,1,.25.3.15.55.35.77.6s.39.54.5.85c.11.32.16.65.14,1l-.85,17.11ZM236.12,461.96c.02-.4.11-.77.28-1.12.17-.34.39-.64.66-.88.27-.24.58-.43.94-.57.36-.13.73-.19,1.11-.17.38.02.75.11,1.09.28.34.17.64.39.89.66s.44.58.58.94c.13.36.19.74.17,1.14-.02.38-.11.74-.28,1.08s-.39.62-.67.87c-.28.24-.59.43-.95.56-.36.13-.73.19-1.11.17-.38-.02-.75-.11-1.09-.28-.34-.17-.64-.39-.88-.66-.24-.27-.43-.58-.57-.93-.13-.35-.19-.72-.17-1.1Z"/>
    <path class="cls-2" d="M251.16,481.23c.22.59.53,1.12.92,1.59.39.48.84.88,1.34,1.21.5.33,1.06.58,1.65.75.6.17,1.22.24,1.88.22,1.65-.05,2.93-.52,3.85-1.41.31-.23.62-.41.92-.52s.59-.17.86-.18c.45-.01.85.09,1.21.31.36.22.66.51.89.88.17.25.29.52.37.82s.1.59.07.9-.12.61-.26.91c-.14.3-.36.57-.66.82-.34.33-.73.65-1.17.96s-.95.58-1.53.82c-.58.24-1.23.44-1.95.6-.72.16-1.54.25-2.46.27-1.58.04-3.08-.21-4.49-.77s-2.65-1.34-3.72-2.36c-1.07-1.01-1.93-2.2-2.57-3.56-.65-1.37-.99-2.84-1.04-4.42-.04-1.58.22-3.08.79-4.49.57-1.41,1.36-2.64,2.37-3.7s2.2-1.91,3.58-2.55c1.38-.64,2.85-.98,4.44-1.03,1.57-.04,3.05.21,4.45.76s2.64,1.32,3.71,2.31,1.94,2.16,2.6,3.52c.65,1.36,1.01,2.82,1.07,4.39.02.74-.2,1.34-.66,1.81-.46.47-1.07.71-1.84.74l-14.63.42ZM262.89,476.58c-.19-.65-.49-1.23-.88-1.75-.39-.52-.86-.95-1.39-1.3-.54-.35-1.14-.62-1.8-.79-.66-.17-1.36-.25-2.09-.23-.74.02-1.43.14-2.07.36-.64.22-1.22.52-1.73.91-.51.39-.94.85-1.29,1.38s-.61,1.12-.77,1.76l12.02-.34Z"/>
    <path class="cls-2" d="M304.96,472.7c.28,1.53.25,3.03-.09,4.5-.34,1.47-.91,2.81-1.73,4.01-.82,1.2-1.85,2.23-3.1,3.08-1.25.85-2.64,1.42-4.18,1.72-1.56.3-3.07.29-4.54-.04-1.47-.33-2.81-.9-4.02-1.73-1.21-.83-2.24-1.87-3.09-3.12-.85-1.25-1.43-2.65-1.72-4.19-.3-1.56-.29-3.07.04-4.55s.9-2.83,1.72-4.03c.82-1.21,1.85-2.24,3.1-3.09,1.25-.85,2.65-1.43,4.2-1.73,1.13-.22,2.24-.26,3.33-.14s2.14.39,3.15.8l-1.42-7.35c-.07-.38-.08-.74-.01-1.08s.19-.66.37-.95c.18-.29.41-.53.69-.72.28-.19.61-.33.99-.4.36-.07.71-.07,1.05,0,.34.07.65.21.92.41.28.2.51.45.71.74.2.3.33.63.4,1.01l3.24,16.85ZM299.83,473.59c-.16-.85-.48-1.61-.94-2.3-.47-.68-1.03-1.25-1.69-1.69-.66-.44-1.4-.75-2.2-.93-.8-.18-1.62-.19-2.47-.02-.85.16-1.61.48-2.29.94-.68.46-1.24,1.03-1.69,1.68-.45.66-.76,1.39-.93,2.2-.17.81-.17,1.63-.01,2.48.16.83.47,1.59.93,2.28s1.02,1.25,1.67,1.71c.66.45,1.39.77,2.2.95.81.18,1.64.19,2.49.02.85-.16,1.61-.48,2.29-.94.68-.46,1.24-1.03,1.69-1.69.45-.67.76-1.4.94-2.21.18-.81.19-1.63.03-2.46Z"/>
    <path class="cls-2" d="M315.75,471.97c.38.5.82.93,1.32,1.28.51.35,1.05.62,1.62.8.58.18,1.17.27,1.79.26s1.24-.1,1.87-.3c1.57-.5,2.68-1.3,3.32-2.41.24-.31.49-.56.74-.75.26-.19.52-.33.78-.41.43-.13.84-.14,1.25-.03s.77.31,1.09.6c.23.2.42.42.58.69s.26.54.32.84.05.62,0,.95-.19.65-.41.97c-.24.41-.53.83-.87,1.24-.34.42-.75.82-1.24,1.21-.49.39-1.06.76-1.71,1.11s-1.42.66-2.29.93c-1.51.48-3.02.64-4.53.48-1.51-.15-2.92-.57-4.22-1.25-1.3-.68-2.46-1.59-3.45-2.72s-1.73-2.46-2.21-3.97-.63-3.02-.47-4.53.58-2.91,1.26-4.21c.68-1.3,1.6-2.44,2.74-3.43,1.15-.99,2.48-1.72,3.99-2.2,1.5-.47,2.99-.63,4.49-.49s2.9.55,4.21,1.2c1.3.65,2.46,1.54,3.46,2.67,1,1.13,1.75,2.44,2.23,3.93.22.7.17,1.34-.14,1.92-.31.58-.83.98-1.57,1.21l-13.96,4.4ZM325.76,464.28c-.37-.57-.81-1.05-1.32-1.44-.52-.39-1.08-.68-1.7-.87s-1.26-.28-1.95-.27c-.68.01-1.38.13-2.08.35-.7.22-1.33.53-1.89.91-.56.39-1.03.84-1.41,1.35s-.67,1.08-.87,1.68c-.2.61-.28,1.24-.25,1.9l11.47-3.62Z"/>
    <path class="cls-2" d="M365.13,448.97c.69,1.39,1.07,2.84,1.16,4.35.08,1.51-.1,2.95-.56,4.33-.46,1.38-1.17,2.65-2.13,3.81-.96,1.16-2.14,2.1-3.54,2.81-1.41.72-2.87,1.12-4.38,1.21s-2.95-.09-4.34-.56-2.67-1.18-3.83-2.15c-1.16-.97-2.1-2.16-2.81-3.55-.72-1.41-1.12-2.88-1.22-4.39-.09-1.51.09-2.96.54-4.35.45-1.39,1.16-2.66,2.12-3.82s2.15-2.1,3.56-2.82c1.03-.52,2.08-.87,3.17-1.05,1.08-.18,2.17-.21,3.25-.1l-3.39-6.68c-.17-.34-.28-.69-.31-1.04s0-.69.09-1.01.25-.62.47-.88c.22-.26.5-.48.84-.65.33-.17.67-.26,1.01-.28.35-.02.68.02,1,.14.32.12.61.29.88.52.27.23.49.52.67.86l7.76,15.31ZM360.44,451.24c-.39-.77-.9-1.42-1.54-1.95-.64-.53-1.33-.92-2.09-1.16-.76-.24-1.55-.34-2.37-.29-.82.05-1.61.27-2.38.66s-1.42.9-1.94,1.54c-.52.63-.91,1.33-1.16,2.08-.25.76-.35,1.55-.29,2.37.06.82.28,1.62.67,2.39.38.76.89,1.4,1.52,1.93s1.32.93,2.08,1.18c.76.25,1.55.35,2.37.3.83-.05,1.62-.27,2.4-.66.77-.39,1.42-.9,1.94-1.54.52-.63.91-1.33,1.16-2.09.25-.76.35-1.56.3-2.38-.05-.83-.27-1.62-.65-2.37Z"/>
    <path class="cls-2" d="M361.41,431.72c-.21-.34-.34-.7-.4-1.08-.05-.38-.04-.75.04-1.1.08-.35.24-.68.46-1s.49-.57.82-.77.68-.33,1.06-.38c.38-.05.75-.04,1.11.04.36.08.7.23,1.01.45.31.22.58.5.79.84.2.33.33.68.38,1.05.05.37.03.74-.06,1.09-.09.36-.25.69-.47,1.01-.22.31-.49.57-.82.77-.33.2-.68.33-1.06.38-.38.06-.75.04-1.1-.04-.35-.08-.68-.23-.99-.45-.31-.21-.57-.48-.77-.81ZM379.2,450.16c.18.3.3.62.36.97.05.34.04.68-.04.99-.08.32-.21.62-.41.9s-.45.52-.76.71c-.3.19-.62.3-.97.36-.34.05-.68.04-1-.03-.33-.07-.63-.21-.91-.41-.28-.2-.52-.45-.7-.75l-8.99-14.59c-.18-.3-.3-.62-.34-.96-.04-.34-.02-.68.06-1.01.08-.33.22-.64.42-.92.2-.28.46-.52.77-.71s.63-.31.96-.36c.33-.04.66-.02.98.06.32.08.62.22.89.42.27.2.5.45.69.75l8.99,14.59Z"/>
    <path class="cls-2" d="M385,438.14c-.73.17-1.49.32-2.3.46s-1.6.18-2.39.12c-.79-.06-1.54-.26-2.27-.6-.72-.34-1.37-.91-1.93-1.7-.58-.82-.95-1.68-1.11-2.59s-.11-1.8.13-2.69c.24-.89.67-1.74,1.28-2.56.61-.82,1.4-1.57,2.35-2.25.55-.39,1.14-.75,1.79-1.08.65-.33,1.3-.59,1.96-.78.66-.19,1.31-.28,1.95-.27.64,0,1.22.15,1.75.42.49.28.86.64,1.09,1.09.23.45.33.89.28,1.32-.03.34-.13.65-.29.94-.16.29-.37.53-.65.73-.21.15-.47.26-.8.33-.39.03-.75.05-1.07.09-.32.03-.63.09-.94.17-.31.08-.61.19-.91.34s-.62.34-.96.58c-.85.6-1.41,1.17-1.68,1.71-.27.54-.24,1.04.09,1.51.18.25.4.4.68.44.28.05.6.04.98-.03s.8-.19,1.28-.35c.48-.17,1.01-.34,1.58-.54.94-.31,1.86-.56,2.78-.75.92-.18,1.8-.24,2.65-.17.85.07,1.64.3,2.39.68.75.38,1.42,1,2.02,1.85.56.78.91,1.63,1.07,2.55s.12,1.84-.1,2.77c-.22.93-.64,1.82-1.24,2.69s-1.38,1.65-2.34,2.33c-.6.43-1.27.82-2.02,1.19-.75.37-1.54.64-2.36.83s-1.65.25-2.49.21c-.84-.04-1.64-.26-2.41-.65-.54-.26-.94-.58-1.21-.95s-.42-.75-.45-1.15c-.04-.4.04-.78.22-1.14.18-.37.45-.67.8-.92.31-.22.69-.39,1.12-.49.44-.1.93-.13,1.48-.07.3.08.62.13.98.14.36,0,.73-.02,1.12-.09s.77-.18,1.16-.34c.39-.16.76-.37,1.13-.63.33-.23.61-.49.84-.76.24-.28.42-.56.55-.85s.19-.57.19-.84c0-.28-.08-.53-.25-.76-.2-.27-.52-.42-.97-.45s-.95.01-1.5.11c-.55.1-1.1.23-1.66.4-.56.17-1.03.32-1.42.43Z"/>
    <path class="cls-2" d="M395.73,428.22c-1.04-1.19-1.79-2.51-2.25-3.95-.45-1.44-.63-2.9-.54-4.36.1-1.47.47-2.88,1.12-4.25.65-1.36,1.56-2.56,2.74-3.59,1.19-1.04,2.51-1.8,3.95-2.26s2.89-.65,4.36-.54,2.87.48,4.23,1.13c1.36.65,2.56,1.57,3.6,2.76,1.03,1.18,1.79,2.49,2.26,3.93.47,1.44.66,2.89.57,4.35-.09,1.46-.46,2.88-1.11,4.25-.65,1.37-1.57,2.57-2.77,3.62-.87.76-1.8,1.36-2.81,1.8-1,.44-2.04.74-3.12.9l4.6,5.25c.25.29.44.6.57.92s.18.65.17.98c-.01.33-.09.65-.23.96-.14.31-.35.6-.64.85-.28.24-.58.42-.92.52s-.67.14-1.01.12c-.34-.02-.67-.11-1-.26-.32-.15-.61-.37-.87-.66l-10.91-12.46ZM399.64,424.79c.56.64,1.21,1.13,1.96,1.49.75.36,1.52.56,2.32.61.8.05,1.59-.04,2.38-.29.78-.25,1.5-.66,2.15-1.23.65-.57,1.15-1.23,1.51-1.97.36-.75.56-1.52.6-2.32.05-.8-.06-1.59-.32-2.37s-.67-1.49-1.23-2.13c-.57-.65-1.22-1.16-1.97-1.52-.74-.36-1.51-.57-2.3-.62-.79-.05-1.58.05-2.37.3-.79.25-1.51.67-2.16,1.23-.64.56-1.13,1.21-1.49,1.96-.36.75-.56,1.52-.62,2.31-.06.8.04,1.59.29,2.38.25.79.67,1.51,1.23,2.16Z"/>
    <path class="cls-2" d="M415.19,410.94c-1.17-1.06-2.07-2.29-2.69-3.67s-.96-2.8-1.03-4.27c-.07-1.47.13-2.92.62-4.35.48-1.43,1.25-2.72,2.31-3.88,1.06-1.17,2.29-2.07,3.66-2.7,1.38-.63,2.8-.98,4.26-1.04,1.46-.07,2.91.15,4.33.64,1.42.49,2.72,1.27,3.9,2.33l6.29,5.71c.27.25.48.53.63.84s.23.64.24.98c.02.34-.03.68-.15,1.02-.11.34-.29.65-.54.92-.42.46-.91.73-1.47.8-.56.07-1.1-.03-1.61-.29-.1,1.14-.36,2.24-.78,3.29-.42,1.06-1.02,2.02-1.8,2.88-1.05,1.16-2.27,2.05-3.64,2.68-1.37.62-2.8.97-4.26,1.04s-2.92-.13-4.36-.62-2.74-1.25-3.9-2.31ZM418.69,407.08c.63.57,1.33.99,2.12,1.26.78.27,1.58.38,2.38.34.8-.04,1.58-.23,2.33-.56s1.41-.83,1.99-1.47c.58-.64,1-1.35,1.27-2.14.27-.78.38-1.57.33-2.37-.04-.8-.24-1.57-.59-2.32-.35-.75-.84-1.41-1.46-1.98-.64-.58-1.35-1.01-2.13-1.28-.78-.27-1.56-.39-2.35-.35-.79.04-1.56.23-2.32.57-.75.34-1.42.83-2,1.47-.57.63-.99,1.33-1.26,2.12s-.38,1.57-.35,2.37c.03.8.22,1.57.56,2.33.34.75.83,1.42,1.47,2Z"/>
    <path class="cls-2" d="M443.74,390.76c.28.21.51.46.69.76.18.29.29.6.33.92.04.32.03.64-.05.97-.07.33-.21.63-.42.91-.22.29-.48.53-.79.72-.3.18-.62.3-.94.36-.32.06-.66.05-1-.02-.34-.08-.65-.22-.94-.43l-6.22-4.63c-1.32-.98-2.38-2.16-3.17-3.54-.79-1.38-1.3-2.83-1.52-4.35-.22-1.52-.15-3.06.21-4.6.36-1.54,1.03-2.97,2-4.28l.03-.04c.52-.69,1.11-1.08,1.78-1.17.67-.09,1.31.09,1.92.54.29.22.53.48.7.79.17.31.28.63.31.97.04.34.01.68-.07,1.02-.09.34-.24.66-.46.96l-.03.04c-.54.73-.92,1.53-1.13,2.4-.21.87-.25,1.73-.13,2.58.12.85.4,1.67.84,2.45.43.78,1.02,1.45,1.77,2l6.28,4.67Z"/>
    <path class="cls-2" d="M430.74,365.85c-.33-.22-.61-.49-.82-.81-.21-.32-.36-.66-.43-1.01-.08-.35-.08-.72-.02-1.1.07-.38.2-.73.41-1.05.21-.32.47-.59.79-.8.32-.21.66-.36,1.02-.44.36-.08.73-.09,1.1-.02s.73.21,1.07.42c.32.21.59.47.79.79.21.32.34.65.41,1.01.07.36.07.73,0,1.11-.06.38-.2.73-.41,1.05-.21.32-.47.59-.79.8-.32.21-.66.36-1.01.43-.35.08-.72.08-1.09.02-.37-.06-.72-.2-1.04-.41ZM454.7,374.93c.29.19.54.43.73.72.19.29.33.59.39.91.07.32.07.65.02.99-.06.33-.18.66-.39.97-.19.29-.43.54-.72.73-.29.19-.6.33-.92.4s-.66.08-1,.02c-.34-.06-.66-.19-.96-.38l-14.36-9.35c-.29-.19-.53-.43-.72-.72s-.31-.6-.38-.93c-.07-.33-.07-.67-.01-1.01.06-.34.19-.67.39-.98.2-.31.44-.55.72-.73.28-.18.58-.3.91-.37s.66-.06.99,0c.33.06.64.19.94.38l14.36,9.35Z"/>
    <path class="cls-2" d="M443.41,355.5l4.03-7.32c.18-.32.4-.59.68-.81.27-.21.57-.37.9-.46.33-.09.66-.12,1.01-.09.35.04.68.14,1,.32.31.17.57.39.77.66.21.27.36.57.44.89s.11.66.08,1c-.04.35-.14.68-.32,1l-4.03,7.32,5.32,2.93c.74.41,1.52.65,2.33.72.81.07,1.59,0,2.35-.23.75-.22,1.45-.59,2.1-1.1.65-.51,1.18-1.15,1.59-1.9.37-.67.62-1.35.75-2.03s.11-1.38-.06-2.11c-.09-.36-.13-.73-.12-1.11.02-.38.11-.72.29-1.05.29-.52.73-.88,1.34-1.1.36-.13.73-.16,1.09-.1s.71.2,1.03.4c.32.2.59.46.82.77s.4.66.5,1.04c.35,1.29.43,2.59.24,3.91-.19,1.32-.63,2.61-1.32,3.87-.76,1.39-1.74,2.55-2.92,3.47-1.19.93-2.48,1.6-3.88,2.02-1.4.42-2.85.56-4.35.41s-2.95-.59-4.33-1.36l-13.5-7.43c-.32-.18-.59-.41-.8-.69s-.36-.58-.46-.91-.12-.66-.09-1.01.14-.67.31-.98c.17-.31.39-.57.66-.77s.57-.36.89-.44c.32-.09.66-.11,1-.08.35.04.68.14,1,.32l3.66,2.01Z"/>
    <path class="cls-2" d="M446.66,337.79c-.36-.17-.67-.39-.93-.68s-.45-.6-.58-.94c-.13-.34-.19-.7-.18-1.08,0-.38.09-.75.25-1.1.16-.35.38-.65.67-.91.28-.26.6-.45.94-.59s.71-.2,1.09-.19c.38,0,.76.1,1.12.26.35.16.65.38.9.66.25.28.44.59.56.94s.18.71.17,1.09c0,.38-.09.75-.25,1.1-.16.35-.38.65-.67.91-.28.26-.6.45-.94.58-.34.13-.7.19-1.07.18-.38,0-.74-.09-1.09-.25ZM471.71,343.21c.32.15.6.35.83.6.24.26.41.54.52.85.11.31.17.63.16.97,0,.34-.09.68-.24,1.01-.15.32-.35.6-.6.83-.26.23-.54.41-.85.53-.31.12-.64.18-.99.17-.35,0-.68-.09-1-.23l-15.59-7.12c-.32-.15-.59-.35-.82-.61-.22-.26-.4-.55-.51-.87-.12-.32-.17-.65-.16-1,0-.35.09-.69.24-1.02.15-.33.35-.61.6-.83.25-.22.53-.39.85-.5.31-.11.64-.16.98-.15.34.01.67.09.99.24l15.59,7.12Z"/>
    <path class="cls-2" d="M465.96,335.56c-1.49-.54-2.78-1.33-3.87-2.38-1.09-1.04-1.95-2.23-2.57-3.56-.62-1.33-.98-2.75-1.07-4.26s.13-3,.67-4.47c.54-1.49,1.33-2.79,2.37-3.89s2.22-1.96,3.55-2.58c1.33-.61,2.75-.96,4.25-1.05,1.5-.08,3,.14,4.49.69,1.47.54,2.76,1.32,3.87,2.35,1.11,1.03,1.97,2.21,2.6,3.54.63,1.33.98,2.74,1.07,4.26.09,1.51-.14,3.01-.68,4.5-.54,1.47-1.32,2.76-2.36,3.86-1.04,1.1-2.22,1.96-3.55,2.58s-2.76.98-4.27,1.08c-1.52.1-3.01-.12-4.49-.66ZM467.74,330.67c.8.29,1.61.41,2.43.36s1.6-.24,2.33-.58c.73-.34,1.37-.81,1.94-1.4.56-.59,1-1.3,1.29-2.11.29-.81.42-1.63.37-2.46s-.24-1.6-.59-2.32c-.34-.72-.82-1.36-1.42-1.92-.61-.56-1.31-.98-2.1-1.27-.81-.29-1.63-.42-2.45-.38-.82.04-1.59.23-2.31.57-.72.33-1.36.8-1.93,1.41-.57.6-1,1.31-1.29,2.12-.29.8-.41,1.61-.36,2.43s.24,1.6.57,2.33c.33.73.8,1.37,1.4,1.94s1.31,1,2.12,1.29Z"/>
    <path class="cls-2" d="M488.34,291.15c.36.08.67.23.94.44.27.21.5.44.67.71.17.27.29.57.34.91.05.33.04.67-.05,1.01-.08.34-.22.66-.42.95-.2.29-.44.52-.72.7-.28.18-.59.3-.93.37s-.68.06-1.04-.03l-8.68-2.08c-.12-.03-.22-.06-.27-.09-.77-.15-1.52-.17-2.26-.05-.74.12-1.41.36-2.02.72-.61.36-1.14.83-1.58,1.41-.44.58-.76,1.25-.94,2.03-.19.79-.22,1.56-.09,2.3s.39,1.41.79,2c.4.6.91,1.12,1.54,1.55.63.44,1.34.75,2.13.94l8.8,2.11c.36.09.67.23.95.42.27.2.5.44.67.71.17.28.28.58.34.91.05.33.04.67-.05,1.03-.08.34-.22.65-.42.94-.2.28-.44.52-.72.7s-.59.31-.93.38-.68.06-1.04-.03l-8.8-2.11c-1.49-.36-2.83-.96-4-1.81-1.17-.85-2.13-1.86-2.88-3.03s-1.25-2.47-1.5-3.89c-.25-1.42-.2-2.87.15-4.34.36-1.49.97-2.81,1.83-3.95.87-1.14,1.9-2.06,3.09-2.76s2.51-1.16,3.94-1.39c1.43-.23,2.89-.16,4.38.2l8.8,2.11Z"/>
  </g>
  <path class="cls-2" d="M339.63,298.4c-6.12,9.73-12.1,18.88-17.67,28.27-2.49,4.2-5.58,5.95-10.46,5.81-10.09-.27-20.2.03-30.29-.13-8.75-.14-12.75-6.2-9.58-14.38,1.08-2.79,2.55-5.45,3.92-8.12,1.33-2.58,2.2-5.23.79-8-5-9.82-2.31-19.78-.37-29.62,1.05-5.32-.07-7.38-5.86-7-7.06.47-14.18.26-21.26.06-4.08-.12-5.99,1.26-5.73,5.55.23,3.64-.06,7.3.05,10.95.12,3.89-.9,7.35-4.02,9.73-3.83,2.92-3.99,6.59-3.42,10.92.98,7.44,1.57,14.93,2.18,22.41.41,5.09-2.07,7.82-7.22,7.48-7.62-.5-15.49,1.76-22.82-2.05-2.23-1.16-4.14.36-6.13,1.02-10.28,3.37-14.56,1.45-18.5-8.32-1.36-3.39-2.51-6.88-4.1-10.15-3.79-7.86-3.52-15.42,1.54-22.54,3.65-5.13,4.2-10.06.52-15.39-1.2-1.74-2.25-3.77-2.74-5.81-2.92-12.18-11.25-15.65-22.93-17.05-11.45-1.37-21.64-.18-31.6,5.28-2.62,1.44-5.5,2.42-8.31,3.5-9.75,3.77-16.99,2.04-23.36-6.33-13.27-17.44-13.77-14.73,1.35-29.31,6.3-6.07,9.1-13.95,13.01-21.28,1.78-3.35,3.56-6.36,7.72-7.01,2.61-.41,3.65-2.1,4.55-4.64,3.94-11.2,15.25-14,24.06-5.83,2.6,2.41,4.15,2.22,6.4.22,13.1-11.59,28.43-16.36,45.8-15.09,6.44.47,12.24-1.5,17.6-5.1,14.39-9.64,29.5-17.69,47.05-19.83,35.86-4.39,65.74,7.48,89.06,34.61,12.43,14.46,15.88,32.59,15.36,51.32-.16,5.63.82,10.49,4.12,15.09,3,4.18,5.13,9.01,8.3,13.03,8.82,11.21,12.21,23.66,11.14,37.89-.51,6.73-1.97,12.43-6.06,17.82-12.82,16.89-12.71,16.97-33.87,15.97-8.06-.38-12.04-5.97-9.51-13.58.74-2.23,1.75-4.43,3.01-6.4,3.05-4.77,3.07-9.16-1.73-14ZM297.79,321.18c2.79,0,5.6-.21,8.37.05,3.96.37,6.21-1.45,8.35-4.63,14.07-20.93,25.98-42.93,34.21-66.86,2.68-7.8,4.72-15.65,4.15-23.91-1.77-25.92-14.4-44.82-37.1-57.26-15.47-8.47-31.78-12.24-49.49-10.79-16.16,1.33-30.4,7.32-43.49,16.3-8.99,6.16-18.38,9.51-29.52,8.88-13.8-.78-26.24,3.43-36.71,12.85-2.7,2.43-5.56,4.81-8.68,6.64-6.07,3.56-10.71,1.86-12.52-4.3-.54-1.85-.5-4.3-3.14-3.97-2.41.3-2.57,2.66-2.48,4.61.23,5.21-2.12,8.07-7.34,8.66-3.84.43-5.87,2.95-7.46,6.28-3.41,7.15-6.72,14.28-12.86,19.82-6.99,6.31-6.63,6.74-.57,13.9,3.07,3.62,6.58,3.69,10.43,2.13,5.97-2.41,11.85-5.05,17.8-7.52,4.58-1.91,9.29-3.66,14.34-3.08,18.74,2.16,37.7,3.73,53.17,16.51,1.31,1.08,2.93,1.79,4.38,2.7,6.14,3.87,6.75,6.17,3.18,12.7-3.5,6.41-6.53,13.17-10.76,19.06-6.02,8.37-6.33,16.48-1.26,25.1,1.16,1.98.79,5.84,4.62,4.93,2.89-.68,3.91-3.32,3.59-6.11-.5-4.46,1.84-7.16,5.03-9.73,7.18-5.8,14.09-11.94,21.35-17.65,3.38-2.66,4.7-5.63,4.62-9.9-.21-12.24-.08-24.48,0-36.73.02-3.74,1.78-6.29,5.82-6.16,3.71.12,5.16,2.65,5.26,6.06.09,3,.2,6.02.04,9.02-.21,3.83,1.31,5.43,5.24,5.36,9.45-.16,18.9-.14,28.35,0,3.18.05,5.2-1.28,6.94-3.76,2.59-3.69,5.33-7.28,8.1-10.83,2.73-3.51,5.5-8.56,10.74-4.81,5.26,3.77,1.49,7.93-1.18,11.59-1.65,2.25-3.34,4.47-5,6.72-10.61,14.43-12.93,30.3-8.11,47.35.89,3.13,1.67,6.06.51,9.4-1.27,3.65-6.15,7.6-3.35,10.59,1.97,2.09,7.72.64,11.78.76.21,0,.43,0,.64,0ZM359.21,255.35c-3.2,7.88-5.65,14.96-8.9,21.65-2.82,5.8-2.71,10.88.81,16.24,4.98,7.59,7.59,15.39,1.2,23.71-1.95,2.54-1.32,4.07,2.37,4.29,9.05.55,20.42-11.63,21.81-21.91,2.41-17.77-8.4-29.75-17.29-43.99ZM223.84,304.72c-3.16,2.56-5.42,4.5-7.8,6.3-2.74,2.07-2.86,4.38-1.32,7.28,2,3.78,5.39,3.16,8.43,2.61,3.28-.59,2.41-3.63,2.24-5.82-.25-3.15-.91-6.27-1.55-10.37Z"/>
</svg>