<?xml version="1.0" encoding="UTF-8"?>
<svg id="Badges" xmlns="http://www.w3.org/2000/svg" viewBox="0 0 500 500">
  <defs>
    <style>
      .cls-1 {
        stroke: #fff;
      }

      .cls-1, .cls-2 {
        stroke-miterlimit: 10;
      }

      .cls-1, .cls-3 {
        fill: #0c4d53;
      }

      .cls-2 {
        fill: none;
        stroke: #0c4d53;
        stroke-linecap: round;
        stroke-width: 8px;
      }

      .cls-3 {
        stroke-width: 0px;
      }
    </style>
  </defs>
  <g>
    <path class="cls-3" d="M180.56,447.79c1.51.52,2.83,1.3,3.95,2.32s2,2.19,2.65,3.51c.64,1.32,1.02,2.73,1.13,4.25.11,1.52-.1,3.03-.62,4.52-.52,1.5-1.29,2.8-2.3,3.9-1.02,1.1-2.19,1.97-3.51,2.61-1.32.63-2.74,1-4.26,1.1s-3.03-.11-4.54-.63l-5.83-2.02-1.74,5.01c-.12.33-.29.63-.52.89-.23.26-.5.45-.8.59-.3.13-.62.21-.96.24-.34.03-.68-.02-1.03-.14-.33-.12-.63-.29-.89-.52s-.46-.49-.61-.78c-.15-.29-.23-.61-.25-.95s.02-.69.14-1.02l8.36-24.13c.12-.35.3-.65.53-.91.23-.26.5-.46.79-.6.29-.14.62-.23.96-.25.35-.02.69.02,1.02.14l8.32,2.88ZM173,450.68l-4.07,11.75,5.92,2.05c.82.28,1.64.39,2.47.32.83-.07,1.6-.28,2.31-.63s1.35-.83,1.89-1.43c.55-.6.95-1.28,1.22-2.05.27-.77.37-1.57.31-2.38-.06-.82-.26-1.59-.6-2.33s-.81-1.39-1.4-1.96-1.3-1-2.12-1.28l-5.92-2.05Z"/>
    <path class="cls-3" d="M187.66,470.73c.34-1.55.96-2.93,1.86-4.15.89-1.22,1.96-2.22,3.2-3.01,1.24-.79,2.6-1.32,4.08-1.61s2.99-.26,4.52.09c1.55.35,2.93.96,4.16,1.85,1.23.89,2.23,1.95,3.01,3.19.78,1.24,1.31,2.6,1.58,4.08s.24,2.99-.1,4.54c-.34,1.53-.95,2.91-1.83,4.14s-1.94,2.24-3.17,3.03c-1.23.79-2.6,1.33-4.08,1.61s-3.01.25-4.55-.09c-1.53-.34-2.91-.96-4.13-1.84-1.22-.89-2.22-1.95-3.01-3.19-.79-1.24-1.33-2.61-1.62-4.1s-.26-3,.08-4.53ZM192.74,471.87c-.18.83-.2,1.65-.05,2.46.15.81.45,1.56.88,2.24.43.68.98,1.26,1.64,1.74.66.48,1.42.82,2.26,1.01.84.19,1.67.21,2.48.05.81-.15,1.55-.45,2.23-.88.67-.43,1.24-.98,1.72-1.66.48-.67.81-1.42.99-2.25.19-.84.21-1.67.06-2.48s-.43-1.55-.86-2.22c-.42-.67-.97-1.25-1.64-1.73-.67-.49-1.43-.82-2.27-1.01-.83-.18-1.65-.2-2.46-.04-.81.15-1.56.44-2.23.87-.68.42-1.26.97-1.74,1.64-.49.67-.82,1.43-1.01,2.27Z"/>
    <path class="cls-3" d="M221.33,483.12c.37.05.7.17.99.35.3.19.54.42.73.69.19.28.33.58.41.92.08.33.1.68.06,1.02-.1.73-.42,1.3-.96,1.71-.54.41-1.18.57-1.93.47-1.08-.14-2.06-.46-2.96-.95-.9-.49-1.66-1.11-2.28-1.86s-1.08-1.61-1.37-2.58c-.29-.98-.38-2.02-.26-3.13l2.76-20.6c.05-.36.16-.7.34-1,.18-.3.39-.55.65-.75.25-.2.54-.35.86-.44s.65-.12,1-.07c.37.05.7.16,1,.34.3.18.56.4.77.66.21.26.37.56.47.9.1.34.13.69.08,1.05l-2.74,20.43c-.11.82.06,1.48.51,1.96.45.48,1.07.77,1.87.88Z"/>
    <path class="cls-3" d="M235.99,484.42c.37.03.7.12,1.01.29.31.17.57.38.77.64.21.26.36.56.46.89.1.33.14.67.12,1.02-.05.73-.34,1.32-.85,1.77-.51.44-1.15.64-1.9.58-1.08-.08-2.09-.33-3.01-.77s-1.72-1.01-2.39-1.71-1.18-1.54-1.53-2.49c-.35-.96-.5-1.99-.45-3.11l1.49-20.73c.03-.37.12-.71.28-1.01.16-.31.36-.57.6-.79.24-.22.52-.38.83-.49.31-.11.64-.16,1-.13.37.03.71.12,1.01.28.31.16.58.36.81.61.23.25.41.54.53.87.12.33.17.68.14,1.04l-1.48,20.56c-.06.83.15,1.47.63,1.92.48.45,1.12.71,1.92.76Z"/>
    <path class="cls-3" d="M248.02,479.29c.01.82.17,1.58.48,2.28s.73,1.32,1.25,1.84,1.15.93,1.87,1.22c.72.29,1.48.43,2.3.42.83-.01,1.57-.18,2.22-.5s1.2-.75,1.65-1.3c.45-.54.79-1.18,1.03-1.9.24-.72.35-1.49.34-2.31l-.14-8.88c0-.37.06-.71.2-1.02.14-.31.33-.59.57-.83.24-.24.53-.42.84-.57.32-.14.65-.21,1-.22.37,0,.71.06,1.01.19.31.13.58.31.81.54.24.23.42.5.55.81.13.31.2.65.21,1.02l.14,8.81c.03,1.54-.21,2.99-.71,4.36s-1.2,2.57-2.11,3.6c-.91,1.03-2.01,1.85-3.3,2.47-1.29.61-2.7.93-4.23.96-1.54.02-2.98-.24-4.32-.81-1.35-.56-2.52-1.34-3.53-2.33-1.01-.99-1.81-2.16-2.41-3.49-.6-1.33-.91-2.76-.93-4.28l-.14-8.93c0-.37.06-.71.19-1.02s.31-.59.54-.83c.23-.24.5-.42.82-.57.32-.14.65-.21,1-.22s.69.06,1.01.19.61.31.85.54c.24.23.44.5.58.81.14.31.21.65.22,1.02l.14,8.95Z"/>
    <path class="cls-3" d="M273.43,466.5l8.29-1.01c.37-.04.71-.02,1.05.08.33.1.63.25.9.46s.49.46.66.77c.17.3.28.63.33,1,.04.35.02.69-.08,1.01s-.25.62-.46.88-.47.48-.77.65c-.3.17-.63.28-1,.33l-8.29,1.01.73,6.03c.1.84.36,1.61.78,2.31.42.7.93,1.29,1.56,1.77.62.48,1.33.83,2.12,1.06.79.23,1.62.29,2.48.18.76-.09,1.46-.29,2.08-.58s1.19-.72,1.68-1.28c.24-.29.52-.53.83-.74.31-.21.65-.33,1.02-.38.59-.07,1.15.08,1.67.45.32.22.56.5.72.83.16.33.25.69.27,1.07s-.03.75-.14,1.12c-.12.37-.3.71-.55,1.01-.84,1.04-1.85,1.87-3.03,2.49-1.18.62-2.49,1.02-3.92,1.19-1.57.19-3.08.08-4.53-.34-1.45-.42-2.75-1.08-3.9-1.97-1.16-.89-2.12-1.99-2.88-3.29-.76-1.3-1.24-2.74-1.43-4.31l-1.86-15.29c-.04-.37-.01-.72.09-1.05s.26-.64.47-.9c.21-.27.46-.49.77-.66.3-.17.63-.28.98-.32.35-.04.69-.02,1.01.08s.62.25.88.46c.26.21.48.47.65.77.17.3.28.63.33,1l.5,4.15Z"/>
    <path class="cls-3" d="M289.72,458.78c-.08-.39-.08-.78,0-1.15.08-.38.22-.71.42-1.01s.46-.56.78-.78.66-.36,1.04-.44c.38-.08.75-.07,1.13,0,.38.08.72.22,1.03.42.31.2.57.46.79.77.22.32.37.67.44,1.06.08.38.07.75-.01,1.12-.08.37-.23.7-.44,1s-.47.56-.79.78c-.32.22-.66.36-1.04.44-.38.08-.75.07-1.13,0-.38-.08-.71-.22-1.01-.42s-.56-.46-.78-.76-.36-.65-.44-1.03ZM299.95,482.27c.07.35.07.69,0,1.03-.07.34-.2.65-.38.92-.18.27-.41.51-.69.7-.28.19-.6.33-.96.4-.35.07-.69.07-1.03,0-.34-.07-.65-.2-.93-.38-.28-.18-.52-.42-.71-.7-.2-.29-.33-.6-.4-.95l-3.33-16.81c-.07-.34-.06-.68.02-1.02.08-.33.22-.64.4-.92s.43-.52.71-.72c.29-.2.61-.33.97-.4.36-.07.7-.07,1.03,0,.32.08.62.21.9.4.27.19.5.43.69.71.19.28.31.59.38.94l3.33,16.81Z"/>
    <path class="cls-3" d="M302.8,473.14c-.43-1.52-.54-3.03-.33-4.53.21-1.5.67-2.89,1.39-4.17.72-1.28,1.66-2.4,2.83-3.36s2.51-1.64,4.02-2.07c1.52-.43,3.04-.55,4.54-.35s2.89.66,4.17,1.38c1.28.72,2.39,1.67,3.33,2.84s1.64,2.52,2.07,4.04c.43,1.51.54,3.01.35,4.51-.19,1.5-.64,2.89-1.35,4.17-.71,1.28-1.65,2.4-2.83,3.36-1.18.96-2.53,1.65-4.05,2.08-1.51.43-3.01.54-4.51.34-1.5-.2-2.88-.66-4.17-1.38-1.28-.72-2.41-1.66-3.37-2.84-.96-1.17-1.66-2.51-2.09-4.02ZM307.81,471.73c.23.82.61,1.55,1.13,2.19s1.13,1.16,1.84,1.55c.7.39,1.46.64,2.27.75.81.11,1.63.05,2.47-.19.83-.24,1.57-.61,2.21-1.14.64-.52,1.15-1.13,1.54-1.83.38-.7.63-1.46.73-2.28.1-.82.04-1.63-.19-2.45-.24-.83-.61-1.57-1.12-2.21-.52-.64-1.12-1.16-1.81-1.55-.69-.39-1.45-.63-2.27-.74-.82-.11-1.65-.04-2.48.19-.82.23-1.54.61-2.19,1.13-.64.52-1.16,1.13-1.55,1.82-.39.69-.65,1.45-.75,2.27-.11.82-.04,1.65.19,2.48Z"/>
    <path class="cls-3" d="M351.92,465.35c.14.34.21.68.2,1.02,0,.34-.07.66-.19.96-.12.3-.3.57-.54.8-.24.24-.52.42-.85.56-.33.13-.66.2-1.02.21-.35,0-.68-.05-.99-.18-.31-.12-.59-.3-.84-.54-.25-.23-.45-.52-.59-.86l-3.39-8.26c-.05-.12-.08-.21-.09-.28-.33-.71-.75-1.33-1.28-1.86-.53-.53-1.12-.93-1.77-1.22-.65-.29-1.34-.44-2.07-.46-.73-.02-1.46.12-2.2.42-.75.31-1.39.73-1.92,1.27-.52.54-.91,1.14-1.16,1.81-.25.67-.37,1.39-.36,2.16.01.77.17,1.53.48,2.28l3.43,8.37c.14.34.21.68.21,1.02s-.06.66-.19.96c-.13.3-.31.57-.54.8-.23.23-.52.42-.86.56-.33.13-.66.2-1,.21s-.68-.06-.99-.18c-.32-.12-.6-.3-.85-.53-.25-.23-.45-.52-.59-.86l-3.43-8.37c-.58-1.42-.87-2.85-.87-4.3,0-1.45.26-2.81.78-4.11.52-1.29,1.28-2.46,2.28-3.49,1-1.03,2.21-1.84,3.61-2.42,1.42-.58,2.85-.86,4.28-.82s2.78.33,4.05.89c1.27.56,2.41,1.35,3.43,2.38,1.02,1.03,1.82,2.25,2.4,3.67l3.43,8.37Z"/>
  </g>
  <path class="cls-2" d="M154.1,456.86C73.54,420.34,17.5,339.21,17.5,245,17.5,116.59,121.59,12.5,250,12.5s232.5,104.09,232.5,232.5c0,89.65-50.75,167.46-125.08,206.25"/>
  <g>
    <path class="cls-1" d="M208.24,250.56c4.21-.95,7.61-1.72,11.43-2.58-1.72-10.91-3.46-21.85-5.16-32.81-.44-2.8-.97-5.62-1.08-8.44-.26-7.26,4.56-13.24,11.35-14.35,7.31-1.2,13.85,2.79,15.8,10.03,1.14,4.25,1.71,8.65,2.54,12.97.98.11,1.58.31,2.14.23,5.37-.84,10.73-1.72,16.86-2.72-.56-3.72-1.08-7.24-1.62-10.75-1.35-8.72,3.26-15.81,11.25-17.3,7.9-1.46,14.8,3.64,16.26,12.48,3.45,20.87,6.71,41.78,10.27,64.03,4.49-9.86,8.46-18.63,12.47-27.39,5.66-12.38,13.19-15.07,25.34-9.03,11.21,5.57,22.43,11.13,33.6,16.8,10.21,5.18,12.82,12.63,8.15,23.14-3.27,7.36-6.66,14.65-10.18,22.38,1.6.18,2.59.48,3.52.36,6.13-.81,8.14,2.55,8.83,8.03,1.54,12.27,3.4,24.49,5.17,36.73.23,1.58.68,3.13,1,4.56.57.27.92.55,1.28.58,3.39.26,7.83-.2,7.79,4.58-.05,5.21-4.69,4.59-8.28,4.59-91.96.02-183.93.02-275.89.01-1.21,0-2.75.39-3.57-.19-1.75-1.27-3.11-3.06-4.64-4.64,1.51-1.38,3.21-4.1,4.51-3.92,5.71.78,7.42-2.75,8.91-6.96,3.39-9.61,8.31-17.85,18.35-22,1.43-.59,2.65-2.92,3-4.64.96-4.76,1.74-9.61,1.97-14.45.26-5.41,3.07-7,7.89-6.69,2.37.15,4.76.03,8.2.03-2.01-3.73-3.43-6.57-5.03-9.31-5.1-8.73-6.14-17.81-2.97-27.48.79-2.42,1.13-5.22.74-7.7-.22-1.39-2.17-3.16-3.67-3.58-6-1.69-11.38-7.41-12.08-13.61-.71-6.25,3.53-8.95,8.15-11.46,5.33-2.89,10.62-5.86,15.84-8.93,4.35-2.56,8.95-3.94,12.77.09,4.02,4.25,8.16,9.41,5.33,15.69-2.19,4.86-.09,7.71,3.47,8.39,15.1,2.88,24.72,11.95,29.98,25.24ZM206.43,336.42c.14.41.28.82.42,1.22,2.13,0,4.25,0,6.38,0,39.95,0,79.91-.32,119.85.25,8.8.13,13.78-2.03,16.31-10.6.92-3.11,1-5.07-1.05-7.55-4.76-5.77-9.53-11.57-13.75-17.73-2.81-4.1-5.88-4.98-10.64-4.3-20.96,2.98-41.98,5.51-62.96,8.3-5.58.74-12.1.26-16.47,3.05-13.15,8.4-25.46,18.14-38.1,27.36ZM313.14,250.23c-6.44,14.26-12.62,27.92-19.19,42.46,12.3-1.57,23.51-2.77,34.62-4.55,4.22-.67,6.87.44,9.29,3.75,3.43,4.7,7.17,9.17,11.22,14.31,5.24-11.42,10.14-22.1,15.2-33.11-17.3-7.73-33.97-15.19-51.14-22.86ZM186.51,281.32c6.4-2.84,7.58-14.24,17.21-8.51,2.69-5.03,2.39-9.4-.68-13.9-2.72-4-4.2-9-7.4-12.47-3.81-4.13-8.4-8.52-13.51-10.23-6.74-2.25-12.7-4.74-16.86-10.97-3.41,1.96-6.49,3.74-8.62,4.96.27,5.64,2.08,11.03.45,15-5.66,13.78.38,24.29,7.93,35.27,1.53-2.45,2.9-4.67,4.29-6.87,4.1-6.5,6.62-6.65,11.11-.63,2.05,2.75,4.04,5.54,6.09,8.35ZM287.06,247.63c-2.75-17.37-5.11-33.4-8.04-49.32-.34-1.83-3.83-3.08-5.86-4.6-1.29,2.17-3.6,4.31-3.64,6.5-.09,4.4.79,8.89,1.77,13.22,1.12,4.96-.79,7.28-5.51,8.01-7.98,1.24-15.96,2.51-23.93,3.84-4.61.77-6.77-1.26-7.33-5.76-.55-4.42-.87-9-2.36-13.12-.79-2.18-3.88-3.53-5.93-5.26-1.28,2.2-3.89,4.57-3.63,6.58,1.73,13.62,4.06,27.16,6.14,40.34,6.55,2.56,8.08-1.88,9.47-5.87,2.16-6.19,5.97-7.69,12.22-6.17,7.99,1.94,14.26,6.09,18.99,12.64q10.77-8.86,17.63-1.04ZM235.56,304.08c-12.56-7.98-24.11-15.31-35.93-22.82-2.53,2.82-4.8,5.36-7.48,8.36,2.63,3,4.67,6.52,7.7,8.57,6.85,4.64,14.13,8.65,21.37,12.66,1.27.7,3.58.74,4.81.04,3.11-1.77,5.89-4.14,9.53-6.79ZM191.7,313.56c-6,3.27-11.37,5.74-16.13,9.08-1.32.93-.83,4.45-1.16,6.78,2.31-.1,4.77.27,6.88-.42,3.89-1.27,7.69-2.97,11.3-4.91,2-1.07,3.54-3,5.29-4.54-1.75-1.7-3.51-3.41-6.17-6ZM163.35,319.74c-2.77-1.96-4.32-3.97-6.04-4.11-7.23-.59-13.63,1.91-18.39,7.39-1.16,1.33-.48,4.27-.65,6.46,2.17-.04,4.5.43,6.46-.22,4.28-1.41,8.43-3.28,12.52-5.21,1.79-.84,3.29-2.3,6.09-4.31Z"/>
    <path class="cls-1" d="M377.61,165.26c-1.73,4.89-3.06,9.98-5.42,14.55-.83,1.62-4.16,1.94-6.34,2.85-.44-2.28-1.99-5.17-1.14-6.74,5.17-9.49,3.5-17.74-2.88-25.91-6.36-8.14-9.36-17.41-7.32-27.9.64-3.28,1.26-6.99,5.64-6.4,4.61.63,3.77,4.14,3.13,7.56-1.59,8.55,1.17,15.97,6.44,22.63,4.4,5.56,7.14,11.74,7.9,19.36Z"/>
    <path class="cls-1" d="M328.8,134.44c-4.03,12.52,1.62,21.19,7.75,30.1,6.54,9.51,6.32,19.88.59,29.77-1.06,1.84-4.74,3.81-6.47,3.28-3.9-1.2-2.84-4.53-1.21-7.46,4.79-8.66,3.31-16.58-2.59-24.21-7.13-9.23-10.71-19.52-7.14-31.17.53-1.73,3.17-3.57,5.06-3.86,1.19-.18,2.81,2.41,4.01,3.54Z"/>
    <path class="cls-1" d="M187.11,114.56c-3.17,11.65.64,19.91,6.6,27.89,7.51,10.04,7.94,20.97,1.79,31.81-1.03,1.82-4.35,2.33-6.61,3.45-.41-2.44-1.94-5.46-1.03-7.21,4.68-9.04,3.48-17-2.64-24.8-7.08-9.03-10.32-19.23-7.24-30.62.5-1.85,3.35-3.82,5.38-4.18,1.15-.21,2.86,2.75,3.74,3.67Z"/>
    <path class="cls-1" d="M151.73,129.48c-4,12.53,1.66,21.19,7.78,30.1,6.39,9.28,6.33,19.49.82,29.24-1.13,1.99-4.92,4.21-6.76,3.7-3.97-1.11-2.75-4.55-1.15-7.43,4.79-8.68,3.27-16.59-2.62-24.21-7.14-9.23-10.68-19.52-7.13-31.16.53-1.72,3.21-3.54,5.1-3.8,1.2-.17,2.79,2.44,3.96,3.57Z"/>
    <path class="cls-1" d="M261.45,313.64c2.69,2.45,4.37,3.98,6.05,5.52-1.76,1.68-3.28,3.78-5.33,4.95-3.56,2.02-7.35,3.77-11.23,5.03-2.06.67-4.52.09-6.8.07.29-2.15-.2-5.44,1-6.25,4.95-3.39,10.41-6.05,16.31-9.31Z"/>
    <path class="cls-1" d="M326.92,320.2c-.96,4.22-3.29,4.92-6.8,3.69-4.78-1.67-9.7-2.96-14.4-4.84-1.56-.62-3.54-2.49-3.62-3.89-.08-1.42,1.64-3.7,3.11-4.31,5.11-2.12,16.85,1.77,20.32,6.38.68.91.99,2.09,1.39,2.96Z"/>
  </g>
</svg>