<?xml version="1.0" encoding="UTF-8"?>
<svg id="Badges" xmlns="http://www.w3.org/2000/svg" viewBox="0 0 500 500">
  <defs>
    <style>
      .cls-1 {
        stroke: #fff;
      }

      .cls-1, .cls-2 {
        stroke-miterlimit: 10;
      }

      .cls-1, .cls-3 {
        fill: #0c4d53;
      }

      .cls-2 {
        fill: none;
        stroke: #0c4d53;
        stroke-linecap: round;
        stroke-width: 8px;
      }

      .cls-3 {
        stroke-width: 0px;
      }
    </style>
  </defs>
  <path class="cls-2" d="M65.1,385.97c-29.86-39.11-47.6-87.97-47.6-140.97C17.5,116.59,121.59,12.5,250,12.5s232.5,104.09,232.5,232.5c0,49.65-15.56,95.66-42.07,133.42"/>
  <g>
    <path class="cls-3" d="M85.02,386.22c.27-.25.56-.44.89-.56s.65-.18.98-.17c.33,0,.65.08.97.22.32.14.6.34.84.59l6.05,6.4c1.09,1.15,1.9,2.43,2.45,3.83.54,1.4.81,2.83.81,4.28,0,1.45-.3,2.86-.88,4.24-.58,1.38-1.45,2.61-2.6,3.7-.78.74-1.62,1.34-2.54,1.8-.91.47-1.85.79-2.81.97-.96.18-1.93.24-2.92.16-.98-.07-1.95-.27-2.9-.61l-.84,6.9c0,.37-.07.72-.22,1.04-.15.32-.35.59-.6.82-.25.22-.53.4-.85.53-.32.13-.66.18-1.01.16-.36-.01-.69-.08-.98-.21-.29-.13-.54-.31-.75-.53-.45-.48-.67-1.07-.65-1.77l1.05-10.17-4.14-4.38-4.32,4.09c-.26.24-.55.42-.87.54s-.65.17-.98.15c-.33-.02-.65-.1-.96-.23-.31-.13-.6-.33-.85-.6-.24-.26-.42-.55-.54-.87-.12-.33-.18-.65-.18-.97,0-.32.07-.64.21-.96.14-.32.34-.6.59-.84l18.55-17.54ZM86.72,391.78l-8.54,8.08,4.29,4.53c.59.63,1.26,1.11,2,1.46.74.34,1.5.54,2.26.59s1.51-.05,2.25-.29c.74-.25,1.4-.64,1.98-1.19.59-.56,1.04-1.21,1.34-1.95.3-.74.46-1.5.47-2.28.01-.78-.13-1.55-.43-2.32-.3-.77-.74-1.46-1.32-2.07l-4.3-4.55Z"/>
    <path class="cls-3" d="M90.45,427.52c-.23.26-.51.47-.82.62-.31.15-.64.23-.96.25-.33.02-.65-.03-.98-.13s-.62-.28-.9-.53c-.26-.23-.47-.51-.62-.82-.15-.31-.23-.64-.26-.97s.02-.66.13-.99c.11-.33.29-.62.52-.89l11.42-12.78c.23-.26.51-.46.82-.6.32-.14.64-.21.98-.23.34-.02.67.03,1,.14.33.11.63.29.91.54.27.25.48.52.62.82.14.3.21.62.22.96.01.33-.04.66-.15.98-.11.32-.29.61-.52.87l-11.42,12.78ZM103.06,405.21c.27-.3.57-.53.92-.69.35-.16.7-.25,1.06-.27s.72.03,1.09.15c.36.12.69.31.98.57.29.26.51.56.67.91.16.35.25.71.28,1.07.03.37-.02.73-.14,1.1-.12.36-.32.69-.58.99-.26.29-.56.51-.9.66-.34.16-.7.24-1.07.25s-.73-.04-1.1-.16c-.36-.12-.69-.31-.97-.57-.29-.26-.51-.56-.67-.91s-.25-.7-.27-1.06c-.02-.36.03-.72.14-1.08.12-.36.3-.68.56-.97Z"/>
    <path class="cls-3" d="M103.61,429.64c-.37-.65-.73-1.34-1.09-2.07-.36-.73-.63-1.48-.8-2.25-.17-.77-.19-1.55-.08-2.34s.48-1.57,1.08-2.34c.62-.79,1.34-1.39,2.16-1.8s1.69-.62,2.61-.64c.92-.02,1.86.14,2.82.5.96.35,1.9.89,2.82,1.61.53.41,1.05.88,1.55,1.41.5.53.94,1.08,1.31,1.66.37.58.64,1.18.81,1.79.17.61.2,1.21.09,1.79-.13.55-.37,1-.74,1.36-.37.35-.76.57-1.19.64-.33.06-.66.06-.98,0-.32-.07-.62-.21-.88-.41-.2-.16-.38-.38-.54-.67-.14-.37-.27-.71-.39-1-.12-.3-.27-.58-.43-.85-.17-.27-.36-.53-.58-.77-.22-.25-.5-.5-.83-.75-.82-.64-1.53-1.01-2.12-1.12s-1.07.06-1.42.52c-.19.24-.26.5-.23.78.03.28.14.59.31.93s.41.71.7,1.13c.3.41.62.87.96,1.36.57.81,1.07,1.63,1.51,2.46.44.83.74,1.66.91,2.5.17.83.18,1.66.02,2.48-.16.82-.55,1.64-1.19,2.46-.59.76-1.3,1.34-2.14,1.75-.84.41-1.73.64-2.69.69-.95.05-1.93-.09-2.93-.42-1-.33-1.97-.85-2.91-1.58-.58-.45-1.15-.99-1.72-1.6-.57-.61-1.05-1.29-1.46-2.03-.41-.74-.71-1.51-.91-2.33s-.22-1.65-.06-2.5c.1-.59.29-1.07.57-1.43.28-.36.61-.61.98-.76.37-.15.75-.19,1.16-.12.4.07.77.24,1.11.5.3.24.57.55.79.94.22.39.39.86.49,1.4,0,.31.05.63.15.98.09.35.23.7.4,1.04.17.35.39.69.66,1.01.26.33.57.63.92.9.32.25.64.44.97.59.33.15.65.24.97.28.31.04.6.02.87-.06.26-.08.48-.23.66-.46.21-.26.26-.62.15-1.05-.11-.44-.28-.91-.53-1.4-.25-.5-.54-.99-.86-1.48-.32-.48-.59-.9-.82-1.23Z"/>
    <path class="cls-3" d="M115.36,436.58c.84-1.34,1.89-2.43,3.15-3.28,1.25-.85,2.6-1.43,4.03-1.76s2.9-.37,4.39-.14c1.49.23,2.9.76,4.23,1.6,1.34.84,2.44,1.89,3.3,3.14s1.45,2.59,1.76,4.02c.32,1.43.36,2.89.12,4.38s-.78,2.9-1.62,4.24l-8.83,14.01c-.21.33-.46.59-.75.79-.3.2-.61.34-.94.41-.33.07-.67.09-1.02.04-.35-.05-.68-.17-.99-.37-.65-.41-1.03-.96-1.15-1.65s.03-1.36.44-2l3.71-5.89c-1.09.01-2.16-.12-3.21-.4-1.05-.28-2.06-.73-3.04-1.35-1.33-.84-2.42-1.88-3.27-3.12-.85-1.25-1.44-2.59-1.76-4.02s-.37-2.9-.14-4.4c.23-1.5.76-2.92,1.6-4.24ZM119.76,439.36c-.45.72-.74,1.48-.86,2.29-.12.81-.1,1.61.08,2.39.18.78.5,1.51.96,2.19.46.68,1.06,1.25,1.79,1.71.73.46,1.5.75,2.32.88.82.13,1.61.1,2.39-.08.78-.18,1.5-.5,2.17-.97.67-.46,1.23-1.06,1.69-1.77.46-.73.76-1.5.89-2.32.13-.81.11-1.61-.06-2.38-.18-.77-.5-1.5-.96-2.18s-1.07-1.25-1.8-1.71c-.72-.45-1.49-.74-2.3-.87-.82-.13-1.62-.11-2.4.06s-1.51.49-2.19.96-1.25,1.07-1.71,1.8Z"/>
    <path class="cls-3" d="M143.8,453.9c-.35.74-.55,1.49-.59,2.26-.04.77.06,1.5.3,2.21.24.7.62,1.34,1.13,1.92.51.58,1.13,1.05,1.87,1.4.75.36,1.49.54,2.21.54.73,0,1.41-.14,2.05-.42.64-.29,1.23-.7,1.77-1.24s.98-1.18,1.33-1.92l3.84-8.01c.16-.33.37-.61.64-.83s.56-.38.88-.48c.32-.1.66-.14,1.01-.13.35.02.68.1,1,.25.33.16.6.37.82.62.21.25.38.54.49.85.11.31.15.63.13.97s-.11.67-.27,1l-3.81,7.94c-.66,1.38-1.53,2.58-2.58,3.58-1.06,1-2.22,1.76-3.5,2.27-1.28.51-2.63.76-4.05.73-1.42-.03-2.83-.37-4.21-1.04-1.38-.66-2.55-1.55-3.5-2.65-.95-1.1-1.66-2.33-2.12-3.66-.46-1.34-.66-2.74-.59-4.2.06-1.46.42-2.88,1.08-4.25l3.86-8.05c.16-.33.37-.61.62-.83s.54-.39.85-.5.64-.16.99-.14.68.1,1,.25.59.36.82.62c.23.26.4.55.52.86.12.31.17.64.16.98-.01.34-.1.68-.26,1.01l-3.87,8.07Z"/>
    <path class="cls-3" d="M167.29,466.35c0,.63.1,1.23.3,1.82s.47,1.12.83,1.61c.36.49.78.92,1.28,1.28.5.37,1.06.66,1.68.87,1.56.54,2.92.56,4.1.05.38-.11.72-.16,1.05-.16.32,0,.61.05.87.14.42.15.76.39,1.02.72s.43.71.52,1.13c.07.29.09.59.06.9-.03.3-.11.59-.25.87-.14.27-.33.53-.57.76-.24.23-.54.41-.91.54-.44.19-.92.35-1.44.48-.52.13-1.09.21-1.72.23-.63.02-1.3-.02-2.04-.13-.73-.11-1.53-.31-2.39-.61-1.5-.52-2.8-1.29-3.92-2.31-1.12-1.02-2-2.2-2.64-3.52-.64-1.32-1.02-2.74-1.14-4.25-.12-1.51.08-3.01.6-4.51.52-1.5,1.29-2.8,2.32-3.92,1.03-1.12,2.21-1.99,3.53-2.63,1.32-.63,2.74-1.01,4.25-1.12s3.02.09,4.51.61c1.48.51,2.78,1.28,3.89,2.29,1.11,1.01,2,2.17,2.66,3.47.66,1.3,1.05,2.71,1.18,4.21.13,1.5-.05,3-.55,4.48-.24.7-.66,1.18-1.25,1.46-.6.28-1.26.29-1.98.04l-13.83-4.79ZM179.9,466.15c.05-.68-.02-1.33-.2-1.95-.18-.62-.46-1.19-.84-1.71s-.85-.98-1.4-1.38c-.56-.4-1.18-.71-1.88-.96-.7-.24-1.38-.37-2.06-.4-.68-.02-1.32.06-1.94.24-.62.18-1.18.46-1.7.83-.52.37-.96.83-1.34,1.38l11.36,3.94Z"/>
    <path class="cls-3" d="M193.21,473.74c-.6-.44-1.22-.92-1.86-1.43-.63-.51-1.19-1.08-1.66-1.72-.47-.63-.82-1.33-1.04-2.1-.22-.77-.22-1.63,0-2.58.23-.98.64-1.83,1.22-2.53.58-.71,1.28-1.26,2.11-1.67.83-.4,1.75-.64,2.78-.72,1.02-.08,2.1.02,3.24.29.65.16,1.32.37,2,.64.68.27,1.3.59,1.88.97s1.07.81,1.48,1.29.69,1.01.83,1.59c.11.55.08,1.07-.11,1.54-.19.47-.46.83-.81,1.08-.28.2-.58.33-.9.4-.32.07-.65.07-.97-.01-.25-.06-.51-.19-.77-.38-.28-.28-.54-.53-.77-.75s-.48-.42-.75-.6-.55-.33-.85-.46c-.31-.13-.66-.24-1.07-.34-1.01-.24-1.81-.29-2.4-.14-.59.15-.95.5-1.08,1.06-.07.3-.03.56.12.8.15.24.37.48.67.71.3.24.67.48,1.11.73.44.25.92.53,1.44.84.85.5,1.65,1.04,2.39,1.61s1.37,1.2,1.87,1.89c.5.69.85,1.44,1.05,2.25.2.81.18,1.73-.06,2.74-.22.93-.63,1.76-1.22,2.48-.59.72-1.31,1.3-2.16,1.74-.84.44-1.79.72-2.84.84-1.05.12-2.15.04-3.3-.23-.72-.17-1.46-.42-2.23-.74-.77-.32-1.49-.73-2.17-1.23s-1.28-1.08-1.79-1.74c-.52-.66-.88-1.41-1.09-2.25-.16-.58-.18-1.09-.08-1.54.11-.44.3-.81.57-1.1s.61-.48,1-.59c.39-.1.8-.1,1.22,0,.37.09.74.26,1.11.52.37.26.71.62,1.03,1.07.13.28.31.56.54.83.23.28.5.54.8.78.3.25.64.46,1.02.65.38.19.78.33,1.22.44.39.09.76.14,1.13.13.36,0,.69-.05,1-.14s.56-.23.76-.41c.21-.18.34-.41.41-.69.08-.33-.02-.67-.3-1.02-.28-.35-.63-.71-1.07-1.06s-.9-.68-1.39-.99c-.49-.31-.91-.57-1.26-.78Z"/>
    <path class="cls-3" d="M222.97,477.35c-.07.75.02,1.5.26,2.27.24.76.6,1.46,1.08,2.09s1.06,1.16,1.74,1.6c.68.43,1.44.7,2.26.79.86.08,1.63.04,2.31-.11.68-.15,1.38-.48,2.1-.97.34-.24.72-.46,1.13-.65.41-.19.85-.27,1.31-.23.27.03.55.11.84.26.29.15.58.37.88.67.25.26.42.57.53.91.1.34.14.69.1,1.04-.04.36-.15.71-.34,1.04-.18.34-.44.65-.77.94-1.08.91-2.33,1.57-3.74,1.97-1.41.4-2.87.53-4.36.39-1.59-.15-3.06-.58-4.41-1.29-1.35-.71-2.5-1.63-3.46-2.74-.96-1.12-1.67-2.39-2.15-3.83-.48-1.43-.64-2.95-.49-4.54.02-.01.03-.03.03-.05h-.02c.15-1.59.59-3.06,1.32-4.4.74-1.34,1.68-2.47,2.82-3.4,1.15-.93,2.45-1.62,3.91-2.08s2.98-.62,4.58-.47c1.5.14,2.9.52,4.22,1.15,1.32.63,2.42,1.49,3.31,2.59.27.33.47.68.6,1.06s.18.74.15,1.1-.12.7-.3,1.01c-.17.31-.42.58-.73.81-.34.24-.67.4-.96.49s-.58.11-.85.09c-.46-.04-.88-.2-1.25-.47-.37-.27-.71-.55-1.02-.85-.62-.57-1.25-1-1.88-1.28-.63-.28-1.31-.46-2.02-.53-.81-.08-1.61.02-2.39.28-.78.27-1.48.66-2.09,1.18-.61.52-1.12,1.14-1.52,1.86-.4.72-.64,1.48-.72,2.29l-.03.02Z"/>
    <path class="cls-3" d="M250.37,484.83c.37,0,.71.08,1.03.23.32.15.59.35.81.6.22.25.39.54.51.86s.18.66.18,1.01c-.01.74-.26,1.34-.75,1.81-.49.47-1.11.7-1.86.69-1.09-.02-2.11-.22-3.05-.6-.95-.38-1.77-.91-2.48-1.58-.71-.67-1.26-1.47-1.67-2.4-.4-.93-.61-1.96-.62-3.08l.34-20.78c0-.37.08-.71.22-1.03.14-.32.33-.59.55-.82.23-.23.49-.41.8-.54.31-.13.63-.19.99-.19.37,0,.71.08,1.03.22.32.14.6.33.84.57s.44.52.58.84c.14.32.21.67.2,1.04l-.33,20.61c-.01.83.23,1.46.74,1.88.5.42,1.16.64,1.96.66Z"/>
    <path class="cls-3" d="M256.28,462.31c-.02-.4.04-.78.18-1.14.14-.36.33-.67.57-.94.25-.27.54-.48.89-.65.34-.17.71-.26,1.09-.27.38-.02.75.05,1.11.18.36.14.67.33.95.57.27.25.49.54.66.89.17.35.26.72.27,1.12.02.38-.04.75-.18,1.1-.14.35-.33.66-.59.92-.25.27-.55.48-.9.65-.35.17-.71.26-1.09.27-.38.02-.75-.04-1.11-.18-.36-.14-.67-.33-.94-.57-.27-.25-.48-.54-.65-.87-.17-.34-.26-.7-.27-1.08ZM262.78,487.09c.01.35-.04.69-.16,1.01-.12.33-.3.61-.52.85-.22.24-.49.44-.79.58-.31.15-.64.23-1.01.25-.35.01-.69-.04-1.01-.16-.33-.12-.61-.29-.86-.52-.25-.22-.45-.49-.6-.8-.15-.31-.23-.65-.25-1l-.71-17.12c-.01-.35.04-.69.17-1s.31-.6.54-.85c.23-.25.5-.45.82-.6.31-.15.65-.23,1.02-.25.37-.02.71.04,1.02.16.31.12.58.3.83.53.24.23.43.5.57.8.14.31.22.64.23.99l.71,17.12Z"/>
    <path class="cls-3" d="M274.56,486.44c.1.71-.05,1.34-.47,1.9-.41.55-.98.88-1.69.98-.35.05-.69.03-1.03-.06-.34-.09-.64-.23-.92-.41s-.51-.42-.7-.71c-.19-.29-.3-.61-.35-.96l-1.6-11.19c-.17-1.19-.1-2.34.22-3.46.32-1.12.82-2.13,1.52-3.03.7-.9,1.55-1.66,2.55-2.27,1-.61,2.1-1,3.29-1.17,1.24-.18,2.43-.1,3.58.22,1.15.32,2.2.83,3.14,1.54.71-.94,1.58-1.73,2.61-2.36s2.17-1.04,3.4-1.21c1.2-.17,2.36-.11,3.47.18,1.11.29,2.11.77,3.02,1.44.9.66,1.67,1.48,2.29,2.44s1.04,2.03,1.26,3.19c0,.03.01.07.03.11.01.04.02.07.03.1l1.59,11.14c.05.35.03.69-.06,1.01-.09.33-.24.62-.43.87-.2.25-.44.47-.72.65-.28.18-.6.29-.95.34-.35.05-.7.03-1.04-.06s-.65-.23-.92-.41c-.27-.19-.5-.43-.68-.71-.19-.29-.3-.61-.35-.96l-1.6-11.21c-.09-.5-.27-.96-.53-1.35-.27-.4-.59-.73-.98-.99-.38-.26-.81-.45-1.27-.56-.46-.11-.94-.13-1.45-.06s-.98.24-1.41.49c-.43.26-.8.57-1.09.94s-.51.79-.64,1.26c-.14.46-.17.95-.1,1.46l1.58,11.1c.1.71-.05,1.34-.47,1.9-.42.55-.98.88-1.69.98-.35.05-.69.03-1.03-.06-.34-.09-.64-.23-.92-.41-.28-.19-.51-.42-.7-.71-.19-.29-.3-.61-.35-.96l-1.6-11.19c-.09-.5-.26-.96-.52-1.37-.26-.41-.58-.74-.96-1-.38-.26-.8-.45-1.27-.56-.47-.11-.96-.13-1.46-.06s-.97.23-1.4.48c-.42.25-.79.56-1.08.93s-.51.79-.65,1.24c-.14.46-.17.93-.1,1.42l1.59,11.17Z"/>
    <path class="cls-3" d="M302.74,473.19c-.44-1.52-.55-3.03-.35-4.53.2-1.5.66-2.89,1.38-4.17.71-1.29,1.66-2.41,2.82-3.36s2.5-1.65,4.01-2.08c1.52-.43,3.04-.55,4.54-.36,1.5.2,2.89.65,4.17,1.37,1.28.72,2.39,1.66,3.34,2.83.95,1.17,1.64,2.51,2.08,4.04l2.33,8.17c.1.35.13.7.09,1.05-.04.35-.15.67-.31.96-.16.3-.38.56-.66.79-.28.23-.59.39-.95.5-.6.17-1.16.14-1.67-.1-.52-.24-.92-.6-1.21-1.1-.69.91-1.49,1.71-2.4,2.38-.91.68-1.93,1.18-3.05,1.5-1.51.43-3.01.55-4.5.35-1.5-.2-2.89-.65-4.17-1.37-1.29-.71-2.41-1.66-3.38-2.83s-1.67-2.51-2.1-4.02ZM307.75,471.76c.23.82.61,1.54,1.13,2.18.52.64,1.14,1.16,1.84,1.55.7.39,1.46.64,2.27.75s1.64.04,2.47-.19c.83-.24,1.57-.62,2.21-1.14.64-.52,1.15-1.14,1.53-1.84.38-.7.62-1.46.72-2.28.1-.82.03-1.63-.2-2.45-.24-.83-.61-1.57-1.13-2.21-.52-.64-1.12-1.16-1.81-1.54s-1.45-.63-2.27-.74c-.82-.11-1.65-.04-2.48.2-.82.23-1.54.61-2.18,1.14-.64.52-1.16,1.13-1.55,1.83-.39.69-.64,1.45-.75,2.27-.11.82-.04,1.65.2,2.48Z"/>
    <path class="cls-3" d="M330.59,452.69l7.73-3.16c.34-.14.69-.21,1.03-.2s.68.07.99.21c.31.13.59.32.84.56s.44.54.58.88c.13.33.2.66.19,1,0,.34-.08.66-.21.97-.13.31-.32.58-.57.83-.25.25-.54.44-.88.58l-7.73,3.16,2.3,5.62c.32.79.77,1.46,1.36,2.02.58.57,1.24,1,1.97,1.3.73.3,1.5.45,2.33.46.82,0,1.64-.15,2.44-.48.71-.29,1.33-.66,1.86-1.11.53-.45.95-1.01,1.28-1.68.16-.34.36-.65.6-.93.25-.28.54-.49.88-.63.55-.22,1.13-.23,1.73,0,.36.13.67.33.91.61.24.28.43.6.55.96.12.36.17.73.16,1.12s-.1.76-.27,1.12c-.54,1.22-1.29,2.29-2.27,3.2-.98.91-2.13,1.64-3.47,2.18-1.47.6-2.95.89-4.46.86-1.5-.02-2.93-.31-4.28-.87-1.35-.55-2.56-1.36-3.64-2.41-1.08-1.05-1.92-2.32-2.52-3.78l-5.83-14.26c-.14-.34-.2-.69-.19-1.04.01-.35.08-.68.22-1,.13-.31.32-.59.56-.84s.53-.44.86-.57c.33-.13.66-.2,1-.19.34,0,.66.08.97.21.3.13.58.32.83.57.25.25.44.54.58.88l1.58,3.87Z"/>
    <path class="cls-3" d="M344.26,440.96c-.18-.36-.28-.73-.3-1.11-.02-.38.03-.75.14-1.09.11-.34.3-.66.54-.96s.54-.53.89-.7c.34-.17.71-.27,1.09-.29.38-.02.75.02,1.1.14s.67.29.96.54.53.55.71.91c.17.34.27.7.28,1.08.02.38-.03.74-.16,1.08-.12.35-.31.67-.55.96-.25.29-.54.53-.89.7-.34.17-.71.27-1.09.29-.38.02-.75-.03-1.09-.14-.34-.12-.66-.29-.95-.53-.29-.24-.52-.53-.69-.88ZM360.33,460.92c.16.31.25.65.27.99.02.35-.02.68-.12.99-.1.31-.27.6-.48.86-.22.26-.49.47-.82.64-.32.16-.65.25-.99.27-.35.02-.68-.02-1-.12s-.61-.26-.87-.49c-.26-.23-.48-.5-.63-.81l-7.64-15.34c-.16-.32-.24-.64-.25-.99-.01-.34.04-.68.15-1,.11-.32.27-.61.5-.88.23-.26.5-.48.83-.64s.66-.25.99-.27.66.03.97.15c.31.11.6.28.85.5.25.22.46.49.62.81l7.64,15.34Z"/>
    <path class="cls-3" d="M360.69,451.38c-.82-1.36-1.33-2.78-1.52-4.28-.2-1.5-.12-2.96.23-4.39.35-1.43.96-2.76,1.84-3.99.87-1.23,1.98-2.25,3.32-3.06,1.35-.82,2.78-1.33,4.29-1.54,1.5-.21,2.96-.13,4.38.22,1.42.36,2.74.97,3.97,1.85,1.22.88,2.25,1.99,3.07,3.35l8.58,14.17c.2.33.32.67.37,1.03.05.35.03.7-.05,1.03-.08.33-.22.64-.42.93-.2.29-.46.53-.77.72-.66.4-1.32.49-1.98.29-.67-.21-1.2-.64-1.6-1.29l-3.6-5.95c-.47.98-1.07,1.87-1.8,2.69-.72.81-1.58,1.52-2.56,2.11-1.34.81-2.76,1.32-4.25,1.52-1.49.2-2.96.13-4.38-.22-1.43-.35-2.76-.96-4-1.84-1.24-.88-2.27-1.98-3.08-3.33ZM365.15,448.68c.44.73.99,1.33,1.66,1.8s1.4.81,2.18,1c.78.19,1.58.23,2.39.12.81-.11,1.59-.39,2.33-.83s1.35-1.01,1.83-1.68.81-1.4,1-2.17c.19-.78.22-1.57.1-2.38-.12-.81-.39-1.58-.83-2.3-.45-.74-1-1.35-1.67-1.83-.67-.48-1.38-.82-2.15-1.01-.77-.19-1.56-.23-2.38-.11-.82.11-1.6.39-2.34.84-.73.44-1.33,1-1.81,1.67s-.82,1.4-1.01,2.17c-.2.77-.24,1.57-.12,2.39.11.82.39,1.6.84,2.34Z"/>
    <path class="cls-3" d="M388.92,433.68c.5.65,1.08,1.16,1.75,1.54.67.38,1.37.62,2.11.72.73.1,1.48.05,2.23-.15.75-.2,1.45-.54,2.09-1.04.66-.51,1.15-1.09,1.48-1.74s.51-1.32.54-2.03-.08-1.42-.32-2.14c-.25-.72-.62-1.4-1.12-2.05l-5.44-7.02c-.23-.29-.38-.6-.45-.94s-.09-.67-.04-1.01c.05-.33.17-.65.34-.96.17-.3.39-.56.67-.78.29-.23.6-.38.92-.46.32-.08.65-.1.97-.06s.63.15.93.31c.29.17.55.4.78.69l5.39,6.96c.94,1.21,1.62,2.52,2.04,3.91.42,1.39.58,2.78.47,4.15-.11,1.37-.5,2.69-1.16,3.95s-1.6,2.36-2.81,3.3-2.53,1.59-3.94,1.95c-1.41.36-2.82.44-4.22.25-1.4-.19-2.74-.64-4.02-1.35-1.28-.71-2.38-1.67-3.31-2.87l-5.47-7.06c-.23-.29-.38-.6-.46-.93-.08-.33-.1-.66-.06-.98.04-.33.15-.64.32-.94.17-.3.39-.56.67-.78.28-.21.59-.37.92-.46.34-.09.67-.11,1-.08.33.04.65.14.95.3.3.16.56.39.79.68l5.48,7.08Z"/>
    <path class="cls-3" d="M410.56,418.28c.56.28,1.15.46,1.76.55.61.09,1.21.08,1.81-.02.59-.1,1.17-.29,1.72-.57.55-.28,1.06-.65,1.54-1.11,1.18-1.15,1.81-2.36,1.88-3.64.07-.38.18-.72.33-1.01.15-.29.32-.52.51-.71.32-.31.69-.51,1.1-.59s.83-.06,1.25.04c.29.07.57.19.83.35.26.16.48.37.66.61.18.25.32.53.42.85.1.32.12.67.07,1.05-.03.47-.1.97-.22,1.5-.12.52-.3,1.07-.57,1.64-.26.57-.61,1.15-1.03,1.76-.43.6-.97,1.22-1.62,1.86-1.14,1.1-2.41,1.93-3.83,2.47-1.42.54-2.86.8-4.33.78-1.47-.02-2.91-.31-4.31-.88-1.4-.57-2.65-1.42-3.76-2.56s-1.92-2.42-2.46-3.84-.79-2.87-.76-4.33.33-2.9.91-4.3c.58-1.4,1.44-2.65,2.57-3.76,1.12-1.09,2.39-1.91,3.79-2.45,1.41-.54,2.84-.81,4.3-.81,1.46,0,2.89.28,4.29.83,1.4.56,2.65,1.39,3.76,2.51.51.53.76,1.12.74,1.78-.02.66-.31,1.25-.86,1.79l-10.5,10.21ZM416.05,406.92c-.58-.35-1.19-.58-1.83-.7-.64-.12-1.27-.12-1.91-.02-.63.1-1.25.32-1.86.64-.6.32-1.17.74-1.7,1.25-.53.51-.95,1.07-1.28,1.66-.33.59-.54,1.21-.65,1.84-.11.63-.12,1.26-.02,1.89.1.63.31,1.24.63,1.82l8.62-8.38Z"/>
    <path class="cls-3" d="M428.8,398.47c-.66.34-1.37.68-2.11,1.01-.74.34-1.5.57-2.28.71-.78.14-1.56.13-2.34-.02-.79-.15-1.55-.54-2.29-1.17-.77-.65-1.34-1.39-1.71-2.23s-.55-1.72-.54-2.64c.01-.92.22-1.85.61-2.8.39-.95.96-1.87,1.72-2.76.43-.51.92-1.01,1.47-1.49.54-.48,1.11-.9,1.71-1.24.6-.34,1.2-.59,1.82-.74.62-.15,1.22-.16,1.79-.02.55.15.99.41,1.33.79.34.38.54.78.59,1.21.05.34.04.66-.04.98-.08.32-.23.61-.45.86-.17.2-.39.37-.69.52-.38.12-.71.24-1.02.35s-.59.24-.87.4c-.28.15-.54.34-.8.55-.25.21-.52.48-.79.8-.67.79-1.07,1.49-1.21,2.08-.13.59.02,1.07.46,1.44.23.2.49.28.77.26s.59-.12.94-.28c.34-.16.73-.38,1.15-.66.42-.28.89-.58,1.4-.91.83-.54,1.67-1.01,2.51-1.41.85-.41,1.69-.68,2.53-.82.84-.14,1.67-.12,2.48.07.82.19,1.62.62,2.42,1.29.73.62,1.29,1.36,1.67,2.21.38.85.57,1.76.58,2.71.01.95-.17,1.92-.53,2.91s-.93,1.94-1.69,2.84c-.47.56-1.03,1.11-1.67,1.66-.64.54-1.33,1-2.08,1.38-.75.38-1.54.65-2.36.82-.82.17-1.65.15-2.5-.04-.59-.12-1.06-.33-1.41-.62s-.59-.63-.72-1c-.13-.37-.16-.76-.07-1.16.09-.4.27-.76.55-1.09.25-.29.57-.54.97-.75.4-.21.87-.35,1.42-.43.31,0,.64-.03.99-.11.35-.08.7-.2,1.06-.36.36-.16.7-.37,1.04-.62.34-.25.65-.54.94-.89.26-.3.47-.62.63-.95.16-.33.27-.64.32-.96.05-.31.05-.6-.02-.87-.07-.27-.21-.49-.43-.68-.26-.22-.61-.28-1.05-.19-.44.09-.92.25-1.42.48-.51.23-1.01.5-1.51.8-.5.3-.92.56-1.26.77Z"/>
  </g>
  <g>
    <path class="cls-1" d="M175.79,230.35c-8.62,0-17.25.14-25.87-.07-3.42-.08-5.91,1.01-8.23,3.44-6.72,7.05-13.59,13.97-20.45,20.9-.71.72-1.16,2.35-2.53,1.65-1.15-.59-.57-2.03-.67-3.11-.05-.5,0-1-.01-1.5q-.03-6.95-6.93-8.55c-3.93-.91-5.84-4.59-4.49-9.2,1.79-6.14,4.48-11.94,7.38-17.6,15.8-30.79,38.38-55.53,67.11-74.73,22-14.7,45.37-26.4,71.42-31.9,21.17-4.47,42.32-4.83,62.48,4.34,18.45,8.39,31.73,21.8,35.88,42.31,1.69,8.36,1.8,17.05-4.49,24.18-3.83,4.34-8.61,6.4-14.43,5.04-5.73-1.33-8.9-5.09-9.99-10.85-1.49-7.88-7.64-11.65-14.17-14.24-19.64-7.77-37.89-4.43-54.06,8.79-12.55,10.26-19.12,24.07-19.79,40.17-.6,14.39,4.17,27.52,11.91,39.58,8.84,13.76,19.68,25.74,31.92,36.59,7.48,6.62,7.16,4.63.06,11.13-6.44,5.9-12.87,11.83-19.19,17.87-2.17,2.07-3.75,2.13-5.93-.06-5.21-5.21-10.66-10.18-15.98-15.28-2.16-2.06-3.65-11.95-2.27-14.5.71-1.32,1.89-1.01,2.97-.94,2.58.18,4.8-.45,5.97-2.92,1.05-2.22-.03-4.09-1.39-5.84-10.6-13.59-21.25-27.15-31.74-40.82-2.29-2.99-4.89-4.09-8.61-3.98-8.62.24-17.24.08-25.87.08v.02Z"/>
    <path class="cls-1" d="M386.74,261.66c0,18.87.08,37.74-.07,56.61-.03,3.56,1.01,5.05,4.67,4.72,2.73-.24,5.5-.17,8.24,0,3.32.2,5.62,2.67,5.7,5.82.08,2.85-2.19,5.71-5.36,5.67-8.13-.1-16.45,1.78-24.24-2.57-3.77-2.11-8.21-2.35-12.46-1.8-4.32.56-7.36-1.15-10.3-4.05-13.43-13.25-26.97-26.39-40.47-39.57-1.61-1.57-3.27-3.09-4.91-4.62-2.12-1.98-4.48-3.13-7.49-2.35-2.22.58-3.32-.45-3.45-2.66-.06-1-.09-2-.09-3,0-22.24,0-44.49.02-66.73,0-6.91.99-7.92,7.71-7.92,25.24,0,50.49,0,75.73.03,6.19,0,6.87.93,6.84,7.3-.08,18.37-.03,36.74-.03,55.11h-.04ZM360.41,269.11c2.75,0,5.5-.08,8.25.02,2.61.1,3.57-1.12,3.52-3.62-.09-4.37-.14-8.75-.02-13.12.07-2.57-1.1-3.75-3.51-3.76-5.61,0-11.22.07-16.83.16-2.08.03-2.77,1.3-2.74,3.22.04,2.87-.03,5.75.01,8.62.12,9.51-1.13,8.43,8.33,8.47,1,0,2,0,3,0ZM323.16,248.98c0-.08,0-.17,0-.25-2.62,0-5.26.21-7.86-.06-2.88-.29-3.87.93-3.84,3.59.04,4.5.04,8.99-.02,13.49-.03,2.37,1.03,3.39,3.39,3.37,5.37-.05,10.74-.06,16.11.01,2.72.04,3.85-1.19,3.81-3.85-.07-4.25-.12-8.5,0-12.74.09-2.98-1.38-4.06-4.11-3.95-2.49.1-4.98.25-7.48.38ZM322.72,215.93h0c-2.87-.01-5.73,0-8.6-.02-1.49,0-2.74.18-2.71,2.17.07,5.11.07,10.22.11,15.33.01,1.9,1.09,2.65,2.87,2.64,5.73-.02,11.47-.03,17.2-.04,1.96,0,3.05-.94,3.07-2.94.03-4.74.02-9.47.04-14.21,0-2.01-.99-2.96-2.99-2.94-2.99.02-5.98,0-8.97,0ZM360.63,236.1h0c2.74-.01,5.48-.06,8.21,0,2.35.05,3.4-.97,3.36-3.35-.08-4.48-.07-8.96-.01-13.44.03-2.32-.9-3.44-3.31-3.41-5.48.05-10.95.04-16.43-.02-2.32-.02-3.43.91-3.39,3.32.08,4.48.1,8.96.04,13.44-.03,2.6,1.24,3.55,3.68,3.48,2.61-.07,5.23-.02,7.84-.02Z"/>
    <path class="cls-1" d="M177.8,239.66c5.57-.16,13.32.35,21.06-.33,2.13-.19,3.94.48,5.29,2.21,8.61,11.03,17.23,22.05,25.85,33.07,1.37,1.75,1.04,2.82-1.24,2.76-2.38-.07-3.11,1-2.83,3.19.11.86.03,1.75.03,2.62q.02,6.2-5.98,5.96c-2.98-.12-4.77,1.89-6.68,3.66-13.12,12.12-26.25,24.24-39.31,36.42-1.93,1.8-3.76,2.48-6.39,1.74-7.66-2.14-15.15-1.01-22.35,1.99-2.96,1.24-5.91,1.78-9.09,1.75-10.75-.09-21.5-.05-32.25-.08-1.37,0-2.78.06-4.11-.2-3.23-.65-5.02-2.72-5.08-6.03-.05-2.91,2.31-5.23,5.61-5.38,4.49-.21,8.99-.24,13.49-.21,3.66.02,4.86-1.53,4.79-5.27-.22-11.99-.05-24-.04-36,0-1.87.18-3.53-2.43-4.29-2.86-.84-.57-2.31.24-3.2,7.63-8.26,15.25-16.53,23-24.66,11.62-12.19,6.47-9.38,23.12-9.72,4.37-.09,8.75-.01,15.3-.01ZM131.5,303.39h-.03c0,5.36.01,10.72,0,16.07,0,1.93.31,3.5,2.79,3.46,3.74-.05,7.48,0,11.21-.03,2.1-.01,3.26-1.06,3.26-3.22-.02-10.84-.02-21.68-.08-32.52-.01-2.44-1.39-3.59-3.82-3.57-2.99.02-5.98.09-8.97-.04-3.26-.14-4.44,1.39-4.37,4.51.11,5.11.03,10.22.03,15.32ZM182.43,294.34s.02,0,.03,0c0-2.36-.03-4.73,0-7.09.04-2.43-.94-3.72-3.53-3.67-4.23.07-8.46.03-12.69.02-1.93,0-3.11.81-3.13,2.85-.05,5.23-.09,10.45-.06,15.68,0,1.96,1.15,2.95,3.1,2.95,4.36.02,8.71.03,13.07,0,2.13-.01,3.2-1.15,3.21-3.27.01-2.49,0-4.98,0-7.47Z"/>
    <path class="cls-1" d="M359.19,355.66c-8,0-16-.13-23.99.03-8.52.17-16.82-2.17-25.38-1.68-7.84.45-15.59,2.19-23.52,1.62-3.13-.22-6.21-.44-9.26-1.24-9.36-2.46-18.77-2.55-28.18-.29-6.92,1.66-13.82,1.67-20.8.22-8.41-1.75-16.86-1.74-25.26.16-3.31.75-6.63,1.13-10.03,1.13-25.99-.02-51.98-.02-77.97,0-2.02,0-4.04,0-5.69-1.39-2.06-1.72-2.58-3.97-1.77-6.43.9-2.77,3.17-3.74,5.87-3.76,8.12-.05,16.24-.12,24.36-.02,4.2.05,8.17-.58,12.02-2.32,6.24-2.82,12.66-2.96,18.93-.3,9.47,4.02,19.19,4.01,29.08,2.44,2.36-.37,4.57-1.25,6.65-2.43,7.06-4.01,14.3-3.86,21.6-.77,5.92,2.51,11.99,3.22,18.32,1.96,2.14-.43,3.98-1.32,5.72-2.62,7.03-5.3,17.21-5.92,24.6-.93,9.32,6.27,18.78,6.4,28.8,2.14,6.23-2.65,12.64-2.84,18.93-.04,10.88,4.84,21.7,4.88,32.67.16,5.85-2.51,12.03-2.6,17.9-.13,4.84,2.04,9.7,3.18,14.92,2.87.99-.06,2.01-.04,2.99.12,3.2.52,5.32,2.24,5.43,5.66.09,2.98-2.46,5.58-5.84,5.67-6.62.18-13.24.1-19.86.11-3.75,0-7.5,0-11.25,0v.06Z"/>
    <path class="cls-1" d="M337.78,335.97c-3.23.28-6.27-.96-9.12-2.51-10.02-5.44-20.22-5.14-30.25-.52-6.58,3.03-12.48,2.61-18.43-1.21-4.39-2.82-9.26-4.27-14.44-4.74-1.29-.12-3.14.38-3.6-1.22-.41-1.4,1.06-2.46,2.02-3.37,6.23-5.94,12.53-11.81,18.8-17.71,4.82-4.53,9.82-8.88,14.39-13.66,2.91-3.04,4.72-2.21,7.28.33,11.15,11.1,22.44,22.05,33.7,33.03,2.5,2.44,5.09,4.78,7.65,7.17,1.73,1.61,1.49,2.67-.83,3.32-2.3.65-4.6,1.16-7.16,1.07Z"/>
    <path class="cls-1" d="M244.38,213.26c-.55-32.48,31.19-55.13,59.12-43.51.46.19.94.35,1.37.6,1.03.59,2.75.83,2.35,2.42-.32,1.27-1.92.92-2.96,1.02-25.62,2.28-44.08,23.67-47.71,44.61-1.18,6.81-.9,13.67.45,20.48.2,1,1.01,2.4-.44,2.97-1.26.49-1.99-.78-2.62-1.66-6.11-8.41-9.65-17.7-9.56-26.91Z"/>
    <path class="cls-1" d="M188.2,336.14c-2.12-.39-5.23.98-6.15-1.27-.66-1.6,2.32-2.84,3.73-4.14,11.1-10.25,22.33-20.37,33.43-30.62,1.77-1.63,2.95-1.66,4.7-.01,8.99,8.49,18.07,16.89,27.14,25.3,1.11,1.03,2.19,2,.11,3.08-2.99,1.55-5.91,3.29-9.02,4.56-4.07,1.66-8.08.71-11.97-1.04-7.68-3.46-15.59-4.22-23.77-2-2.56.69-5,1.57-7.21,3.06-3.31,2.23-6.87,3.58-10.96,3.09Z"/>
    <path class="cls-1" d="M381.97,142.39c-5.27,0-9.38.03-13.5-.02-1.36-.02-2.76-.1-4.08-.43-2.91-.72-4.51-2.6-4.26-5.69.26-3.18,2-5.16,5.25-5.23,10.34-.22,20.68-.33,31.03-.44.98-.01,1.99.2,2.96.43,2.96.71,4.57,2.69,4.34,5.67-.22,2.9-1.92,4.83-4.96,5.21-5.96.75-11.95.44-16.78.5Z"/>
    <path class="cls-1" d="M376.66,183.91c-1.62,0-3.25.08-4.87-.02-3.36-.2-5.07-2-5-5.23.07-3.16,1.74-4.87,4.89-4.95,3.49-.08,6.99-.07,10.49-.02,3.14.04,4.88,1.76,5.12,4.82.23,2.88-1.94,5.14-5.02,5.34-1.87.12-3.74.02-5.62.02,0,.01,0,.02,0,.04Z"/>
  </g>
</svg>