<?xml version="1.0" encoding="UTF-8"?>
<svg id="Calque_14" data-name="Calque 14" xmlns="http://www.w3.org/2000/svg" viewBox="0 0 500 500">
  <defs>
    <style>
      .cls-1 {
        fill: #0c4d53;
        stroke-width: 0px;
      }
    </style>
  </defs>
  <path class="cls-1" d="M484.7,242.77c-.74,51.17-11.67,93.86-37.73,131.89-20.75,30.28-47.07,54.73-78.85,73.29-26.64,15.56-55.2,25.61-85.69,29.88-36.2,5.07-71.71,1.74-106.38-10.13-45.88-15.7-84.04-42.4-113.97-80.51-23.5-29.92-37.81-63.94-43.64-101.6-4.18-27.03-4.08-53.94,1.46-80.69,7.6-36.7,23.43-69.54,46.95-98.78,33.26-41.35,75.9-68.25,126.77-82.19,29.6-8.11,59.74-9.73,90.2-4.89,52.18,8.3,96.64,31.71,133.51,69.14,34.4,34.92,56.15,76.79,64.39,125.27,1.94,11.45,2.39,23.15,2.99,29.31ZM249.71,359.17v-.02c9.02,0,18.04.01,27.06,0,5.19-.01,7.17-1.96,7.22-7.19.05-5.61-.03-11.22.02-16.83.06-5.42,2.02-7.89,7.14-9.75,5.05-1.84,10.12-3.68,14.97-5.97,2.29-1.08,3.55-1.01,5.34.8,9.61,9.7,21.32,15.35,34.8,17.22,3.42.47,5.03,1.96,5.96,5.37,3.86,14.18,9.79,27.24,21.03,37.37,16.56,14.92,41.01,13.11,55.09-4.13,9.27-11.35,11.73-24.43,9.67-38.47-3.88-26.43-7.76-52.86-12.28-79.18-4.88-28.46-20.04-49.56-46.77-61.58-2.51-1.13-2.53-2.35-2.14-4.8,1.34-8.43,3.22-16.95,3.12-25.41-.28-23.91-7.98-45.81-22.28-64.77-31.44-41.68-73.75-60.18-125.46-53.37-46.89,6.17-81.28,31.45-102.06,74.31-5.26,10.86-8.28,22.45-8.7,34.61-.09,2.62.52,4.55,3.74,4.55,18.7-.04,37.4-.06,56.1-.02,2.36,0,3.26-1.14,3.7-3.28.6-2.9,1.2-5.84,2.22-8.6,15.33-41.58,61.22-53.78,93.87-36.56,22.46,11.85,34.35,30.91,34.45,56.57.05,13.59-5.55,25.42-13.31,36.25-13.58,18.95-27.24,37.84-40.9,56.72-13.86,19.15-27.79,38.26-41.61,57.44-1.31,1.82-2.86,3.99-2.96,6.06-.43,8.78-.48,17.59-.42,26.39.03,4.54,2.06,6.25,6.64,6.26,8.91.02,17.82,0,26.73,0ZM60.74,346.45c.91,4.81,1.36,10.01,2.89,14.87,5.68,17.99,21.36,29.55,38.92,28.87,12.89-.5,22.63-7.12,30.56-16.72,7.27-8.8,11.72-19.06,14.51-30.03.98-3.84,2.79-5.59,6.9-5.95,14.8-1.31,27.74-7.31,37.79-18.13,7.07-7.6,12.99-16.31,19.09-24.76,18.48-25.57,36.82-51.24,55.14-76.93,1-1.41,1.36-3.27,2.02-4.92-1.66-.34-3.33-.98-4.99-.99-19.91-.07-39.82-.13-59.72.02-3.65.03-6.44-.9-9.23-3.29-14.94-12.84-32.28-19.18-52.01-17.43-37.79,3.35-63.02,35.08-67.91,63.8-3.32,19.48-6.18,39.05-9.16,58.59-1.66,10.85-3.16,21.72-4.79,33.01ZM285.42,412.31c-.05-19.33-15.65-34.64-35.31-34.65-19.4-.01-35.44,15.73-35.39,34.72.06,19.79,15.73,35.34,35.5,35.23,19.51-.11,35.24-15.89,35.19-35.3Z"/>
  <path class="cls-1" d="M370.59,241.57c-.06,7.6-7.35,14.64-15.03,14.52-7.68-.11-14.12-6.85-13.98-14.62.15-8.37,6.8-14.96,14.95-14.82,7.8.14,14.13,6.84,14.06,14.91Z"/>
  <path class="cls-1" d="M356.04,310.54c-7.89.03-14.48-6.37-14.48-14.05,0-8.37,6.82-15.23,15.04-15.11,7.52.11,14.15,6.94,14.14,14.56-.01,8.09-6.54,14.57-14.7,14.6Z"/>
  <path class="cls-1" d="M313.61,269.5c.07-8.3,6.68-14.59,15.18-14.43,7.38.15,13.94,7,13.84,14.47-.1,7.59-7.01,14.24-14.87,14.3-7.72.06-14.21-6.52-14.15-14.34Z"/>
  <path class="cls-1" d="M369.73,269.33c.13-8.19,6.55-14.52,14.5-14.29,8.12.24,14.23,6.66,14.05,14.77-.16,7.58-7.11,14.14-14.73,13.91-7.62-.24-13.94-6.82-13.82-14.38Z"/>
  <path class="cls-1" d="M286.53,260.65c6.53-.01,11.89,5.32,11.95,11.88.06,6.64-5.61,12.13-12.52,12.14-6.48,0-11.79-5.17-11.87-11.57-.08-7.13,5.21-12.43,12.43-12.45Z"/>
  <path class="cls-1" d="M121.1,256.04c3.08,0,6.16.06,9.23-.02,2.99-.08,4.65-1.45,4.58-4.71-.1-4.94-.02-9.89.02-14.84.06-7.64,3.45-11.13,10.99-11.33.99-.03,1.98-.04,2.97-.04,7.31.05,10.36,3.07,10.45,10.46.06,4.62-.03,9.24,0,13.85.04,5.64.93,6.56,6.47,6.6,5.06.04,10.12-.11,15.17-.02,6.71.12,9.58,3,9.82,9.66.06,1.65.08,3.3.05,4.95-.11,6.54-3.18,9.63-9.77,9.74-5.17.08-10.34-.02-15.5.04-5.36.06-6.21.95-6.25,6.42-.03,4.51.07,9.02.01,13.52-.07,5.57-2.46,8.7-7.95,9.63-2.87.49-5.94.43-8.83,0-4.12-.6-6.92-3.56-7.25-7.83-.4-5.13-.26-10.31-.31-15.47-.05-5.34-1-6.32-6.42-6.33-5.17,0-10.33.11-15.5.08-6.32-.04-9.35-2.97-9.56-9.21-.38-11.33.73-15.97,14.25-15.19,1.1.06,2.2,0,3.3,0,0,0,0,.02,0,.02Z"/>
</svg>