<?xml version="1.0" encoding="UTF-8"?>
<svg id="Calque_2" data-name="Calque 2" xmlns="http://www.w3.org/2000/svg" viewBox="0 0 410.5 103.22">
  <defs>
    <style>
      .cls-1 {
        isolation: isolate;
      }

      .cls-2 {
        fill: #00c9a7;
      }

      .cls-2, .cls-3, .cls-4 {
        stroke-width: 0px;
      }

      .cls-3 {
        fill: #fff;
      }

      .cls-4 {
        fill: #00e8bb;
      }
    </style>
  </defs>
  <g id="Calque_2-2" data-name="Calque 2">
    <g id="Calque_5" data-name="Calque 5">
      <g id="Calque_4" data-name="Calque 4">
        <g class="cls-1">
          <g class="cls-1">
            <path class="cls-2" d="M119.96,48.8c.52.5.78,1.1.78,1.8s-.26,1.3-.78,1.8c-.52.52-1.14.78-1.86.78-.68,0-1.27-.25-1.77-.75-1.44-1.4-3.04-2.46-4.81-3.18-1.77-.72-3.58-1.08-5.45-1.08s-3.75.37-5.47,1.11c-1.73.74-3.25,1.76-4.54,3.04-1.3,1.29-2.33,2.81-3.09,4.56-.76,1.75-1.14,3.63-1.14,5.66s.36,3.75,1.08,5.47c.72,1.73,1.71,3.25,2.99,4.56,1.27,1.31,2.77,2.36,4.5,3.14,1.73.78,3.59,1.17,5.59,1.17,1.76,0,3.46-.26,5.1-.79,1.64-.53,3.18-1.42,4.62-2.66v-5.49h-5.94c-.36,0-.7-.07-1.01-.21-.31-.14-.58-.33-.81-.57-.23-.24-.41-.52-.54-.83-.13-.31-.2-.65-.2-1,0-.7.24-1.3.73-1.8.49-.5,1.1-.75,1.82-.75h8.49c.74,0,1.37.24,1.89.72.52.48.78,1.09.78,1.83v9.18c0,.44-.08.81-.24,1.11-.16.3-.37.59-.63.87-2.18,1.96-4.47,3.38-6.86,4.26s-4.84,1.31-7.36,1.29c-1.74,0-3.42-.24-5.04-.71s-3.14-1.12-4.56-1.96c-1.42-.84-2.72-1.86-3.9-3.05-1.18-1.19-2.19-2.5-3.03-3.94-.84-1.44-1.5-2.99-1.97-4.65-.47-1.66-.71-3.38-.71-5.16s.23-3.5.68-5.16c.45-1.66,1.09-3.21,1.92-4.67.83-1.45,1.83-2.78,3-3.98s2.48-2.23,3.92-3.09c1.44-.86,2.99-1.52,4.65-2,1.66-.47,3.4-.71,5.22-.71,2.68,0,5.19.49,7.53,1.47,2.34.98,4.48,2.43,6.42,4.35Z"/>
            <path class="cls-2" d="M144.08,43.28c1.96,0,3.79.35,5.5,1.05s3.2,1.67,4.48,2.89c1.28,1.23,2.29,2.68,3.03,4.35.74,1.67,1.11,3.49,1.11,5.45,0,1.46-.21,2.85-.63,4.16s-1.01,2.51-1.77,3.6c-.76,1.09-1.67,2.05-2.73,2.88-1.06.83-2.22,1.51-3.48,2.03l7.26,7.56c.28.26.48.56.6.89s.17.66.17.99c-.01.33-.09.66-.23.98-.14.32-.34.6-.6.84-.5.48-1.06.72-1.68.72-.3,0-.6-.06-.9-.18-.3-.12-.58-.31-.84-.57l-9.81-10.17h-7.92v8.4c0,.72-.25,1.33-.77,1.81-.51.49-1.12.74-1.84.74s-1.31-.25-1.81-.74c-.51-.49-.77-1.09-.77-1.81v-33.27c0-.36.07-.69.21-1,.14-.31.32-.58.56-.83.23-.24.5-.42.81-.55.31-.13.64-.2,1-.2h11.04ZM135.65,48.47v17.1h8.46c1.28,0,2.46-.23,3.56-.69,1.09-.46,2.03-1.08,2.82-1.86s1.41-1.69,1.86-2.73c.45-1.04.68-2.13.68-3.27s-.23-2.25-.68-3.29c-.45-1.03-1.08-1.93-1.88-2.71s-1.74-1.4-2.82-1.86-2.24-.69-3.48-.69h-8.52Z"/>
            <path class="cls-2" d="M168.98,81.68c-.7-.06-1.27-.33-1.73-.83-.45-.49-.67-1.08-.67-1.79v-33.21c0-.74.25-1.35.77-1.84.51-.49,1.12-.74,1.84-.74h21.84c.72,0,1.32.25,1.81.75.49.5.73,1.11.73,1.83s-.25,1.33-.73,1.85c-.49.51-1.1.76-1.81.76h-19.26v10.95h14.85c.36,0,.7.06,1.02.19.32.13.6.32.84.56.24.24.42.52.56.84.13.32.19.66.19,1.02,0,.72-.25,1.33-.75,1.82-.5.49-1.12.74-1.86.74h-14.85v11.91h19.26c.36,0,.69.07,1,.21.31.14.58.33.81.57.23.24.41.52.54.83.13.31.19.64.19,1,0,.74-.25,1.36-.73,1.86-.49.5-1.1.74-1.81.72h-22.05Z"/>
            <path class="cls-2" d="M204.14,81.68c-.7-.06-1.27-.33-1.73-.83-.45-.49-.67-1.08-.67-1.79v-33.21c0-.74.25-1.35.77-1.84.51-.49,1.12-.74,1.84-.74h21.84c.72,0,1.32.25,1.81.75.49.5.74,1.11.74,1.83s-.25,1.33-.74,1.85c-.49.51-1.09.76-1.81.76h-19.26v10.95h14.85c.36,0,.7.06,1.02.19.32.13.6.32.84.56.24.24.42.52.56.84.13.32.19.66.19,1.02,0,.72-.25,1.33-.75,1.82s-1.12.74-1.86.74h-14.85v11.91h19.26c.36,0,.69.07,1,.21.31.14.58.33.81.57.23.24.41.52.54.83.13.31.2.64.2,1,0,.74-.25,1.36-.74,1.86s-1.09.74-1.81.72h-22.05Z"/>
            <path class="cls-2" d="M242.09,52.91v26.22c0,.72-.25,1.33-.77,1.81-.51.49-1.12.74-1.84.74s-1.3-.25-1.81-.74c-.51-.49-.77-1.09-.77-1.81v-33.21c0-.6.19-1.14.57-1.62.22-.3.5-.54.83-.74.33-.19.72-.29,1.18-.29.82,0,1.51.33,2.07.99l22.35,27.57v-26.01c0-.36.07-.7.21-1.01.14-.31.33-.58.57-.81.24-.23.52-.41.84-.54.32-.13.66-.2,1.02-.2.72,0,1.32.25,1.81.75.49.5.74,1.1.74,1.8v33.3c0,.46-.1.87-.3,1.23-.2.36-.47.65-.81.87-.38.3-.88.45-1.5.45h-.12c-.66-.02-1.24-.36-1.74-1.02l-22.53-27.75Z"/>
            <path class="cls-2" d="M293.06,43.28c1.96,0,3.79.37,5.5,1.11,1.71.74,3.21,1.75,4.49,3.01,1.28,1.27,2.29,2.76,3.03,4.47.74,1.71,1.11,3.54,1.11,5.5s-.37,3.76-1.11,5.46c-.74,1.7-1.75,3.18-3.02,4.46s-2.76,2.27-4.48,3c-1.72.73-3.57,1.09-5.55,1.09h-8.4v7.74c0,.72-.25,1.33-.77,1.81-.51.49-1.12.74-1.84.74s-1.36-.25-1.84-.75c-.49-.5-.74-1.1-.74-1.8v-33.27c0-.36.07-.69.21-1,.14-.31.33-.58.56-.83.23-.24.5-.42.81-.55.31-.13.64-.2,1-.2h11.04ZM284.63,48.47v17.73h8.49c1.28,0,2.46-.25,3.54-.75,1.08-.5,2.02-1.16,2.81-1.98s1.41-1.76,1.86-2.82c.45-1.06.68-2.15.68-3.27s-.23-2.21-.68-3.29c-.45-1.07-1.08-2.02-1.88-2.85s-1.74-1.5-2.8-2.01c-1.07-.51-2.24-.76-3.5-.76h-8.52Z"/>
            <path class="cls-2" d="M319.46,76.49l18.3.03c.36,0,.69.07,1,.21.31.14.58.33.81.56.23.23.41.5.54.81.13.31.2.64.2,1s-.06.7-.2,1.02c-.13.32-.31.59-.54.82-.23.23-.5.41-.81.54-.31.13-.64.2-1,.2h-21.24c-.64-.08-1.18-.35-1.61-.83-.43-.47-.64-1.04-.64-1.72v-33.27c0-.36.07-.7.21-1.02.14-.32.32-.59.55-.83s.5-.41.81-.54c.31-.13.64-.2,1-.2.72,0,1.33.25,1.84.74s.76,1.11.76,1.84v30.63Z"/>
          </g>
          <g class="cls-1">
            <path class="cls-2" d="M370.82,73.55h-18.48l-2.76,6.57c-.22.5-.54.88-.96,1.15-.42.27-.88.41-1.38.41-.38,0-.76-.08-1.14-.24-.7-.28-1.16-.74-1.37-1.39s-.17-1.32.14-2l14.31-33.18c.46-1.06,1.25-1.59,2.37-1.59.52,0,.98.14,1.39.41.41.27.73.66.95,1.16l14.37,33.21c.28.66.33,1.32.13,1.98-.19.66-.62,1.13-1.3,1.41-.38.16-.74.24-1.08.24-.52,0-1-.13-1.42-.41-.43-.27-.75-.65-.98-1.15l-2.79-6.57ZM354.44,68.39h14.22l-7.08-16.83-7.14,16.83Z"/>
          </g>
          <g class="cls-1">
            <path class="cls-2" d="M393.44,60.68l12.54-16.53c.52-.58,1.15-.87,1.89-.87.64,0,1.2.21,1.68.63.52.42.83.97.93,1.65.1.68-.11,1.37-.63,2.07l-13.8,17.61v13.89c0,.72-.25,1.33-.75,1.81-.5.49-1.11.74-1.83.74s-1.33-.25-1.83-.74c-.5-.49-.75-1.09-.75-1.81v-13.89l-13.95-17.58c-.46-.54-.67-1.17-.61-1.89.05-.72.35-1.32.92-1.8.24-.22.51-.38.81-.5.3-.11.61-.17.93-.17.34,0,.68.08,1.02.23.34.15.63.38.87.67l12.57,16.47Z"/>
          </g>
        </g>
      </g>
      <g id="Calque_3" data-name="Calque 3">
        <path class="cls-2" d="M26.59,103.22C58.13,69.47,62.96,35.23,27.2,0-16.28,33.19-.9,83.88,26.59,103.22Z"/>
        <path class="cls-3" d="M37.47,54.12c0,.86-.35,1.64-.91,2.2s-1.34.91-2.2.91h-6.21v6.22c0,1.72-1.39,3.11-3.11,3.11-.86,0-1.64-.35-2.2-.91-.56-.56-.91-1.34-.91-2.2v-6.22h-6.22c-1.72,0-3.11-1.39-3.11-3.11s1.39-3.11,3.11-3.11h6.22v-6.21c0-1.72,1.39-3.11,3.11-3.11s3.11,1.39,3.11,3.11v6.21h6.21c1.72,0,3.11,1.39,3.11,3.11Z"/>
        <path class="cls-4" d="M26.56,103.22c43.79-11.61,65.63-37.53,54.28-85.43C27.42,22.61,13.44,70.06,26.56,103.22Z"/>
        <g>
          <circle class="cls-3" cx="43.68" cy="61.37" r="5"/>
          <circle class="cls-3" cx="51.9" cy="52.29" r="5"/>
          <circle class="cls-3" cx="51.9" cy="69.83" r="5"/>
          <circle class="cls-3" cx="60.21" cy="61.37" r="5"/>
        </g>
      </g>
    </g>
  </g>
</svg>