<?xml version="1.0" encoding="UTF-8"?>
<svg id="Calque_14" data-name="Calque 14" xmlns="http://www.w3.org/2000/svg" viewBox="0 0 500 500">
  <defs>
    <style>
      .cls-1 {
        fill: #0c4d53;
        stroke-width: 0px;
      }
    </style>
  </defs>
  <path class="cls-1" d="M148.89,289.07c22.47-5.73,29.24-24.2,27.86-37.06-1.72-16.06-14.02-28.85-29.04-30.52-18.54-2.07-34,6.88-39.92,28.45-2.05-6.28-3.89-11.96-5.74-17.63-2.13-6.54-4.05-13.16-6.47-19.6-2.19-5.81-8.48-7.77-13.88-4.74-4.05,2.27-5.04,6.01-3.22,11.82,5.11,16.3,10.2,32.6,15.29,48.91.41,1.32.76,2.67,1.23,4.35-9.73,4.5-16.85,11.62-21.61,22.2-2.68-8.94-5.12-17.02-7.52-25.1-2.03-6.8-3.91-13.65-6.06-20.41-1.99-6.26-7.72-9.25-13.96-7.56-6.38,1.73-10.22,7.49-8.44,13.8,4.43,15.72,9.19,31.34,13.89,46.98,4.42,14.71,8.9,29.4,13.46,44.07.6,1.94.42,3.01-1.35,4.26-7.08,5-12.3,11.61-16.09,20.28-3.4-6.08-6.7-11.48-9.53-17.11-17.15-34.04-26.19-70.14-25.21-108.26,1.07-41.55,12.5-80.39,34.29-115.89,35.79-58.32,87.32-95.38,153.53-111.98,20.62-5.17,41.69-7.51,62.98-6.53,34.09,1.57,66.29,10.41,96.85,25.57,37.18,18.45,67.75,44.53,91.77,78.38,20.94,29.52,34.13,62.26,40.6,97.75,6.87,37.68,2.52,74.5-9.22,110.67-5.13,15.83-13.63,33.68-21.88,46.05-2.62-3.82-5.07-7.83-7.97-11.48-1.91-2.42-4.25-4.63-6.78-6.39-2.73-1.9-2.92-3.95-2.04-6.81,3.95-12.84,7.81-25.7,11.64-38.57,4.91-16.47,9.75-32.97,14.66-49.44,1.46-4.91.52-9.26-3.22-12.68-3.87-3.55-8.48-3.77-13.28-1.97-3.34,1.26-4.93,3.88-5.87,7.17-3.99,13.94-8.05,27.86-12.08,41.79-.26.9-.57,1.79-.84,2.63-2.47-3.58-4.5-7.47-7.41-10.51-3.3-3.45-7.23-6.4-11.22-9.05-2.21-1.47-2.75-2.64-1.98-5.11,5.25-16.82,10.37-33.68,15.53-50.53,1.35-4.42.5-8.22-2.56-10.51-3.52-2.62-7.55-3.23-11.11-.65-2.08,1.51-3.85,4.1-4.68,6.57-3.81,11.29-7.24,22.71-11,34.73-2.8-11.52-8.9-19.87-19.03-24.91-7.74-3.85-15.97-4.06-24.28-2.35-14.67,3.02-25.52,16.71-25.91,32.53-.41,16.46,10.12,29.46,28.03,34.27-6.04,10.74-8.09,22.08-4.72,34.21-8.66,1.19-17.34-1.48-25.68,2.56-3.17-11.5-6.3-22.75-9.38-34.01-1.65-6.02-3.13-12.08-4.86-18.07-1.8-6.21-4.98-11.75-9.63-16.19-2.19-2.1-2.31-3.86-1.44-6.46,6.9-20.58,13.69-41.19,20.54-61.78,3.06-9.18,6.16-18.34,9.31-27.48,1.73-5.01.8-9.36-3.09-12.93-3.28-3-8.61-3.52-12.7-1.55-3.31,1.59-4.75,4.55-5.81,7.77-5.21,15.7-10.39,31.42-15.58,47.13-.27.81-.52,1.62-.92,2.9-6.55-21.28-19.67-34.48-42.35-34.28-22.53.2-35.57,13.32-41.68,35.02-5.4-16.55-10.46-32.42-15.84-48.19-1.14-3.34-2.85-6.89-5.33-9.26-3.72-3.55-8.75-3.15-13.1-.16-4.16,2.85-5.99,7.44-4.48,12.44,2.21,7.3,4.72,14.51,7.12,21.75,7.73,23.36,15.44,46.72,23.22,70.06.69,2.09.73,3.53-1.04,5.35-5.5,5.66-8.86,12.55-10.86,20.21-3.99,15.27-8.2,30.49-12.32,45.73-.14.51-.37.99-.27.73-8.62-.48-16.9-.93-25.43-1.4,3.03-11.86,1.32-23.27-4.86-34.01ZM213,86.8c-.1.38-.19.77-.29,1.15.84.8,1.66,1.63,2.53,2.39,6.1,5.27,12.19,10.55,18.33,15.76,1.5,1.27,1.85,2.54,1.23,4.47-1.87,5.82-3.55,11.7-5.29,17.57-.89,3.02-1.76,6.05-2.82,9.71,1.66-.9,2.7-1.42,3.7-2,6.98-4.04,14.01-7.98,20.88-12.19,2.27-1.39,3.88-1.19,6.08.14,7.86,4.76,15.87,9.29,24.41,14.24-.55-2.01-.91-3.42-1.32-4.83-2.21-7.52-4.38-15.06-6.71-22.55-.56-1.79-.34-2.93,1.1-4.16,5.71-4.9,11.35-9.88,16.96-14.88,1.36-1.21,2.54-2.63,3.8-3.95-.15-.34-.3-.67-.44-1.01-8.7,0-17.4-.08-26.09.05-2.39.03-3.63-.67-4.5-3-2.73-7.35-5.7-14.61-8.6-21.9-.41-1.03-.91-2.03-1.66-3.68-.81,1.87-1.35,3.01-1.82,4.18-2.93,7.28-5.9,14.53-8.71,21.85-.74,1.92-1.78,2.57-3.8,2.53-4.73-.09-9.46.08-14.19.11-4.26.03-8.53,0-12.79,0ZM409.3,157.6c.16-.33.31-.65.47-.98-7.36-.38-10.47-5.25-12.62-11.54-1.46,7.09-6.06,10.46-13.07,12.09,3.8,1.73,6.94,2.44,9.02,4.32,2.04,1.85,3,4.89,4.48,7.5,1.42-2.58,2.34-5.53,4.29-7.42,1.94-1.88,4.91-2.69,7.43-3.97ZM111.99,169.77c1.95-3.5,2.86-6.47,4.84-8.31,2.03-1.89,5.09-2.68,7.7-3.94.17-.25.33-.51.5-.76-7.03-.69-10.85-4.8-12.22-11.62-2.04,3.36-3.14,6.34-5.22,8.28-2.02,1.88-5.03,2.69-7.61,3.97-.09.29-.19.57-.28.86,6.68.8,11.17,4.02,12.29,11.53ZM179.88,86.55c.53,0,1.07.01,1.6.02.68-6.76,4.94-9.9,11.01-11.59-6.57-1.36-10.04-5.28-11.94-11.46-1.36,6.71-5.91,9.79-11.98,11.68,6.02,1.78,10.84,4.2,11.31,11.34ZM343.14,75.17c-6.59-1.33-10.48-4.94-12.16-11.37-1.68,6.51-5.78,9.79-11.91,11,2.8,1.69,5.72,2.48,7.69,4.29,1.94,1.77,2.92,4.58,4.83,7.79,1.18-7,5.15-10.36,11.54-11.71ZM134.93,104.53c-1.23-1.25-3.51-3.56-5.73-5.82-1.93,1.84-4.34,4.12-5.65,5.38,2.29,2.32,4.5,4.56,6.26,6.34,1.3-1.5,3.44-3.95,5.12-5.89ZM372.57,104.96c2.38,2.21,4.73,4.39,6.87,6.37,2.47-2.14,4.91-4.25,7.2-6.24-2.47-2.29-4.92-4.57-7.19-6.68-2.37,2.25-4.66,4.43-6.88,6.54ZM151.26,193.54c-1.94-2.21-4.01-4.57-5.44-6.2-1.65,1.59-3.78,3.64-5.93,5.71,1.6,1.71,3.69,3.95,5.86,6.26,2.12-2.22,4.22-4.42,5.51-5.77ZM362.49,186.52c-1.73,1.81-3.81,3.99-5.79,6.05,2.02,2.17,3.95,4.26,5.97,6.43,1.8-2.42,3.67-4.94,5.02-6.75-1.1-1.21-3.15-3.47-5.2-5.73ZM68.49,183.22c-.46.01-.93.02-1.39.03-.83,1.3-2.19,2.52-2.38,3.91-.28,2.09,1.26,3.33,3.4,3.29,2.14-.04,3.24-1.55,2.84-3.4-.3-1.39-1.61-2.56-2.47-3.83ZM358.03,135.56c1.43-2.1,3.09-3.51,2.86-4.42-.36-1.4-2.04-2.46-3.15-3.66-1.06,1.05-3.02,2.17-2.95,3.14.1,1.41,1.68,2.7,3.25,4.94ZM150.94,135.55c1.32-2.15,2.84-3.53,2.63-4.57-.25-1.28-1.95-2.26-3.02-3.38-1.08,1.13-2.97,2.23-3,3.39-.04,1.2,1.73,2.46,3.39,4.56ZM78.25,150.4c.47-.03.94-.07,1.4-.1.73-1.19,2.26-2.61,2-3.53-.37-1.31-2.05-2.24-3.17-3.33-.96,1.11-2.67,2.21-2.69,3.33-.01,1.2,1.57,2.42,2.45,3.64ZM441.28,183.28c-.49.02-.99.03-1.48.05-.73,1.35-2.19,2.84-1.98,4.03.22,1.2,2.09,2.1,3.24,3.14.93-1.12,2.61-2.25,2.59-3.36-.02-1.29-1.52-2.57-2.37-3.85ZM434.44,147.01c-2.17-1.67-3.36-3.27-4.63-3.34-.94-.05-2.58,1.75-2.87,2.97-.45,1.9.94,3.43,2.96,3.15,1.26-.18,2.38-1.4,4.55-2.77Z"/>
  <path class="cls-1" d="M313.21,480.4c-6.35,1.46-12.49,2.86-19.1,4.38,0-6.25,0-12.03,0-17.81,0-11.51-.03-23.02.01-34.53.02-6.41-1.6-12.12-6.55-16.53-3.43-3.06-7.42-4.68-12.04-4.69-13.66-.01-27.33-.12-40.99,0-11.48.1-19.44,7.61-19.66,19.09-.33,16.88-.13,33.78-.16,50.67,0,1.05,0,2.11,0,3.64-6.49-1.42-12.64-2.76-19.11-4.17,0-2.98,0-5.76,0-8.54,0-24.31-.01-48.63,0-72.94,0-19.13,10.75-33.1,29.5-37.45,19.76-4.59,39.7-4.86,59.42.15,18.05,4.58,28.66,18.73,28.68,37.22.03,26.14.01,52.29.01,78.43,0,.96,0,1.91,0,3.08Z"/>
  <path class="cls-1" d="M169.86,472.25c-6.96-3.22-13.5-6.18-19.95-9.32-.61-.3-.9-1.79-.91-2.74-.09-11.3-.12-22.59-.11-33.89,0-6-1.88-11.15-6.32-15.32-3.59-3.37-7.92-4.68-12.69-4.69-14.52-.04-29.05-.08-43.57.05-2.64.02-5.36.57-7.89,1.37-1.8.57-2.84.57-4.06-1.01-3.82-4.93-7.91-9.65-11.61-14.66-.92-1.24-1.28-3.41-.97-4.96,2.56-12.48,10.73-20.11,22.32-24.1,13.11-4.51,26.68-5.26,40.42-3.63,7.71.91,15.32,2.13,22.42,5.49,14.22,6.74,22.34,18.09,22.74,33.65.63,24.29.17,48.6.17,73.74Z"/>
  <path class="cls-1" d="M338.79,472.07c0-2.98,0-5.42,0-7.86.04-21.52-.15-43.04.19-64.56.2-12.61,5.43-23.11,15.6-30.84,6.04-4.59,13.13-6.72,20.48-8.15,15.32-2.97,30.61-2.87,45.72,1.03,13.16,3.39,22.69,10.96,26.38,24.67.56,2.06.27,3.64-1.14,5.31-4.16,4.93-8.21,9.96-12.18,15.05-1.17,1.5-2.15,1.8-4.02,1.14-2.38-.84-4.99-1.44-7.5-1.46-13.99-.14-27.98-.15-41.96-.07-12.82.07-20.66,8.04-20.67,20.85-.01,10.97-.04,21.95.06,32.92.02,2.01-.56,3.1-2.45,3.89-6.02,2.52-11.98,5.22-18.51,8.1Z"/>
  <path class="cls-1" d="M205.49,346.75c0-18.34-.64-36.31.19-54.22.74-16.05,8.71-27.61,25.95-32.61,14.51-4.21,29.29-4.28,43.95-.41,16.93,4.47,27.03,17.18,27.32,34.66.28,16.67.15,33.34.19,50.01,0,.61-.08,1.23-.16,2.23-2.54-1.39-4.87-2.47-6.96-3.9-.76-.52-1.29-1.88-1.3-2.87-.11-6.99,0-13.98-.08-20.97-.15-12.2-7.87-19.98-20.02-20.08-12.69-.1-25.38.01-38.07-.02-8.24-.02-15.5,2.12-19.51,9.97-1.51,2.95-2.36,6.49-2.53,9.81-.38,7.08-.19,14.19-.06,21.29.03,1.87-.46,2.98-2.19,3.74-2.14.94-4.19,2.1-6.72,3.39Z"/>
  <path class="cls-1" d="M223.5,485.95c0-3.61,0-6.93,0-10.25,0-13.87-.01-27.74.03-41.62,0-1.81.12-3.68.55-5.43,1.28-5.21,5.06-8.38,10.37-8.44,13.12-.14,26.24-.19,39.36-.08,6.52.05,11.15,4.26,11.23,10.82.22,18.06.04,36.13,0,54.19,0,.2-.14.4-.3.8-20.2,3.35-40.48,3.14-61.25,0Z"/>
  <path class="cls-1" d="M112.75,339.15c-14.33.19-25.99-11.36-26.14-25.87-.15-14.03,11.31-25.77,25.36-26,14.78-.24,26.54,10.94,26.8,25.5.26,14.44-11.32,26.18-26.01,26.37Z"/>
  <path class="cls-1" d="M396.28,339.2c-14.12.04-25.73-11.68-25.71-25.95.02-14.55,11.26-25.94,25.6-25.94,14.67,0,26.3,11.52,26.3,26.06,0,14.32-11.64,25.79-26.19,25.84Z"/>
  <path class="cls-1" d="M279.05,213.77c-.04,14-11.28,25.11-25.33,25.03-13.61-.08-24.91-11.38-24.9-24.89,0-14.38,10.99-25.38,25.31-25.35,14.29.03,24.97,10.83,24.92,25.22Z"/>
  <path class="cls-1" d="M286.62,339.14c-21.56-5.62-42.82-5.2-64.26.22,0-7.28-.3-14.46.09-21.6.33-5.92,5.62-10.35,11.62-10.37,13.66-.06,27.33-.07,40.99-.01,6.17.03,11.21,4.61,11.48,10.84.3,6.86.07,13.74.07,20.93Z"/>
  <path class="cls-1" d="M140.22,458.31c-21.47-11.61-39.99-25.87-56.73-43.07,1.11,0,2.22,0,3.33,0,13.75,0,27.5-.04,41.25,0,7.71.02,12.11,4.49,12.14,12.25.04,10.08,0,20.16,0,30.83Z"/>
  <path class="cls-1" d="M368.54,458.21c0-7.45,0-14.29,0-21.14,0-3.76-.15-7.53.05-11.28.33-5.93,4.73-10.43,10.58-10.49,14.94-.15,29.88-.07,44.82-.07.3,0,.61.13,1.55.34-17.36,16.52-35.52,31.23-57.01,42.64Z"/>
  <path class="cls-1" d="M367.11,275.88c-11.11-.02-20.33-9.14-20.27-20.04.07-11.49,8.73-19.98,20.42-20.02,10.91-.03,19.82,8.91,19.91,19.99.09,11.16-8.84,20.09-20.06,20.07Z"/>
  <path class="cls-1" d="M122.49,255.97c0-11.44,8.7-20.24,19.91-20.16,11.12.07,20.24,9.03,20.11,19.76-.13,11.06-9.51,20.35-20.51,20.31-10.8-.03-19.51-8.93-19.51-19.91Z"/>
  <path class="cls-1" d="M367.97,342.92c-18.28,4.48-32.64,13.94-40.18,32.23-2.46-4.43-5.53-8.42-7.03-12.94-4.73-14.28,5.29-29.1,20.07-30.1,5.56-.38,11.16-.18,16.75-.16.75,0,1.76.32,2.22.85,2.74,3.25,5.36,6.6,8.17,10.12Z"/>
  <path class="cls-1" d="M141.29,342.97c2.71-3.48,5.07-6.66,7.64-9.67.64-.74,1.93-1.28,2.94-1.3,5.26-.11,10.53-.11,15.79.01,11.36.27,19.8,8.71,20.15,20.08.08,2.68.2,5.38-.02,8.05-.13,1.6-.65,3.26-1.36,4.71-1.63,3.37-3.47,6.64-5.48,10.43-7.29-18.06-21.62-27.38-39.66-32.32Z"/>
</svg>