<?xml version="1.0" encoding="UTF-8"?>
<svg id="Badges" xmlns="http://www.w3.org/2000/svg" viewBox="0 0 500 500">
  <defs>
    <style>
      .cls-1 {
        fill: none;
        stroke: #0c4d53;
        stroke-linecap: round;
        stroke-miterlimit: 10;
        stroke-width: 8px;
      }

      .cls-2 {
        fill: #0c4d53;
        stroke-width: 0px;
      }
    </style>
  </defs>
  <path class="cls-1" d="M35.2,334.15c-11.41-27.45-17.7-57.57-17.7-89.15C17.5,116.59,121.59,12.5,250,12.5s232.5,104.09,232.5,232.5c0,28.22-5.03,55.27-14.24,80.29"/>
  <g>
    <path class="cls-2" d="M42.3,363.77l-6.48-12.1-4.66.45c-.56.04-1.05-.06-1.48-.31-.43-.25-.77-.6-1.01-1.05-.17-.31-.27-.68-.32-1.11-.04-.38,0-.72.11-1.04s.28-.59.5-.82.49-.43.81-.57c.32-.15.67-.23,1.03-.26l27.63-2.35c.56-.04,1.05.05,1.49.29s.78.6,1.04,1.08c.24.45.34.92.3,1.42-.04.5-.23.96-.56,1.39l-17.26,21.76c-.46.57-1.02.92-1.69,1.06-.67.13-1.3-.02-1.89-.47-.3-.22-.54-.51-.73-.86-.24-.45-.34-.93-.31-1.44.04-.51.22-.98.55-1.41l2.95-3.65ZM41.4,351.05l4.47,8.36,7.75-9.48-12.22,1.12Z"/>
    <path class="cls-2" d="M64.33,368.04l4.74,6.88c.21.3.35.62.42.97.07.34.07.68.01,1.01s-.19.65-.37.94c-.19.29-.43.54-.73.75-.29.2-.6.33-.94.4-.33.06-.67.06-.99,0-.33-.07-.64-.19-.93-.38-.29-.19-.54-.43-.75-.73l-4.74-6.88-5,3.45c-.7.48-1.26,1.07-1.69,1.76s-.71,1.43-.84,2.2c-.14.77-.12,1.56.05,2.37s.5,1.57.99,2.28c.44.63.93,1.16,1.48,1.58s1.19.72,1.92.9c.36.08.71.21,1.04.39s.6.42.81.73c.34.49.46,1.05.38,1.69-.05.38-.18.72-.4,1.02-.22.3-.49.54-.82.74s-.68.32-1.06.39c-.38.07-.76.06-1.15-.02-1.31-.26-2.51-.78-3.61-1.54-1.1-.76-2.05-1.73-2.87-2.92-.9-1.3-1.5-2.69-1.79-4.17-.3-1.48-.32-2.93-.07-4.37s.78-2.8,1.58-4.08c.8-1.28,1.85-2.37,3.16-3.27l12.69-8.74c.3-.21.63-.34.97-.41.35-.06.68-.06,1.02,0s.65.19.94.37c.29.19.54.42.74.71.2.29.33.6.4.94s.06.66,0,.99c-.07.33-.19.64-.38.93-.19.29-.43.54-.73.75l-3.44,2.37Z"/>
    <path class="cls-2" d="M77.62,386.03l5.4,6.37c.24.28.41.59.51.92s.14.67.11,1c-.03.34-.12.66-.28.97-.16.31-.38.58-.66.82-.27.23-.57.39-.89.49-.33.1-.66.13-.99.1-.33-.03-.65-.13-.96-.28-.31-.16-.59-.37-.82-.66l-5.4-6.37-4.63,3.93c-.65.55-1.15,1.19-1.5,1.92s-.56,1.49-.62,2.27.04,1.57.28,2.36c.25.79.65,1.51,1.21,2.17.5.59,1.04,1.06,1.63,1.42.59.36,1.25.59,1.99.7.37.04.73.14,1.08.28s.64.36.88.64c.38.45.57,1,.55,1.65,0,.39-.11.74-.3,1.06-.19.32-.44.59-.74.82-.3.22-.64.39-1.01.5s-.75.14-1.15.09c-1.33-.13-2.58-.52-3.74-1.17-1.17-.65-2.22-1.52-3.15-2.62-1.02-1.21-1.76-2.53-2.2-3.97-.44-1.44-.61-2.88-.5-4.34.11-1.46.5-2.86,1.16-4.21.67-1.35,1.61-2.54,2.81-3.57l11.75-9.97c.28-.24.59-.41.93-.5.34-.1.67-.13,1.01-.1.34.03.66.12.97.28s.58.37.81.64.39.57.49.89c.1.33.13.66.1.99-.03.33-.13.65-.28.96-.16.31-.37.58-.66.82l-3.18,2.7Z"/>
    <path class="cls-2" d="M82.83,411.92c-.26.57-.42,1.16-.49,1.78s-.04,1.21.08,1.81c.12.59.33,1.16.63,1.7.3.54.69,1.04,1.16,1.49,1.19,1.14,2.43,1.72,3.71,1.75.39.06.73.16,1.02.29.29.13.54.3.73.48.32.31.53.67.63,1.08s.1.83,0,1.25c-.06.3-.17.58-.32.84s-.35.49-.59.68c-.24.19-.52.34-.83.45s-.66.15-1.05.11c-.48-.01-.98-.07-1.51-.16-.53-.09-1.08-.26-1.66-.5-.58-.24-1.18-.56-1.8-.97s-1.26-.92-1.92-1.55c-1.15-1.09-2.01-2.34-2.61-3.73-.59-1.4-.91-2.83-.94-4.3s.21-2.92.72-4.34c.52-1.42,1.32-2.7,2.42-3.85,1.09-1.15,2.34-2.01,3.74-2.6,1.4-.59,2.83-.89,4.3-.92s2.91.22,4.33.75,2.7,1.34,3.85,2.43c1.13,1.08,2,2.32,2.59,3.7s.92,2.81.97,4.26c.06,1.46-.17,2.9-.67,4.32-.51,1.42-1.29,2.7-2.36,3.85-.51.53-1.09.8-1.75.8-.66,0-1.26-.26-1.82-.79l-10.59-10.11ZM94.39,416.98c.33-.6.54-1.21.63-1.86s.08-1.28-.05-1.91c-.13-.63-.36-1.24-.7-1.83s-.78-1.14-1.31-1.65c-.53-.51-1.1-.91-1.71-1.22-.61-.3-1.23-.5-1.86-.58-.64-.09-1.27-.07-1.89.05-.63.12-1.22.35-1.79.7l8.7,8.3Z"/>
    <path class="cls-2" d="M99.09,434.74c-.22.27-.49.49-.79.65-.31.16-.62.26-.95.29s-.65,0-.98-.09c-.33-.09-.63-.25-.92-.49-.27-.22-.49-.49-.65-.79-.16-.31-.26-.63-.3-.96-.04-.33-.01-.66.08-1s.26-.64.48-.91l10.82-13.29c.22-.27.49-.48.8-.64s.63-.24.97-.28.67,0,1.01.09.64.26.93.49c.29.23.5.5.65.79.15.3.24.61.27.95.03.33,0,.66-.1.98s-.26.62-.48.89l-10.82,13.29ZM110.65,411.87c.25-.31.55-.55.89-.73.34-.18.69-.28,1.05-.32s.72,0,1.09.1.7.28,1,.52c.3.24.54.53.71.87.18.34.29.69.33,1.06s.01.73-.09,1.1c-.1.37-.28.71-.54,1.02-.24.3-.53.53-.87.7-.34.17-.69.27-1.05.3-.37.03-.73,0-1.1-.11-.37-.1-.7-.28-1-.52-.3-.24-.54-.53-.71-.87s-.28-.69-.32-1.05c-.04-.36,0-.72.09-1.08.1-.36.27-.69.51-.99Z"/>
    <path class="cls-2" d="M121.62,451.03c-.21.3-.46.54-.75.72-.29.18-.59.3-.91.37-.32.06-.64.06-.97-.01-.33-.07-.64-.21-.93-.41-.29-.2-.53-.44-.73-.74-.2-.29-.33-.6-.4-.93-.07-.33-.07-.66-.01-1,.06-.34.19-.66.4-.96l5.06-7.36c.07-.11.13-.18.18-.22.42-.66.7-1.36.86-2.09.15-.73.17-1.45.05-2.15s-.37-1.36-.75-1.98c-.38-.62-.9-1.16-1.56-1.61-.67-.46-1.38-.77-2.11-.91-.74-.15-1.45-.14-2.15.02s-1.37.45-2,.88c-.63.43-1.18.98-1.65,1.65l-5.13,7.46c-.21.3-.45.55-.74.73s-.58.31-.91.37c-.32.06-.65.06-.97-.01-.32-.07-.64-.21-.94-.41-.29-.2-.53-.44-.72-.73-.19-.29-.32-.6-.4-.93-.07-.33-.08-.67-.02-1.01.06-.34.19-.66.4-.96l5.13-7.45c.87-1.27,1.91-2.29,3.12-3.08s2.5-1.32,3.87-1.59c1.36-.28,2.75-.28,4.17,0,1.41.27,2.75.84,4,1.7,1.27.87,2.28,1.92,3.03,3.13.75,1.22,1.24,2.51,1.47,3.88s.18,2.76-.12,4.17c-.3,1.41-.89,2.75-1.76,4.02l-5.13,7.45Z"/>
    <path class="cls-2" d="M140.96,439.25l7.35,3.97c.32.18.59.4.81.67.22.27.37.57.47.9.1.33.13.66.1,1.01-.03.35-.14.68-.31,1-.17.31-.38.57-.65.78-.27.21-.56.36-.88.45s-.66.12-1,.09c-.35-.03-.68-.14-1-.31l-7.35-3.97-2.89,5.34c-.4.75-.64,1.52-.7,2.33-.07.81.02,1.59.25,2.34s.6,1.45,1.12,2.09,1.16,1.17,1.92,1.58c.68.37,1.35.61,2.03.73.68.12,1.38.1,2.11-.07.36-.1.73-.14,1.1-.13.38.01.72.1,1.05.28.52.28.89.73,1.11,1.33.13.36.17.73.11,1.09-.06.37-.19.71-.39,1.03-.2.32-.45.6-.76.83-.31.23-.65.4-1.04.5-1.29.36-2.59.45-3.91.27-1.32-.18-2.62-.61-3.88-1.29-1.39-.75-2.56-1.72-3.49-2.9-.94-1.18-1.62-2.47-2.05-3.86-.43-1.4-.58-2.84-.45-4.35s.57-2.95,1.32-4.34l7.32-13.56c.17-.32.4-.59.68-.81.28-.21.58-.37.91-.46.33-.1.66-.13,1.01-.1.35.03.67.13.98.3.31.17.57.39.78.65.21.27.36.56.45.88s.12.66.09,1c-.03.35-.14.68-.31,1l-1.99,3.67Z"/>
    <path class="cls-2" d="M155.23,461.46c-.03.63.03,1.24.2,1.83.16.59.41,1.14.74,1.65.33.51.73.96,1.21,1.35.48.39,1.02.72,1.63.97,1.52.62,2.89.72,4.09.28.38-.09.73-.12,1.05-.1.32.02.61.08.86.18.42.17.74.43.98.78.24.35.39.74.46,1.16.05.3.05.6,0,.9-.05.3-.14.58-.3.85-.15.27-.36.51-.61.72-.25.22-.57.38-.94.48-.45.16-.93.29-1.46.4-.53.1-1.1.15-1.73.13-.63-.01-1.3-.1-2.03-.25-.73-.15-1.51-.4-2.35-.75-1.47-.6-2.73-1.44-3.79-2.53-1.06-1.08-1.87-2.3-2.44-3.66-.57-1.36-.87-2.79-.91-4.3-.04-1.51.24-3,.85-4.46.6-1.47,1.45-2.73,2.54-3.78,1.09-1.06,2.31-1.87,3.67-2.43,1.35-.56,2.79-.85,4.3-.88s3.01.26,4.47.86c1.45.6,2.7,1.43,3.76,2.5,1.06,1.07,1.88,2.28,2.46,3.62.58,1.34.9,2.76.95,4.27.05,1.51-.22,2.99-.8,4.45-.28.68-.72,1.14-1.33,1.39-.61.24-1.27.22-1.98-.07l-13.55-5.55ZM167.84,461.96c.09-.67.06-1.33-.09-1.96-.15-.63-.4-1.22-.75-1.76-.35-.54-.79-1.02-1.32-1.45-.53-.43-1.14-.78-1.82-1.06-.68-.28-1.36-.45-2.03-.51s-1.33-.02-1.95.13c-.62.15-1.2.4-1.74.74s-1.01.78-1.42,1.3l11.12,4.56Z"/>
    <path class="cls-2" d="M185.61,470.19c.36-1.54.98-2.92,1.89-4.13.9-1.21,1.98-2.21,3.22-2.99,1.25-.78,2.61-1.31,4.09-1.58s2.99-.24,4.52.12c1.54.35,2.93.98,4.15,1.88,1.22.9,2.22,1.97,2.99,3.21s1.29,2.61,1.56,4.09c.27,1.48.22,2.99-.13,4.54l-1.9,8.28c-.08.36-.23.68-.43.96s-.45.51-.74.69c-.29.18-.61.3-.96.37-.35.07-.71.06-1.07-.02-.61-.14-1.08-.44-1.42-.89-.34-.46-.51-.97-.53-1.55-1.04.47-2.13.78-3.25.93-1.13.15-2.26.1-3.4-.17-1.53-.35-2.9-.97-4.11-1.87-1.21-.89-2.21-1.96-2.99-3.21-.78-1.25-1.31-2.62-1.59-4.11-.28-1.49-.25-3,.11-4.53ZM190.69,471.36c-.19.83-.21,1.65-.06,2.46s.44,1.56.86,2.24c.43.68.97,1.27,1.63,1.75.66.49,1.41.83,2.25,1.02s1.67.22,2.48.07c.81-.15,1.56-.44,2.23-.87s1.25-.98,1.73-1.65c.48-.67.82-1.42,1.01-2.24.19-.84.22-1.67.08-2.48s-.42-1.55-.84-2.23c-.42-.67-.96-1.25-1.63-1.74-.67-.49-1.42-.83-2.26-1.03-.83-.19-1.65-.21-2.46-.06-.81.15-1.56.43-2.24.85-.68.42-1.26.96-1.75,1.63-.49.67-.83,1.42-1.03,2.26ZM199.09,457.53c.2.33.45.59.74.79s.59.33.9.41c.69.16,1.34.04,1.95-.34.31-.19.56-.43.77-.71.2-.28.34-.59.42-.91s.08-.67.02-1.02c-.06-.35-.19-.68-.38-.99l-2.26-3.65c-.19-.32-.43-.58-.71-.77-.29-.19-.59-.32-.92-.4s-.67-.09-1.01-.04c-.35.05-.68.17-.98.37-.32.19-.58.42-.78.71s-.33.58-.4.9-.08.65-.02.99c.06.34.19.67.38.97l2.28,3.68Z"/>
    <path class="cls-2" d="M231.95,484.15c.37.03.7.13,1.01.31.31.17.56.39.76.66.2.27.35.57.45.9.1.33.13.67.1,1.02-.07.73-.36,1.32-.88,1.75s-1.16.62-1.9.55c-1.08-.1-2.08-.37-3-.82-.92-.45-1.7-1.04-2.36-1.75-.66-.72-1.15-1.56-1.49-2.52-.33-.96-.46-2-.4-3.12l1.84-20.7c.03-.37.13-.7.29-1.01.16-.31.37-.57.61-.78.24-.21.52-.37.84-.48.31-.11.65-.15,1-.12.37.03.7.13,1.01.29.31.16.57.37.8.63s.4.54.51.88c.11.33.16.68.12,1.05l-1.83,20.53c-.07.83.12,1.47.6,1.93.47.46,1.11.72,1.91.8Z"/>
    <path class="cls-2" d="M237.81,478.65c.03-1.58.35-3.06.98-4.44.63-1.37,1.47-2.57,2.53-3.6,1.06-1.02,2.28-1.82,3.67-2.4s2.87-.85,4.44-.83c1.58.03,3.07.35,4.45.97,1.38.62,2.58,1.46,3.6,2.52,1.02,1.06,1.81,2.28,2.38,3.67s.84,2.88.82,4.47l-.14,8.5c0,.37-.08.71-.22,1.03-.14.32-.33.59-.58.83-.24.24-.53.42-.86.56s-.68.21-1.05.2c-.62,0-1.15-.2-1.57-.58s-.71-.84-.84-1.41c-.92.67-1.92,1.2-2.99,1.58-1.07.38-2.19.56-3.36.54-1.57-.03-3.04-.35-4.41-.97-1.37-.62-2.57-1.46-3.6-2.52-1.02-1.06-1.83-2.29-2.41-3.69-.59-1.4-.87-2.89-.84-4.45ZM243.02,478.73c-.01.85.14,1.65.45,2.42.32.77.75,1.44,1.31,2.01.56.58,1.21,1.04,1.96,1.38.75.34,1.55.52,2.42.53.86.01,1.68-.14,2.44-.45.77-.32,1.43-.75,2-1.31s1.02-1.22,1.35-1.97c.33-.75.5-1.56.52-2.4.01-.86-.13-1.68-.44-2.44-.31-.76-.74-1.43-1.29-2-.55-.57-1.2-1.02-1.96-1.36-.75-.34-1.56-.52-2.43-.53-.85-.01-1.66.14-2.42.45-.77.32-1.44.75-2.01,1.3s-1.04,1.2-1.38,1.96-.52,1.56-.53,2.43Z"/>
    <path class="cls-2" d="M274.93,460.63c-.06-.38-.05-.74.03-1.09s.22-.66.4-.94.43-.52.72-.7c.29-.19.62-.31.99-.37.38-.06.73-.05,1.06.03s.63.23.9.44c.27.21.49.46.67.77s.3.64.36,1.02l1.21,7.39c.8-.73,1.7-1.34,2.68-1.84.98-.49,2.04-.83,3.18-1.02,1.56-.26,3.08-.2,4.54.17,1.46.37,2.79.98,3.97,1.83,1.19.85,2.19,1.92,3,3.19.82,1.28,1.36,2.7,1.61,4.26.25,1.55.2,3.06-.17,4.53-.37,1.47-.97,2.8-1.82,4-.85,1.19-1.91,2.2-3.18,3.01s-2.68,1.35-4.25,1.61c-1.55.25-3.06.2-4.53-.17s-2.8-.98-4-1.84c-1.2-.86-2.2-1.92-3.02-3.2-.82-1.28-1.35-2.69-1.61-4.24l-2.77-16.84ZM282.83,476.62c.14.84.43,1.6.88,2.3.45.7,1,1.28,1.65,1.75.65.47,1.38.8,2.17,1,.8.2,1.62.23,2.47.09s1.62-.43,2.31-.88c.69-.45,1.27-.99,1.74-1.65.47-.65.8-1.38.99-2.18.19-.8.22-1.62.08-2.46-.14-.85-.43-1.63-.87-2.33-.44-.7-.98-1.28-1.64-1.74-.65-.46-1.37-.79-2.17-.99-.8-.2-1.62-.23-2.47-.09-.85.14-1.62.43-2.31.88-.69.45-1.27.99-1.74,1.64s-.8,1.37-1,2.17c-.2.8-.23,1.63-.09,2.48Z"/>
    <path class="cls-2" d="M300.38,456.53c-.1-.39-.12-.77-.05-1.15.06-.38.19-.72.37-1.03.19-.31.43-.58.74-.82.3-.23.64-.4,1.01-.49.37-.09.75-.11,1.13-.05.38.06.73.18,1.04.37.32.18.59.43.83.73.23.3.4.65.5,1.04.09.37.11.74.04,1.11-.06.37-.19.71-.39,1.03-.19.31-.44.58-.75.82-.3.23-.64.4-1.01.49s-.75.11-1.13.05c-.38-.06-.72-.19-1.03-.37s-.58-.43-.81-.72-.39-.63-.49-1ZM311.79,479.48c.09.34.1.68.05,1.03-.05.34-.17.66-.33.94-.17.28-.39.53-.66.73-.27.21-.58.36-.94.45-.34.09-.68.1-1.03.05-.34-.05-.66-.16-.95-.33s-.54-.39-.75-.67c-.21-.28-.36-.59-.44-.93l-4.18-16.62c-.08-.34-.1-.68-.03-1.02.06-.34.18-.65.36-.94.17-.29.4-.54.68-.75s.59-.36.95-.45c.36-.09.7-.11,1.03-.05s.63.17.92.35c.28.18.52.4.72.67s.34.58.43.92l4.18,16.62Z"/>
    <path class="cls-2" d="M314.19,470.22c-.51-1.5-.7-3-.56-4.51.13-1.51.52-2.92,1.18-4.24.65-1.32,1.54-2.48,2.66-3.5,1.12-1.01,2.42-1.77,3.91-2.27,1.5-.51,3.01-.7,4.52-.58,1.51.12,2.92.51,4.23,1.17,1.31.65,2.47,1.54,3.47,2.66,1,1.12,1.76,2.43,2.27,3.93.5,1.49.7,2.98.58,4.49-.11,1.51-.49,2.92-1.14,4.24-.64,1.32-1.53,2.48-2.66,3.5s-2.44,1.78-3.94,2.28c-1.49.5-2.98.69-4.48.57-1.5-.12-2.91-.51-4.23-1.16-1.32-.65-2.49-1.54-3.51-2.66-1.02-1.12-1.78-2.43-2.29-3.91ZM319.12,468.55c.27.8.69,1.51,1.24,2.13.55.61,1.19,1.1,1.91,1.46.72.36,1.49.57,2.31.64s1.64-.03,2.45-.31c.82-.28,1.53-.69,2.15-1.25.61-.55,1.1-1.19,1.44-1.91s.55-1.49.61-2.31c.06-.82-.05-1.63-.32-2.44-.28-.82-.69-1.54-1.24-2.15-.55-.62-1.18-1.1-1.89-1.45s-1.48-.56-2.3-.63c-.83-.07-1.65.04-2.46.32-.8.27-1.51.68-2.13,1.24s-1.1,1.19-1.46,1.9-.57,1.48-.64,2.31c-.07.83.04,1.65.31,2.46Z"/>
    <path class="cls-2" d="M359.49,452.06c.65,1.41.99,2.87,1.04,4.38.04,1.51-.19,2.95-.68,4.32-.5,1.37-1.24,2.62-2.24,3.75-1,1.13-2.2,2.04-3.62,2.71-1.43.68-2.9,1.04-4.41,1.09s-2.95-.18-4.33-.67c-1.38-.5-2.63-1.25-3.77-2.25s-2.04-2.21-2.71-3.63c-.68-1.43-1.04-2.91-1.09-4.42s.17-2.96.66-4.33,1.24-2.63,2.23-3.76c.99-1.13,2.21-2.04,3.64-2.72,1.04-.49,2.11-.81,3.19-.96,1.09-.15,2.17-.15,3.25,0l-3.2-6.77c-.16-.35-.26-.7-.28-1.05s.01-.69.12-1.01c.1-.32.27-.61.49-.87.22-.26.51-.47.86-.63.33-.16.67-.24,1.02-.26.35-.01.68.04.99.17.32.12.61.31.87.54.26.24.48.53.64.88l7.33,15.51ZM354.74,454.2c-.37-.78-.86-1.45-1.49-1.99-.62-.55-1.31-.95-2.06-1.22s-1.54-.38-2.36-.36c-.82.02-1.62.22-2.4.59-.78.37-1.44.86-1.98,1.48-.54.62-.95,1.3-1.22,2.05-.27.75-.39,1.54-.36,2.36s.24,1.63.61,2.41c.36.77.85,1.43,1.46,1.98.61.55,1.3.96,2.04,1.24.75.27,1.54.4,2.36.37s1.63-.23,2.41-.6c.78-.37,1.44-.86,1.98-1.48.54-.62.95-1.3,1.22-2.06.27-.76.39-1.55.36-2.38s-.22-1.62-.59-2.39Z"/>
    <path class="cls-2" d="M356.27,434.7c-.2-.35-.32-.71-.37-1.09s-.02-.75.07-1.1c.09-.35.25-.68.48-.99.23-.31.51-.56.84-.75s.69-.31,1.07-.36c.38-.04.75-.02,1.11.07.36.09.69.25,1,.48.31.23.56.52.76.86.19.33.31.69.35,1.06s.01.74-.09,1.09c-.1.35-.26.69-.49.99-.23.31-.51.56-.84.75s-.69.31-1.07.36c-.38.04-.75.02-1.1-.07-.35-.09-.68-.25-.98-.47s-.55-.5-.74-.83ZM373.55,453.62c.18.3.29.63.33.97s.02.68-.06.99c-.08.32-.23.61-.43.89-.2.27-.46.5-.78.69-.31.18-.63.29-.97.33-.35.04-.68.02-1-.06-.32-.08-.62-.22-.9-.43-.28-.21-.5-.47-.68-.77l-8.59-14.83c-.18-.3-.28-.63-.31-.97-.03-.34,0-.68.08-1.01.09-.33.24-.63.44-.91.21-.28.47-.51.79-.69s.64-.29.97-.33c.33-.04.66,0,.98.08.32.09.62.24.88.45.27.21.49.46.67.77l8.59,14.83Z"/>
    <path class="cls-2" d="M382.75,440.96l-2.3-13.43c-.09-.54-.04-1.04.15-1.51.19-.47.5-.84.91-1.12.32-.21.66-.35,1.03-.41.36-.07.71-.06,1.04.02.34.08.64.22.92.41.27.19.51.43.71.72.2.29.32.62.38.99l2.94,18.57c.08.58.01,1.1-.21,1.55-.23.45-.49.8-.79,1.04-.5.34-1.01.51-1.53.5-.52,0-1-.14-1.44-.4l-16.2-9.6c-.32-.19-.58-.43-.78-.72-.2-.29-.33-.6-.41-.92s-.09-.66-.04-1c.05-.34.16-.66.35-.96.1-.17.21-.31.34-.45.12-.13.26-.25.4-.35.42-.29.89-.43,1.4-.44.51,0,.99.13,1.46.42l11.69,7.09Z"/>
    <path class="cls-2" d="M397.53,429.52c.54.32,1.11.54,1.71.68s1.2.17,1.8.11c.6-.06,1.19-.2,1.76-.44.57-.24,1.11-.57,1.61-.99,1.26-1.06,1.98-2.22,2.14-3.49.1-.38.23-.7.4-.98.17-.27.35-.5.56-.67.34-.29.72-.46,1.14-.51s.83,0,1.24.13c.29.09.55.23.8.41.25.18.45.4.62.66.17.26.29.55.36.87.07.33.07.68,0,1.06-.06.47-.17.96-.32,1.48-.15.52-.38,1.05-.68,1.59-.3.55-.69,1.11-1.16,1.68-.47.57-1.05,1.15-1.75,1.74-1.21,1.02-2.54,1.75-4,2.18-1.45.44-2.91.59-4.38.46-1.47-.13-2.88-.53-4.23-1.19-1.36-.67-2.54-1.61-3.56-2.82-1.02-1.21-1.74-2.55-2.17-4s-.58-2.92-.45-4.37c.13-1.46.54-2.87,1.22-4.22.68-1.35,1.63-2.54,2.84-3.56,1.2-1.01,2.52-1.73,3.96-2.17,1.44-.44,2.89-.6,4.34-.5s2.86.48,4.22,1.14c1.36.66,2.55,1.58,3.57,2.77.47.56.68,1.17.61,1.82-.07.65-.4,1.23-.98,1.72l-11.21,9.42ZM403.83,418.58c-.56-.39-1.15-.67-1.78-.83-.63-.16-1.26-.21-1.9-.16-.64.06-1.27.22-1.9.5-.63.28-1.22.65-1.78,1.12s-1.03,1-1.4,1.57c-.37.57-.63,1.17-.79,1.79s-.21,1.25-.16,1.89.22,1.25.5,1.86l9.21-7.74Z"/>
    <path class="cls-2" d="M421.67,416.18c.25.25.45.53.58.84.14.32.21.63.2.96,0,.32-.06.64-.18.95-.12.31-.3.59-.55.84-.26.26-.55.46-.88.6-.33.14-.65.21-.98.23s-.66-.04-.99-.16c-.33-.12-.62-.31-.87-.55l-5.52-5.44c-1.17-1.16-2.06-2.47-2.65-3.94-.59-1.47-.9-2.98-.91-4.52-.01-1.54.27-3.05.84-4.53.57-1.48,1.43-2.8,2.58-3.96l.03-.03c.61-.62,1.25-.92,1.93-.91.68,0,1.29.27,1.82.8.26.26.46.55.58.88.13.33.19.66.18,1s-.08.67-.21,1c-.13.33-.33.62-.59.89l-.03.03c-.64.65-1.12,1.39-1.45,2.22-.33.83-.49,1.68-.48,2.54,0,.86.17,1.71.49,2.54s.82,1.58,1.48,2.23l5.57,5.49Z"/>
    <path class="cls-2" d="M429.3,397.88c-.66.34-1.37.68-2.11,1.02-.74.34-1.5.58-2.28.72-.78.14-1.56.14-2.34,0-.79-.15-1.55-.54-2.3-1.16-.77-.65-1.34-1.39-1.72-2.23s-.56-1.71-.54-2.64c.01-.92.21-1.85.6-2.8s.96-1.87,1.71-2.76c.43-.51.92-1.01,1.46-1.5.54-.48,1.11-.9,1.71-1.25.59-.35,1.2-.6,1.82-.75s1.21-.16,1.79-.03c.55.15.99.41,1.33.79.34.38.54.78.6,1.21.05.34.04.66-.04.98s-.23.61-.44.87c-.17.2-.39.37-.69.52-.38.12-.71.24-1.02.35-.3.11-.59.25-.87.4-.28.16-.54.34-.79.55-.25.22-.51.48-.78.8-.67.8-1.07,1.49-1.2,2.08-.13.59.03,1.07.47,1.44.23.2.49.28.77.26.28-.02.59-.12.94-.28.34-.16.73-.38,1.15-.66.42-.28.89-.58,1.39-.91.83-.54,1.66-1.01,2.51-1.42.84-.41,1.69-.68,2.53-.83.84-.14,1.67-.12,2.48.06.82.18,1.62.61,2.42,1.28.74.62,1.29,1.35,1.67,2.2.38.85.58,1.76.59,2.71.01.95-.16,1.92-.52,2.92s-.92,1.94-1.69,2.85c-.47.56-1.03,1.12-1.66,1.66-.63.54-1.33,1.01-2.08,1.39-.75.38-1.54.66-2.36.83s-1.65.16-2.5-.03c-.59-.12-1.06-.33-1.41-.62-.35-.29-.59-.63-.73-1-.13-.38-.16-.76-.08-1.16.08-.4.27-.76.54-1.09.25-.29.57-.55.96-.76.4-.21.87-.36,1.42-.44.31,0,.64-.03.99-.11s.7-.2,1.06-.37c.36-.16.7-.37,1.04-.62.34-.25.65-.55.94-.89.26-.31.46-.62.62-.95.16-.33.26-.64.32-.96.05-.31.04-.6-.02-.87-.07-.27-.21-.49-.43-.68-.26-.22-.61-.28-1.05-.19-.44.09-.92.25-1.42.48-.51.23-1.01.5-1.51.8s-.92.56-1.26.77Z"/>
    <path class="cls-2" d="M423.86,375.54c-.32-.24-.58-.52-.78-.85-.19-.33-.32-.67-.38-1.03s-.04-.72.04-1.1c.08-.37.24-.72.47-1.03s.51-.56.84-.76c.33-.19.68-.32,1.04-.38.36-.06.73-.05,1.1.04.37.08.72.25,1.04.48.31.23.56.5.75.83.19.33.31.67.36,1.04.05.36.03.73-.05,1.11-.08.37-.24.72-.47,1.03-.23.31-.5.56-.84.76-.33.19-.67.32-1.03.37-.36.06-.72.04-1.09-.04s-.71-.23-1.02-.46ZM447.29,385.9c.28.21.51.46.69.76s.29.61.34.93c.05.33.04.65-.04.99-.07.33-.22.65-.44.94-.21.28-.46.51-.76.69-.3.18-.61.3-.94.35s-.66.05-1-.03c-.34-.08-.65-.22-.93-.43l-13.83-10.12c-.28-.21-.51-.46-.68-.76-.17-.3-.28-.62-.33-.95s-.04-.67.04-1.01.23-.66.45-.95c.22-.3.47-.53.76-.69s.6-.27.93-.32c.33-.05.66-.03.99.05.33.08.63.23.92.43l13.83,10.12Z"/>
    <path class="cls-2" d="M437.08,365.89l4.42-7.09c.19-.31.43-.57.72-.77.29-.2.59-.34.92-.41.33-.08.67-.09,1.01-.03s.67.18.98.37c.3.19.54.42.74.7.19.28.32.58.39.91.07.33.08.66.02,1s-.18.67-.37.98l-4.42,7.09,5.15,3.21c.72.45,1.48.73,2.29.85.8.12,1.59.08,2.35-.1.76-.18,1.48-.51,2.16-.99.67-.48,1.24-1.08,1.7-1.81.41-.65.69-1.31.86-1.98.16-.67.18-1.37.06-2.11-.07-.37-.09-.74-.06-1.11s.15-.72.34-1.03c.31-.5.78-.84,1.4-1.02.37-.11.74-.12,1.1-.04.36.08.7.24,1,.46.31.22.57.49.78.81.21.32.36.68.44,1.07.28,1.31.29,2.61.03,3.92s-.77,2.57-1.53,3.8c-.84,1.34-1.88,2.45-3.11,3.31-1.23.86-2.56,1.46-3.98,1.8-1.42.34-2.87.4-4.37.18-1.49-.22-2.91-.75-4.25-1.59l-13.07-8.15c-.31-.2-.57-.44-.76-.73-.2-.29-.33-.6-.41-.93-.08-.33-.09-.67-.03-1.01.05-.34.17-.67.36-.96.19-.3.42-.54.7-.74.28-.19.58-.32.91-.39.33-.07.66-.08,1-.02.34.05.67.18.98.37l3.54,2.21Z"/>
    <path class="cls-2" d="M448.42,337.13c.13.36.17.72.15,1.07-.03.35-.11.67-.25.96-.31.63-.8,1.07-1.49,1.31-.34.12-.69.17-1.03.15-.35-.02-.67-.1-.97-.25-.3-.15-.57-.35-.81-.62-.24-.26-.41-.57-.53-.91l-1.42-4.05c-.13-.35-.18-.69-.15-1.03.03-.34.12-.66.27-.96.15-.3.35-.57.61-.81.26-.24.56-.42.9-.54.35-.13.7-.19,1.04-.16s.66.11.96.25c.29.14.56.35.79.61s.4.56.52.91l1.43,4.08ZM460.14,353.03c.62.07,1.24.04,1.84-.08s1.17-.34,1.69-.63c.53-.3,1-.67,1.43-1.12s.78-.97,1.07-1.56c.72-1.48.9-2.84.53-4.06-.06-.39-.07-.74-.03-1.06.04-.32.12-.6.24-.85.2-.4.47-.71.84-.93.36-.21.76-.34,1.19-.38.3-.03.6-.02.9.05s.57.18.83.35c.26.17.48.39.68.65.2.27.34.59.42.97.13.46.24.95.31,1.48.07.53.08,1.11.03,1.73-.05.62-.18,1.29-.37,2.01-.2.71-.49,1.48-.89,2.3-.69,1.42-1.61,2.63-2.76,3.62s-2.42,1.73-3.81,2.21c-1.39.48-2.84.69-4.35.64-1.51-.06-2.98-.43-4.4-1.12-1.42-.69-2.63-1.61-3.62-2.77-.99-1.16-1.72-2.42-2.19-3.81-.47-1.39-.68-2.84-.61-4.35.07-1.51.45-2.98,1.14-4.41.68-1.41,1.6-2.61,2.73-3.6,1.14-.99,2.39-1.73,3.76-2.23,1.37-.5,2.81-.73,4.32-.68,1.51.05,2.97.4,4.39,1.07.66.32,1.09.79,1.3,1.42.2.62.14,1.28-.2,1.97l-6.39,13.17ZM461.43,340.48c-.67-.13-1.32-.14-1.96-.03-.64.11-1.24.32-1.8.63-.56.31-1.07.73-1.53,1.23-.46.51-.85,1.09-1.17,1.75s-.53,1.33-.64,2c-.1.67-.1,1.32.01,1.95s.32,1.23.63,1.79c.31.56.71,1.06,1.21,1.49l5.25-10.82Z"/>
  </g>
  <g>
    <path class="cls-2" d="M267.18,204.08c-19.45,7.41-37.86,6.75-55.33-5.18-21.25,13.43-42.63,13.54-64.3-.07-8.65,6.56-18.73,9.68-29.78,10.02-4.16.13-7.39-1.26-7.48-5.71-.08-4.12,2.88-5.64,6.84-5.82,9.86-.44,18.89-3.21,26.52-9.81,2.85-2.46,5.91-2.35,8.69.14,14.3,12.84,40.33,12.87,54.84.06,3.03-2.67,6.02-2.42,9.14.08,11.76,9.47,25,11.22,39.46,7.92,7.61-1.73,12.57-6.37,16.43-12.57.73-1.17.52-3.22.17-4.72-1.04-4.39-2.42-8.71-3.59-13.07-1.04-3.9-2.93-6.44-6.31-9.37-3.86-3.34-5.28-10.49-5.96-16.2-.55-4.56,4.66-5.03,8.28-6.02,9.08-2.49,18.12-5.12,27.21-7.55,5.79-1.55,7.74-.34,9.54,5.46.61,1.98,1.09,4,1.77,5.96,1.5,4.32,1.59,8.22-3.1,10.59,1.98,7.28,3.75,14.21,5.83,21.05.48,1.57,1.82,3.73,3.15,4.06,8.69,2.13,12.79,8.05,14.51,16.25.19.91.53,1.8.82,2.68.05.17.22.29,1,1.28,2.92-1.86,6.1-3.61,8.96-5.78,3.18-2.41,6.14-2.72,9.19-.08,7.47,6.46,16.35,9.17,26,9.62,4.16.2,7.36,1.64,7.1,6.12-.26,4.46-3.67,5.58-7.76,5.42-10.84-.42-20.76-3.43-29.38-9.96-.52.1-.93.08-1.21.26q-10.27,6.66-6.86,18.89c2.91,10.53,5.69,21.1,8.71,31.59,1.41,4.91-.46,7.65-5.04,8.93-13.79,3.84-27.58,7.68-41.4,11.4-5.8,1.56-7.93.31-9.54-5.45-5.24-18.68-10.4-37.37-15.62-56.06-.39-1.4-.93-2.77-1.47-4.36ZM327.91,248.48c-3.9-13.97-7.56-27.09-11.23-40.24-13.51,1.72-25.69-.12-37.96-7.09,5.48,19.72,10.58,38.09,15.73,56.65,11.46-3.19,22.1-6.16,33.46-9.32ZM284.05,190.78c8.04,5.25,18.01,7.58,29.41,5.94-.77-2.89-1.41-5.03-1.9-7.2-.85-3.73-3.04-6.54-6.89-6.25-6,.44-7.82-2.89-9.06-7.77-2.07-8.13-4.47-16.17-6.76-24.37-3.94,1.1-7.16,2-11,3.07,2.41,8.82,4.98,17.23,6.9,25.79.65,2.88-.34,6.13-.7,10.79Z"/>
    <path class="cls-2" d="M255.01,306.24c-1.2,1.83-2.13,3.91-3.63,5.42-22.21,22.33-44.48,44.6-66.79,66.83-5.04,5.02-8.74,4.4-11.71-2.09-10.45-22.82-25.47-42.19-44.03-58.91-3.01-2.72-4.82-5.47-3.9-9.82,2.27-10.68-1.31-19.62-8.7-27.31-6-6.25-5.98-7.82.06-13.87,2.93-2.94,5.86-5.87,8.82-8.79,3.12-3.07,6.27-3.1,9.39,0,3.08,3.05,6.06,6.22,9.24,9.16,4.27,3.96,8.95,4.05,12.56.46,3.28-3.25,3.43-8.22-.03-12.27-2.81-3.29-6-6.25-9.08-9.31-3.25-3.23-3.54-6.51-.26-9.85,3.7-3.77,7.43-7.51,11.21-11.19,2.96-2.87,6.22-2.95,8.94.08,8.69,9.69,19.3,13.27,32.1,10.98,1.58-.28,3.88.54,5.12,1.65,17.71,15.98,34.3,32.93,44.9,54.73,2.13,4.38,3.72,9.02,5.78,14.08ZM180.74,366.12c19.04-19.07,37.68-38.02,56.72-56.56,3.94-3.84,3.92-6.7,1.7-11.17-9.64-19.44-23.91-35.11-39.75-49.53-1.1-1-3.01-1.71-4.48-1.61-12.03.82-22.74-2.32-32.56-10.88-1.42,1.39-2.7,2.64-3.93,3.84,13.36,15.33,15.51,26.01,6.53,34.61-3.29,3.16-8.26,5.41-12.8,6.25-9.74,1.79-16.01-4.94-22.1-11.45-1.01.82-1.77,1.34-2.4,1.99-.63.65-1.13,1.43-1.73,2.21,8.07,9.12,11.1,19.62,10.4,31.5-.12,1.99,1.45,4.42,2.89,6.1,8.3,9.74,17.26,18.96,25.08,29.06,6.06,7.83,10.77,16.7,16.43,25.64Z"/>
    <path class="cls-2" d="M331.38,318.52c2.81.61,5.39,1.12,7.95,1.72,3.71.87,6.48,2.87,5.57,7.04-.87,4-3.89,5.23-7.84,4.33-2.75-.63-5.54-1.12-8.31-1.66q-8.72-1.69-15.14,5.94c4.59,1.59,8.93,3.08,13.27,4.58,3.68,1.27,6.87,3.24,5.47,7.71-1.46,4.65-5.1,4.86-9.2,3.34-3.53-1.31-7.14-2.39-10.71-3.59q-9-3.01-15.47,4.45c3.19,4.8,6.67,9.46,9.54,14.48,3.18,5.57,1.54,9.13-4.57,10.4-12.72,2.64-25.48,5.14-38.24,7.59-5.49,1.05-8.71-1.65-7.74-7.09,2.42-13.53,5.15-27.01,8.06-40.45.94-4.33,4.71-5.85,8.86-3.54,5.24,2.91,10.13,6.46,15.25,9.79,7.8-5.09,7.95-5.49,5.11-14.12-1.47-4.47-3.09-8.9-4.38-13.42-.98-3.46-.25-6.55,3.67-7.65,3.79-1.07,6.17.91,7.37,4.37,1.65,4.75,3.17,9.54,4.78,14.39,6.56-3.68,8.74-8.38,6.13-15.23-1.12-2.94-1.34-6.25-1.71-9.43-.4-3.45,1.09-6.6,4.65-6.28,2.33.21,5.1,2.52,6.44,4.66,1.39,2.23,1.3,5.39,1.86,8.18,8.61-4.29,10.72-8.37,9.09-17.09-.66-3.51-1.81-7.15-1.41-10.57.25-2.12,2.82-5.32,4.66-5.54,1.93-.23,5.32,2.06,6.11,4.04,1.57,3.95,2.04,8.4,2.5,12.7.34,3.13,1.46,4.66,4.72,5.03,4.11.46,8.18,1.35,12.23,2.21,3.51.74,6.13,2.75,5.52,6.61-.64,4.04-3.56,5.5-7.56,4.77-1.85-.34-3.83-.33-5.55-1.01-9.26-3.63-15.85-.37-20.97,8.36ZM293.98,366.92c-7.11-7.05-13.09-12.99-20.21-20.05-1.87,9.55-3.32,16.97-4.93,25.16,8.32-1.69,15.76-3.2,25.14-5.11Z"/>
    <path class="cls-2" d="M254.98,232.1c-.02,6.34-5.23,11.59-11.48,11.57-6.27-.02-11.43-5.28-11.41-11.63.01-6.36,5.2-11.58,11.47-11.56,6.28.02,11.44,5.26,11.42,11.62Z"/>
    <path class="cls-2" d="M264.33,266.85c4.63.31,8.4,4.58,8.11,9.2-.29,4.71-4.46,8.41-9.15,8.1-4.69-.31-8.48-4.55-8.15-9.13.33-4.62,4.66-8.47,9.19-8.17Z"/>
    <path class="cls-2" d="M234.64,376.82c-4.88-.11-8.43-3.86-8.31-8.78.11-4.76,4.08-8.6,8.75-8.46,4.65.14,8.52,4.24,8.41,8.89-.11,4.72-4.08,8.46-8.85,8.36Z"/>
    <path class="cls-2" d="M255.81,256.82c-2.23,1.37-4.7,4.08-6.63,3.74-2.12-.37-3.74-3.55-5.59-5.51,1.97-1.83,3.82-4.9,5.95-5.11,1.96-.2,4.23,2.68,6.36,4.2-.03.89-.07,1.79-.1,2.68Z"/>
    <path class="cls-2" d="M250.12,349.23c-2.17,1.49-4.51,4.34-6.48,4.11-2.1-.24-4.97-3.13-5.51-5.34-.81-3.3,1.88-5.98,5.32-5.44,2.37.37,4.44,2.62,6.65,4.03,0,.88.02,1.76.03,2.64Z"/>
    <path class="cls-2" d="M185.68,290.16c0-4.33-.67-8.06.23-11.36.64-2.36,3.09-5.45,5.23-5.92,3.52-.76,5.85,1.98,5.96,5.82.1,3.55.02,7.11.02,11.46,3.93,0,7.45,0,10.96,0,3.77,0,6.27,1.67,6.29,5.64.02,3.94-2.47,5.71-6.2,5.8-3.38.08-6.77.02-11.04.02,0,3.72.02,7.21,0,10.71-.03,3.99-1.76,6.65-6.04,6.5-4-.14-5.44-2.81-5.42-6.52.02-3.35,0-6.69,0-10.68-4.08,0-7.6.05-11.13-.01-3.78-.06-6.28-1.99-6.26-5.79.02-3.81,2.51-5.67,6.33-5.65,3.37.01,6.74,0,11.07,0Z"/>
  </g>
</svg>