<?xml version="1.0" encoding="UTF-8"?>
<svg id="Quete_ENG" data-name="Quete ENG" xmlns="http://www.w3.org/2000/svg" viewBox="0 0 500 500">
  <defs>
    <style>
      .cls-1 {
        fill: #0c4d53;
        stroke-width: 0px;
      }
    </style>
  </defs>
  <g>
    <path class="cls-1" d="M265.45,203.27c-19.45,7.41-37.86,6.75-55.33-5.18-21.25,13.43-42.63,13.54-64.3-.07-8.65,6.56-18.73,9.68-29.78,10.02-4.16.13-7.39-1.26-7.48-5.71-.08-4.12,2.88-5.64,6.84-5.82,9.86-.44,18.89-3.21,26.52-9.81,2.85-2.46,5.91-2.35,8.69.14,14.3,12.84,40.33,12.87,54.84.06,3.03-2.67,6.02-2.42,9.14.08,11.76,9.47,25,11.22,39.46,7.92,7.61-1.73,12.57-6.37,16.43-12.57.73-1.17.52-3.22.17-4.72-1.04-4.39-2.42-8.71-3.59-13.07-1.04-3.9-2.93-6.44-6.31-9.37-3.86-3.34-5.28-10.49-5.96-16.2-.55-4.56,4.66-5.03,8.28-6.02,9.08-2.49,18.12-5.12,27.21-7.55,5.79-1.55,7.74-.34,9.54,5.46.61,1.98,1.09,4,1.77,5.96,1.5,4.32,1.59,8.22-3.1,10.59,1.98,7.28,3.75,14.21,5.83,21.05.48,1.57,1.82,3.73,3.15,4.06,8.69,2.13,12.79,8.05,14.51,16.25.19.91.53,1.8.82,2.68.05.17.22.29,1,1.28,2.92-1.86,6.1-3.61,8.96-5.78,3.18-2.41,6.14-2.72,9.19-.08,7.47,6.46,16.35,9.17,26,9.62,4.16.2,7.36,1.64,7.1,6.12-.26,4.46-3.67,5.58-7.76,5.42-10.84-.42-20.76-3.43-29.38-9.96-.52.1-.93.08-1.21.26q-10.27,6.66-6.86,18.89c2.91,10.53,5.69,21.1,8.71,31.59,1.41,4.91-.46,7.65-5.04,8.93-13.79,3.84-27.58,7.68-41.4,11.4-5.8,1.56-7.93.31-9.54-5.45-5.24-18.68-10.4-37.37-15.62-56.06-.39-1.4-.93-2.77-1.47-4.36ZM326.17,247.66c-3.9-13.97-7.56-27.09-11.23-40.24-13.51,1.72-25.69-.12-37.96-7.09,5.48,19.72,10.58,38.09,15.73,56.65,11.46-3.19,22.1-6.16,33.46-9.32ZM282.32,189.96c8.04,5.25,18.01,7.58,29.41,5.94-.77-2.89-1.41-5.03-1.9-7.2-.85-3.73-3.04-6.54-6.89-6.25-6,.44-7.82-2.89-9.06-7.77-2.07-8.13-4.47-16.17-6.76-24.37-3.94,1.1-7.16,2-11,3.07,2.41,8.82,4.98,17.23,6.9,25.79.65,2.88-.34,6.13-.7,10.79Z"/>
    <path class="cls-1" d="M253.27,305.42c-1.2,1.83-2.13,3.91-3.63,5.42-22.21,22.33-44.48,44.6-66.79,66.83-5.04,5.02-8.74,4.4-11.71-2.09-10.45-22.82-25.47-42.19-44.03-58.91-3.01-2.72-4.82-5.47-3.9-9.82,2.27-10.68-1.31-19.62-8.7-27.31-6-6.25-5.98-7.82.06-13.87,2.93-2.94,5.86-5.87,8.82-8.79,3.12-3.07,6.27-3.1,9.39,0,3.08,3.05,6.06,6.22,9.24,9.16,4.27,3.96,8.95,4.05,12.56.46,3.28-3.25,3.43-8.22-.03-12.27-2.81-3.29-6-6.25-9.08-9.31-3.25-3.23-3.54-6.51-.26-9.85,3.7-3.77,7.43-7.51,11.21-11.19,2.96-2.87,6.22-2.95,8.94.08,8.69,9.69,19.3,13.27,32.1,10.98,1.58-.28,3.88.54,5.12,1.65,17.71,15.98,34.3,32.93,44.9,54.73,2.13,4.38,3.72,9.02,5.78,14.08ZM179,365.31c19.04-19.07,37.68-38.02,56.72-56.56,3.94-3.84,3.92-6.7,1.7-11.17-9.64-19.44-23.91-35.11-39.75-49.53-1.1-1-3.01-1.71-4.48-1.61-12.03.82-22.74-2.32-32.56-10.88-1.42,1.39-2.7,2.64-3.93,3.84,13.36,15.33,15.51,26.01,6.53,34.61-3.29,3.16-8.26,5.41-12.8,6.25-9.74,1.79-16.01-4.94-22.1-11.45-1.01.82-1.77,1.34-2.4,1.99-.63.65-1.13,1.43-1.73,2.21,8.07,9.12,11.1,19.62,10.4,31.5-.12,1.99,1.45,4.42,2.89,6.1,8.3,9.74,17.26,18.96,25.08,29.06,6.06,7.83,10.77,16.7,16.43,25.64Z"/>
    <path class="cls-1" d="M329.65,317.7c2.81.61,5.39,1.12,7.95,1.72,3.71.87,6.48,2.87,5.57,7.04-.87,4-3.89,5.23-7.84,4.33-2.75-.63-5.54-1.12-8.31-1.66q-8.72-1.69-15.14,5.94c4.59,1.59,8.93,3.08,13.27,4.58,3.68,1.27,6.87,3.24,5.47,7.71-1.46,4.65-5.1,4.86-9.2,3.34-3.53-1.31-7.14-2.39-10.71-3.59q-9-3.01-15.47,4.45c3.19,4.8,6.67,9.46,9.54,14.48,3.18,5.57,1.54,9.13-4.57,10.4-12.72,2.64-25.48,5.14-38.24,7.59-5.49,1.05-8.71-1.65-7.74-7.09,2.42-13.53,5.15-27.01,8.06-40.45.94-4.33,4.71-5.85,8.86-3.54,5.24,2.91,10.13,6.46,15.25,9.79,7.8-5.09,7.95-5.49,5.11-14.12-1.47-4.47-3.09-8.9-4.38-13.42-.98-3.46-.25-6.55,3.67-7.65,3.79-1.07,6.17.91,7.37,4.37,1.65,4.75,3.17,9.54,4.78,14.39,6.56-3.68,8.74-8.38,6.13-15.23-1.12-2.94-1.34-6.25-1.71-9.43-.4-3.45,1.09-6.6,4.65-6.28,2.33.21,5.1,2.52,6.44,4.66,1.39,2.23,1.3,5.39,1.86,8.18,8.61-4.29,10.72-8.37,9.09-17.09-.66-3.51-1.81-7.15-1.41-10.57.25-2.12,2.82-5.32,4.66-5.54,1.93-.23,5.32,2.06,6.11,4.04,1.57,3.95,2.04,8.4,2.5,12.7.34,3.13,1.46,4.66,4.72,5.03,4.11.46,8.18,1.35,12.23,2.21,3.51.74,6.13,2.75,5.52,6.61-.64,4.04-3.56,5.5-7.56,4.77-1.85-.34-3.83-.33-5.55-1.01-9.26-3.63-15.85-.37-20.97,8.36ZM292.24,366.11c-7.11-7.05-13.09-12.99-20.21-20.05-1.87,9.55-3.32,16.97-4.93,25.16,8.32-1.69,15.76-3.2,25.14-5.11Z"/>
    <path class="cls-1" d="M253.25,231.29c-.02,6.34-5.23,11.59-11.48,11.57-6.27-.02-11.43-5.28-11.41-11.63.01-6.36,5.2-11.58,11.47-11.56,6.28.02,11.44,5.26,11.42,11.62Z"/>
    <path class="cls-1" d="M262.59,266.03c4.63.31,8.4,4.58,8.11,9.2-.29,4.71-4.46,8.41-9.15,8.1-4.69-.31-8.48-4.55-8.15-9.13.33-4.62,4.66-8.47,9.19-8.17Z"/>
    <path class="cls-1" d="M232.91,376.01c-4.88-.11-8.43-3.86-8.31-8.78.11-4.76,4.08-8.6,8.75-8.46,4.65.14,8.52,4.24,8.41,8.89-.11,4.72-4.08,8.46-8.85,8.36Z"/>
    <path class="cls-1" d="M254.08,256.01c-2.23,1.37-4.7,4.08-6.63,3.74-2.12-.37-3.74-3.55-5.59-5.51,1.97-1.83,3.82-4.9,5.95-5.11,1.96-.2,4.23,2.68,6.36,4.2-.03.89-.07,1.79-.1,2.68Z"/>
    <path class="cls-1" d="M248.38,348.41c-2.17,1.49-4.51,4.34-6.48,4.11-2.1-.24-4.97-3.13-5.51-5.34-.81-3.3,1.88-5.98,5.32-5.44,2.37.37,4.44,2.62,6.65,4.03,0,.88.02,1.76.03,2.64Z"/>
    <path class="cls-1" d="M183.95,289.34c0-4.33-.67-8.06.23-11.36.64-2.36,3.09-5.45,5.23-5.92,3.52-.76,5.85,1.98,5.96,5.82.1,3.55.02,7.11.02,11.46,3.93,0,7.45,0,10.96,0,3.77,0,6.27,1.67,6.29,5.64.02,3.94-2.47,5.71-6.2,5.8-3.38.08-6.77.02-11.04.02,0,3.72.02,7.21,0,10.71-.03,3.99-1.76,6.65-6.04,6.5-4-.14-5.44-2.81-5.42-6.52.02-3.35,0-6.69,0-10.68-4.08,0-7.6.05-11.13-.01-3.78-.06-6.28-1.99-6.26-5.79.02-3.81,2.51-5.67,6.33-5.65,3.37.01,6.74,0,11.07,0Z"/>
  </g>
  <g>
    <path class="cls-1" d="M67.03,398.84c-.74-.83-1.07-1.68-1.01-2.54.06-.86.5-1.64,1.31-2.36l18.07-15.98c.86-.76,1.7-1.11,2.52-1.06.83.05,1.61.49,2.35,1.33.72.81,1.05,1.63,1,2.46-.05.83-.5,1.62-1.36,2.38l-16.36,14.46,7.8,8.82c.62.7.91,1.41.88,2.12-.03.71-.39,1.37-1.07,1.97-.7.62-1.41.9-2.12.85-.71-.05-1.38-.43-2-1.13l-10.01-11.32Z"/>
    <path class="cls-1" d="M90.04,423.17c-1.72-1.54-2.92-3.22-3.59-5.04-.67-1.82-.79-3.67-.35-5.57.43-1.89,1.42-3.7,2.97-5.42,1.15-1.29,2.38-2.27,3.7-2.94,1.31-.67,2.67-1.04,4.08-1.1,1.41-.06,2.81.19,4.2.75,1.39.56,2.73,1.41,4.02,2.56,1.72,1.54,2.92,3.23,3.59,5.04.67,1.82.8,3.67.4,5.55-.4,1.88-1.38,3.68-2.92,5.41-1.17,1.31-2.42,2.3-3.74,2.96-1.32.67-2.69,1.04-4.09,1.11-1.41.08-2.81-.17-4.21-.73-1.4-.57-2.74-1.42-4.03-2.58ZM93.35,419.47c.72.64,1.5,1.03,2.33,1.15.84.12,1.71-.03,2.64-.44.92-.42,1.86-1.16,2.82-2.23,1.43-1.59,2.15-3.06,2.17-4.4.02-1.34-.51-2.49-1.58-3.44-.7-.62-1.46-1.01-2.29-1.16-.83-.15-1.7-.01-2.61.41-.91.42-1.84,1.17-2.8,2.24-1.43,1.59-2.16,3.07-2.2,4.43-.04,1.36.47,2.51,1.51,3.45Z"/>
    <path class="cls-1" d="M110.24,439.35c-1.05-.75-2.06-1.62-3.03-2.6s-1.75-2.02-2.33-3.12c-.31-.58-.43-1.12-.37-1.64.06-.51.24-.95.54-1.32.3-.36.67-.62,1.12-.77.45-.15.89-.14,1.34.01.45.16.83.49,1.14,1.01.69,1.1,1.38,2.03,2.07,2.77.69.75,1.43,1.4,2.22,1.96,1.02.73,1.88,1.1,2.58,1.11.69,0,1.23-.25,1.6-.77.34-.48.44-.94.3-1.4-.14-.46-.47-.95-1-1.47l-3.27-3.36c-1.29-1.32-2.04-2.67-2.25-4.07-.21-1.39.14-2.73,1.06-4.02.85-1.19,1.92-1.98,3.21-2.38,1.29-.39,2.69-.4,4.2-.02s3.02,1.1,4.52,2.18c1.07.77,1.99,1.57,2.76,2.41.77.84,1.42,1.77,1.95,2.79.28.52.38,1.02.3,1.51s-.28.9-.61,1.24c-.33.34-.73.58-1.19.72-.46.14-.91.12-1.35-.04-.44-.17-.83-.52-1.17-1.05-.51-.9-1.03-1.66-1.56-2.28-.53-.61-1.1-1.13-1.69-1.56-1.07-.77-1.97-1.15-2.69-1.14-.72,0-1.27.27-1.65.79-.29.41-.4.84-.32,1.31.08.47.37.96.87,1.46l3.27,3.36c1.36,1.37,2.17,2.73,2.43,4.08.26,1.35-.09,2.7-1.05,4.03-1.29,1.81-3.02,2.73-5.18,2.75-2.16.02-4.42-.81-6.78-2.49Z"/>
    <path class="cls-1" d="M130.04,452.05c-1.12-.64-2.21-1.4-3.28-2.28-1.07-.88-1.94-1.84-2.63-2.88-.36-.54-.54-1.08-.53-1.59,0-.52.14-.97.4-1.36.26-.39.6-.68,1.03-.88.43-.19.88-.23,1.34-.12.46.11.87.41,1.24.89.79,1.03,1.57,1.88,2.33,2.55.76.67,1.56,1.25,2.4,1.73,1.09.63,1.99.91,2.68.85.69-.06,1.2-.37,1.52-.93.29-.51.34-.98.16-1.43-.19-.44-.57-.9-1.14-1.36l-3.59-3.02c-1.42-1.18-2.3-2.46-2.65-3.82-.35-1.36-.13-2.73.66-4.11.73-1.27,1.71-2.17,2.96-2.69,1.24-.52,2.64-.67,4.18-.44,1.54.23,3.11.8,4.71,1.71,1.14.66,2.14,1.36,2.99,2.12.85.76,1.59,1.62,2.22,2.59.33.49.48.98.45,1.47s-.19.92-.49,1.29c-.3.37-.67.65-1.11.83-.44.19-.89.22-1.34.09-.45-.12-.87-.43-1.27-.93-.6-.85-1.19-1.55-1.78-2.11-.59-.56-1.21-1.02-1.84-1.38-1.14-.66-2.08-.94-2.79-.87-.72.08-1.24.4-1.56.95-.25.43-.31.88-.18,1.34.12.46.46.92,1.02,1.37l3.59,3.02c1.49,1.23,2.43,2.5,2.82,3.82.39,1.32.18,2.69-.64,4.12-1.11,1.93-2.73,3.02-4.88,3.26s-4.48-.36-6.99-1.8Z"/>
    <path class="cls-1" d="M165.54,468.61c-2.17-.8-3.9-1.92-5.2-3.36-1.29-1.44-2.09-3.12-2.38-5.04-.29-1.92-.04-3.96.76-6.13.6-1.62,1.38-2.99,2.35-4.1.97-1.11,2.1-1.95,3.39-2.52s2.68-.86,4.18-.85c1.5,0,3.06.3,4.68.9,2.17.8,3.9,1.92,5.2,3.36,1.29,1.44,2.1,3.11,2.42,5.01.32,1.9.08,3.93-.72,6.1-.61,1.65-1.4,3.03-2.39,4.13-.98,1.11-2.12,1.95-3.39,2.54-1.28.59-2.67.88-4.18.87s-3.08-.31-4.7-.91ZM167.26,463.95c.91.33,1.77.4,2.59.21.82-.2,1.58-.66,2.29-1.38.7-.72,1.3-1.76,1.8-3.11.74-2.01.87-3.64.39-4.89-.48-1.25-1.39-2.12-2.73-2.62-.88-.32-1.73-.4-2.56-.24-.83.17-1.58.61-2.27,1.34s-1.28,1.77-1.78,3.11c-.74,2.01-.87,3.65-.41,4.93.47,1.28,1.36,2.16,2.68,2.65Z"/>
    <path class="cls-1" d="M186.73,475.19c-1.05-.27-1.78-.76-2.18-1.47-.41-.71-.47-1.59-.2-2.64l3.42-13.18-1.53-.4c-.79-.21-1.36-.58-1.68-1.12-.33-.54-.4-1.18-.21-1.91.21-.79.58-1.34,1.13-1.64.55-.3,1.22-.34,2.01-.14l3.4.88-2.31,1.22.34-1.32c.79-3.03,2.13-5.1,4.04-6.21,1.91-1.11,4.37-1.44,7.4-.99l1.39.22c.75.13,1.31.4,1.68.8.37.4.56.84.58,1.33.02.49-.07.96-.27,1.4-.21.45-.5.81-.89,1.08s-.84.36-1.36.26l-.61-.11c-1.56-.28-2.75-.21-3.56.24-.81.44-1.38,1.29-1.7,2.53l-.37,1.45-.62-.93,3.83.99c.82.21,1.39.58,1.71,1.1.32.52.38,1.18.17,1.97-.19.74-.55,1.26-1.09,1.58-.54.32-1.21.37-2.04.15l-3.02-.78-3.42,13.18c-.57,2.18-1.91,3-4.04,2.45Z"/>
    <path class="cls-1" d="M226.47,482.14c-1.72-.16-3.2-.74-4.45-1.73-1.25-.99-2.02-2.21-2.32-3.69l.62-1.4-.26,2.71c-.1,1.08-.46,1.88-1.07,2.41-.61.53-1.44.75-2.49.65-1.05-.1-1.83-.47-2.34-1.11-.51-.64-.72-1.5-.62-2.57l2.37-24.89c.11-1.11.47-1.92,1.09-2.43.62-.51,1.47-.72,2.55-.62,1.05.1,1.83.46,2.35,1.08s.72,1.49.61,2.6l-.99,10.37-.52-.05c.59-1.27,1.58-2.25,2.97-2.94,1.39-.69,2.93-.96,4.62-.79,1.9.18,3.5.79,4.81,1.83,1.31,1.04,2.28,2.42,2.91,4.16.63,1.74.83,3.76.61,6.06-.22,2.3-.8,4.26-1.75,5.88-.95,1.62-2.17,2.81-3.67,3.58-1.5.77-3.18,1.06-5.05.89ZM224.97,477.01c.93.09,1.78-.07,2.54-.46.76-.4,1.38-1.04,1.86-1.92.48-.88.79-2.04.93-3.46.2-2.13-.08-3.74-.86-4.83-.78-1.09-1.87-1.7-3.27-1.83-.93-.09-1.78.05-2.53.42-.76.37-1.38.99-1.88,1.87-.5.88-.81,2.03-.95,3.46-.2,2.13.08,3.75.86,4.87.78,1.12,1.88,1.75,3.31,1.88Z"/>
    <path class="cls-1" d="M245.4,456.96c-1.23-.02-2.17-.32-2.82-.9-.65-.58-.97-1.4-.95-2.45.02-1.08.36-1.91,1.03-2.47.67-.56,1.62-.83,2.85-.81,1.23.02,2.16.32,2.8.9.63.58.94,1.42.93,2.5-.02,1.05-.35,1.86-1.01,2.42-.65.56-1.6.83-2.83.81ZM244.98,482.84c-1.08-.02-1.91-.35-2.47-.99s-.83-1.53-.81-2.67l.24-15.02c.02-1.17.32-2.07.9-2.69.58-.62,1.41-.92,2.5-.9,1.05.02,1.86.35,2.42.98.56.64.83,1.54.81,2.72l-.24,15.02c-.02,1.14-.31,2.02-.88,2.64-.57.62-1.39.92-2.48.91Z"/>
    <path class="cls-1" d="M265.31,482.24c-2.31.18-4.35-.11-6.13-.88-1.78-.77-3.2-1.96-4.27-3.58-1.07-1.62-1.69-3.58-1.88-5.89-.14-1.72,0-3.29.42-4.71.42-1.41,1.09-2.65,2.02-3.71.93-1.06,2.08-1.9,3.44-2.52,1.36-.62,2.9-1,4.63-1.14,2.31-.18,4.35.11,6.13.88,1.78.77,3.21,1.95,4.29,3.54,1.08,1.59,1.71,3.54,1.89,5.84.14,1.75,0,3.34-.44,4.75s-1.11,2.66-2.02,3.73c-.91,1.07-2.06,1.92-3.43,2.54-1.38.62-2.93,1-4.65,1.14ZM264.92,477.29c.96-.08,1.78-.38,2.44-.9s1.16-1.26,1.5-2.21c.34-.95.45-2.14.33-3.57-.17-2.13-.73-3.67-1.69-4.6-.96-.94-2.15-1.35-3.58-1.24-.93.07-1.74.36-2.42.85-.68.49-1.18,1.22-1.5,2.17s-.43,2.14-.31,3.57c.17,2.13.73,3.68,1.69,4.65.96.97,2.14,1.4,3.54,1.29Z"/>
    <path class="cls-1" d="M291.32,478.73c-1.84.37-3.54.26-5.11-.35-1.57-.61-2.92-1.66-4.03-3.17-1.11-1.51-1.9-3.39-2.37-5.66-.46-2.27-.47-4.3-.03-6.09.44-1.79,1.27-3.28,2.48-4.45,1.21-1.17,2.73-1.95,4.57-2.32,1.66-.34,3.22-.24,4.66.31,1.44.54,2.52,1.41,3.25,2.61l-.47.1-2.08-10.2c-.22-1.09-.12-1.97.31-2.64.43-.67,1.18-1.11,2.24-1.33,1.03-.21,1.89-.09,2.58.35.69.44,1.14,1.21,1.37,2.3l4.99,24.5c.22,1.06.1,1.94-.34,2.62-.44.69-1.18,1.14-2.21,1.35s-1.89.09-2.56-.37-1.12-1.22-1.34-2.28l-.6-2.93.82,1.58c-.12,1.49-.74,2.79-1.87,3.9-1.13,1.11-2.55,1.84-4.24,2.19ZM292.27,473.47c.95-.19,1.72-.59,2.31-1.19.59-.6,1-1.39,1.22-2.38.22-.99.18-2.18-.1-3.59-.43-2.09-1.17-3.55-2.24-4.37-1.06-.81-2.3-1.08-3.7-.79-.92.19-1.69.57-2.3,1.14-.62.57-1.02,1.35-1.23,2.34-.2.98-.16,2.18.12,3.58.43,2.09,1.17,3.56,2.24,4.41,1.07.84,2.29,1.12,3.67.84Z"/>
    <path class="cls-1" d="M306.66,448.2c-1.18.35-2.17.35-2.96,0-.8-.36-1.34-1.04-1.65-2.05-.31-1.04-.23-1.92.23-2.66.47-.74,1.29-1.28,2.47-1.63,1.18-.35,2.16-.35,2.94.01s1.33,1.06,1.64,2.1c.3,1.01.23,1.88-.23,2.61-.45.73-1.27,1.28-2.45,1.63ZM314.09,472.99c-1.04.31-1.92.25-2.65-.19-.73-.44-1.26-1.21-1.58-2.3l-4.31-14.39c-.34-1.12-.32-2.07.04-2.83s1.07-1.31,2.11-1.62c1.01-.3,1.88-.23,2.61.21.73.44,1.26,1.22,1.6,2.34l4.32,14.39c.33,1.09.32,2.02-.04,2.79s-1.05,1.3-2.08,1.61Z"/>
    <path class="cls-1" d="M332.2,466.79c-.79.31-1.57.37-2.33.18s-1.49-.63-2.18-1.34l-11.76-11.81c-.58-.59-.95-1.21-1.1-1.86-.16-.65-.06-1.25.3-1.82.36-.57.99-1.03,1.89-1.38.74-.29,1.4-.35,2-.19.6.16,1.26.65,1.99,1.46l9.64,10.38-1.31.51.2-14.28c.02-1.08.19-1.88.52-2.4.33-.52.9-.94,1.72-1.26.71-.28,1.35-.32,1.91-.11.57.2,1.02.59,1.35,1.15.33.56.47,1.26.42,2.1l-.7,16.75c-.01,1.01-.23,1.84-.66,2.48-.43.64-1.06,1.12-1.91,1.46Z"/>
    <path class="cls-1" d="M356.82,455.55c-2.26,1.18-4.41,1.79-6.46,1.82s-3.9-.47-5.55-1.51c-1.65-1.04-3-2.57-4.06-4.59-1.03-1.97-1.52-3.92-1.47-5.85.05-1.93.6-3.7,1.65-5.33,1.05-1.62,2.52-2.93,4.42-3.92,1.38-.72,2.74-1.14,4.09-1.27s2.65.02,3.9.44c1.25.42,2.39,1.13,3.44,2.12,1.05.99,1.96,2.22,2.73,3.7.26.49.3.94.11,1.35-.18.41-.57.77-1.17,1.08l-12.22,6.4-1.59-3.04,9.81-5.13-.34.87c-.56-1.06-1.18-1.87-1.86-2.42-.68-.55-1.41-.85-2.19-.91-.77-.06-1.59.14-2.45.59-.96.5-1.66,1.15-2.11,1.95-.44.79-.63,1.7-.56,2.72.07,1.02.41,2.12,1.02,3.28l.16.31c1.03,1.97,2.25,3.18,3.66,3.64s3.02.2,4.84-.75c.62-.33,1.29-.78,2.02-1.35.72-.58,1.35-1.22,1.87-1.92.45-.6.93-.97,1.44-1.13s.99-.13,1.43.07c.44.2.79.51,1.06.93.27.42.4.91.39,1.46,0,.55-.21,1.11-.61,1.68-.62.96-1.42,1.84-2.4,2.67-.97.82-1.98,1.51-3.02,2.05Z"/>
    <path class="cls-1" d="M372.53,446.3c-.93.61-1.8.83-2.61.66-.81-.17-1.51-.71-2.11-1.61l-8.55-13.04c-.59-.91-.81-1.75-.64-2.55.17-.79.68-1.47,1.53-2.03.88-.58,1.71-.78,2.49-.61.78.17,1.47.71,2.06,1.62l1.25,1.91-.37.24c-.67-1.66-.77-3.23-.29-4.69s1.48-2.77,3-3.91c.58-.45,1.15-.61,1.72-.47s1.12.6,1.68,1.4c.55.73.79,1.43.72,2.1-.07.67-.48,1.33-1.25,1.98l-.8.63c-1.32,1.04-2.09,2.12-2.31,3.25-.22,1.13.09,2.34.94,3.64l4.48,6.83c.59.91.81,1.76.66,2.56-.16.8-.69,1.5-1.59,2.1Z"/>
    <path class="cls-1" d="M392.47,432.17c-1.01.8-2.12,1.53-3.33,2.2-1.21.66-2.43,1.12-3.65,1.38-.64.14-1.2.1-1.68-.1-.48-.2-.85-.49-1.12-.88-.27-.38-.41-.81-.43-1.29-.02-.47.11-.9.38-1.29.27-.38.7-.66,1.28-.82,1.25-.36,2.33-.76,3.24-1.22.91-.46,1.74-.99,2.5-1.59.99-.78,1.58-1.51,1.78-2.17s.1-1.25-.3-1.75c-.36-.46-.79-.68-1.27-.68-.48,0-1.04.19-1.69.56l-4.13,2.21c-1.62.88-3.13,1.22-4.53,1.04-1.4-.18-2.59-.89-3.57-2.13-.91-1.15-1.38-2.39-1.4-3.74s.36-2.7,1.14-4.04c.78-1.35,1.89-2.6,3.34-3.74,1.03-.82,2.06-1.48,3.07-1.99s2.09-.88,3.22-1.1c.58-.12,1.09-.08,1.53.13.44.21.78.52,1.02.93.23.41.35.86.36,1.34,0,.48-.13.91-.41,1.28-.28.38-.73.65-1.33.83-1.01.24-1.88.53-2.62.87-.74.34-1.39.74-1.97,1.2-1.03.82-1.65,1.58-1.84,2.27-.2.7-.09,1.3.31,1.8.31.39.7.61,1.17.67.47.05,1.02-.09,1.64-.44l4.13-2.21c1.69-.93,3.22-1.33,4.59-1.21,1.37.13,2.57.83,3.59,2.12,1.38,1.74,1.79,3.66,1.22,5.74s-1.99,4.02-4.27,5.83Z"/>
    <path class="cls-1" d="M388.56,401.27c-.9.84-1.79,1.27-2.66,1.3-.87.03-1.67-.34-2.38-1.12-.74-.79-1.06-1.62-.96-2.49.09-.87.59-1.72,1.49-2.56.9-.84,1.78-1.26,2.64-1.28.86-.02,1.66.37,2.4,1.16.72.77,1.03,1.59.95,2.45-.08.86-.58,1.7-1.48,2.54ZM406.16,420.25c-.79.74-1.62,1.07-2.46,1-.85-.07-1.66-.53-2.44-1.37l-10.22-11.02c-.8-.86-1.2-1.71-1.21-2.56,0-.85.38-1.64,1.18-2.38.77-.72,1.58-1.04,2.43-.97.85.07,1.67.54,2.47,1.4l10.22,11.01c.78.84,1.17,1.68,1.2,2.52s-.37,1.63-1.16,2.37Z"/>
    <path class="cls-1" d="M420.58,405.9c-1.38,1.47-2.79,2.47-4.21,3-1.42.53-2.83.59-4.22.19-1.39-.4-2.8-1.28-4.23-2.62l-6.02-5.66-1.26,1.34c-.56.6-1.16.91-1.79.94s-1.22-.22-1.78-.74c-.6-.56-.9-1.15-.89-1.78,0-.62.28-1.23.84-1.83l1.26-1.34-2.43-2.29c-.81-.76-1.22-1.55-1.24-2.37-.01-.82.34-1.61,1.06-2.38.74-.79,1.51-1.19,2.31-1.21s1.6.36,2.41,1.12l2.43,2.29,2.86-3.04c.56-.6,1.15-.91,1.76-.94.61-.03,1.21.24,1.81.8.55.52.84,1.09.86,1.71.02.62-.25,1.23-.81,1.83l-2.86,3.04,5.83,5.48c.9.84,1.76,1.27,2.6,1.27.84,0,1.69-.45,2.55-1.37.3-.32.55-.65.75-.99.2-.34.4-.63.59-.89.26-.32.58-.48.96-.48.38,0,.92.32,1.6.96.51.48.88.99,1.1,1.52.22.53.22,1.09-.01,1.68-.15.38-.42.84-.8,1.39-.38.55-.73,1-1.05,1.34Z"/>
    <path class="cls-1" d="M436.66,399.02c-.47.6-1.01.97-1.64,1.12-.63.14-1.23.05-1.81-.29-.58-.33-1.05-.85-1.44-1.55l-3.34-6.31,2.16,1.67-18.87-4.76c-.78-.23-1.4-.59-1.86-1.08-.46-.48-.68-1.06-.66-1.73s.32-1.39.91-2.15c.48-.63,1.02-1.02,1.6-1.18.59-.16,1.41-.09,2.47.22l13.6,3.96-.86,1.11-7.19-12.33c-.54-.93-.79-1.71-.77-2.34.02-.63.3-1.29.84-1.99.47-.6.99-.96,1.58-1.08.59-.12,1.17-.02,1.74.29.57.31,1.05.84,1.44,1.58l12.21,22.49c.52.96.75,1.76.7,2.4-.05.64-.33,1.29-.83,1.94Z"/>
  </g>
  <path class="cls-1" d="M64,379.52c-1.25,0-2.48-.58-3.26-1.68-27.71-38.9-42.36-84.8-42.36-132.72,0-61.17,23.82-118.67,67.07-161.93C128.71,39.94,186.21,16.12,247.38,16.12s118.68,23.82,161.93,67.07c43.25,43.25,67.07,100.76,67.07,161.93,0,43.95-12.48,86.64-36.1,123.46-1.19,1.86-3.67,2.4-5.53,1.21-1.86-1.19-2.4-3.67-1.21-5.53,22.79-35.53,34.83-76.73,34.83-119.15,0-121.86-99.14-221-221-221S26.38,123.26,26.38,245.12c0,46.25,14.13,90.54,40.88,128.08,1.28,1.8.86,4.3-.94,5.58-.7.5-1.51.74-2.32.74Z"/>
</svg>