<?xml version="1.0" encoding="UTF-8"?>
<svg id="Quete_ENG" data-name="Quete ENG" xmlns="http://www.w3.org/2000/svg" viewBox="0 0 500 500">
  <defs>
    <style>
      .cls-1 {
        fill: #0c4d53;
        stroke-width: 0px;
      }
    </style>
  </defs>
  <g>
    <path class="cls-1" d="M45.05,368.86c-.61-.93-.81-1.81-.62-2.64.2-.83.76-1.54,1.69-2.15l20.43-13.32c.96-.62,1.84-.84,2.66-.66.82.18,1.53.74,2.14,1.67l5.83,8.94c1.89,2.9,2.64,5.58,2.27,8.07-.38,2.48-1.81,4.54-4.32,6.17-1.62,1.06-3.25,1.61-4.89,1.67-1.64.06-3.22-.38-4.73-1.3-1.51-.92-2.9-2.35-4.16-4.29l.82-.11.98,1.51c.67,1.03,1.01,2.1,1.01,3.2,0,1.1-.33,2.27-.99,3.51l-2.75,5.04c-.39.74-.89,1.29-1.49,1.65-.61.36-1.23.45-1.87.27-.64-.18-1.22-.67-1.75-1.48s-.78-1.58-.77-2.3c.02-.73.25-1.52.71-2.38l4.21-7.78c.45-.82.62-1.57.52-2.25s-.4-1.41-.89-2.17l-1.82-2.8-7.43,4.85c-.93.61-1.81.84-2.64.7-.83-.14-1.54-.68-2.15-1.61ZM61.4,362.24l3.33,5.12c.99,1.52,2.05,2.47,3.16,2.84s2.29.16,3.52-.64c1.2-.78,1.86-1.76,1.97-2.93s-.33-2.52-1.32-4.04l-3.33-5.12-7.32,4.77Z"/>
    <path class="cls-1" d="M68.21,400.87c-1.64-1.95-2.7-3.92-3.18-5.91-.48-1.99-.39-3.91.27-5.75.65-1.84,1.85-3.49,3.6-4.97,1.7-1.44,3.5-2.34,5.39-2.71,1.89-.37,3.74-.22,5.56.45,1.81.67,3.41,1.83,4.79,3.46,1,1.19,1.71,2.43,2.13,3.72.42,1.29.56,2.59.42,3.9-.14,1.31-.58,2.58-1.32,3.82-.74,1.24-1.75,2.39-3.02,3.47-.43.36-.86.49-1.3.41s-.88-.39-1.31-.91l-8.9-10.54,2.62-2.21,7.14,8.46-.92-.14c.92-.77,1.57-1.56,1.96-2.34.39-.79.53-1.57.41-2.33-.11-.77-.48-1.52-1.1-2.26-.7-.83-1.49-1.37-2.36-1.63-.87-.26-1.8-.25-2.78.05-.98.29-1.97.86-2.98,1.71l-.27.23c-1.7,1.44-2.62,2.89-2.75,4.37-.14,1.47.46,3,1.78,4.56.45.54,1.04,1.1,1.76,1.68.72.58,1.48,1.05,2.28,1.41.68.31,1.15.69,1.41,1.16.26.47.34.94.24,1.41-.1.47-.33.88-.68,1.24-.35.35-.8.59-1.34.7s-1.13.04-1.77-.23c-1.07-.4-2.11-.99-3.12-1.76-1.02-.77-1.9-1.61-2.66-2.5Z"/>
    <path class="cls-1" d="M84.15,417.71c-.93-.89-1.81-1.89-2.63-3-.82-1.11-1.44-2.25-1.86-3.42-.22-.62-.26-1.18-.13-1.68.13-.5.37-.91.72-1.23.35-.32.75-.52,1.21-.6.46-.08.91-.01,1.33.2s.75.61.99,1.16c.52,1.19,1.07,2.2,1.65,3.04.58.84,1.21,1.59,1.91,2.26.91.87,1.71,1.36,2.39,1.47.69.11,1.25-.07,1.7-.53.41-.42.57-.87.5-1.35s-.33-1.01-.78-1.6l-2.75-3.79c-1.09-1.49-1.64-2.94-1.65-4.35s.53-2.68,1.63-3.83c1.01-1.06,2.19-1.69,3.52-1.89s2.72-.01,4.16.58c1.44.59,2.83,1.52,4.16,2.8.95.91,1.75,1.84,2.39,2.78.64.94,1.15,1.95,1.53,3.04.2.55.22,1.07.08,1.54-.15.47-.41.85-.78,1.14-.38.29-.8.47-1.28.54-.48.07-.92,0-1.33-.24-.41-.23-.74-.63-1-1.21-.37-.97-.78-1.79-1.22-2.48-.44-.68-.92-1.28-1.45-1.79-.95-.91-1.79-1.42-2.5-1.52-.72-.1-1.3.08-1.74.55-.35.36-.51.78-.5,1.25,0,.48.23,1,.65,1.57l2.75,3.79c1.15,1.55,1.76,3.01,1.82,4.39.06,1.38-.48,2.66-1.61,3.84-1.54,1.61-3.38,2.27-5.52,1.98-2.14-.29-4.26-1.43-6.35-3.44Z"/>
    <path class="cls-1" d="M103.73,434.53c-1.84-1.41-3.16-3-3.96-4.76-.81-1.76-1.06-3.6-.77-5.52s1.14-3.79,2.55-5.63c1.05-1.37,2.21-2.44,3.46-3.21,1.26-.77,2.58-1.24,3.98-1.4,1.4-.16,2.81-.02,4.24.43s2.83,1.2,4.2,2.25c1.83,1.41,3.16,3,3.96,4.76.81,1.76,1.08,3.6.82,5.5-.26,1.9-1.1,3.77-2.51,5.61-1.07,1.39-2.24,2.47-3.51,3.23-1.27.76-2.6,1.23-4,1.42s-2.81.05-4.25-.41c-1.44-.46-2.84-1.21-4.21-2.27ZM106.76,430.59c.77.59,1.57.91,2.42.97.84.06,1.71-.16,2.59-.64.89-.48,1.77-1.29,2.64-2.43,1.3-1.7,1.91-3.21,1.83-4.55s-.69-2.44-1.83-3.32c-.74-.57-1.53-.9-2.37-.99-.84-.09-1.69.11-2.57.6-.88.49-1.75,1.31-2.62,2.44-1.3,1.7-1.92,3.22-1.86,4.58.06,1.36.65,2.47,1.77,3.32Z"/>
    <path class="cls-1" d="M125,449.09c-1.56-.93-2.69-1.98-3.38-3.18-.69-1.19-.93-2.52-.73-3.98s.82-3.06,1.85-4.8l5.06-8.54c.57-.96,1.24-1.53,2.01-1.72.78-.19,1.62-.01,2.52.52.91.54,1.47,1.19,1.69,1.97s.05,1.65-.52,2.6l-5.15,8.69c-.66,1.11-.92,2.07-.79,2.88s.69,1.51,1.67,2.09c1.08.64,2.2.78,3.35.42s2.1-1.17,2.84-2.43l4.61-7.79c.57-.96,1.24-1.53,2.01-1.72s1.62-.01,2.52.52c.93.55,1.5,1.21,1.71,1.98.21.77.03,1.63-.54,2.59l-7.95,13.42c-1.15,1.94-2.64,2.37-4.48,1.28-.91-.54-1.45-1.2-1.63-1.99-.18-.79,0-1.65.56-2.58l1.5-2.53-.31,1.81c-1.32.96-2.7,1.48-4.15,1.58-1.45.09-2.88-.28-4.29-1.11Z"/>
    <path class="cls-1" d="M145.58,460.12c-1.01-.47-1.66-1.09-1.95-1.87-.29-.78-.2-1.66.25-2.64l6.53-14.16c.45-.98,1.06-1.62,1.82-1.89.76-.28,1.6-.21,2.53.22.96.44,1.57,1.04,1.83,1.79s.17,1.62-.28,2.6l-.96,2.08-.4-.18c1.05-1.45,2.33-2.36,3.83-2.73,1.5-.38,3.13-.22,4.91.47.69.25,1.12.66,1.31,1.21.18.55.08,1.27-.3,2.16-.33.85-.79,1.42-1.4,1.72s-1.39.3-2.34-.01l-.95-.34c-1.58-.57-2.9-.65-3.98-.24-1.08.41-1.94,1.32-2.59,2.72l-3.42,7.42c-.45.98-1.06,1.62-1.83,1.92-.76.29-1.64.21-2.62-.24Z"/>
    <path class="cls-1" d="M170.05,470.23c-2.21-.79-3.98-1.91-5.31-3.36s-2.15-3.14-2.46-5.05c-.31-1.91-.08-3.96.7-6.14.58-1.63,1.35-3,2.31-4.12.96-1.12,2.08-1.96,3.35-2.53,1.28-.57,2.68-.86,4.2-.86,1.52,0,3.11.29,4.77.89.85.31,1.73.73,2.62,1.29s1.72,1.24,2.48,2.07c.46.45.72.93.76,1.46.04.53-.05,1.03-.27,1.49s-.55.83-.98,1.1c-.42.27-.88.39-1.36.35-.49-.03-.96-.29-1.41-.76-.42-.49-.88-.91-1.4-1.25-.52-.34-1.02-.6-1.52-.78-.83-.3-1.61-.43-2.33-.39s-1.39.22-1.99.55c-.6.33-1.15.81-1.64,1.45s-.9,1.42-1.24,2.36c-.65,1.82-.71,3.41-.18,4.76s1.61,2.32,3.23,2.9c.5.18,1.04.3,1.64.38.6.07,1.22.06,1.88-.05.65-.08,1.17.03,1.56.33.39.29.65.68.78,1.14.13.47.13.95,0,1.45-.13.5-.38.94-.75,1.32-.37.38-.86.6-1.47.66-1.11.13-2.16.14-3.18,0s-1.95-.34-2.8-.65Z"/>
    <path class="cls-1" d="M192.4,476.7c-2.48-.6-4.49-1.57-6.05-2.9-1.56-1.33-2.62-2.93-3.17-4.8s-.56-3.91-.02-6.13c.53-2.16,1.45-3.95,2.76-5.36s2.9-2.38,4.76-2.91,3.83-.54,5.91-.03c1.51.37,2.81.95,3.92,1.75,1.1.8,1.98,1.77,2.64,2.91.66,1.14,1.05,2.43,1.18,3.86.13,1.43,0,2.96-.39,4.58-.13.54-.4.9-.81,1.09-.41.19-.94.2-1.59.04l-13.4-3.27.81-3.33,10.76,2.62-.83.43c.28-1.17.35-2.18.2-3.05-.15-.87-.5-1.58-1.04-2.13-.54-.55-1.28-.95-2.22-1.17-1.05-.26-2.01-.23-2.87.07-.86.3-1.6.86-2.22,1.67s-1.09,1.86-1.4,3.14l-.08.34c-.53,2.16-.41,3.88.35,5.15.76,1.27,2.14,2.15,4.13,2.63.68.17,1.49.27,2.41.32.92.04,1.81-.02,2.67-.21.73-.15,1.34-.12,1.83.11.49.23.83.56,1.02,1,.19.44.25.91.18,1.4-.08.49-.3.94-.67,1.35s-.89.69-1.57.86c-1.1.3-2.29.45-3.56.42-1.28-.02-2.48-.18-3.62-.45Z"/>
    <path class="cls-1" d="M230.72,482.46c-2.34-.18-4.34-.8-6-1.85-1.67-1.05-2.9-2.46-3.7-4.23-.8-1.77-1.12-3.8-.94-6.11.13-1.72.52-3.25,1.15-4.58.63-1.33,1.49-2.44,2.57-3.33s2.36-1.53,3.83-1.93c1.47-.4,3.08-.53,4.83-.4.9.07,1.86.25,2.87.55,1,.3,1.98.75,2.94,1.35.56.31.94.71,1.12,1.21s.22,1,.13,1.51c-.1.51-.32.95-.65,1.32-.34.37-.75.6-1.22.7-.48.1-1-.03-1.56-.36-.53-.36-1.09-.64-1.68-.83-.59-.19-1.14-.31-1.67-.35-.88-.07-1.66.01-2.35.24s-1.29.58-1.78,1.05c-.49.48-.89,1.08-1.2,1.82-.31.74-.5,1.61-.58,2.6-.15,1.93.21,3.48,1.07,4.64.86,1.17,2.16,1.82,3.88,1.95.53.04,1.08.02,1.68-.07.59-.09,1.2-.27,1.8-.54.61-.25,1.14-.28,1.59-.1.46.18.81.48,1.05.9.25.42.37.88.38,1.4s-.12,1-.38,1.47c-.26.46-.67.81-1.25,1.03-1.03.42-2.05.7-3.06.84-1.01.14-1.97.18-2.87.11Z"/>
    <path class="cls-1" d="M253.05,482.89c-2.31.06-4.34-.34-6.08-1.2-1.74-.86-3.1-2.13-4.08-3.8-.98-1.67-1.51-3.67-1.57-5.98-.05-1.73.17-3.29.66-4.68.49-1.39,1.23-2.59,2.21-3.6.98-1.01,2.17-1.79,3.56-2.34,1.39-.55,2.95-.85,4.68-.9,2.31-.06,4.34.34,6.07,1.2,1.74.86,3.11,2.11,4.1,3.76,1,1.64,1.53,3.62,1.59,5.93.05,1.76-.18,3.33-.69,4.72-.5,1.39-1.24,2.6-2.21,3.62-.97,1.02-2.16,1.81-3.56,2.36s-2.97.85-4.7.9ZM252.92,477.92c.97-.03,1.79-.28,2.48-.77.69-.49,1.23-1.2,1.61-2.13.38-.93.56-2.12.52-3.55-.06-2.14-.54-3.7-1.45-4.69s-2.08-1.46-3.51-1.42c-.94.03-1.76.27-2.46.73-.71.46-1.24,1.15-1.61,2.09-.37.93-.54,2.12-.5,3.55.06,2.14.54,3.71,1.45,4.73.91,1.02,2.06,1.5,3.47,1.47Z"/>
    <path class="cls-1" d="M274.14,481.4c-1.07.16-1.93,0-2.58-.51-.65-.5-1.06-1.28-1.21-2.35l-2.28-15.43c-.16-1.07,0-1.93.48-2.58.48-.65,1.23-1.05,2.24-1.2,1.04-.15,1.88.01,2.52.49.63.48,1.03,1.26,1.19,2.33l.37,2.48-.69-1.36c.46-1.52,1.29-2.76,2.49-3.72s2.65-1.57,4.33-1.82c1.71-.25,3.16-.13,4.36.35,1.2.49,2.17,1.35,2.91,2.59.75,1.24,1.27,2.87,1.57,4.9l1.46,9.87c.16,1.07,0,1.94-.48,2.6s-1.26,1.07-2.33,1.23c-1.04.15-1.89-.02-2.54-.51-.65-.5-1.05-1.28-1.21-2.35l-1.41-9.56c-.22-1.48-.64-2.5-1.28-3.08s-1.5-.78-2.6-.61c-1.39.21-2.44.8-3.13,1.8-.7.99-.94,2.21-.72,3.66l1.33,8.95c.33,2.23-.59,3.51-2.76,3.83Z"/>
    <path class="cls-1" d="M306.76,475.19c-1.25.33-2.56.55-3.93.68-1.38.12-2.67.06-3.89-.2-.64-.13-1.14-.39-1.5-.76-.36-.38-.58-.79-.67-1.25-.09-.46-.05-.91.12-1.35.17-.44.46-.78.87-1.02s.91-.32,1.5-.24c1.29.18,2.44.23,3.46.18,1.01-.06,1.99-.21,2.92-.46,1.22-.32,2.05-.75,2.5-1.28s.59-1.1.43-1.73c-.15-.57-.45-.94-.89-1.13-.44-.19-1.03-.24-1.77-.17l-4.67.37c-1.84.15-3.36-.13-4.57-.86-1.21-.73-2.01-1.85-2.42-3.38-.37-1.42-.3-2.74.22-3.99.52-1.24,1.41-2.33,2.66-3.25,1.26-.92,2.78-1.62,4.56-2.09,1.27-.34,2.48-.53,3.62-.59,1.14-.06,2.27.04,3.39.29.58.12,1.03.36,1.35.73.33.37.51.79.56,1.26.05.47-.02.93-.21,1.37-.19.44-.48.78-.89,1.01-.41.23-.93.31-1.55.23-1.02-.18-1.93-.27-2.75-.25s-1.57.12-2.28.31c-1.27.34-2.14.79-2.6,1.35-.46.56-.6,1.15-.44,1.77.13.48.4.84.81,1.08.41.24.97.33,1.68.26l4.67-.37c1.92-.17,3.49.07,4.69.74,1.21.67,2.02,1.79,2.44,3.38.57,2.15.17,4.07-1.19,5.74-1.36,1.68-3.44,2.89-6.24,3.63Z"/>
    <path class="cls-1" d="M329.1,468.08c-1.69.66-3.22.89-4.58.69-1.36-.19-2.56-.82-3.58-1.89-1.03-1.06-1.9-2.54-2.63-4.42l-3.59-9.26c-.4-1.04-.44-1.92-.11-2.64.33-.72.99-1.28,1.97-1.66s1.85-.42,2.6-.11c.75.31,1.32.98,1.72,2.02l3.65,9.42c.47,1.2,1.06,2,1.78,2.4.72.4,1.61.39,2.68-.02,1.17-.46,1.98-1.24,2.4-2.37.43-1.12.38-2.37-.15-3.73l-3.27-8.44c-.4-1.04-.44-1.92-.11-2.64.33-.73.99-1.28,1.97-1.66,1.01-.39,1.88-.43,2.62-.12.73.31,1.3.99,1.7,2.03l5.63,14.54c.82,2.1.22,3.54-1.77,4.31-.98.38-1.84.4-2.57.05-.73-.34-1.29-1.02-1.68-2.03l-1.06-2.75,1.23,1.36c-.06,1.62-.5,3.04-1.33,4.24-.82,1.2-2,2.09-3.53,2.69Z"/>
    <path class="cls-1" d="M351.51,458.63c-.94.54-1.8.7-2.59.47-.79-.22-1.45-.8-1.99-1.75l-7.76-13.53c-.54-.94-.7-1.8-.49-2.58.21-.78.76-1.42,1.65-1.93.91-.52,1.75-.68,2.52-.46.77.22,1.42.8,1.96,1.74l1.4,2.44-1.29-1.28c-.16-1.46.09-2.85.74-4.18.66-1.32,1.71-2.4,3.16-3.23,1.45-.83,2.85-1.18,4.21-1.05s2.65.79,3.87,1.98l-.53.31c-.19-1.62.08-3.13.81-4.54.73-1.41,1.84-2.55,3.34-3.41,1.45-.83,2.8-1.23,4.05-1.19,1.25.04,2.44.51,3.56,1.4,1.12.89,2.19,2.23,3.21,4.01l4.96,8.65c.54.94.71,1.81.5,2.6-.2.79-.76,1.45-1.68,1.98-.94.54-1.8.7-2.59.47-.79-.22-1.45-.81-1.99-1.75l-4.86-8.46c-.71-1.24-1.43-2.04-2.15-2.38-.72-.35-1.55-.25-2.49.29-1.09.63-1.72,1.5-1.9,2.61-.17,1.11.14,2.37.95,3.76l4.4,7.66c.54.94.71,1.81.5,2.6s-.76,1.45-1.68,1.98c-.91.53-1.77.68-2.57.46-.8-.22-1.47-.79-2.01-1.73l-4.86-8.46c-.71-1.24-1.43-2.04-2.16-2.38s-1.55-.25-2.49.29c-1.09.63-1.72,1.5-1.9,2.61-.17,1.11.14,2.37.94,3.76l4.4,7.66c1.12,1.96.73,3.48-1.17,4.57Z"/>
    <path class="cls-1" d="M391.94,442.6c-.85.68-1.67.97-2.47.88-.8-.09-1.55-.57-2.25-1.44l-14.66-18.37c-.68-.85-.97-1.67-.88-2.47.09-.8.54-1.52,1.34-2.16.85-.68,1.67-.96,2.46-.87.79.1,1.53.57,2.2,1.42l1.86,2.33-1.45-1.04c-.53-1.37-.55-2.81-.05-4.32.5-1.51,1.43-2.8,2.78-3.88,1.46-1.17,3.04-1.84,4.71-2.02s3.34.14,5,.95c1.66.81,3.21,2.12,4.65,3.93,1.44,1.81,2.39,3.62,2.83,5.44.44,1.82.4,3.53-.14,5.11-.53,1.59-1.54,2.97-3.03,4.16-1.33,1.06-2.77,1.67-4.32,1.84-1.55.17-2.93-.13-4.14-.89l.41-.33,5.59,7c.69.87,1,1.71.91,2.51s-.55,1.53-1.37,2.19ZM390.22,427.62c.73-.58,1.23-1.28,1.5-2.1.27-.81.27-1.71,0-2.67-.27-.97-.85-2.01-1.74-3.13-1.33-1.67-2.66-2.63-3.98-2.87-1.32-.24-2.53.08-3.62.95-.73.58-1.24,1.27-1.53,2.06s-.3,1.67-.05,2.65c.25.98.83,2.03,1.73,3.15,1.33,1.67,2.67,2.64,4,2.9,1.34.26,2.56-.05,3.69-.95Z"/>
    <path class="cls-1" d="M413.94,412.92c-1.44,1.41-2.89,2.36-4.33,2.83s-2.85.48-4.23.02c-1.37-.46-2.75-1.39-4.12-2.79l-5.78-5.9-1.32,1.29c-.59.57-1.2.86-1.83.87-.63,0-1.21-.27-1.75-.81-.57-.58-.85-1.19-.82-1.81.03-.62.33-1.22.92-1.79l1.32-1.29-2.34-2.39c-.78-.79-1.16-1.6-1.14-2.42s.41-1.6,1.16-2.33c.77-.76,1.56-1.13,2.36-1.11.8.02,1.58.42,2.36,1.22l2.34,2.39,2.98-2.92c.59-.57,1.18-.86,1.8-.87s1.2.29,1.78.87c.53.54.8,1.13.79,1.75,0,.62-.3,1.22-.89,1.79l-2.98,2.92,5.6,5.71c.86.88,1.71,1.34,2.55,1.38.84.04,1.71-.38,2.61-1.26.31-.31.58-.62.79-.96.21-.33.42-.62.63-.86.27-.31.6-.45.98-.44.38.01.9.36,1.56,1.03.49.5.84,1.02,1.04,1.56.2.54.17,1.1-.08,1.68-.17.37-.45.82-.85,1.36-.4.53-.77.97-1.1,1.29Z"/>
    <path class="cls-1" d="M402.99,386.5c-.82.92-1.66,1.44-2.52,1.55-.86.11-1.69-.18-2.48-.88-.81-.72-1.21-1.51-1.2-2.39,0-.87.42-1.77,1.24-2.69.82-.92,1.65-1.43,2.5-1.54.85-.1,1.69.2,2.5.92.79.7,1.18,1.48,1.19,2.34s-.41,1.75-1.22,2.67ZM422.37,403.65c-.72.81-1.5,1.22-2.35,1.23-.85,0-1.7-.36-2.56-1.12l-11.25-9.96c-.88-.78-1.36-1.59-1.46-2.43-.09-.84.22-1.67.94-2.49.7-.79,1.47-1.19,2.32-1.2.85,0,1.71.37,2.59,1.15l11.25,9.96c.86.76,1.33,1.55,1.44,2.39s-.21,1.66-.92,2.47Z"/>
    <path class="cls-1" d="M435.36,387.83c-1.38,1.86-2.94,3.21-4.69,4.04-1.75.84-3.58,1.13-5.51.87-1.92-.26-3.81-1.08-5.67-2.45-1.39-1.03-2.48-2.17-3.27-3.41-.79-1.24-1.28-2.56-1.47-3.96-.19-1.4-.07-2.81.36-4.25.43-1.43,1.15-2.85,2.18-4.23,1.38-1.86,2.94-3.21,4.69-4.04,1.75-.84,3.58-1.14,5.49-.91,1.91.23,3.79,1.03,5.65,2.41,1.41,1.05,2.51,2.2,3.29,3.45.78,1.25,1.28,2.58,1.49,3.97.21,1.39.09,2.81-.34,4.26-.43,1.45-1.17,2.86-2.19,4.25ZM431.37,384.87c.58-.78.88-1.59.93-2.43s-.19-1.71-.68-2.58-1.32-1.75-2.48-2.6c-1.72-1.27-3.24-1.86-4.58-1.75s-2.43.73-3.28,1.89c-.56.75-.87,1.55-.95,2.39-.07.84.14,1.69.65,2.56s1.34,1.73,2.49,2.58c1.72,1.27,3.26,1.87,4.61,1.78,1.36-.09,2.46-.7,3.29-1.82Z"/>
    <path class="cls-1" d="M447.2,370.29c-.54.94-1.2,1.52-1.99,1.72-.79.21-1.66.04-2.6-.49l-13.56-7.71c-.94-.54-1.52-1.19-1.73-1.97-.21-.78-.07-1.61.44-2.5.52-.92,1.17-1.48,1.94-1.68.77-.2,1.63-.03,2.57.5l2.18,1.24-1.5-.3c-.92-1.29-1.38-2.71-1.4-4.26-.02-1.54.4-3.05,1.24-4.53.85-1.5,1.84-2.57,2.97-3.22,1.12-.64,2.4-.87,3.83-.7,1.43.18,3.04.77,4.82,1.78l8.67,4.93c.94.54,1.53,1.2,1.75,1.98.23.79.07,1.65-.46,2.59-.52.92-1.18,1.48-1.97,1.68-.79.21-1.66.04-2.6-.49l-8.4-4.78c-1.3-.74-2.37-1.04-3.21-.89s-1.54.7-2.09,1.67c-.7,1.22-.87,2.41-.52,3.57.35,1.16,1.16,2.1,2.44,2.83l7.87,4.47c1.96,1.12,2.4,2.63,1.31,4.54Z"/>
  </g>
  <path class="cls-1" d="M44.23,348.35c-1.48,0-2.91-.83-3.6-2.25-15.21-31.29-22.92-64.93-22.92-99.98,0-61.17,23.82-118.67,67.07-161.93C128.04,40.94,185.55,17.12,246.71,17.12s118.68,23.82,161.93,67.07c43.25,43.25,67.07,100.76,67.07,161.93,0,30.42-5.87,59.96-17.44,87.82-.85,2.04-3.19,3.01-5.23,2.16-2.04-.85-3.01-3.19-2.16-5.23,11.17-26.88,16.83-55.39,16.83-84.75,0-121.86-99.14-221-221-221S25.71,124.26,25.71,246.12c0,33.83,7.44,66.29,22.12,96.48.97,1.99.14,4.38-1.85,5.35-.56.27-1.16.4-1.75.4Z"/>
  <g>
    <path class="cls-1" d="M397.54,299.52c-2.36,2.08-5.2,2.42-8.24,2.42-37.6-.04-75.19-.02-112.79-.03-1.29,0-2.6.05-3.86-.18-3.05-.54-5.13-2.15-4.95-5.46.18-3.38,2.44-4.66,5.6-4.68,11.24-.04,22.48-.03,33.73-.04q8.38,0,8.38-8.27c0-18.42-.15-36.84.1-55.25.07-4.95-1.5-6.61-6.6-6.53-16.4.25-32.8.1-49.21.08-2.02,0-4.08-.01-6.05-.39-2.81-.54-4.65-2.22-4.57-5.24.08-2.76,1.79-4.3,4.43-4.75,1.98-.34,4.02-.52,6.03-.53,18.61-.04,37.23-.06,55.84,0,9.53.03,10.61,1.18,10.61,10.72,0,21.31.16,42.62-.11,63.92-.07,5.11,1.66,6.42,6.65,6.35,18.98-.25,37.96-.08,56.95-.11,3,0,5.95-.03,8.06,2.56v5.42Z"/>
    <path class="cls-1" d="M178.67,301.92c-18.24,0-36.47,0-54.71,0-1.66,0-3.34.08-4.96-.2-3.06-.52-5.13-2.2-4.86-5.5.24-3,2.26-4.47,5.19-4.56,4.05-.13,8.1-.09,12.16-.1,8.84-.01,17.69-.09,26.53.03,3.2.04,4.55-1.02,4.86-4.28,2.06-22.07,4.3-44.13,6.47-66.19,1.5-15.25,2.98-30.5,4.5-45.74.41-4.13,2.96-6.08,7.04-6.09,14.74-.05,29.47,0,44.21-.05,5.14-.01,7.21,2.92,7.65,7.43,1.22,12.74,2.37,25.49,3.6,38.23,2.4,24.76,4.84,49.51,7.27,74.27.09.9.23,1.79.3,2.69.6,8.19-1.07,10.03-9.41,10.06-14.74.05-29.47.02-44.21.02-3.87,0-7.74,0-11.61,0ZM202.76,291.55c7.18,0,14.37,0,21.55,0,8.57,0,8.76-.15,7.95-8.44-3.24-33-6.58-66-9.7-99.01-.34-3.55-1.71-4.61-5.13-4.56-9.39.14-18.79.21-28.18-.03-3.85-.1-5.34,1.55-5.66,4.94-.45,4.66-.96,9.32-1.41,13.99-2.81,29.42-5.54,58.85-8.5,88.26-.37,3.63.48,4.95,4.22,4.89,8.29-.14,16.58-.04,24.86-.04Z"/>
    <path class="cls-1" d="M256.39,337.4c2.11,3.53,3.92,6.39,5.57,9.33,4.91,8.75,3.18,17.04-2.04,24.99-1.92,2.93-4.65,4.4-7.94,2.32-3.06-1.94-2.94-4.91-1.12-7.61,4.62-6.85,3.58-13.23-1.16-19.52-1.19-1.58-2.32-3.31-3.03-5.14-1.38-3.59-2.27-7.04-6.86-2.41-1.78,1.8-4.56,1.26-6.45-.73-1.88-1.98-2.04-4.44-.31-6.41,4.32-4.91,8.71-9.79,13.43-14.31,2.72-2.61,5.8-1.57,8.27.97,3.67,3.79,7.34,7.59,10.92,11.47,2.24,2.42,3.84,5.2,1.05,8.13-2.65,2.79-5.55,2.16-8.29-.17-.35-.3-.88-.4-2.05-.91Z"/>
    <path class="cls-1" d="M167.78,335.56c-3.47,2.71-6.42,7.6-10.85,3.16-4.62-4.64.37-7.71,3.09-10.83,2.75-3.15,5.71-6.12,8.63-9.12,2.97-3.05,6.15-3.11,9.13-.14,3.48,3.47,6.76,7.13,10.12,10.71,2.41,2.57,5.2,5.29,2.33,8.91-3.1,3.9-6.45,1.53-10.77-1.46,2.53,4.39,4.42,7.38,6.03,10.51,4.55,8.85,2.71,17.14-2.67,24.97-1.73,2.52-4.26,3.7-7.13,2.04-3.01-1.73-3.76-4.54-1.78-7.41,4.94-7.18,3.88-13.83-1.2-20.44-2.4-3.13-3.98-6.75-4.92-10.91Z"/>
    <path class="cls-1" d="M332.96,337.41c1.74,2.75,3.59,5.43,5.2,8.25,5.1,8.95,4.23,17.62-1.54,25.98-1.97,2.86-4.58,4.52-7.91,2.44-3.07-1.92-2.97-4.97-1.14-7.62,4.73-6.85,3.71-13.19-1.11-19.46-1.1-1.43-2.28-2.96-2.81-4.63-1.41-4.45-2.74-7.64-7.77-2.73-1.58,1.54-4.27.82-5.92-1.09-1.61-1.86-1.92-4.24-.4-6,4.38-5.09,8.86-10.13,13.74-14.76,2.67-2.54,5.88-1.44,8.31,1.09,3.53,3.67,6.97,7.43,10.45,11.16,2.42,2.59,4.18,5.54,1.28,8.58-2.97,3.12-5.97,1.59-8.59-.97-.36-.35-.83-.59-1.26-.89-.18.21-.35.43-.53.64Z"/>
    <path class="cls-1" d="M179.76,150.97c-.31-17.54,14.35-34.05,32.16-37.06,6.58-1.11,13.19-1.03,19.81-.8,3.52.12,6.83,1.12,6.78,5.44-.05,4.31-3.41,5.19-6.91,5.33-4.96.19-9.94,0-14.9.2-13.34.56-24.38,10.81-25.81,23.81-.14,1.25-.18,2.53-.48,3.75-.73,2.91-2.48,5.09-5.74,4.73-3.47-.38-4.79-2.96-4.91-5.41Z"/>
    <path class="cls-1" d="M203.63,149.16c.54-7.9,8.14-15.11,17.1-15.59,7.15-.38,14.34-.18,21.51-.08,3.5.05,6.29,1.46,6.14,5.38-.15,3.96-3.11,4.9-6.58,4.91-6.07.01-12.14-.01-18.2.05-4.96.05-8.5,1.96-9.48,7.17-.63,3.38-2.44,5.96-6.29,5.31-3.89-.66-4.37-3.87-4.21-7.15Z"/>
    <path class="cls-1" d="M264.95,252.88c-3.58-.4-7.88-.28-8.05-5.24-.17-4.88,3.76-5.58,7.63-5.62,3.8-.04,7.86.34,8.12,5.16.27,5-3.92,5.27-7.7,5.7Z"/>
    <path class="cls-1" d="M293.91,252.9c-3.61-.31-7.51-.78-7.52-5.3-.01-5.21,4.29-5.55,8.28-5.58,3.99-.02,7.85,1.08,7.56,5.75-.3,4.67-4.56,4.89-8.31,5.13Z"/>
    <path class="cls-1" d="M217.71,240.73c-.19,2.71-1.52,4.71-2.53,6.81-2.42,5.06-4.86,10.1-7.35,15.12-1.49,2.99-4.01,4.49-7.22,3.07-3.54-1.57-3.78-4.55-2.24-7.77,1.32-2.77,2.68-5.53,4.02-8.3,1.28-2.65.7-3.81-2.57-4.06-13.43-1.03-13.86-1.94-7.83-14.14,2.08-4.21,4.06-8.48,6.15-12.69,1.53-3.07,3.86-5.15,7.47-3.53,3.59,1.61,3.61,4.63,2.16,7.81-1.2,2.63-2.28,5.33-3.67,7.86-1.76,3.21-1.18,4.63,2.74,4.36,2.01-.14,4.07-.12,6.05.16,3.15.45,4.85,2.34,4.82,5.28Z"/>
  </g>
</svg>