<?xml version="1.0" encoding="UTF-8"?>
<svg id="Badges" xmlns="http://www.w3.org/2000/svg" viewBox="0 0 500 500">
  <defs>
    <style>
      .cls-1 {
        fill: none;
        stroke: #0c4d53;
        stroke-linecap: round;
        stroke-miterlimit: 10;
        stroke-width: 8px;
      }

      .cls-2 {
        fill: #0c4d53;
        stroke-width: 0px;
      }
    </style>
  </defs>
  <path class="cls-1" d="M106.62,428.04c-54.26-42.56-89.12-108.73-89.12-183.04C17.5,116.59,121.59,12.5,250,12.5s232.5,104.09,232.5,232.5c0,71.24-32.04,134.99-82.49,177.64"/>
  <g>
    <path class="cls-2" d="M112.34,447.94c-.3-.19-.55-.42-.75-.71-.2-.29-.34-.58-.42-.9-.08-.31-.09-.64-.04-.98.05-.34.17-.67.36-.96l13.52-21.72c.19-.31.43-.57.71-.76.28-.19.58-.33.9-.4s.65-.08.99-.02c.34.06.66.18.96.37l7.15,4.45c1.19.74,2.26,1.62,3.18,2.63.93,1.01,1.7,2.1,2.32,3.28.62,1.18,1.09,2.42,1.41,3.73s.47,2.63.45,3.96c-.02,1.33-.21,2.65-.59,3.96-.37,1.31-.93,2.57-1.68,3.76-1.12,1.79-2.52,3.26-4.21,4.39-1.69,1.14-3.5,1.92-5.45,2.35-1.94.43-3.93.48-5.96.17-2.03-.32-3.94-1.04-5.73-2.15l-7.13-4.44h-.02ZM128.05,427.66l-10.73,17.24,5.03,3.13c1.21.75,2.49,1.22,3.83,1.41,1.34.19,2.66.14,3.94-.15,1.28-.29,2.47-.8,3.57-1.55,1.1-.75,2-1.69,2.7-2.81.71-1.14,1.16-2.38,1.36-3.71.2-1.33.15-2.64-.15-3.94-.3-1.3-.82-2.51-1.57-3.65-.75-1.14-1.73-2.08-2.94-2.84l-5.03-3.13Z"/>
    <path class="cls-2" d="M145.93,457.14c-.06.62-.02,1.24.12,1.84.14.6.36,1.16.66,1.68.31.52.69.99,1.15,1.4.46.42.99.76,1.58,1.04,1.5.69,2.85.84,4.07.45.38-.07.74-.09,1.06-.05.32.03.6.11.85.22.41.19.72.46.94.82s.36.75.41,1.18c.04.3.03.6-.03.9-.06.3-.17.58-.33.84s-.38.49-.64.7c-.26.21-.58.35-.96.44-.45.14-.95.25-1.48.34-.53.08-1.11.1-1.73.06-.62-.04-1.3-.15-2.01-.33-.72-.18-1.49-.46-2.32-.85-1.44-.67-2.66-1.56-3.68-2.69-1.01-1.13-1.77-2.38-2.28-3.76-.51-1.38-.75-2.83-.72-4.34.03-1.51.38-2.99,1.04-4.42.66-1.44,1.56-2.66,2.7-3.67,1.14-1.01,2.39-1.76,3.77-2.26,1.38-.5,2.82-.73,4.34-.69s2.99.39,4.43,1.05c1.42.66,2.64,1.55,3.65,2.66,1.01,1.12,1.77,2.36,2.3,3.72.52,1.36.78,2.8.76,4.3s-.35,2.98-.99,4.41c-.31.67-.77,1.11-1.39,1.33s-1.28.16-1.98-.16l-13.29-6.14ZM158.5,458.19c.12-.67.11-1.32,0-1.96-.12-.64-.34-1.23-.67-1.79-.32-.56-.74-1.06-1.26-1.51-.52-.45-1.11-.83-1.77-1.14-.67-.31-1.34-.51-2.01-.6-.67-.09-1.32-.07-1.95.05-.63.12-1.22.34-1.77.66-.55.32-1.04.73-1.47,1.24l10.92,5.04ZM161.61,445.11c-.36.13-.72.19-1.07.17-.35-.02-.67-.1-.96-.23-.64-.29-1.08-.78-1.33-1.46-.12-.34-.18-.68-.17-1.03.01-.35.09-.67.23-.98.14-.3.34-.58.6-.82.26-.24.56-.42.9-.55l4.02-1.5c.35-.14.69-.2,1.03-.17s.66.11.97.25c.31.14.58.34.82.59.24.25.43.55.55.89.14.35.2.69.18,1.04-.02.34-.1.67-.23.96-.14.3-.34.56-.59.8-.26.23-.56.41-.9.54l-4.06,1.51Z"/>
    <path class="cls-2" d="M170.96,455.77l1.06-2.96c.36-.99.89-1.87,1.59-2.63s1.5-1.35,2.4-1.78c.89-.43,1.85-.68,2.88-.75,1.03-.07,2.05.07,3.06.43.71.25,1.21.7,1.52,1.35.3.64.33,1.32.08,2.03-.12.33-.3.62-.53.88s-.5.45-.81.58-.63.21-.97.23c-.35.02-.69-.03-1.04-.16l-.11-.04c-.34-.1-.67-.13-1-.09-.33.04-.64.14-.92.29s-.54.36-.75.61c-.22.25-.39.55-.5.88l-1.03,2.89,1.65.59c.35.12.65.3.9.54.26.24.45.5.59.8.14.3.22.61.25.95.02.34-.03.68-.15,1.03-.12.35-.3.65-.54.9-.24.26-.5.45-.8.59-.3.14-.62.22-.97.24-.35.02-.69-.03-1.04-.16l-1.65-.59-4.09,11.43c-.12.35-.3.65-.54.9-.24.26-.51.46-.81.6-.31.14-.63.23-.97.25-.34.02-.68-.02-1.01-.14-.33-.12-.63-.29-.88-.53-.26-.24-.46-.51-.6-.81-.15-.31-.23-.63-.25-.98-.02-.35.03-.69.16-1.04l4.09-11.43-1.15-.41c-.33-.12-.62-.29-.88-.53-.26-.24-.46-.51-.6-.81s-.23-.63-.25-.98c-.02-.35.03-.69.15-1.02.12-.35.3-.64.54-.89s.5-.44.81-.58c.3-.14.63-.22.98-.24.35-.02.69.03,1.02.15l1.15.41Z"/>
    <path class="cls-2" d="M179.96,468.47c.4-1.53,1.07-2.89,2-4.08s2.04-2.15,3.31-2.9c1.27-.75,2.65-1.23,4.14-1.47,1.49-.23,2.99-.15,4.51.24,1.53.4,2.9,1.06,4.09,1.99,1.2.93,2.16,2.03,2.9,3.29.74,1.27,1.22,2.64,1.44,4.13.22,1.49.14,3-.26,4.53-.39,1.52-1.05,2.88-1.98,4.07s-2.01,2.17-3.27,2.92-2.64,1.24-4.14,1.47-3.01.15-4.55-.25c-1.52-.39-2.87-1.06-4.06-1.98s-2.16-2.03-2.9-3.3c-.75-1.27-1.24-2.65-1.48-4.15-.24-1.5-.16-3.01.23-4.53ZM185,469.78c-.21.82-.26,1.64-.13,2.46.13.82.39,1.57.8,2.27.41.69.93,1.29,1.58,1.8.65.51,1.39.87,2.22,1.09.84.22,1.66.26,2.48.14.82-.13,1.57-.39,2.25-.8.68-.41,1.28-.94,1.78-1.6.5-.66.86-1.39,1.07-2.21.22-.84.27-1.66.15-2.48-.12-.82-.38-1.57-.78-2.25-.4-.68-.93-1.28-1.58-1.79-.65-.51-1.4-.87-2.23-1.09-.82-.21-1.64-.26-2.46-.13-.82.13-1.57.39-2.26.79s-1.29.93-1.8,1.58c-.51.65-.87,1.4-1.09,2.23Z"/>
    <path class="cls-2" d="M209.81,484.12c-.06.35-.17.67-.35.96-.18.3-.4.54-.66.72-.27.18-.56.32-.88.41s-.66.1-1,.04c-.36-.06-.7-.18-1-.37-.3-.19-.55-.41-.76-.67-.2-.26-.35-.56-.44-.9s-.11-.68-.05-1.03l1.23-7.65c.26-1.63.82-3.11,1.67-4.45.85-1.34,1.91-2.46,3.15-3.36s2.64-1.55,4.18-1.94c1.54-.39,3.11-.46,4.72-.2h.05c.85.14,1.47.49,1.86,1.05.39.56.52,1.21.4,1.95-.06.36-.18.69-.38.98-.19.29-.43.54-.71.72s-.6.33-.94.41c-.35.08-.7.09-1.06.04h-.05c-.9-.15-1.79-.12-2.65.1s-1.65.58-2.35,1.08c-.7.5-1.29,1.13-1.78,1.88-.49.75-.81,1.58-.96,2.5l-1.24,7.73Z"/>
    <path class="cls-2" d="M227.82,480.21c.17.61.42,1.16.76,1.68s.75.96,1.22,1.33c.47.38,1,.68,1.57.9.58.22,1.19.36,1.85.4,1.64.11,2.97-.23,3.97-1.02.33-.2.66-.34.97-.43s.6-.11.87-.1c.45.03.84.17,1.17.43s.6.58.8.96c.14.27.24.55.29.85.05.3.05.6-.01.9-.06.3-.18.59-.35.88-.17.29-.42.54-.74.75-.37.29-.79.57-1.26.84-.47.26-1,.49-1.6.67-.6.18-1.27.32-2,.4s-1.56.1-2.47.03c-1.58-.11-3.04-.51-4.39-1.21s-2.5-1.6-3.47-2.71c-.97-1.11-1.7-2.38-2.22-3.8-.51-1.42-.71-2.92-.6-4.5s.51-3.04,1.22-4.39c.7-1.35,1.61-2.5,2.72-3.46,1.11-.96,2.38-1.69,3.81-2.19,1.43-.5,2.94-.7,4.52-.59,1.56.11,3.02.51,4.36,1.19,1.34.69,2.5,1.57,3.47,2.66.98,1.09,1.72,2.34,2.24,3.75.52,1.42.73,2.91.64,4.47-.05.73-.33,1.31-.83,1.74-.5.42-1.14.61-1.9.55l-14.6-1.01ZM239.95,476.72c-.13-.67-.37-1.28-.7-1.83-.34-.55-.76-1.03-1.26-1.43-.5-.4-1.07-.72-1.71-.96-.64-.24-1.33-.38-2.06-.43s-1.43,0-2.09.16c-.66.15-1.26.4-1.81.74-.54.34-1.02.75-1.42,1.25-.4.49-.71,1.05-.93,1.68l12,.83Z"/>
    <path class="cls-2" d="M254.72,480.58c-.7-.27-1.42-.57-2.16-.9-.75-.33-1.43-.74-2.05-1.23-.62-.49-1.14-1.07-1.55-1.76s-.63-1.51-.66-2.49c-.03-1.01.15-1.93.52-2.76.38-.83.91-1.55,1.61-2.16.7-.6,1.53-1.08,2.49-1.41s2.03-.52,3.2-.56c.67-.02,1.37.01,2.09.1s1.41.23,2.07.45c.65.21,1.24.5,1.76.86.52.36.93.8,1.21,1.32.25.5.35,1.01.29,1.52-.06.5-.23.92-.51,1.25-.22.26-.47.47-.76.62-.29.15-.61.23-.94.24-.26,0-.54-.05-.85-.17-.34-.2-.65-.37-.94-.53s-.58-.28-.88-.38c-.3-.1-.61-.18-.94-.23-.33-.05-.7-.06-1.12-.05-1.04.03-1.82.19-2.35.49s-.78.73-.77,1.31c0,.3.12.55.32.75.21.2.48.37.83.52.35.15.77.29,1.26.42.49.13,1.03.28,1.61.44.95.26,1.86.57,2.73.93.87.36,1.63.81,2.29,1.34.66.53,1.2,1.17,1.6,1.9.4.73.62,1.62.65,2.66.03.96-.15,1.86-.54,2.72-.38.85-.93,1.6-1.63,2.24-.7.64-1.54,1.16-2.53,1.55-.98.39-2.06.6-3.25.63-.74.02-1.52-.03-2.34-.14-.83-.11-1.63-.32-2.42-.63s-1.51-.71-2.18-1.21c-.67-.5-1.22-1.13-1.64-1.89-.3-.52-.46-1.01-.47-1.46-.01-.46.08-.86.27-1.21.19-.35.46-.62.82-.83.35-.2.75-.31,1.18-.32.38-.01.79.06,1.21.22.42.16.84.41,1.27.77.2.23.44.46.74.66s.62.39.98.55.74.28,1.15.36c.41.08.84.12,1.29.11.4-.01.77-.07,1.12-.16.35-.1.66-.23.92-.4.27-.17.48-.37.63-.59.15-.23.23-.49.22-.77,0-.34-.19-.64-.55-.91-.36-.27-.79-.52-1.31-.74-.51-.23-1.04-.42-1.6-.59-.56-.17-1.03-.31-1.42-.43Z"/>
    <path class="cls-2" d="M273.21,466.52l8.29-1c.37-.04.71-.02,1.05.08s.63.25.9.46c.27.21.49.47.66.77.17.3.28.63.33,1,.04.35.01.69-.08,1.01s-.25.62-.46.88c-.21.26-.47.48-.77.65-.3.17-.63.28-1,.33l-8.29,1,.73,6.03c.1.84.36,1.61.77,2.31s.93,1.29,1.56,1.77c.62.48,1.33.83,2.12,1.06s1.62.29,2.48.18c.76-.09,1.46-.29,2.08-.58.62-.29,1.19-.72,1.68-1.28.24-.29.52-.53.83-.74s.65-.33,1.02-.38c.59-.07,1.15.08,1.67.45.32.22.56.5.72.83s.25.69.27,1.07c.02.38-.03.75-.14,1.12-.12.37-.3.71-.56,1.01-.84,1.04-1.85,1.86-3.04,2.48-1.18.62-2.49,1.01-3.92,1.19-1.57.19-3.08.07-4.53-.35-1.45-.42-2.75-1.08-3.9-1.97s-2.11-1.99-2.88-3.29c-.76-1.3-1.24-2.74-1.43-4.31l-1.85-15.3c-.04-.37-.01-.72.09-1.05s.26-.64.47-.9c.21-.27.46-.49.77-.66.3-.17.63-.28.98-.32.35-.04.69-.01,1.01.08s.62.25.88.46c.26.21.48.47.65.77.17.3.28.63.33,1l.5,4.15Z"/>
    <path class="cls-2" d="M291.53,475.48c-.36-1.54-.4-3.06-.12-4.54.28-1.49.81-2.85,1.58-4.1.78-1.25,1.77-2.32,2.98-3.22,1.21-.9,2.58-1.53,4.11-1.88,1.54-.36,3.06-.41,4.55-.14,1.49.27,2.86.79,4.1,1.57,1.24.78,2.31,1.77,3.2,2.99.89,1.21,1.52,2.59,1.88,4.13l1.93,8.27c.08.36.09.71.04,1.05s-.18.66-.36.95c-.18.29-.41.54-.7.75-.29.21-.61.36-.97.45-.61.14-1.16.08-1.67-.18-.5-.26-.89-.65-1.16-1.16-.73.88-1.57,1.63-2.52,2.26-.95.63-1.99,1.08-3.12,1.34-1.53.36-3.03.4-4.52.13-1.48-.27-2.85-.79-4.1-1.57-1.25-.78-2.33-1.77-3.24-2.99s-1.54-2.59-1.9-4.12ZM296.6,474.3c.19.83.53,1.57,1.03,2.24.49.67,1.08,1.21,1.76,1.63.68.42,1.43.71,2.23.86.81.15,1.63.13,2.47-.07.84-.2,1.59-.54,2.26-1.03.67-.49,1.21-1.08,1.62-1.76.42-.68.69-1.43.83-2.24.14-.81.11-1.63-.08-2.46-.2-.84-.54-1.6-1.02-2.26-.48-.67-1.06-1.21-1.73-1.63-.67-.42-1.42-.7-2.23-.85-.82-.15-1.64-.12-2.48.07-.83.19-1.57.53-2.24,1.03-.67.49-1.21,1.08-1.64,1.75-.43.67-.71,1.42-.86,2.23-.15.81-.12,1.64.07,2.48Z"/>
    <path class="cls-2" d="M320.36,456.38l7.88-2.77c.35-.12.69-.17,1.04-.15.35.02.67.11.98.25.31.15.58.35.81.6s.41.56.54.91c.12.33.16.67.14,1.01-.03.34-.11.66-.26.96s-.35.57-.61.8c-.26.23-.56.41-.91.54l-7.88,2.77,2.02,5.73c.28.8.7,1.5,1.26,2.09.56.59,1.19,1.06,1.9,1.39.71.33,1.48.53,2.3.58s1.64-.07,2.46-.36c.72-.25,1.36-.59,1.91-1.01s1-.96,1.37-1.61c.17-.33.39-.63.65-.9.26-.27.56-.47.91-.59.56-.2,1.14-.17,1.73.08.36.15.65.37.88.66.23.29.4.62.5.98.1.36.14.74.1,1.12s-.14.75-.32,1.11c-.6,1.19-1.41,2.22-2.43,3.08s-2.21,1.53-3.57,2.01c-1.49.53-2.99.74-4.49.64-1.5-.1-2.91-.46-4.23-1.08-1.32-.62-2.49-1.48-3.52-2.59s-1.8-2.41-2.33-3.9l-5.12-14.53c-.12-.35-.17-.7-.14-1.04.03-.35.12-.68.26-.98.15-.31.35-.58.61-.81.26-.23.55-.41.88-.53.33-.12.67-.16,1.01-.14.34.02.66.11.96.26.3.15.56.35.8.61s.41.56.54.91l1.39,3.94Z"/>
    <path class="cls-2" d="M334.59,445.33c-.16-.37-.24-.74-.24-1.12,0-.38.06-.74.19-1.08.13-.34.33-.65.59-.93.26-.28.57-.5.92-.65.35-.15.72-.23,1.1-.23.38,0,.75.06,1.09.19.34.13.66.32.94.58.28.26.5.58.66.94.15.35.23.71.23,1.09,0,.38-.07.74-.21,1.08-.14.34-.34.65-.6.93-.26.28-.57.5-.92.65-.35.15-.72.23-1.1.23-.38,0-.74-.06-1.08-.19-.34-.13-.65-.32-.92-.58-.28-.25-.49-.56-.65-.91ZM349.66,466.05c.14.32.21.66.22,1,0,.35-.05.67-.17.98s-.29.58-.53.83c-.23.25-.52.45-.85.6-.32.14-.66.21-1,.22-.35,0-.68-.05-.99-.17-.31-.12-.6-.29-.85-.53s-.45-.52-.59-.84l-6.88-15.69c-.14-.32-.21-.66-.2-1,0-.34.07-.67.19-.99.12-.32.3-.6.54-.85.24-.25.53-.45.86-.6.34-.15.67-.22,1-.22.33,0,.65.07.96.19.31.13.58.31.83.54.24.23.43.51.58.83l6.88,15.69Z"/>
    <path class="cls-2" d="M350.47,456.53c-.75-1.4-1.18-2.85-1.3-4.35-.12-1.51.03-2.96.46-4.37.42-1.41,1.1-2.7,2.04-3.89.94-1.18,2.09-2.15,3.47-2.89,1.4-.75,2.85-1.19,4.36-1.32,1.51-.13,2.97.02,4.37.45,1.4.43,2.69,1.11,3.87,2.05s2.14,2.11,2.89,3.5c.74,1.38,1.18,2.83,1.32,4.33.14,1.51,0,2.96-.42,4.37-.42,1.41-1.1,2.7-2.04,3.89s-2.11,2.16-3.51,2.91c-1.38.74-2.82,1.18-4.33,1.3-1.5.13-2.96-.02-4.37-.45-1.41-.42-2.71-1.1-3.9-2.04s-2.16-2.1-2.91-3.48ZM355.06,454.06c.4.75.93,1.38,1.58,1.89.65.51,1.36.89,2.13,1.12.77.23,1.56.31,2.38.25s1.61-.31,2.37-.71c.76-.41,1.4-.94,1.91-1.59.51-.65.88-1.36,1.11-2.12s.3-1.56.22-2.38c-.08-.82-.32-1.6-.72-2.35-.41-.76-.93-1.4-1.58-1.92-.64-.52-1.34-.89-2.1-1.12-.76-.23-1.55-.31-2.37-.24-.83.07-1.62.31-2.38.72-.75.4-1.38.93-1.89,1.58-.51.65-.89,1.35-1.12,2.12-.24.76-.32,1.56-.25,2.38.07.82.31,1.62.72,2.38Z"/>
    <path class="cls-2" d="M396.74,438.36c.21.3.35.62.41.96.07.33.07.66.02.98-.05.32-.17.62-.35.9s-.42.52-.71.72-.61.34-.95.42c-.34.08-.68.1-1.01.04-.33-.05-.64-.17-.94-.34s-.55-.41-.76-.72l-5.08-7.34c-.07-.11-.12-.19-.14-.25-.47-.63-1.02-1.14-1.65-1.54-.63-.4-1.29-.67-1.99-.81s-1.41-.14-2.12,0c-.71.13-1.4.43-2.06.88-.67.46-1.21,1.01-1.6,1.65-.4.64-.65,1.31-.75,2.02s-.06,1.44.11,2.19c.18.74.5,1.45.96,2.12l5.15,7.44c.21.3.35.62.42.95s.08.66.02.98c-.06.32-.18.62-.35.9s-.42.52-.72.73c-.29.2-.6.34-.94.42-.34.08-.67.09-1.01.04-.34-.05-.65-.16-.95-.34s-.55-.41-.76-.72l-5.15-7.44c-.87-1.26-1.46-2.6-1.77-4.01-.31-1.41-.35-2.8-.12-4.18.23-1.37.72-2.67,1.48-3.9.76-1.23,1.76-2.27,3.01-3.14,1.26-.88,2.6-1.45,4-1.72s2.79-.27,4.15,0c1.36.28,2.65.81,3.86,1.59,1.21.78,2.26,1.81,3.13,3.07l5.15,7.44Z"/>
  </g>
  <g>
    <path class="cls-2" d="M272.42,302c-7.02-.52-13.55-1.01-20.07-1.5-.31-.02-.62-.01-.93-.06-.53-.08-1.3.03-1.43-.6-.17-.82.69-.92,1.22-1.12,8.03-3.07,16.04-6.16,24.11-9.13,1.6-.59,2.13-1.39,2.18-3.08.45-14.7.98-29.4,1.52-44.1.13-3.7.34-7.41.55-11.11.05-.89-.3-1.55-.87-2.16-4.43-4.74-8.89-9.46-13.28-14.24-.89-.97-1.76-.62-2.7-.38-6.59,1.66-13.19,1.72-19.48-.95-11.97-5.09-18.54-14.33-20.01-27.23-.39-3.41-.11-6.79.62-10.13.25-1.17-.12-1.76-1.18-2.33-13.66-7.27-20.38-18.86-20.06-34.14.29-14.31,7.08-25.08,19.72-31.97,1.35-.74,1.82-1.55,1.76-3.05-.39-11.09,3.26-20.55,11.73-27.87,6.71-5.79,14.6-8.48,23.46-7.85,2.38.17,3.72-.28,5.02-2.48,6.92-11.68,20.64-18,34.02-16.11,11.62,1.64,20.35,7.5,26.33,17.53.64,1.08,1.27,1.47,2.65,1.29,18.93-2.44,35.63,10.42,38.13,29.34.27,2.07.22,4.2.11,6.3-.08,1.47.49,2.18,1.72,2.88,10.51,5.95,17.1,14.81,19.24,26.76,2.91,16.2-4.84,31.79-19.48,39.34-1.1.57-1.35,1.19-1.14,2.33,1.21,6.39.85,12.67-1.48,18.79-4.35,11.43-15.05,19.91-27.33,20.6-4.07.23-8.02-.15-11.91-1.26-.87-.25-1.49-.17-2.15.51-4.39,4.53-8.79,9.05-13.24,13.52-.99.99-1.44,2.02-1.39,3.44.54,15.57,1.03,31.14,1.55,46.7.11,3.21.21,6.43.47,9.63.12,1.51-.9,1.72-1.83,2.13-3.9,1.69-7.46,3.93-10.24,7.17-6.27,7.28-6.07,14.75.95,21.3,2.34,2.18,2.9,3.78,1.62,6.76-1.95,4.52-1.83,9.39-.79,14.22-2.83-.44-5.6-3.94-6.02-7.61-.54-4.74-.21-9.51-.29-14.27-.08-4.81.31-4.15-4.13-3.39-13.21,2.27-26.4,4.7-39.6,7.04-.75.13-1.85.63-2.2-.16-.36-.82.8-1.24,1.39-1.69,7.14-5.41,14.31-10.8,21.47-16.19.48-.36.92-.77,1.69-1.42ZM308.53,217.16c.15.06.3.11.45.17,2.03-2.14,4.06-4.28,6.07-6.44.45-.48.73-1.06.08-1.61-2.46-2.06-4.49-4.52-6.61-7.31v15.18ZM279.69,202.46c-2.02,2.43-3.97,4.8-6.36,6.72-.52.42-.57.98-.13,1.47,1.99,2.23,4.01,4.43,6.02,6.64.16-.06.32-.13.47-.19v-14.63Z"/>
    <path class="cls-2" d="M234.99,286.55c.39,11.07-.09,22.13.02,33.19.03,3.52-1.61,5.83-4.44,7.3-4.18,2.17-4.16,3.2-4.22-2.4-.03-2.35.12-4.69.17-7.04.02-.74.07-1.49-.02-2.22-.11-.83-.14-1.95-1.28-1.95-1.2,0-1.37,1.03-1.37,2.03,0,4.27-.04,8.53,0,12.8.01,1.27-.44,1.91-1.7,2.19-9.8,2.16-19.58,2.4-29.4.08-1.57-.37-2.29-1.01-2.21-2.74.13-2.9.03-5.81.02-8.72,0-.56.02-1.12-.06-1.67-.12-.77-.44-1.54-1.36-1.45-.84.08-.94.88-.95,1.58-.02,3.09,0,6.18-.02,9.27-.01,2.31-.16,2.36-2.28,1.37-4.09-1.91-6.13-4.86-6.1-9.61.14-21.27.2-42.54-.05-63.8-.06-5.11,2.32-7.76,6.41-9.7,4.71-2.23,9.76-3.17,14.88-3.63,7.99-.71,15.93-.21,23.66,2.14,2.98.9,5.78,2.2,8.1,4.35,1.43,1.33,2.15,2.88,2.21,4.89.2,7.23.16,14.46,0,21.69-.09,4.01-.02,8.03-.02,12.05ZM208.37,259.96c2.37.17,5.68-.3,8.95-.93,2.91-.56,5.79-1.4,8.34-2.96,3.05-1.86,3.09-4.15.25-6.28-1.35-1.01-2.87-1.74-4.47-2.21-9.56-2.82-19.12-2.78-28.64.18-1.59.49-3.1,1.24-4.44,2.26-2.12,1.63-2.21,3.43-.26,5.28.86.82,1.88,1.4,2.96,1.87,5.21,2.3,10.73,2.71,17.31,2.77ZM206.62,285.29c0,7.42-.02,12.85.02,18.29,0,.96-.41,2.51,1.05,2.55,1.67.04,1.17-1.6,1.18-2.59.12-11.29-.22-22.59.21-33.88.03-.79-.05-1.6-.17-2.39-.12-.74-.34-1.57-1.33-1.46-.9.11-1.09.89-1.14,1.67-.02.31-.03.62,0,.93.45,6.29.09,12.59.19,16.89ZM197.45,309.08c0,2.59-.01,5.19,0,7.78,0,.8.3,1.54,1.24,1.54.96,0,1.19-.75,1.19-1.56,0-5.06,0-10.13-.05-15.19,0-.87-.4-1.68-1.37-1.67-.99.02-1.01.93-1.01,1.68-.02,2.47,0,4.94,0,7.41ZM216,284.68h0c0,2.28-.01,4.56,0,6.83,0,.83.11,1.72,1.23,1.69,1.03-.03,1.27-.85,1.27-1.71,0-4.49-.02-8.99-.07-13.48,0-.82-.23-1.73-1.26-1.73-1.06,0-1.18.91-1.18,1.75-.01,2.22,0,4.43,0,6.65ZM188.17,297.63h-.02c0,1.91,0,3.83,0,5.74,0,.94-.06,2.12,1.16,2.15,1.22.03,1.24-1.14,1.24-2.09,0-3.7,0-7.39-.01-11.09,0-.37,0-.75-.09-1.1-.17-.73-.34-1.55-1.34-1.46-.9.09-.94.85-.94,1.55,0,2.1,0,4.2,0,6.29ZM188.17,270.55h-.02c0,2.22-.01,4.44,0,6.66,0,.82.09,1.79,1.15,1.77.99-.01,1.28-.92,1.22-1.77-.33-4.31-.13-8.63-.23-12.94-.02-.8-.1-1.8-1.18-1.75-.96.05-.94.99-.94,1.74-.01,2.1,0,4.19,0,6.29ZM227.6,294.42c-.07,0-.15,0-.22,0,0-2.22.02-4.44-.01-6.65,0-.65-.25-1.26-1.03-1.3-.78-.04-1.03.56-1.17,1.19-.08.36-.17.73-.14,1.09.26,3.75.26,7.51-.02,11.26-.07.91.17,1.93,1.22,1.95,1.14.02,1.4-.98,1.39-2.01-.02-1.85,0-3.69,0-5.54ZM227.01,268.95s-.04,0-.06,0c0-1.91.02-3.82-.01-5.73-.01-.65-.26-1.25-1.05-1.26-.68,0-.92.52-1.06,1.09-.09.36-.19.72-.2,1.09-.03,3.26-.06,6.53-.05,9.79,0,.83.19,1.76,1.21,1.76,1.01,0,1.21-.9,1.22-1.75.01-1.66,0-3.33,0-4.99Z"/>
    <path class="cls-2" d="M151.68,285.3c0-4.45-.06-8.91.03-13.36.03-1.5-.44-2.58-1.52-3.57-3.47-3.17-6.88-6.4-10.32-9.6-.31-.29-.61-.78-1.06-.63-.58.2-.4.84-.42,1.3-.23,6.36-.48,12.72-.63,19.09-.04,1.48-.38,2.72-1.21,3.97-5.05,7.55-10.04,15.14-15.03,22.74-2.54,3.88-6.65,4.92-10.42,2.6-3.43-2.12-4.36-6.44-2-10.26,4.13-6.68,8.34-13.31,12.59-19.91,1.22-1.89,1.76-3.81,1.83-6.07.25-8.47.24-16.94.3-25.41,0-.87.08-1.72.33-2.56,3.39-11.11,6.77-22.23,10.17-33.34.96-3.15,2.51-3.98,6.25-3.79,9.69.51,19.38.93,29.06,1.44,1.45.08,2.62-.29,3.76-1.19,3.44-2.73,6.92-5.4,10.39-8.08,3.28-2.54,7.94-1.91,9.97,1.32,1.69,2.7,1.34,5.85-1.25,7.81-4.73,3.59-9.22,7.48-13.85,11.19-1.55,1.25-3.28,1.81-5.32,1.78-5.44-.09-10.88,0-16.32-.08-1.55-.02-2.32.45-2.75,2.01-1.96,7.03-4.01,14.03-6.11,21.01-.39,1.3-.24,2.18.74,3.12,4.44,4.21,8.69,8.64,13.29,12.66,2.92,2.55,4.29,5.2,4.16,9.22-.32,9.95-.1,19.91-.14,29.87-.02,4.65-2.7,7.67-6.86,7.89-4.36.23-7.59-2.83-7.68-7.43-.09-4.57-.02-9.15-.02-13.73h.02Z"/>
    <path class="cls-2" d="M84.42,352.96c.1-8.79,3.95-15.06,12.2-18.54,12.81-5.41,25.35-11.43,37.8-17.58,9.45-4.67,17.28-1.7,22.75,5.73,4.19,5.69,6.28,12.04,5.04,19.16-.96,5.52-3.92,9.67-9.02,12.15-13.33,6.49-26.65,12.99-40,19.44-8.73,4.22-17.66,1.68-24.17-6.77-3.09-4.01-4.67-8.52-4.6-13.6ZM89.72,353.02c.01,5.58,2.31,10.08,6.63,13.48,7.28,5.72,17.09,2.91,20.35-5.74,2.82-7.48-1.6-17.55-9.03-20.45-4.8-1.87-9.41-1.57-13.36,1.95-3.16,2.81-4.59,6.51-4.59,10.76ZM148.11,320.89c.06-.99-1.02-1.75-1.91-1.36-5.63,2.5-11.1,5.35-16.54,8.25-.74.39-.92.91-.48,1.67.39.67.82,1.04,1.64.62,5.44-2.76,10.89-5.49,16.33-8.25.42-.22.9-.45.95-.93ZM138.16,355.56c5.15-2.41,10-4.68,14.84-6.95.61-.29,1.25-.56,1.79-.96.68-.51,1.18-1.35.73-2.08-.37-.6-1.12,0-1.65.25-4.04,1.85-8.02,3.81-12.11,5.55-1.8.77-2.96,1.89-3.6,4.19ZM136.41,343.02c-4.95,1.79-9.49,3.92-13.93,6.29-.38.2-.79.54-.57,1.03.31.69.85.28,1.25.09,4.1-1.97,8.19-3.96,12.28-5.97.42-.21.91-.42.97-1.44Z"/>
    <path class="cls-2" d="M210.17,373.71c.24-10.55,3.61-16.79,11.36-20.32,13.62-6.18,27.26-12.33,40.83-18.62,5.51-2.55,10.54-1.88,15.39,1.49,8.15,5.68,12.33,16.78,9.84,26.38-1.1,4.23-3.64,7.34-7.64,9.26-12.92,6.21-26.08,12-38.67,18.83-16.81,9.11-31.52-6.17-31.11-17.03ZM215.54,371.63c.02,5.79,3.23,11.34,8.24,14.27,6.12,3.58,13.28,1.75,16.89-4.3,3.11-5.2,2.19-12.92-2.15-18.21-2.59-3.16-5.86-5.1-9.98-5.37-7.52-.48-13.03,5.31-13,13.6ZM274.72,340.12c.03-1.05-1-1.73-2.05-1.24-7.21,3.39-14.46,6.71-21.54,10.37-.65.33-1.45.62-.85,1.64.48.83,1.04,1.09,1.98.64,7.17-3.48,14.36-6.92,21.53-10.38.44-.21.91-.43.93-1.04ZM280.17,347.09c-.31-1.32-1.03-.91-1.81-.54-10.94,5.15-21.9,10.28-32.83,15.45-.71.34-2.04.69-1.61,1.65.5,1.12,1.53.13,2.21-.19,5.09-2.36,10.15-4.81,15.23-7.19,5.81-2.72,11.64-5.4,17.45-8.12.53-.25,1.21-.37,1.35-1.06ZM248.63,373.69c.18-.08.53-.2.86-.36,3.99-1.94,7.98-3.89,11.96-5.84.61-.3,1.38-.57.95-1.46-.42-.86-1.16-.5-1.77-.21-2.06.97-4.11,1.96-6.16,2.97-2.05,1.01-4.08,2.03-6.12,3.07-.53.27-.91.66-.74,1.32.11.42.4.6,1.01.51Z"/>
    <path class="cls-2" d="M140.08,377.57c-.06-4.24,1.58-7.46,5.37-9.63,9.6-5.49,19.35-10.69,29.15-15.81,3.45-1.8,6.86-3.68,10.29-5.51,3.9-2.08,7.66-1.75,11.11.91,4.44,3.42,6.53,8.01,5.85,13.62-.45,3.72-2.69,6.27-5.96,7.97-5.81,3.01-11.64,6-17.44,9.02-6.63,3.45-13.29,6.85-19.85,10.42-9.04,4.93-18.57-.68-18.52-11ZM157.24,379.38c.03-3.61-3.1-7.1-6.41-7.16-3.17-.06-5.7,2.64-5.69,6.07,0,3.66,3.13,6.98,6.55,6.98,3.29,0,5.52-2.37,5.55-5.89ZM159.76,364.04c.34-.13.8-.29,1.24-.51,2.94-1.43,5.89-2.84,8.81-4.32,3.41-1.72,6.8-3.5,10.18-5.28.4-.21,1.05-.45.67-1.08-.28-.46-.79-.1-1.18.02-.29.09-.57.24-.85.37-4.91,2.47-9.81,4.92-14.71,7.41-1.49.75-2.94,1.57-4.4,2.36-.27.15-.55.34-.48.7.06.29.32.34.72.31ZM185.21,357.38c-.24-1.05-.87-1.25-1.77-.76-1.83,1.01-3.65,2.02-5.46,3.06-.52.3-1.18.66-.72,1.42.41.68,1.08.48,1.64.19,1.9-1,3.78-2.04,5.66-3.07.33-.18.61-.41.64-.84ZM166.31,367.19c-.25-.94-.87-1.06-1.68-.65-1.77.89-3.53,1.79-5.28,2.69-.68.35-1.1.85-.63,1.64.44.73,1.08.51,1.63.21,1.74-.94,3.46-1.91,5.18-2.89.37-.21.76-.45.79-1Z"/>
    <path class="cls-2" d="M358.32,376.41c-.08-2.79.97-5.03,3.16-6.78,9.05-7.19,18.09-14.41,27.13-21.62.87-.69,1.71-1.43,2.58-2.12,3.64-2.9,8.12-3.27,12.07-.75,3.91,2.49,6.59,5.94,7.36,10.65.5,3.08-.16,5.88-2.55,7.93-4.6,3.94-9.35,7.7-14.03,11.54-4.92,4.04-9.99,7.92-14.71,12.18-6.39,5.77-13.09,3.55-17.29-1.59-2.25-2.75-3.81-5.78-3.72-9.46ZM379.32,371.77c.15-.07.34-.12.48-.23,3.65-2.93,7.3-5.85,10.93-8.79.55-.45.4-.96.01-1.46-.4-.51-.85-.66-1.43-.27-3.88,2.53-7.33,5.61-10.95,8.48-.51.41-.54.93-.19,1.48.27.42.52.85,1.14.8ZM389.99,356.05c3.26-1.92,6.36-4.01,9.3-6.33.51-.4,1.01-.83.46-1.51-.55-.67-1.01-.06-1.41.23-1.1.79-2.22,1.56-3.21,2.48-1.78,1.65-3.93,2.92-5.14,5.14Z"/>
    <path class="cls-2" d="M355.81,320.98c2.2-.27,4.41-.5,6.6-.84,1.38-.21,1.71.12,1.11,1.44-1.09,2.37-2.72,4.42-3.96,6.7-.17.32-.29.66-.63,1.44,1.84-.69,3.3-1.24,4.77-1.78,3.31-1.21,6.61-2.43,9.93-3.62.49-.18,1.12-.66,1.53-.13.37.48-.18,1.03-.39,1.53-.34.8-.71,1.58-1.08,2.36-.55,1.16-.08,1.56,1.09,1.61.91.03,1.85-.18,3.25.43-5.27,2.23-10.28,4.12-14.84,6.97,3.18-1.27,6.39-2.5,9.55-3.83,2.85-1.19,5.67-2.47,8.62-3.4.4-.13.83-.47,1.18-.02.26.33-.03.7-.17,1.03-1.11,2.55-2.22,5.1-3.32,7.66-.31.73-.81,1.16-1.57,1.45-13.71,5.34-27.41,10.71-41.11,16.07-.27.11-.56.18-.81.26-.36-.42-.05-.64.12-.87,7.11-9.85,7.38-20.11,1.85-30.71-1.71-3.28-1.75-3.24,1.62-4.66,1.06-.45,2.1-.96,3.08-1.6-1.89.11-3.59.85-5.23,1.64-1.35.66-2.3.63-3.09-.75-.24-.42-.61-.78-.98-1.11-.82-.72-.67-1.15.31-1.54,3.38-1.37,6.74-2.79,10.11-4.2,5.93-2.48,11.87-4.93,17.78-7.46.93-.4,1.45-.38,1.95.54,1.31,2.38,2.67,4.74,4.04,7.09.57.97.37,1.47-.64,2.02-3.63,1.96-7.2,4.04-10.8,6.07.05.07.09.13.14.2Z"/>
    <path class="cls-2" d="M184.49,146.91c.14,1.02-.78,1.12-1.65,1.29-4.79.94-9.57,1.87-14.36,2.82-1.82.36-3.63.76-5.45,1.09-1.05.19-1.39.56-.78,1.6.91,1.55.49,2.75-1.02,3.76-1.49.99-2.99,1.97-4.55,2.84-1.49.84-2.87.81-4.05-.42-.75-.78-1.37-.59-2.12-.14-1.85,1.11-3.74,2.17-5.57,3.32-.92.58-1.54.52-2.12-.44-2.44-4.01-4.9-8.01-7.38-12-.61-.98-.29-1.52.62-2.07,5.65-3.44,11.27-6.91,16.9-10.37.16-.1.36-.31.47-.27,2.34.89,2.71-1.25,3.55-2.42,3.47-4.81,6.87-9.67,10.22-14.56.86-1.25,1.64-1.5,2.81-.46,7.79,6.94,12.81,15.42,14.43,25.81.02.12.02.25.05.61Z"/>
    <path class="cls-2" d="M406.47,294.51c-.01,4.07-1,7.81-3.46,11.13-1.65,2.22-3.86,3.6-6.36,4.61-2.06.83-4.12,1.67-6.19,2.48-.38.15-.83.46-1.21.11-.38-.36-.06-.81.05-1.21,3.57-13.27-2.11-28.58-13.96-36.83-1.01-.7-2.1-1.3-3.15-1.95-.63-.39-.75-.83-.04-1.25,5.23-3.06,10.51-5.94,16.92-4.23,2.44.65,4.5,1.97,6.38,3.63.81.71.7,1.12-.25,1.58-2.39,1.15-4.76,2.36-7.11,3.59-.67.35-1.62.68-1.07,1.78.52,1.05,1.31.63,2.05.28,2.67-1.28,5.36-2.54,8-3.88.94-.48,1.53-.38,2.2.46,2.43,3.03,4.16,6.41,5.41,10.06.46,1.33.18,2.13-1.27,2.71-3.03,1.22-5.99,2.65-8.97,4-.5.23-1.07.4-1.3.97-.14.36-.11.75.14,1.05.47.58,1.01.26,1.51.04,2.94-1.3,5.86-2.62,8.81-3.9,2.2-.96,2.28-.92,2.62,1.46.16,1.1.18,2.21.26,3.32Z"/>
    <path class="cls-2" d="M339.31,378.52c-1.98.41-3.63.75-5.7,1.18,1.17,1.03,2.01,1.82,2.91,2.54,3.76,3.01,7.54,5.99,11.3,9.01.44.35,1.24.7.91,1.41-.25.52-1.01.29-1.54.27-6.54-.24-13.08-.52-19.62-.71-.87-.02-2.58-.9-2.14,1.47.12.66-.87.27-1.35.17-5.08-1.01-9.39-3.68-13.71-6.34-3.8-2.34-7.21-5.2-10.73-7.91-.96-.73-.84-1.18.23-1.66,5.4-2.45,10.78-4.93,16.17-7.4.68-.31,1.35-.54,2.14-.32,7.03,1.98,13.87,4.44,20.44,7.64.19.09.33.3.71.66Z"/>
    <path class="cls-2" d="M366.64,322.82c.78-2.4,2.14-4.39,3.27-6.48.38-.71.76-1.41,1.19-2.09.8-1.27.58-2.24-.82-2.81-.63-.26-1.06-.58-1.14-1.29-.57-4.67-3.66-7.39-7.46-9.52-5.66-3.16-11.82-4.77-18.21-5.23-9.19-.67-18.29-.12-26.95,3.52-2.82,1.18-5.38,2.76-7.46,5.05-2.62,2.89-3.11,5.91-1.27,9.34.64,1.19.87,1.88-.53,2.82-2.6,1.73-2.51,1.87-4.73-.41-5.12-5.26-4.57-11.9,1.45-16.92,5.58-4.65,12.25-6.91,19.2-8.3,12.55-2.51,24.97-1.91,37.07,2.42,5.04,1.81,9.65,4.43,13.05,8.78,2.42,3.1,2.9,6.43,1.52,10.11-1.52,4.05-3.53,7.76-6.89,10.61-.28.23-.53.54-1.27.42Z"/>
    <path class="cls-2" d="M318.83,316.59c4.91.04,8.87,2.34,12.27,6,6.7,7.21,8.12,19.84,3,27.57-4.67,7.04-12.29,8.78-19.55,4.44-10.01-5.98-13.91-20.66-8.01-30.67,2.67-4.53,6.61-7.27,12.28-7.34ZM322.1,351.21c3.26-.03,5.72-1.55,7.53-4.09,2.39-3.35,2.92-7.19,2.31-11.15-.88-5.76-3.53-10.41-9.01-12.97-4.34-2.03-9.09-.61-11.75,3.36-3.64,5.44-3.16,13.89,1.12,19.33,2.51,3.19,5.56,5.43,9.8,5.53Z"/>
    <path class="cls-2" d="M164.86,158.67c.94.13,1.19.89,1.56,1.51,5.07,8.63,10.12,17.26,15.19,25.88,1.32,2.23,2.69,4.43,4.06,6.63.72,1.16.77,1.96-.77,2.5-1.83.64-3.33,1.84-4.73,3.18-1.85,1.78-1.9,1.77-3.28-.49-3.58-5.84-7.14-11.7-10.71-17.55-2.99-4.9-6.12-9.72-8.92-14.73-.71-1.28-.49-1.94.74-2.65,2.03-1.17,3.97-2.5,5.95-3.76.31-.2.63-.37.92-.53Z"/>
    <path class="cls-2" d="M377.82,316.44c2.25-5.38,3.27-10.66,2.41-16.29-1.55-10.17-9.53-18.76-19.52-20.56-5.61-1.01-10.63.65-15.15,3.98-.8.59-6.01.92-6.76.4-.82-.57-.14-1.1.15-1.56,1.71-2.76,4.13-4.78,6.98-6.21,9.72-4.87,18.95-3.53,27.54,2.72,9.75,7.1,14.68,20.2,11.84,31.11-1.41,5.39-1.21,4.87-7.49,6.41Z"/>
    <path class="cls-2" d="M164.11,193.71c-.04,6.05-5.1,10.95-11.27,10.92-5.96-.03-11.2-5.31-11.11-11.19.1-6.2,5.29-11.19,11.56-11.1,5.96.08,10.86,5.23,10.82,11.37Z"/>
    <path class="cls-2" d="M346.06,303.67c-6.87-.84-13.12-.66-19.23,1.31-.18.06-.36.11-.53.18-1.17.5-2.9.71-3.05,2.06-.14,1.34,1.53,1.71,2.6,2.27.33.17.75.3.79.71.05.55-.48.63-.85.83-1.51.84-3.09,1.22-4.81.87-.91-.18-1.82-.2-2.76-.04-2.65.46-4.62-1.82-3.83-4.45.48-1.61,1.57-2.77,2.97-3.65,4.28-2.69,9.06-3.87,14-4.5,7.93-1.01,15.65-.23,23.04,3,.93.41,2.43.64,2.46,1.67.02.95-1.5,1.05-2.37,1.42-7.74,3.27-15.5,6.47-23.25,9.7-.71.3-1.42.56-2.11.08-1.49-1.02-3.18-1.58-5.41-2.45,7.45-3.44,14.9-5.58,22.34-9.03Z"/>
    <path class="cls-2" d="M206.77,227.23c-.04,2.67-1.76,4.8-4.47,5.64-2.36.73-4.99.03-6.21-2.07-2.82-4.86-5.43-9.83-8.16-14.75-.34-.61-.26-1.04.25-1.44,2.13-1.68,4.23-3.41,6.42-5.01,1.14-.84,1.5.41,1.93,1.03,3.06,4.41,6.07,8.87,9.1,13.3.71,1.04,1.23,2.14,1.14,3.31Z"/>
    <path class="cls-2" d="M97.25,320.5c-4.23,1.05-8.51-.5-11.88-4.72-.84-1.04-2-1.83-3-2.74-.67-.61-.83-1.08.32-1.3,2.54-.48,5.09-.96,7.61-1.52,1-.22,1.71.21,2.35.77,3.79,3.3,7.92,6.06,12.48,8.19.41.19,1.1.34.93.95-.17.61-.84.35-1.29.36-2.16.02-4.32.01-7.51.01Z"/>
    <path class="cls-2" d="M246.8,261.9c.74-3.89,2.1-7.73,3.3-11.61.27-.89.81-1.12,1.46-.39,2.71,3.03,5.39,6.09,8.07,9.16.52.6.27,1.04-.42,1.21-3.83.94-7.67,1.86-11.51,2.76-.84.2-1.16-.17-.9-1.13Z"/>
    <path class="cls-2" d="M399.25,320.14c-2,1.63-3.62,2.93-5.22,4.27-.62.52-1.34.58-2.08.56-3.88-.11-7.75-.22-11.63-.34-.4-.01-.96.13-1.1-.42-.13-.5.36-.75.68-1,2.26-1.71,4.53-3.4,6.8-5.09.44-.33.91-.7,1.51-.61,3.63.58,7.16,1.58,11.04,2.63Z"/>
    <path class="cls-2" d="M364.32,258.62c2.34.23,4.76.97,7.21,1.6.95.24.99.77.56,1.5-1.39,2.33-2.78,4.66-4.16,6.99-.53.9-1.21,1.06-2.19.72-1.22-.42-2.47-.79-3.74-1.01-1.35-.23-1.77-.78-1.33-2.13.71-2.17,1.31-4.37,1.95-6.56.23-.79.55-1.4,1.71-1.13Z"/>
    <path class="cls-2" d="M337.34,263.66c.1.98-.36,1.04-1.1.69-3.97-1.85-7.78-3.99-11.52-6.25-.8-.48-.82-1-.1-1.57,1.64-1.3,3.29-2.59,4.93-3.89.44-.35.93-.5,1.31-.03,2.6,3.28,5.27,6.53,6.43,10.68.03.12.04.24.06.37Z"/>
    <path class="cls-2" d="M176.58,236.98c-2.88-.37-5.56-.73-8.26-1.05-.77-.09-1.26-.47-1.49-1.18-.79-2.47-1.57-4.94-2.34-7.41-.11-.34-.3-.75.01-1.05.42-.4.79.05,1.18.15,5.18,1.41,8.13,5.52,11.35,9.32.23.28.57.58.36.97-.21.39-.64.25-.81.24Z"/>
    <path class="cls-2" d="M357.61,236.66c-3.71-.75-7.03-1.42-10.36-2.08-.84-.17-1.01-.57-.57-1.3,1.58-2.59,3.54-4.9,5.47-7.22.53-.64.97-.3,1.27.29,1.55,3.02,3.11,6.03,4.62,9.07.39.79.24,1.34-.44,1.24Z"/>
    <path class="cls-2" d="M373.07,294.16c-.32.18-.61.07-.85-.13-5.26-4.31-11.47-6.44-17.98-7.9-.56-.13-1.52.05-1.51-.71.02-.75.98-.83,1.62-.97,6.83-1.45,12.23,1.05,16.68,6.1,1.42,1.61,1.64,2.09,2.05,3.61Z"/>
    <path class="cls-2" d="M352.57,258.41c-.29,2.32-.58,4.27-.76,6.24-.12,1.33-1.12,1.47-2.07,1.72q-3.29.85-2.98-2.59c.15-1.72.38-3.44.43-5.16.05-1.73.67-2.53,2.48-2.02.47.13.97.21,1.46.27,1.15.14,1.67.72,1.45,1.54Z"/>
    <path class="cls-2" d="M322.94,285.26c-.67.15-1.01-.27-1.29-.79-.77-1.4-1.51-2.83-2.32-4.2-.63-1.06-.24-1.42.81-1.82,2.47-.93,4.44-.72,6.02,1.65.77,1.17,1.85,2.14,2.83,3.16.66.69.49,1.06-.39,1.19-1.89.28-3.78.54-5.67.8Z"/>
    <path class="cls-2" d="M206.74,257.45c-3.43-.01-6.79-.38-9.9-1.94-1.29-.65-2.57-1.44-2.49-3.14.08-1.75,1.37-2.54,2.84-3.05,6.27-2.19,12.59-2.22,18.93-.35.47.14.92.36,1.36.58,1.37.66,2.81,1.47,2.74,3.16-.07,1.68-1.55,2.45-2.95,3-3.38,1.34-6.92,1.76-10.53,1.75ZM206.8,250.67c-1.92.03-3.83.15-5.67.74-.59.19-1.53.17-1.48,1.09.03.7.77.9,1.37,1.06,4.14,1.1,8.28,1.15,12.4-.15.45-.14,1.06-.24,1.09-.84.03-.71-.64-.84-1.14-1.01-2.13-.72-4.33-.94-6.57-.88Z"/>
    <path class="cls-2" d="M102.54,343.76c4.34-.02,8.42,3.04,10.15,7.64,1.59,4.22.54,8.65-2.73,11.46-2.92,2.52-7.3,2.76-10.49.58-4.93-3.36-6.86-9.27-4.71-14.43,1.37-3.29,4.26-5.24,7.78-5.26ZM98.67,353.75c.03,3.18,2.53,5.96,5.35,5.95,2.65,0,4.58-2.03,4.53-4.76-.05-3.1-2.76-6.1-5.54-6.15-2.46-.04-4.36,2.14-4.34,4.96Z"/>
    <path class="cls-2" d="M238.34,372.53c0,5.25-1.47,8.15-4.76,9.77-3.37,1.67-6.67,1.06-9.5-1.34-3.66-3.1-5.38-7.02-4.23-11.87,1.44-6.06,8.22-8.59,13.28-4.89,3.32,2.42,5.23,5.7,5.21,8.33ZM224.17,371.97c-.03,3.2,2.27,5.89,5.11,5.96,2.51.06,4.24-1.66,4.31-4.28.08-3.15-2.46-6.02-5.32-6.01-2.3,0-4.08,1.88-4.1,4.33Z"/>
    <path class="cls-2" d="M153.48,378.84c-.19,1.07-.65,2.12-2.1,2.21-1.25.08-2.49-1.21-2.45-2.53.04-1.3.71-2.09,2.06-2.13,1.3-.04,2.43,1.02,2.49,2.44Z"/>
    <path class="cls-2" d="M328.42,337.69c-.02,1.83-.27,3.16-.81,4.42-1.81,4.22-6.09,5.54-9.95,3.08-4.47-2.85-6.47-8.54-4.76-13.49,1.77-5.09,7.34-6.54,11.36-2.96,2.81,2.5,3.98,5.72,4.16,8.94ZM323.88,337.6c.05-2.09-.64-3.67-2.09-4.91-1.55-1.32-3.33-1.06-4.4.66-1.27,2.03-.88,4.03.33,5.9.86,1.32,1.97,2.58,3.74,2.07,1.84-.53,2.5-2.04,2.41-3.72Z"/>
  </g>
</svg>