<?xml version="1.0" encoding="UTF-8"?>
<svg id="Quete_ENG" data-name="Quete ENG" xmlns="http://www.w3.org/2000/svg" viewBox="0 0 500 500">
  <defs>
    <style>
      .cls-1 {
        fill: #0c4d53;
        stroke-width: 0px;
      }
    </style>
  </defs>
  <g>
    <path class="cls-1" d="M105.6,435.63c-.94-.65-1.49-1.4-1.65-2.25s.08-1.75.73-2.7l13.5-19.67c.65-.94,1.4-1.49,2.25-1.65s1.75.08,2.7.73l7.06,4.85c4.37,3,6.99,6.42,7.85,10.26.86,3.84-.11,7.8-2.91,11.88-1.41,2.05-2.97,3.66-4.67,4.82-1.7,1.16-3.5,1.88-5.41,2.17-1.91.29-3.9.14-5.98-.45-2.08-.59-4.22-1.64-6.42-3.15l-7.06-4.85ZM111.43,432.87l4.06,2.79c1.38.95,2.69,1.6,3.93,1.96,1.25.36,2.44.43,3.58.22,1.14-.21,2.23-.71,3.28-1.51,1.04-.79,2.04-1.88,2.98-3.25,1.89-2.75,2.61-5.27,2.17-7.54-.44-2.28-2.02-4.34-4.72-6.2l-4.06-2.79-11.22,16.33Z"/>
    <path class="cls-1" d="M142.58,458.74c-2.28-1.15-4.02-2.54-5.24-4.19-1.22-1.65-1.89-3.44-2.01-5.39-.12-1.95.34-3.94,1.36-5.98,1-1.99,2.3-3.52,3.9-4.6,1.59-1.08,3.36-1.67,5.29-1.76,1.93-.09,3.85.34,5.76,1.31,1.39.7,2.53,1.56,3.42,2.58.89,1.02,1.53,2.17,1.92,3.42.38,1.26.48,2.6.28,4.03-.19,1.43-.67,2.89-1.42,4.38-.25.5-.6.79-1.04.88-.44.09-.96-.02-1.56-.32l-12.32-6.21,1.54-3.06,9.89,4.98-.9.23c.54-1.07.83-2.05.88-2.92.05-.88-.13-1.65-.53-2.31s-1.04-1.21-1.9-1.65c-.97-.49-1.9-.68-2.81-.58-.91.1-1.75.48-2.54,1.13s-1.48,1.57-2.07,2.74l-.16.31c-1,1.99-1.28,3.69-.82,5.1.45,1.41,1.6,2.58,3.43,3.5.63.32,1.39.6,2.28.85.89.25,1.77.39,2.65.4.75.02,1.33.19,1.76.52.42.33.68.73.77,1.2.09.47.04.94-.14,1.4-.19.46-.5.85-.96,1.17-.45.31-1.03.48-1.72.49-1.14.05-2.33-.08-3.56-.39-1.24-.31-2.38-.73-3.42-1.26Z"/>
    <path class="cls-1" d="M160.54,466.61c-1.01-.39-1.67-.97-1.99-1.72-.32-.75-.28-1.63.11-2.64l4.95-12.69-1.47-.58c-.76-.3-1.28-.73-1.54-1.31-.26-.57-.26-1.22.02-1.93.3-.76.74-1.26,1.31-1.49s1.25-.2,2.01.1l3.27,1.28-2.44.93.5-1.27c1.14-2.92,2.72-4.82,4.75-5.69,2.02-.88,4.51-.91,7.47-.11l1.36.39c.73.22,1.25.55,1.57.99.32.44.46.9.42,1.39-.03.49-.18.94-.44,1.36-.26.42-.6.74-1.02.97-.42.23-.88.26-1.38.1l-.59-.18c-1.52-.47-2.7-.53-3.56-.19-.86.34-1.52,1.11-1.99,2.31l-.54,1.39-.51-1,3.68,1.44c.79.31,1.31.74,1.57,1.3.25.55.23,1.21-.06,1.98-.28.71-.7,1.19-1.27,1.44-.57.25-1.25.22-2.04-.09l-2.91-1.13-4.95,12.69c-.82,2.1-2.25,2.75-4.3,1.95Z"/>
    <path class="cls-1" d="M182.75,474.19c-2.23-.63-4.04-1.61-5.44-2.95-1.4-1.34-2.33-2.95-2.77-4.84-.44-1.89-.35-3.95.28-6.17.47-1.66,1.14-3.09,2.02-4.27.88-1.18,1.94-2.11,3.18-2.78,1.24-.67,2.6-1.06,4.1-1.17,1.49-.11,3.07.07,4.73.54,2.23.63,4.04,1.61,5.45,2.95,1.4,1.34,2.34,2.94,2.8,4.81.46,1.86.38,3.91-.25,6.14-.48,1.69-1.16,3.13-2.06,4.3-.9,1.18-1.96,2.11-3.19,2.8-1.23.69-2.6,1.09-4.1,1.19-1.51.11-3.09-.07-4.75-.54ZM184.09,469.41c.93.26,1.8.26,2.6,0,.8-.26,1.53-.78,2.17-1.56.64-.78,1.16-1.86,1.55-3.24.58-2.06.58-3.69.01-4.9-.57-1.21-1.55-2.01-2.93-2.4-.9-.25-1.76-.27-2.57-.04-.81.23-1.53.73-2.16,1.51-.63.78-1.14,1.86-1.53,3.24-.58,2.06-.59,3.71-.02,4.95s1.52,2.05,2.88,2.43Z"/>
    <path class="cls-1" d="M203.12,478.89c-1.1-.19-1.88-.62-2.36-1.3-.48-.68-.62-1.55-.44-2.62l2.67-15.37c.19-1.07.61-1.83,1.27-2.3.66-.47,1.5-.61,2.51-.43,1.04.18,1.78.6,2.23,1.26.45.66.58,1.52.4,2.59l-.39,2.25-.43-.08c.65-1.67,1.64-2.88,2.99-3.63,1.35-.75,2.97-1.01,4.87-.8.73.07,1.25.34,1.57.83.32.49.41,1.21.27,2.17-.1.91-.4,1.58-.91,2.03-.51.45-1.26.64-2.26.59l-1.01-.09c-1.67-.14-2.97.12-3.91.79s-1.53,1.77-1.8,3.3l-1.4,8.05c-.19,1.07-.61,1.84-1.27,2.32-.66.48-1.53.63-2.6.44Z"/>
    <path class="cls-1" d="M230.21,482.42c-2.54-.19-4.69-.82-6.44-1.88-1.76-1.06-3.06-2.46-3.91-4.22-.85-1.75-1.19-3.77-1.02-6.05.17-2.22.78-4.13,1.85-5.74,1.06-1.61,2.47-2.82,4.22-3.64,1.75-.82,3.69-1.15,5.83-.99,1.55.12,2.93.48,4.15,1.09s2.24,1.42,3.08,2.44c.83,1.02,1.43,2.22,1.8,3.62.36,1.39.48,2.92.36,4.59-.04.55-.25.96-.62,1.21-.37.25-.89.35-1.57.3l-13.75-1.05.26-3.42,11.04.84-.75.56c.09-1.2,0-2.21-.3-3.04-.29-.83-.75-1.47-1.37-1.93s-1.42-.73-2.38-.8c-1.08-.08-2.02.1-2.82.54-.8.44-1.44,1.11-1.92,2.01-.48.9-.77,2.01-.87,3.33l-.03.35c-.17,2.22.23,3.89,1.18,5.02.96,1.13,2.46,1.77,4.5,1.93.7.05,1.51.03,2.43-.08.92-.11,1.79-.32,2.6-.64.7-.27,1.3-.33,1.82-.19.52.14.91.42,1.17.82s.4.85.4,1.35-.14.98-.44,1.44-.77.83-1.41,1.1c-1.04.48-2.18.81-3.45.99s-2.48.23-3.65.14Z"/>
    <path class="cls-1" d="M253.29,482.88c-1.29.04-2.62-.04-3.98-.24-1.37-.2-2.62-.56-3.75-1.08-.59-.28-1.02-.64-1.28-1.08-.26-.45-.38-.9-.37-1.37.02-.47.16-.9.42-1.29.27-.39.63-.66,1.08-.8.45-.14.96-.11,1.52.11,1.21.46,2.32.79,3.32.96,1,.18,1.98.25,2.95.23,1.26-.04,2.17-.26,2.73-.67.56-.41.83-.94.81-1.58-.02-.59-.22-1.02-.61-1.3-.39-.28-.95-.47-1.69-.57l-4.64-.71c-1.82-.27-3.24-.9-4.25-1.88-1.01-.98-1.54-2.26-1.58-3.85-.04-1.46.33-2.74,1.12-3.83.79-1.09,1.9-1.94,3.33-2.55,1.43-.61,3.07-.94,4.92-1,1.32-.04,2.54.05,3.66.25s2.2.55,3.24,1.05c.53.25.92.59,1.15,1.02.23.43.32.89.26,1.36-.06.47-.23.9-.51,1.29-.28.39-.65.65-1.1.78-.45.13-.97.09-1.56-.13-.95-.41-1.82-.7-2.62-.87s-1.56-.24-2.29-.22c-1.32.04-2.26.28-2.84.72-.57.44-.85.98-.83,1.63.01.5.19.91.54,1.24.34.33.87.54,1.58.64l4.63.71c1.91.27,3.38.87,4.4,1.79,1.02.92,1.56,2.21,1.6,3.84.06,2.23-.76,4-2.47,5.32-1.71,1.32-4.01,2.02-6.91,2.11Z"/>
    <path class="cls-1" d="M278.64,480.84c-2.01.24-3.73.1-5.16-.41-1.43-.51-2.55-1.36-3.36-2.57s-1.32-2.78-1.55-4.73l-.97-8.2-1.83.22c-.81.1-1.47-.05-1.98-.43s-.8-.95-.89-1.71c-.1-.81.06-1.46.46-1.93.4-.47,1.01-.76,1.82-.86l1.83-.22-.39-3.32c-.13-1.1.06-1.98.58-2.61.51-.64,1.3-1.02,2.34-1.14,1.08-.13,1.92.06,2.54.56.62.5,1,1.31,1.12,2.41l.39,3.32,4.14-.49c.81-.1,1.46.04,1.95.41s.78.96.87,1.78c.09.76-.06,1.38-.44,1.87-.38.49-.98.78-1.8.88l-4.14.49.94,7.94c.14,1.22.54,2.1,1.18,2.65.64.54,1.58.74,2.83.59.44-.05.84-.14,1.21-.27.37-.13.71-.23,1.03-.3.4-.08.75,0,1.05.25.29.25.5.83.61,1.76.08.7.04,1.32-.13,1.87-.17.55-.53.98-1.09,1.28-.36.19-.86.37-1.5.55-.64.18-1.2.3-1.66.35Z"/>
    <path class="cls-1" d="M294.75,478.05c-1.54.34-3,.34-4.36.01-1.36-.33-2.5-.94-3.41-1.82-.91-.88-1.51-1.96-1.79-3.25-.34-1.54-.21-2.86.4-3.93.6-1.08,1.76-2.01,3.48-2.79s4.06-1.5,7.04-2.15l2.27-.5.73,3.35-2.23.49c-1.46.32-2.62.66-3.49,1.01-.87.36-1.45.76-1.76,1.22-.3.46-.39,1.01-.24,1.67.18.8.6,1.4,1.27,1.79.67.39,1.54.47,2.59.24.83-.18,1.52-.54,2.08-1.06.56-.53.95-1.17,1.18-1.92.22-.75.24-1.56.05-2.42l-1.08-4.94c-.28-1.26-.76-2.09-1.45-2.49-.69-.4-1.72-.46-3.09-.15-.77.17-1.59.45-2.45.83-.86.38-1.79.91-2.78,1.58-.57.42-1.11.61-1.63.56-.52-.05-.96-.25-1.3-.61-.35-.36-.58-.79-.69-1.29-.11-.5-.07-1.02.11-1.55.18-.54.58-.99,1.19-1.36,1.23-.84,2.41-1.49,3.55-1.95,1.14-.46,2.21-.8,3.22-1.02,2.2-.48,4.08-.56,5.64-.22,1.56.33,2.84,1.09,3.85,2.26,1.01,1.17,1.74,2.8,2.2,4.89l2.09,9.53c.23,1.06.15,1.93-.24,2.62-.39.68-1.07,1.13-2.04,1.35-.97.21-1.79.09-2.44-.36-.66-.46-1.1-1.21-1.33-2.27l-.35-1.59.36.19c.04,1.01-.14,1.93-.54,2.75-.4.82-.99,1.52-1.77,2.1-.77.58-1.72.98-2.83,1.23Z"/>
    <path class="cls-1" d="M323.34,470.18c-1.92.62-3.63.83-5.14.61-1.5-.22-2.77-.84-3.79-1.86s-1.84-2.47-2.45-4.33l-2.56-7.85-1.75.57c-.78.25-1.45.24-2.02-.04-.57-.28-.97-.78-1.2-1.5-.25-.78-.23-1.44.07-1.99.3-.54.84-.94,1.62-1.2l1.75-.57-1.03-3.18c-.34-1.06-.33-1.95.05-2.67.38-.72,1.07-1.25,2.07-1.58,1.03-.33,1.9-.32,2.61.05.71.37,1.23,1.09,1.58,2.14l1.03,3.17,3.97-1.29c.78-.25,1.44-.25,1.99.02.55.27.95.79,1.2,1.57.24.72.21,1.36-.07,1.92-.28.55-.81.96-1.59,1.21l-3.97,1.29,2.47,7.6c.38,1.17.94,1.96,1.67,2.37s1.7.42,2.9.03c.42-.14.79-.3,1.13-.51s.65-.37.95-.49c.38-.15.74-.14,1.08.04.34.18.65.72.94,1.61.22.67.3,1.29.24,1.86-.06.57-.33,1.06-.82,1.47-.32.26-.77.54-1.37.84-.59.3-1.12.52-1.56.67Z"/>
    <path class="cls-1" d="M325.25,441.65c-1.14.46-2.12.56-2.95.28-.83-.28-1.44-.91-1.83-1.89-.41-1-.42-1.89-.02-2.67.4-.78,1.16-1.4,2.3-1.86s2.12-.55,2.93-.27c.81.29,1.42.93,1.83,1.94.4.98.4,1.85.02,2.62-.38.77-1.14,1.39-2.28,1.85ZM335,465.62c-1,.41-1.89.43-2.66.06-.77-.37-1.36-1.08-1.79-2.14l-5.66-13.92c-.44-1.08-.52-2.03-.23-2.83.29-.8.94-1.4,1.94-1.81.98-.4,1.85-.41,2.61-.04s1.37,1.09,1.81,2.18l5.66,13.92c.43,1.06.51,1.98.23,2.78s-.92,1.39-1.92,1.8Z"/>
    <path class="cls-1" d="M353.68,457.19c-2.06,1.06-4.06,1.57-6,1.55-1.94-.02-3.71-.58-5.32-1.66-1.61-1.08-2.94-2.65-4-4.71-.79-1.54-1.26-3.04-1.42-4.5-.16-1.46-.01-2.87.44-4.2.45-1.33,1.18-2.55,2.2-3.65,1.02-1.1,2.29-2.04,3.83-2.83,2.06-1.06,4.06-1.57,6-1.55,1.94.02,3.71.56,5.32,1.61,1.61,1.05,2.94,2.61,4,4.66.8,1.56,1.28,3.08,1.42,4.55.15,1.47,0,2.88-.43,4.22-.43,1.34-1.16,2.56-2.19,3.67-1.03,1.1-2.31,2.05-3.85,2.84ZM351.41,452.77c.86-.44,1.5-1.03,1.91-1.77.41-.74.59-1.61.53-2.62-.06-1.01-.41-2.15-1.07-3.43-.98-1.9-2.09-3.1-3.33-3.6-1.24-.5-2.5-.42-3.78.24-.83.43-1.47,1-1.91,1.72s-.62,1.58-.55,2.58c.07,1,.43,2.14,1.09,3.42.98,1.9,2.09,3.12,3.35,3.64,1.26.52,2.51.46,3.76-.18Z"/>
    <path class="cls-1" d="M372.07,446.69c-.9.61-1.75.83-2.55.66-.8-.16-1.51-.7-2.11-1.59l-8.74-12.92c-.61-.9-.83-1.74-.68-2.54.15-.79.65-1.48,1.5-2.05.87-.59,1.7-.81,2.48-.64.78.16,1.48.69,2.08,1.59l1.4,2.07-1.21-.93c-.25-1.57-.04-3.04.63-4.43.67-1.39,1.71-2.56,3.11-3.51,1.43-.97,2.79-1.49,4.08-1.57s2.54.28,3.75,1.07c1.21.79,2.39,2.04,3.54,3.73l5.59,8.26c.61.9.84,1.75.7,2.55-.14.8-.67,1.51-1.56,2.12-.87.59-1.71.8-2.51.64-.8-.17-1.51-.7-2.11-1.59l-5.42-8c-.84-1.24-1.67-1.98-2.48-2.22s-1.69-.05-2.61.57c-1.16.79-1.85,1.78-2.04,2.98-.2,1.2.11,2.4.93,3.61l5.07,7.49c1.26,1.87.99,3.42-.83,4.65Z"/>
  </g>
  <path class="cls-1" d="M389.84,423.74c-1.15,0-2.3-.5-3.09-1.45-1.41-1.7-1.17-4.22.54-5.63,51.11-42.18,80.42-104.34,80.42-170.54,0-121.86-99.14-221-221-221S25.71,124.26,25.71,246.12c0,64.19,27.86,125.12,76.44,167.17,1.67,1.45,1.85,3.97.41,5.64-1.45,1.67-3.97,1.85-5.64.41-50.33-43.57-79.2-106.7-79.2-173.21,0-61.17,23.82-118.67,67.07-161.93C128.04,40.94,185.55,17.12,246.71,17.12s118.67,23.82,161.93,67.07c43.25,43.25,67.07,100.76,67.07,161.93,0,68.59-30.37,133-83.33,176.71-.75.62-1.65.92-2.54.92Z"/>
  <g>
    <path class="cls-1" d="M272.7,299.59c-7.02-.52-13.55-1.01-20.07-1.5-.31-.02-.62-.01-.93-.06-.53-.08-1.3.03-1.43-.6-.17-.82.69-.92,1.22-1.12,8.03-3.07,16.04-6.16,24.11-9.13,1.6-.59,2.13-1.39,2.18-3.08.45-14.7.98-29.4,1.52-44.1.13-3.7.34-7.41.55-11.11.05-.89-.3-1.55-.87-2.16-4.43-4.74-8.89-9.46-13.28-14.24-.89-.97-1.76-.62-2.7-.38-6.59,1.66-13.19,1.72-19.48-.95-11.97-5.09-18.54-14.33-20.01-27.23-.39-3.41-.11-6.79.62-10.13.25-1.17-.12-1.76-1.18-2.33-13.66-7.27-20.38-18.86-20.06-34.14.29-14.31,7.08-25.08,19.72-31.97,1.35-.74,1.82-1.55,1.76-3.05-.39-11.09,3.26-20.55,11.73-27.87,6.71-5.79,14.6-8.48,23.46-7.85,2.38.17,3.72-.28,5.02-2.48,6.92-11.68,20.64-18,34.02-16.11,11.62,1.64,20.35,7.5,26.33,17.53.64,1.08,1.27,1.47,2.65,1.29,18.93-2.44,35.63,10.42,38.13,29.34.27,2.07.22,4.2.11,6.3-.08,1.47.49,2.18,1.72,2.88,10.51,5.95,17.1,14.81,19.24,26.76,2.91,16.2-4.84,31.79-19.48,39.34-1.1.57-1.35,1.19-1.14,2.33,1.21,6.39.85,12.67-1.48,18.79-4.35,11.43-15.05,19.91-27.33,20.6-4.07.23-8.02-.15-11.91-1.26-.87-.25-1.49-.17-2.15.51-4.39,4.53-8.79,9.05-13.24,13.52-.99.99-1.44,2.02-1.39,3.44.54,15.57,1.03,31.14,1.55,46.7.11,3.21.21,6.43.47,9.63.12,1.51-.9,1.72-1.83,2.13-3.9,1.69-7.46,3.93-10.24,7.17-6.27,7.28-6.07,14.75.95,21.3,2.34,2.18,2.9,3.78,1.62,6.76-1.95,4.52-1.83,9.39-.79,14.22-2.83-.44-5.6-3.94-6.02-7.61-.54-4.74-.21-9.51-.29-14.27-.08-4.81.31-4.15-4.13-3.39-13.21,2.27-26.4,4.7-39.6,7.04-.75.13-1.85.63-2.2-.16-.36-.82.8-1.24,1.39-1.69,7.14-5.41,14.31-10.8,21.47-16.19.48-.36.92-.77,1.69-1.42ZM308.8,214.75c.15.06.3.11.45.17,2.03-2.14,4.06-4.28,6.07-6.44.45-.48.73-1.06.08-1.61-2.46-2.06-4.49-4.52-6.61-7.31v15.18ZM279.97,200.04c-2.02,2.43-3.97,4.8-6.36,6.72-.52.42-.57.98-.13,1.47,1.99,2.23,4.01,4.43,6.02,6.64.16-.06.32-.13.47-.19v-14.63Z"/>
    <path class="cls-1" d="M235.27,284.13c.39,11.07-.09,22.13.02,33.19.03,3.52-1.61,5.83-4.44,7.3-4.18,2.17-4.16,3.2-4.22-2.4-.03-2.35.12-4.69.17-7.04.02-.74.07-1.49-.02-2.22-.11-.83-.14-1.95-1.28-1.95-1.2,0-1.37,1.03-1.37,2.03,0,4.27-.04,8.53,0,12.8.01,1.27-.44,1.91-1.7,2.19-9.8,2.16-19.58,2.4-29.4.08-1.57-.37-2.29-1.01-2.21-2.74.13-2.9.03-5.81.02-8.72,0-.56.02-1.12-.06-1.67-.12-.77-.44-1.54-1.36-1.45-.84.08-.94.88-.95,1.58-.02,3.09,0,6.18-.02,9.27-.01,2.31-.16,2.36-2.28,1.37-4.09-1.91-6.13-4.86-6.1-9.61.14-21.27.2-42.54-.05-63.8-.06-5.11,2.32-7.76,6.41-9.7,4.71-2.23,9.76-3.17,14.88-3.63,7.99-.71,15.93-.21,23.66,2.14,2.98.9,5.78,2.2,8.1,4.35,1.43,1.33,2.15,2.88,2.21,4.89.2,7.23.16,14.46,0,21.69-.09,4.01-.02,8.03-.02,12.05ZM208.65,257.54c2.37.17,5.68-.3,8.95-.93,2.91-.56,5.79-1.4,8.34-2.96,3.05-1.86,3.09-4.15.25-6.28-1.35-1.01-2.87-1.74-4.47-2.21-9.56-2.82-19.12-2.78-28.64.18-1.59.49-3.1,1.24-4.44,2.26-2.12,1.63-2.21,3.43-.26,5.28.86.82,1.88,1.4,2.96,1.87,5.21,2.3,10.73,2.71,17.31,2.77ZM206.89,282.87c0,7.42-.02,12.85.02,18.29,0,.96-.41,2.51,1.05,2.55,1.67.04,1.17-1.6,1.18-2.59.12-11.29-.22-22.59.21-33.88.03-.79-.05-1.6-.17-2.39-.12-.74-.34-1.57-1.33-1.46-.9.11-1.09.89-1.14,1.67-.02.31-.03.62,0,.93.45,6.29.09,12.59.19,16.89ZM197.73,306.67c0,2.59-.01,5.19,0,7.78,0,.8.3,1.54,1.24,1.54.96,0,1.19-.75,1.19-1.56,0-5.06,0-10.13-.05-15.19,0-.87-.4-1.68-1.37-1.67-.99.02-1.01.93-1.01,1.68-.02,2.47,0,4.94,0,7.41ZM216.27,282.26h0c0,2.28-.01,4.56,0,6.83,0,.83.11,1.72,1.23,1.69,1.03-.03,1.27-.85,1.27-1.71,0-4.49-.02-8.99-.07-13.48,0-.82-.23-1.73-1.26-1.73-1.06,0-1.18.91-1.18,1.75-.01,2.22,0,4.43,0,6.65ZM188.45,295.21h-.02c0,1.91,0,3.83,0,5.74,0,.94-.06,2.12,1.16,2.15,1.22.03,1.24-1.14,1.24-2.09,0-3.7,0-7.39-.01-11.09,0-.37,0-.75-.09-1.1-.17-.73-.34-1.55-1.34-1.46-.9.09-.94.85-.94,1.55,0,2.1,0,4.2,0,6.29ZM188.44,268.14h-.02c0,2.22-.01,4.44,0,6.66,0,.82.09,1.79,1.15,1.77.99-.01,1.28-.92,1.22-1.77-.33-4.31-.13-8.63-.23-12.94-.02-.8-.1-1.8-1.18-1.75-.96.05-.94.99-.94,1.74-.01,2.1,0,4.19,0,6.29ZM227.87,292c-.07,0-.15,0-.22,0,0-2.22.02-4.44-.01-6.65,0-.65-.25-1.26-1.03-1.3-.78-.04-1.03.56-1.17,1.19-.08.36-.17.73-.14,1.09.26,3.75.26,7.51-.02,11.26-.07.91.17,1.93,1.22,1.95,1.14.02,1.4-.98,1.39-2.01-.02-1.85,0-3.69,0-5.54ZM227.29,266.53s-.04,0-.06,0c0-1.91.02-3.82-.01-5.73-.01-.65-.26-1.25-1.05-1.26-.68,0-.92.52-1.06,1.09-.09.36-.19.72-.2,1.09-.03,3.26-.06,6.53-.05,9.79,0,.83.19,1.76,1.21,1.76,1.01,0,1.21-.9,1.22-1.75.01-1.66,0-3.33,0-4.99Z"/>
    <path class="cls-1" d="M151.95,282.89c0-4.45-.06-8.91.03-13.36.03-1.5-.44-2.58-1.52-3.57-3.47-3.17-6.88-6.4-10.32-9.6-.31-.29-.61-.78-1.06-.63-.58.2-.4.84-.42,1.3-.23,6.36-.48,12.72-.63,19.09-.04,1.48-.38,2.72-1.21,3.97-5.05,7.55-10.04,15.14-15.03,22.74-2.54,3.88-6.65,4.92-10.42,2.6-3.43-2.12-4.36-6.44-2-10.26,4.13-6.68,8.34-13.31,12.59-19.91,1.22-1.89,1.76-3.81,1.83-6.07.25-8.47.24-16.94.3-25.41,0-.87.08-1.72.33-2.56,3.39-11.11,6.77-22.23,10.17-33.34.96-3.15,2.51-3.98,6.25-3.79,9.69.51,19.38.93,29.06,1.44,1.45.08,2.62-.29,3.76-1.19,3.44-2.73,6.92-5.4,10.39-8.08,3.28-2.54,7.94-1.91,9.97,1.32,1.69,2.7,1.34,5.85-1.25,7.81-4.73,3.59-9.22,7.48-13.85,11.19-1.55,1.25-3.28,1.81-5.32,1.78-5.44-.09-10.88,0-16.32-.08-1.55-.02-2.32.45-2.75,2.01-1.96,7.03-4.01,14.03-6.11,21.01-.39,1.3-.24,2.18.74,3.12,4.44,4.21,8.69,8.64,13.29,12.66,2.92,2.55,4.29,5.2,4.16,9.22-.32,9.95-.1,19.91-.14,29.87-.02,4.65-2.7,7.67-6.86,7.89-4.36.23-7.59-2.83-7.68-7.43-.09-4.57-.02-9.15-.02-13.73h.02Z"/>
    <path class="cls-1" d="M84.69,350.55c.1-8.79,3.95-15.06,12.2-18.54,12.81-5.41,25.35-11.43,37.8-17.58,9.45-4.67,17.28-1.7,22.75,5.73,4.19,5.69,6.28,12.04,5.04,19.16-.96,5.52-3.92,9.67-9.02,12.15-13.33,6.49-26.65,12.99-40,19.44-8.73,4.22-17.66,1.68-24.17-6.77-3.09-4.01-4.67-8.52-4.6-13.6ZM90,350.6c.01,5.58,2.31,10.08,6.63,13.48,7.28,5.72,17.09,2.91,20.35-5.74,2.82-7.48-1.6-17.55-9.03-20.45-4.8-1.87-9.41-1.57-13.36,1.95-3.16,2.81-4.59,6.51-4.59,10.76ZM148.39,318.48c.06-.99-1.02-1.75-1.91-1.36-5.63,2.5-11.1,5.35-16.54,8.25-.74.39-.92.91-.48,1.67.39.67.82,1.04,1.64.62,5.44-2.76,10.89-5.49,16.33-8.25.42-.22.9-.45.95-.93ZM138.43,353.14c5.15-2.41,10-4.68,14.84-6.95.61-.29,1.25-.56,1.79-.96.68-.51,1.18-1.35.73-2.08-.37-.6-1.12,0-1.65.25-4.04,1.85-8.02,3.81-12.11,5.55-1.8.77-2.96,1.89-3.6,4.19ZM136.69,340.61c-4.95,1.79-9.49,3.92-13.93,6.29-.38.2-.79.54-.57,1.03.31.69.85.28,1.25.09,4.1-1.97,8.19-3.96,12.28-5.97.42-.21.91-.42.97-1.44Z"/>
    <path class="cls-1" d="M210.44,371.3c.24-10.55,3.61-16.79,11.36-20.32,13.62-6.18,27.26-12.33,40.83-18.62,5.51-2.55,10.54-1.88,15.39,1.49,8.15,5.68,12.33,16.78,9.84,26.38-1.1,4.23-3.64,7.34-7.64,9.26-12.92,6.21-26.08,12-38.67,18.83-16.81,9.11-31.52-6.17-31.11-17.03ZM215.81,369.22c.02,5.79,3.23,11.34,8.24,14.27,6.12,3.58,13.28,1.75,16.89-4.3,3.11-5.2,2.19-12.92-2.15-18.21-2.59-3.16-5.86-5.1-9.98-5.37-7.52-.48-13.03,5.31-13,13.6ZM275,337.71c.03-1.05-1-1.73-2.05-1.24-7.21,3.39-14.46,6.71-21.54,10.37-.65.33-1.45.62-.85,1.64.48.83,1.04,1.09,1.98.64,7.17-3.48,14.36-6.92,21.53-10.38.44-.21.91-.43.93-1.04ZM280.45,344.68c-.31-1.32-1.03-.91-1.81-.54-10.94,5.15-21.9,10.28-32.83,15.45-.71.34-2.04.69-1.61,1.65.5,1.12,1.53.13,2.21-.19,5.09-2.36,10.15-4.81,15.23-7.19,5.81-2.72,11.64-5.4,17.45-8.12.53-.25,1.21-.37,1.35-1.06ZM248.9,371.27c.18-.08.53-.2.86-.36,3.99-1.94,7.98-3.89,11.96-5.84.61-.3,1.38-.57.95-1.46-.42-.86-1.16-.5-1.77-.21-2.06.97-4.11,1.96-6.16,2.97-2.05,1.01-4.08,2.03-6.12,3.07-.53.27-.91.66-.74,1.32.11.42.4.6,1.01.51Z"/>
    <path class="cls-1" d="M140.35,375.16c-.06-4.24,1.58-7.46,5.37-9.63,9.6-5.49,19.35-10.69,29.15-15.81,3.45-1.8,6.86-3.68,10.29-5.51,3.9-2.08,7.66-1.75,11.11.91,4.44,3.42,6.53,8.01,5.85,13.62-.45,3.72-2.69,6.27-5.96,7.97-5.81,3.01-11.64,6-17.44,9.02-6.63,3.45-13.29,6.85-19.85,10.42-9.04,4.93-18.57-.68-18.52-11ZM157.51,376.97c.03-3.61-3.1-7.1-6.41-7.16-3.17-.06-5.7,2.64-5.69,6.07,0,3.66,3.13,6.98,6.55,6.98,3.29,0,5.52-2.37,5.55-5.89ZM160.03,361.62c.34-.13.8-.29,1.24-.51,2.94-1.43,5.89-2.84,8.81-4.32,3.41-1.72,6.8-3.5,10.18-5.28.4-.21,1.05-.45.67-1.08-.28-.46-.79-.1-1.18.02-.29.09-.57.24-.85.37-4.91,2.47-9.81,4.92-14.71,7.41-1.49.75-2.94,1.57-4.4,2.36-.27.15-.55.34-.48.7.06.29.32.34.72.31ZM185.49,354.97c-.24-1.05-.87-1.25-1.77-.76-1.83,1.01-3.65,2.02-5.46,3.06-.52.3-1.18.66-.72,1.42.41.68,1.08.48,1.64.19,1.9-1,3.78-2.04,5.66-3.07.33-.18.61-.41.64-.84ZM166.58,364.77c-.25-.94-.87-1.06-1.68-.65-1.77.89-3.53,1.79-5.28,2.69-.68.35-1.1.85-.63,1.64.44.73,1.08.51,1.63.21,1.74-.94,3.46-1.91,5.18-2.89.37-.21.76-.45.79-1Z"/>
    <path class="cls-1" d="M358.6,373.99c-.08-2.79.97-5.03,3.16-6.78,9.05-7.19,18.09-14.41,27.13-21.62.87-.69,1.71-1.43,2.58-2.12,3.64-2.9,8.12-3.27,12.07-.75,3.91,2.49,6.59,5.94,7.36,10.65.5,3.08-.16,5.88-2.55,7.93-4.6,3.94-9.35,7.7-14.03,11.54-4.92,4.04-9.99,7.92-14.71,12.18-6.39,5.77-13.09,3.55-17.29-1.59-2.25-2.75-3.81-5.78-3.72-9.46ZM379.6,369.36c.15-.07.34-.12.48-.23,3.65-2.93,7.3-5.85,10.93-8.79.55-.45.4-.96.01-1.46-.4-.51-.85-.66-1.43-.27-3.88,2.53-7.33,5.61-10.95,8.48-.51.41-.54.93-.19,1.48.27.42.52.85,1.14.8ZM390.27,353.63c3.26-1.92,6.36-4.01,9.3-6.33.51-.4,1.01-.83.46-1.51-.55-.67-1.01-.06-1.41.23-1.1.79-2.22,1.56-3.21,2.48-1.78,1.65-3.93,2.92-5.14,5.14Z"/>
    <path class="cls-1" d="M356.08,318.56c2.2-.27,4.41-.5,6.6-.84,1.38-.21,1.71.12,1.11,1.44-1.09,2.37-2.72,4.42-3.96,6.7-.17.32-.29.66-.63,1.44,1.84-.69,3.3-1.24,4.77-1.78,3.31-1.21,6.61-2.43,9.93-3.62.49-.18,1.12-.66,1.53-.13.37.48-.18,1.03-.39,1.53-.34.8-.71,1.58-1.08,2.36-.55,1.16-.08,1.56,1.09,1.61.91.03,1.85-.18,3.25.43-5.27,2.23-10.28,4.12-14.84,6.97,3.18-1.27,6.39-2.5,9.55-3.83,2.85-1.19,5.67-2.47,8.62-3.4.4-.13.83-.47,1.18-.02.26.33-.03.7-.17,1.03-1.11,2.55-2.22,5.1-3.32,7.66-.31.73-.81,1.16-1.57,1.45-13.71,5.34-27.41,10.71-41.11,16.07-.27.11-.56.18-.81.26-.36-.42-.05-.64.12-.87,7.11-9.85,7.38-20.11,1.85-30.71-1.71-3.28-1.75-3.24,1.62-4.66,1.06-.45,2.1-.96,3.08-1.6-1.89.11-3.59.85-5.23,1.64-1.35.66-2.3.63-3.09-.75-.24-.42-.61-.78-.98-1.11-.82-.72-.67-1.15.31-1.54,3.38-1.37,6.74-2.79,10.11-4.2,5.93-2.48,11.87-4.93,17.78-7.46.93-.4,1.45-.38,1.95.54,1.31,2.38,2.67,4.74,4.04,7.09.57.97.37,1.47-.64,2.02-3.63,1.96-7.2,4.04-10.8,6.07.05.07.09.13.14.2Z"/>
    <path class="cls-1" d="M184.77,144.5c.14,1.02-.78,1.12-1.65,1.29-4.79.94-9.57,1.87-14.36,2.82-1.82.36-3.63.76-5.45,1.09-1.05.19-1.39.56-.78,1.6.91,1.55.49,2.75-1.02,3.76-1.49.99-2.99,1.97-4.55,2.84-1.49.84-2.87.81-4.05-.42-.75-.78-1.37-.59-2.12-.14-1.85,1.11-3.74,2.17-5.57,3.32-.92.58-1.54.52-2.12-.44-2.44-4.01-4.9-8.01-7.38-12-.61-.98-.29-1.52.62-2.07,5.65-3.44,11.27-6.91,16.9-10.37.16-.1.36-.31.47-.27,2.34.89,2.71-1.25,3.55-2.42,3.47-4.81,6.87-9.67,10.22-14.56.86-1.25,1.64-1.5,2.81-.46,7.79,6.94,12.81,15.42,14.43,25.81.02.12.02.25.05.61Z"/>
    <path class="cls-1" d="M406.74,292.09c-.01,4.07-1,7.81-3.46,11.13-1.65,2.22-3.86,3.6-6.36,4.61-2.06.83-4.12,1.67-6.19,2.48-.38.15-.83.46-1.21.11-.38-.36-.06-.81.05-1.21,3.57-13.27-2.11-28.58-13.96-36.83-1.01-.7-2.1-1.3-3.15-1.95-.63-.39-.75-.83-.04-1.25,5.23-3.06,10.51-5.94,16.92-4.23,2.44.65,4.5,1.97,6.38,3.63.81.71.7,1.12-.25,1.58-2.39,1.15-4.76,2.36-7.11,3.59-.67.35-1.62.68-1.07,1.78.52,1.05,1.31.63,2.05.28,2.67-1.28,5.36-2.54,8-3.88.94-.48,1.53-.38,2.2.46,2.43,3.03,4.16,6.41,5.41,10.06.46,1.33.18,2.13-1.27,2.71-3.03,1.22-5.99,2.65-8.97,4-.5.23-1.07.4-1.3.97-.14.36-.11.75.14,1.05.47.58,1.01.26,1.51.04,2.94-1.3,5.86-2.62,8.81-3.9,2.2-.96,2.28-.92,2.62,1.46.16,1.1.18,2.21.26,3.32Z"/>
    <path class="cls-1" d="M339.59,376.1c-1.98.41-3.63.75-5.7,1.18,1.17,1.03,2.01,1.82,2.91,2.54,3.76,3.01,7.54,5.99,11.3,9.01.44.35,1.24.7.91,1.41-.25.52-1.01.29-1.54.27-6.54-.24-13.08-.52-19.62-.71-.87-.02-2.58-.9-2.14,1.47.12.66-.87.27-1.35.17-5.08-1.01-9.39-3.68-13.71-6.34-3.8-2.34-7.21-5.2-10.73-7.91-.96-.73-.84-1.18.23-1.66,5.4-2.45,10.78-4.93,16.17-7.4.68-.31,1.35-.54,2.14-.32,7.03,1.98,13.87,4.44,20.44,7.64.19.09.33.3.71.66Z"/>
    <path class="cls-1" d="M366.92,320.41c.78-2.4,2.14-4.39,3.27-6.48.38-.71.76-1.41,1.19-2.09.8-1.27.58-2.24-.82-2.81-.63-.26-1.06-.58-1.14-1.29-.57-4.67-3.66-7.39-7.46-9.52-5.66-3.16-11.82-4.77-18.21-5.23-9.19-.67-18.29-.12-26.95,3.52-2.82,1.18-5.38,2.76-7.46,5.05-2.62,2.89-3.11,5.91-1.27,9.34.64,1.19.87,1.88-.53,2.82-2.6,1.73-2.51,1.87-4.73-.41-5.12-5.26-4.57-11.9,1.45-16.92,5.58-4.65,12.25-6.91,19.2-8.3,12.55-2.51,24.97-1.91,37.07,2.42,5.04,1.81,9.65,4.43,13.05,8.78,2.42,3.1,2.9,6.43,1.52,10.11-1.52,4.05-3.53,7.76-6.89,10.61-.28.23-.53.54-1.27.42Z"/>
    <path class="cls-1" d="M319.11,314.18c4.91.04,8.87,2.34,12.27,6,6.7,7.21,8.12,19.84,3,27.57-4.67,7.04-12.29,8.78-19.55,4.44-10.01-5.98-13.91-20.66-8.01-30.67,2.67-4.53,6.61-7.27,12.28-7.34ZM322.37,348.79c3.26-.03,5.72-1.55,7.53-4.09,2.39-3.35,2.92-7.19,2.31-11.15-.88-5.76-3.53-10.41-9.01-12.97-4.34-2.03-9.09-.61-11.75,3.36-3.64,5.44-3.16,13.89,1.12,19.33,2.51,3.19,5.56,5.43,9.8,5.53Z"/>
    <path class="cls-1" d="M165.13,156.25c.94.13,1.19.89,1.56,1.51,5.07,8.63,10.12,17.26,15.19,25.88,1.32,2.23,2.69,4.43,4.06,6.63.72,1.16.77,1.96-.77,2.5-1.83.64-3.33,1.84-4.73,3.18-1.85,1.78-1.9,1.77-3.28-.49-3.58-5.84-7.14-11.7-10.71-17.55-2.99-4.9-6.12-9.72-8.92-14.73-.71-1.28-.49-1.94.74-2.65,2.03-1.17,3.97-2.5,5.95-3.76.31-.2.63-.37.92-.53Z"/>
    <path class="cls-1" d="M378.09,314.03c2.25-5.38,3.27-10.66,2.41-16.29-1.55-10.17-9.53-18.76-19.52-20.56-5.61-1.01-10.63.65-15.15,3.98-.8.59-6.01.92-6.76.4-.82-.57-.14-1.1.15-1.56,1.71-2.76,4.13-4.78,6.98-6.21,9.72-4.87,18.95-3.53,27.54,2.72,9.75,7.1,14.68,20.2,11.84,31.11-1.41,5.39-1.21,4.87-7.49,6.41Z"/>
    <path class="cls-1" d="M164.38,191.3c-.04,6.05-5.1,10.95-11.27,10.92-5.96-.03-11.2-5.31-11.11-11.19.1-6.2,5.29-11.19,11.56-11.1,5.96.08,10.86,5.23,10.82,11.37Z"/>
    <path class="cls-1" d="M346.33,301.26c-6.87-.84-13.12-.66-19.23,1.31-.18.06-.36.11-.53.18-1.17.5-2.9.71-3.05,2.06-.14,1.34,1.53,1.71,2.6,2.27.33.17.75.3.79.71.05.55-.48.63-.85.83-1.51.84-3.09,1.22-4.81.87-.91-.18-1.82-.2-2.76-.04-2.65.46-4.62-1.82-3.83-4.45.48-1.61,1.57-2.77,2.97-3.65,4.28-2.69,9.06-3.87,14-4.5,7.93-1.01,15.65-.23,23.04,3,.93.41,2.43.64,2.46,1.67.02.95-1.5,1.05-2.37,1.42-7.74,3.27-15.5,6.47-23.25,9.7-.71.3-1.42.56-2.11.08-1.49-1.02-3.18-1.58-5.41-2.45,7.45-3.44,14.9-5.58,22.34-9.03Z"/>
    <path class="cls-1" d="M207.04,224.81c-.04,2.67-1.76,4.8-4.47,5.64-2.36.73-4.99.03-6.21-2.07-2.82-4.86-5.43-9.83-8.16-14.75-.34-.61-.26-1.04.25-1.44,2.13-1.68,4.23-3.41,6.42-5.01,1.14-.84,1.5.41,1.93,1.03,3.06,4.41,6.07,8.87,9.1,13.3.71,1.04,1.23,2.14,1.14,3.31Z"/>
    <path class="cls-1" d="M97.53,318.09c-4.23,1.05-8.51-.5-11.88-4.72-.84-1.04-2-1.83-3-2.74-.67-.61-.83-1.08.32-1.3,2.54-.48,5.09-.96,7.61-1.52,1-.22,1.71.21,2.35.77,3.79,3.3,7.92,6.06,12.48,8.19.41.19,1.1.34.93.95-.17.61-.84.35-1.29.36-2.16.02-4.32.01-7.51.01Z"/>
    <path class="cls-1" d="M247.08,259.48c.74-3.89,2.1-7.73,3.3-11.61.27-.89.81-1.12,1.46-.39,2.71,3.03,5.39,6.09,8.07,9.16.52.6.27,1.04-.42,1.21-3.83.94-7.67,1.86-11.51,2.76-.84.2-1.16-.17-.9-1.13Z"/>
    <path class="cls-1" d="M399.53,317.73c-2,1.63-3.62,2.93-5.22,4.27-.62.52-1.34.58-2.08.56-3.88-.11-7.75-.22-11.63-.34-.4-.01-.96.13-1.1-.42-.13-.5.36-.75.68-1,2.26-1.71,4.53-3.4,6.8-5.09.44-.33.91-.7,1.51-.61,3.63.58,7.16,1.58,11.04,2.63Z"/>
    <path class="cls-1" d="M364.6,256.21c2.34.23,4.76.97,7.21,1.6.95.24.99.77.56,1.5-1.39,2.33-2.78,4.66-4.16,6.99-.53.9-1.21,1.06-2.19.72-1.22-.42-2.47-.79-3.74-1.01-1.35-.23-1.77-.78-1.33-2.13.71-2.17,1.31-4.37,1.95-6.56.23-.79.55-1.4,1.71-1.13Z"/>
    <path class="cls-1" d="M337.62,261.24c.1.98-.36,1.04-1.1.69-3.97-1.85-7.78-3.99-11.52-6.25-.8-.48-.82-1-.1-1.57,1.64-1.3,3.29-2.59,4.93-3.89.44-.35.93-.5,1.31-.03,2.6,3.28,5.27,6.53,6.43,10.68.03.12.04.24.06.37Z"/>
    <path class="cls-1" d="M176.85,234.57c-2.88-.37-5.56-.73-8.26-1.05-.77-.09-1.26-.47-1.49-1.18-.79-2.47-1.57-4.94-2.34-7.41-.11-.34-.3-.75.01-1.05.42-.4.79.05,1.18.15,5.18,1.41,8.13,5.52,11.35,9.32.23.28.57.58.36.97-.21.39-.64.25-.81.24Z"/>
    <path class="cls-1" d="M357.89,234.24c-3.71-.75-7.03-1.42-10.36-2.08-.84-.17-1.01-.57-.57-1.3,1.58-2.59,3.54-4.9,5.47-7.22.53-.64.97-.3,1.27.29,1.55,3.02,3.11,6.03,4.62,9.07.39.79.24,1.34-.44,1.24Z"/>
    <path class="cls-1" d="M373.35,291.75c-.32.18-.61.07-.85-.13-5.26-4.31-11.47-6.44-17.98-7.9-.56-.13-1.52.05-1.51-.71.02-.75.98-.83,1.62-.97,6.83-1.45,12.23,1.05,16.68,6.1,1.42,1.61,1.64,2.09,2.05,3.61Z"/>
    <path class="cls-1" d="M352.85,255.99c-.29,2.32-.58,4.27-.76,6.24-.12,1.33-1.12,1.47-2.07,1.72q-3.29.85-2.98-2.59c.15-1.72.38-3.44.43-5.16.05-1.73.67-2.53,2.48-2.02.47.13.97.21,1.46.27,1.15.14,1.67.72,1.45,1.54Z"/>
    <path class="cls-1" d="M323.22,282.85c-.67.15-1.01-.27-1.29-.79-.77-1.4-1.51-2.83-2.32-4.2-.63-1.06-.24-1.42.81-1.82,2.47-.93,4.44-.72,6.02,1.65.77,1.17,1.85,2.14,2.83,3.16.66.69.49,1.06-.39,1.19-1.89.28-3.78.54-5.67.8Z"/>
    <path class="cls-1" d="M207.02,255.03c-3.43-.01-6.79-.38-9.9-1.94-1.29-.65-2.57-1.44-2.49-3.14.08-1.75,1.37-2.54,2.84-3.05,6.27-2.19,12.59-2.22,18.93-.35.47.14.92.36,1.36.58,1.37.66,2.81,1.47,2.74,3.16-.07,1.68-1.55,2.45-2.95,3-3.38,1.34-6.92,1.76-10.53,1.75ZM207.07,248.25c-1.92.03-3.83.15-5.67.74-.59.19-1.53.17-1.48,1.09.03.7.77.9,1.37,1.06,4.14,1.1,8.28,1.15,12.4-.15.45-.14,1.06-.24,1.09-.84.03-.71-.64-.84-1.14-1.01-2.13-.72-4.33-.94-6.57-.88Z"/>
    <path class="cls-1" d="M102.82,341.34c4.34-.02,8.42,3.04,10.15,7.64,1.59,4.22.54,8.65-2.73,11.46-2.92,2.52-7.3,2.76-10.49.58-4.93-3.36-6.86-9.27-4.71-14.43,1.37-3.29,4.26-5.24,7.78-5.26ZM98.95,351.34c.03,3.18,2.53,5.96,5.35,5.95,2.65,0,4.58-2.03,4.53-4.76-.05-3.1-2.76-6.1-5.54-6.15-2.46-.04-4.36,2.14-4.34,4.96Z"/>
    <path class="cls-1" d="M238.62,370.12c0,5.25-1.47,8.15-4.76,9.77-3.37,1.67-6.67,1.06-9.5-1.34-3.66-3.1-5.38-7.02-4.23-11.87,1.44-6.06,8.22-8.59,13.28-4.89,3.32,2.42,5.23,5.7,5.21,8.33ZM224.45,369.56c-.03,3.2,2.27,5.89,5.11,5.96,2.51.06,4.24-1.66,4.31-4.28.08-3.15-2.46-6.02-5.32-6.01-2.3,0-4.08,1.88-4.1,4.33Z"/>
    <path class="cls-1" d="M153.76,376.43c-.19,1.07-.65,2.12-2.1,2.21-1.25.08-2.49-1.21-2.45-2.53.04-1.3.71-2.09,2.06-2.13,1.3-.04,2.43,1.02,2.49,2.44Z"/>
    <path class="cls-1" d="M328.69,335.27c-.02,1.83-.27,3.16-.81,4.42-1.81,4.22-6.09,5.54-9.95,3.08-4.47-2.85-6.47-8.54-4.76-13.49,1.77-5.09,7.34-6.54,11.36-2.96,2.81,2.5,3.98,5.72,4.16,8.94ZM324.15,335.18c.05-2.09-.64-3.67-2.09-4.91-1.55-1.32-3.33-1.06-4.4.66-1.27,2.03-.88,4.03.33,5.9.86,1.32,1.97,2.58,3.74,2.07,1.84-.53,2.5-2.04,2.41-3.72Z"/>
  </g>
</svg>