<?xml version="1.0" encoding="UTF-8"?>
<svg id="Quete_ENG" data-name="Quete ENG" xmlns="http://www.w3.org/2000/svg" viewBox="0 0 500 500">
  <defs>
    <style>
      .cls-1 {
        fill: #0c4d53;
        stroke-width: 0px;
      }
    </style>
  </defs>
  <g>
    <path class="cls-1" d="M61.84,392.47c-.73-.88-1.05-1.75-.97-2.62.08-.87.56-1.66,1.44-2.39l18.37-15.22c.88-.73,1.75-1.05,2.62-.97.87.08,1.66.56,2.39,1.44l9.78,11.81c.56.68.81,1.33.75,1.97-.06.64-.42,1.23-1.07,1.77-.68.56-1.34.81-1.97.75-.64-.06-1.24-.43-1.8-1.1l-7.9-9.54-5.58,4.62,7.26,8.76c.58.7.84,1.37.78,2.01-.06.64-.43,1.24-1.1,1.8s-1.33.81-1.97.75c-.64-.06-1.25-.44-1.83-1.14l-7.26-8.76-5.95,4.93,7.9,9.54c.56.68.81,1.33.75,1.97-.06.64-.42,1.23-1.07,1.77-.68.56-1.33.81-1.97.75-.64-.06-1.24-.43-1.8-1.11l-9.78-11.81Z"/>
    <path class="cls-1" d="M80.14,413.81c-.79-.74-1.19-1.53-1.2-2.34s.35-1.62,1.1-2.41l10.71-11.33c.74-.79,1.52-1.19,2.33-1.21.81-.02,1.58.32,2.33,1.02.77.72,1.16,1.49,1.17,2.28.01.8-.36,1.59-1.1,2.38l-1.72,1.82.65-1.39c1.48-.58,2.96-.69,4.47-.34,1.5.35,2.87,1.11,4.1,2.28,1.26,1.19,2.06,2.4,2.42,3.65.36,1.24.28,2.54-.23,3.89-.51,1.35-1.47,2.77-2.88,4.26l-6.85,7.25c-.75.79-1.53,1.2-2.34,1.23-.82.03-1.62-.32-2.41-1.07-.77-.72-1.15-1.5-1.17-2.31-.01-.82.35-1.62,1.1-2.41l6.64-7.02c1.03-1.08,1.57-2.05,1.63-2.9.06-.85-.32-1.66-1.12-2.42-1.02-.97-2.14-1.42-3.35-1.35-1.21.06-2.32.63-3.33,1.69l-6.22,6.58c-1.55,1.64-3.12,1.7-4.72.19Z"/>
    <path class="cls-1" d="M105.4,435.82c-1.51-1.11-2.56-2.46-3.17-4.03-.6-1.57-.72-3.28-.35-5.12.37-1.84,1.24-3.69,2.62-5.55,1.37-1.86,2.87-3.23,4.5-4.1s3.28-1.26,4.96-1.14c1.68.11,3.28.72,4.79,1.84,1.37,1.01,2.33,2.23,2.89,3.66.56,1.43.64,2.82.24,4.16l-.39-.29,6.18-8.38c.66-.9,1.38-1.41,2.17-1.54.79-.13,1.62.13,2.49.77.85.63,1.34,1.34,1.47,2.15.13.81-.13,1.66-.79,2.55l-14.84,20.12c-.64.87-1.37,1.38-2.18,1.51-.81.13-1.64-.11-2.48-.74-.85-.63-1.33-1.34-1.44-2.15-.11-.81.15-1.65.8-2.52l1.77-2.4-.63,1.67c-1.18.91-2.57,1.32-4.15,1.22-1.59-.1-3.07-.66-4.46-1.68ZM109.94,432.99c.78.57,1.59.88,2.43.92.84.04,1.7-.19,2.58-.69.88-.5,1.74-1.33,2.59-2.48,1.27-1.72,1.85-3.25,1.74-4.58-.11-1.33-.74-2.43-1.89-3.28-.75-.56-1.55-.87-2.39-.94-.84-.07-1.69.15-2.56.65-.87.51-1.73,1.34-2.58,2.49-1.27,1.72-1.86,3.26-1.77,4.62s.7,2.45,1.83,3.29Z"/>
    <path class="cls-1" d="M128.71,451.3c-1.38-.78-2.46-1.75-3.25-2.91-.79-1.16-1.23-2.37-1.32-3.63-.09-1.26.19-2.47.84-3.62.78-1.38,1.76-2.26,2.92-2.66,1.17-.4,2.65-.31,4.45.25,1.8.57,4.02,1.6,6.67,3.11l2.02,1.15-1.69,2.98-1.99-1.13c-1.3-.74-2.39-1.26-3.27-1.58-.88-.32-1.59-.4-2.12-.27-.53.14-.96.5-1.3,1.08-.4.71-.49,1.44-.25,2.18.24.74.83,1.38,1.77,1.91.74.42,1.49.62,2.26.6.77-.02,1.49-.23,2.16-.64.67-.41,1.22-1,1.66-1.76l2.5-4.39c.64-1.12.83-2.06.59-2.82-.24-.76-.97-1.49-2.2-2.18-.69-.39-1.48-.73-2.38-1.02-.9-.29-1.94-.52-3.12-.69-.71-.06-1.23-.29-1.59-.67-.35-.39-.54-.83-.56-1.33-.02-.5.1-.97.35-1.42.25-.45.63-.81,1.12-1.08.49-.28,1.09-.35,1.79-.22,1.47.2,2.79.5,3.95.93,1.16.42,2.18.89,3.07,1.39,1.96,1.11,3.41,2.32,4.34,3.6s1.38,2.71,1.35,4.25c-.04,1.55-.58,3.25-1.64,5.11l-4.82,8.48c-.54.94-1.18,1.54-1.92,1.79s-1.56.13-2.42-.36c-.87-.49-1.39-1.13-1.57-1.9-.18-.78,0-1.64.53-2.58l.8-1.41.14.38c-.64.78-1.39,1.34-2.24,1.68s-1.76.47-2.72.38c-.96-.09-1.94-.42-2.93-.98Z"/>
    <path class="cls-1" d="M148.94,461.79c-1-.42-1.65-1.01-1.95-1.77-.3-.76-.24-1.64.18-2.64l6.05-14.37c.42-1,1-1.65,1.75-1.96s1.59-.26,2.54.14c.97.41,1.6.98,1.89,1.73.29.74.23,1.61-.19,2.61l-.97,2.31.12-1.52c1.18-1.06,2.53-1.69,4.06-1.89,1.53-.2,3.08.03,4.64.69,1.59.67,2.77,1.53,3.54,2.57.77,1.04,1.15,2.28,1.15,3.73,0,1.44-.4,3.11-1.2,5l-3.87,9.19c-.42,1-1.01,1.66-1.76,1.98-.75.32-1.63.27-2.63-.15-.97-.41-1.61-.99-1.91-1.76s-.24-1.64.18-2.64l3.75-8.91c.58-1.38.75-2.47.5-3.29s-.88-1.44-1.9-1.87c-1.3-.55-2.5-.58-3.61-.09-1.11.49-1.95,1.4-2.52,2.75l-3.51,8.34c-.88,2.08-2.33,2.69-4.35,1.84Z"/>
    <path class="cls-1" d="M180.12,481.67c-1.52-.43-2.95-.97-4.27-1.61s-2.45-1.38-3.38-2.18c-.57-.46-.92-.96-1.06-1.49-.14-.53-.12-1.04.07-1.53.19-.5.48-.9.89-1.21s.86-.48,1.35-.51c.5-.03.96.14,1.41.51,1.08.91,2.13,1.6,3.14,2.07s1.89.81,2.66,1.02c1.8.51,3.27.48,4.4-.08,1.13-.56,1.94-1.69,2.41-3.38l.91-3.21.38.11c-.79,1.18-1.96,1.99-3.52,2.43-1.56.45-3.14.44-4.74-.01-1.86-.52-3.36-1.41-4.5-2.66s-1.87-2.76-2.19-4.54c-.32-1.78-.19-3.7.39-5.76.44-1.55,1.05-2.9,1.85-4.04s1.72-2.06,2.78-2.73c1.06-.68,2.23-1.1,3.51-1.27,1.28-.17,2.61-.06,3.99.33,1.66.47,3.02,1.28,4.08,2.45,1.06,1.16,1.61,2.46,1.67,3.87l-.8,1.23.68-2.41c.29-1.04.79-1.76,1.5-2.16.71-.4,1.56-.45,2.58-.16,1.01.29,1.71.78,2.09,1.48.38.7.42,1.57.13,2.62l-4.36,15.48c-.98,3.47-2.66,5.81-5.06,7.04-2.4,1.23-5.39,1.33-8.97.33ZM184.01,468.34c.96.27,1.85.28,2.67.02.82-.26,1.54-.75,2.17-1.47.63-.72,1.11-1.66,1.43-2.81.49-1.75.44-3.23-.14-4.44s-1.58-2.02-2.99-2.42c-.96-.27-1.85-.29-2.68-.05-.83.24-1.55.72-2.16,1.44-.61.72-1.08,1.67-1.41,2.82-.49,1.75-.45,3.23.11,4.46.57,1.23,1.57,2.04,3.01,2.44Z"/>
    <path class="cls-1" d="M211.73,480.41c-2.52-.39-4.61-1.19-6.28-2.38-1.67-1.19-2.85-2.7-3.56-4.51-.71-1.81-.89-3.85-.54-6.11.34-2.2,1.11-4.06,2.29-5.58,1.19-1.52,2.68-2.62,4.5-3.3,1.81-.68,3.77-.86,5.88-.53,1.53.24,2.88.71,4.05,1.41,1.17.7,2.12,1.59,2.87,2.67.75,1.08,1.25,2.33,1.5,3.75.25,1.42.25,2.95,0,4.6-.09.55-.32.94-.71,1.16s-.92.28-1.58.17l-13.63-2.13.53-3.39,10.94,1.71-.79.5c.19-1.19.17-2.2-.06-3.05-.22-.85-.63-1.53-1.22-2.04-.59-.51-1.36-.83-2.31-.98-1.07-.17-2.02-.06-2.85.31-.83.37-1.52.99-2.07,1.86-.55.86-.93,1.95-1.13,3.25l-.05.35c-.34,2.2-.08,3.9.78,5.1.86,1.2,2.31,1.96,4.34,2.28.69.11,1.5.15,2.43.11.92-.03,1.81-.18,2.65-.43.71-.21,1.33-.23,1.83-.05.51.18.87.49,1.1.91.23.42.33.88.3,1.38-.03.5-.22.97-.55,1.4-.33.44-.83.77-1.49.99-1.07.4-2.24.64-3.51.72-1.27.08-2.49.03-3.64-.15Z"/>
    <path class="cls-1" d="M229.85,482.32c-1.11-.06-1.94-.41-2.49-1.02-.55-.62-.79-1.47-.73-2.55l.89-15.57c.06-1.08.39-1.89,1-2.43.6-.54,1.42-.78,2.44-.72,1.05.06,1.84.39,2.36.99.52.6.75,1.44.69,2.53l-.13,2.28-.44-.03c.45-1.73,1.3-3.05,2.56-3.95,1.25-.9,2.83-1.35,4.74-1.36.73-.02,1.29.2,1.66.65.37.45.54,1.15.52,2.12,0,.91-.22,1.62-.67,2.12-.46.5-1.18.78-2.18.84l-1.01.03c-1.67.05-2.94.46-3.79,1.23-.85.77-1.32,1.93-1.41,3.48l-.47,8.16c-.06,1.08-.39,1.9-1,2.45-.6.55-1.45.8-2.53.74Z"/>
    <path class="cls-1" d="M257.03,482.75c-2.55.09-4.75-.29-6.61-1.14-1.86-.85-3.32-2.11-4.36-3.75-1.04-1.65-1.6-3.61-1.69-5.9-.08-2.22.31-4.19,1.19-5.91s2.14-3.08,3.79-4.1,3.54-1.56,5.68-1.64c1.55-.06,2.97.15,4.24.61s2.39,1.16,3.33,2.08c.94.92,1.67,2.05,2.19,3.39s.81,2.85.87,4.52c.02.56-.14.98-.48,1.27-.34.29-.85.45-1.52.47l-13.79.5-.12-3.42,11.06-.41-.68.64c-.04-1.2-.26-2.2-.64-2.99s-.91-1.38-1.58-1.77-1.49-.56-2.46-.53c-1.08.04-2,.32-2.74.85-.74.53-1.3,1.26-1.68,2.22s-.54,2.09-.49,3.4v.35c.09,2.22.67,3.84,1.75,4.86s2.64,1.49,4.69,1.41c.7-.03,1.5-.14,2.41-.35.9-.21,1.74-.52,2.52-.93.66-.35,1.26-.48,1.79-.4.53.08.95.31,1.26.68.31.37.49.8.55,1.3.06.5-.03.99-.28,1.48-.24.49-.67.91-1.27,1.26-.97.59-2.08,1.05-3.31,1.37-1.23.32-2.44.51-3.61.55Z"/>
    <path class="cls-1" d="M280.49,480.56c-1.85.29-3.55.09-5.09-.59s-2.84-1.8-3.88-3.35c-1.04-1.56-1.74-3.48-2.1-5.77-.36-2.29-.27-4.32.25-6.09.53-1.77,1.42-3.21,2.68-4.33,1.26-1.11,2.82-1.82,4.67-2.1,1.68-.26,3.22-.08,4.64.52,1.41.61,2.45,1.53,3.12,2.76l-.48.07-1.6-10.29c-.17-1.1-.02-1.97.44-2.62.46-.65,1.23-1.06,2.3-1.22,1.04-.16,1.9,0,2.56.47.67.47,1.08,1.26,1.26,2.36l3.84,24.7c.17,1.07.01,1.94-.46,2.61-.47.67-1.23,1.08-2.28,1.24-1.04.16-1.89,0-2.54-.49-.65-.49-1.06-1.27-1.23-2.34l-.46-2.95.74,1.62c-.18,1.48-.87,2.75-2.05,3.81s-2.63,1.72-4.34,1.99ZM281.68,475.35c.96-.15,1.74-.51,2.37-1.08.62-.57,1.07-1.34,1.33-2.32.26-.97.29-2.17.06-3.59-.33-2.11-1-3.6-2.03-4.46-1.02-.86-2.24-1.19-3.66-.97-.93.14-1.71.49-2.35,1.03-.64.54-1.09,1.3-1.34,2.28-.25.97-.26,2.17-.04,3.59.33,2.11,1.01,3.62,2.03,4.51,1.03.89,2.24,1.23,3.63,1.02Z"/>
    <path class="cls-1" d="M321.49,470.78c-1.22.41-2.52.72-3.88.93-1.37.21-2.67.23-3.9.06-.65-.09-1.16-.31-1.54-.66-.38-.35-.63-.75-.75-1.21-.12-.45-.11-.9.03-1.35.14-.45.41-.81.8-1.08.39-.27.88-.38,1.49-.34,1.3.09,2.45.07,3.46-.05,1.01-.12,1.97-.34,2.89-.65,1.19-.4,2-.88,2.41-1.44s.52-1.14.31-1.75c-.19-.55-.51-.91-.96-1.07s-1.05-.17-1.78-.05l-4.64.68c-1.82.27-3.36.09-4.61-.56-1.25-.64-2.13-1.72-2.63-3.22-.47-1.39-.48-2.72-.05-3.99s1.25-2.41,2.44-3.42,2.66-1.8,4.41-2.39c1.25-.42,2.44-.7,3.57-.83s2.26-.11,3.4.06c.58.08,1.05.3,1.4.64.35.35.56.75.64,1.22.08.47.04.93-.12,1.38-.16.46-.43.81-.82,1.07-.39.26-.9.37-1.53.33-1.03-.12-1.95-.14-2.76-.07-.81.07-1.56.22-2.26.46-1.25.42-2.08.93-2.5,1.51-.42.59-.53,1.19-.32,1.8.16.47.45.81.88,1.03s.99.26,1.7.15l4.64-.68c1.91-.3,3.48-.16,4.73.42s2.13,1.65,2.66,3.21c.71,2.11.44,4.05-.8,5.81-1.25,1.76-3.24,3.11-5.99,4.03Z"/>
    <path class="cls-1" d="M342.48,471.23c-.98.46-1.85.55-2.61.28-.76-.28-1.37-.92-1.85-1.93l-9.96-21.29c-.46-.98-.55-1.85-.28-2.61s.88-1.36,1.81-1.79c.98-.46,1.84-.55,2.59-.27.75.28,1.35.91,1.81,1.9l1.27,2.71-1.16-1.35c-.2-1.46.12-2.86.96-4.21.84-1.35,2.04-2.39,3.61-3.12,1.7-.79,3.38-1.08,5.05-.86,1.67.22,3.22.92,4.64,2.1,1.42,1.18,2.63,2.81,3.61,4.91s1.47,4.08,1.48,5.95c0,1.87-.44,3.52-1.33,4.94-.89,1.42-2.2,2.53-3.92,3.34-1.54.72-3.08.98-4.63.78-1.55-.2-2.82-.81-3.81-1.83l.48-.22,3.8,8.12c.47,1.01.57,1.89.29,2.65-.27.76-.89,1.36-1.84,1.81ZM344.31,456.26c.85-.4,1.5-.96,1.95-1.69.45-.73.66-1.59.63-2.6-.03-1-.35-2.15-.96-3.46-.91-1.94-1.97-3.18-3.2-3.72-1.22-.54-2.47-.52-3.75.08-.85.4-1.51.95-1.97,1.65-.46.7-.69,1.56-.67,2.57s.33,2.17.94,3.46c.91,1.94,1.98,3.19,3.21,3.76,1.24.57,2.5.55,3.8-.06Z"/>
    <path class="cls-1" d="M371.78,446.86c-2.17,1.35-4.27,2.11-6.31,2.29-2.04.18-3.92-.18-5.65-1.09-1.72-.91-3.19-2.34-4.39-4.28-1.17-1.89-1.81-3.8-1.9-5.72-.09-1.92.32-3.74,1.25-5.43.93-1.7,2.3-3.11,4.12-4.24,1.32-.82,2.65-1.34,3.99-1.57,1.34-.23,2.65-.18,3.92.15s2.47.95,3.59,1.86c1.12.91,2.12,2.07,3,3.49.29.47.37.92.21,1.34-.15.42-.51.81-1.09,1.17l-11.72,7.28-1.81-2.91,9.4-5.84-.27.89c-.63-1.02-1.31-1.78-2.04-2.28-.72-.5-1.47-.75-2.25-.75s-1.58.25-2.4.76c-.92.57-1.57,1.27-1.96,2.09-.38.83-.5,1.74-.36,2.76.15,1.01.57,2.08,1.26,3.2l.19.3c1.17,1.89,2.48,3.01,3.92,3.36,1.44.35,3.03-.02,4.77-1.1.6-.37,1.24-.87,1.91-1.5.68-.63,1.25-1.31,1.72-2.05.4-.63.85-1.04,1.36-1.23s.98-.2,1.43-.03c.45.17.83.45,1.12.85s.47.87.5,1.42-.13,1.12-.48,1.72c-.55,1-1.28,1.94-2.19,2.84-.91.89-1.86,1.65-2.86,2.27Z"/>
    <path class="cls-1" d="M392.51,432.16c-1.85,1.44-3.75,2.33-5.69,2.67-1.94.34-3.8.13-5.59-.64-1.78-.77-3.38-2.06-4.8-3.89-1.06-1.37-1.8-2.75-2.23-4.16-.43-1.41-.54-2.81-.33-4.19.21-1.38.72-2.72,1.54-4,.82-1.28,1.92-2.47,3.31-3.54.72-.56,1.55-1.06,2.49-1.52.94-.46,1.97-.78,3.08-.97.62-.15,1.17-.1,1.64.14s.84.59,1.11,1.03c.27.44.4.91.4,1.41s-.15.95-.43,1.34-.75.65-1.4.78c-.64.09-1.24.26-1.8.51-.56.25-1.05.54-1.47.86-.69.54-1.22,1.12-1.58,1.76-.36.63-.56,1.29-.61,1.97-.04.68.07,1.4.34,2.16.27.75.71,1.52,1.32,2.31,1.19,1.53,2.49,2.43,3.92,2.72,1.42.28,2.82-.1,4.19-1.17.42-.32.82-.72,1.2-1.18s.71-1,.97-1.62c.28-.59.65-.97,1.12-1.14.46-.17.92-.19,1.38-.04.46.14.87.4,1.22.78.35.38.59.83.71,1.34.12.52.05,1.05-.23,1.6-.48,1-1.05,1.9-1.7,2.68-.65.79-1.34,1.46-2.05,2.01Z"/>
    <path class="cls-1" d="M386.69,402.98c-.91.83-1.8,1.25-2.68,1.27-.87.02-1.66-.36-2.37-1.14-.73-.8-1.04-1.64-.93-2.5.11-.87.61-1.71,1.53-2.54.91-.83,1.8-1.24,2.66-1.25.86,0,1.66.39,2.38,1.19.71.78,1.01,1.6.92,2.46-.09.86-.6,1.7-1.51,2.52ZM404.07,422.16c-.8.73-1.63,1.05-2.47.97-.85-.08-1.65-.55-2.42-1.39l-10.09-11.14c-.79-.87-1.18-1.73-1.18-2.58,0-.85.4-1.64,1.21-2.37.78-.71,1.6-1.02,2.44-.94.85.08,1.66.56,2.45,1.43l10.09,11.14c.77.85,1.16,1.69,1.17,2.53,0,.84-.39,1.62-1.19,2.35Z"/>
    <path class="cls-1" d="M419.24,407.32c-1.74,1.86-3.57,3.15-5.5,3.85-1.92.71-3.84.84-5.74.41-1.9-.43-3.68-1.43-5.35-2.99-1.62-1.52-2.73-3.2-3.32-5.03-.59-1.83-.66-3.69-.2-5.57.46-1.88,1.41-3.6,2.88-5.16,1.06-1.13,2.21-1.98,3.44-2.55,1.24-.57,2.51-.86,3.83-.87,1.31-.01,2.63.28,3.95.86,1.31.59,2.58,1.45,3.8,2.59.41.38.59.79.55,1.24-.04.45-.29.92-.75,1.41l-9.42,10.07-2.5-2.34,7.56-8.08-.03.93c-.88-.82-1.73-1.38-2.56-1.67-.83-.29-1.62-.34-2.37-.14-.75.2-1.45.65-2.12,1.36-.74.79-1.19,1.64-1.34,2.53-.16.9-.03,1.81.37,2.75.4.94,1.09,1.86,2.05,2.76l.26.24c1.63,1.52,3.18,2.26,4.66,2.22,1.48-.04,2.92-.81,4.32-2.3.48-.51.97-1.16,1.46-1.95.49-.78.87-1.59,1.13-2.43.22-.71.55-1.23.99-1.54.43-.32.89-.45,1.37-.4.48.05.91.22,1.31.53.39.31.68.72.85,1.25s.17,1.12-.02,1.79c-.27,1.11-.74,2.21-1.38,3.31-.65,1.1-1.37,2.08-2.17,2.93Z"/>
    <path class="cls-1" d="M434.11,389.51c-.78,1.03-1.67,2.02-2.68,2.96-1.01.95-2.07,1.7-3.18,2.25-.59.29-1.14.4-1.65.32-.51-.07-.95-.26-1.3-.57s-.6-.68-.74-1.14c-.14-.45-.12-.9.05-1.34.17-.44.51-.81,1.04-1.12,1.12-.66,2.06-1.32,2.83-2,.76-.67,1.44-1.39,2.02-2.16.76-1,1.15-1.85,1.18-2.55s-.21-1.24-.73-1.62c-.47-.35-.93-.47-1.4-.34-.46.13-.96.45-1.5.96l-3.45,3.18c-1.35,1.25-2.73,1.97-4.12,2.14-1.4.17-2.73-.21-3.99-1.17-1.17-.88-1.93-1.97-2.29-3.27s-.33-2.7.09-4.2,1.18-2.99,2.29-4.46c.79-1.05,1.62-1.95,2.48-2.7.86-.75,1.81-1.37,2.84-1.87.53-.26,1.03-.35,1.52-.26.48.09.89.3,1.22.65s.56.74.69,1.21c.13.46.1.91-.08,1.34-.18.43-.54.81-1.08,1.14-.92.48-1.69.98-2.32,1.5s-1.16,1.07-1.6,1.65c-.79,1.05-1.2,1.94-1.21,2.66-.01.72.24,1.28.75,1.67.4.3.83.42,1.3.35.47-.07.97-.34,1.48-.83l3.45-3.18c1.4-1.33,2.79-2.1,4.15-2.32,1.36-.22,2.69.16,4,1.15,1.78,1.34,2.65,3.09,2.62,5.25s-.92,4.39-2.67,6.71Z"/>
  </g>
  <path class="cls-1" d="M58.49,373.43c-1.3,0-2.58-.63-3.35-1.8-24.49-37.3-37.43-80.7-37.43-125.51,0-61.17,23.82-118.67,67.07-161.93C128.04,40.94,185.55,17.12,246.71,17.12s118.68,23.82,161.93,67.07c43.25,43.25,67.07,100.76,67.07,161.93,0,41.63-11.28,82.38-32.62,117.87-1.14,1.89-3.6,2.5-5.49,1.37-1.89-1.14-2.5-3.6-1.37-5.49,20.59-34.24,31.48-73.57,31.48-113.74,0-121.86-99.14-221-221-221S25.71,124.26,25.71,246.12c0,43.25,12.49,85.13,36.12,121.12,1.21,1.85.7,4.33-1.15,5.54-.68.44-1.44.66-2.19.66Z"/>
  <path class="cls-1" d="M337.19,303.13c-6.12,9.73-12.1,18.88-17.67,28.27-2.49,4.2-5.58,5.95-10.46,5.81-10.09-.27-20.2.03-30.29-.13-8.75-.14-12.75-6.2-9.58-14.38,1.08-2.79,2.55-5.45,3.92-8.12,1.33-2.58,2.2-5.23.79-8-5-9.82-2.31-19.78-.37-29.62,1.05-5.32-.07-7.38-5.86-7-7.06.47-14.18.26-21.26.06-4.08-.12-5.99,1.26-5.73,5.55.23,3.64-.06,7.3.05,10.95.12,3.89-.9,7.35-4.02,9.73-3.83,2.92-3.99,6.59-3.42,10.92.98,7.44,1.57,14.93,2.18,22.41.41,5.09-2.07,7.82-7.22,7.48-7.62-.5-15.49,1.76-22.82-2.05-2.23-1.16-4.14.36-6.13,1.02-10.28,3.37-14.56,1.45-18.5-8.32-1.36-3.39-2.51-6.88-4.1-10.15-3.79-7.86-3.52-15.42,1.54-22.54,3.65-5.13,4.2-10.06.52-15.39-1.2-1.74-2.25-3.77-2.74-5.81-2.92-12.18-11.25-15.65-22.93-17.05-11.45-1.37-21.64-.18-31.6,5.28-2.62,1.44-5.5,2.42-8.31,3.5-9.75,3.77-16.99,2.04-23.36-6.33-13.27-17.44-13.77-14.73,1.35-29.31,6.3-6.07,9.1-13.95,13.01-21.28,1.78-3.35,3.56-6.36,7.72-7.01,2.61-.41,3.65-2.1,4.55-4.64,3.94-11.2,15.25-14,24.06-5.83,2.6,2.41,4.15,2.22,6.4.22,13.1-11.59,28.43-16.36,45.8-15.09,6.44.47,12.24-1.5,17.6-5.1,14.39-9.64,29.5-17.69,47.05-19.83,35.86-4.39,65.74,7.48,89.06,34.61,12.43,14.46,15.88,32.59,15.36,51.32-.16,5.63.82,10.49,4.12,15.09,3,4.18,5.13,9.01,8.3,13.03,8.82,11.21,12.21,23.66,11.14,37.89-.51,6.73-1.97,12.43-6.06,17.82-12.82,16.89-12.71,16.97-33.87,15.97-8.06-.38-12.04-5.97-9.51-13.58.74-2.23,1.75-4.43,3.01-6.4,3.05-4.77,3.07-9.16-1.73-14ZM295.36,325.91c2.79,0,5.6-.21,8.37.05,3.96.37,6.21-1.45,8.35-4.63,14.07-20.93,25.98-42.93,34.21-66.86,2.68-7.8,4.72-15.65,4.15-23.91-1.77-25.92-14.4-44.82-37.1-57.26-15.47-8.47-31.78-12.24-49.49-10.79-16.16,1.33-30.4,7.32-43.49,16.3-8.99,6.16-18.38,9.51-29.52,8.88-13.8-.78-26.24,3.43-36.71,12.85-2.7,2.43-5.56,4.81-8.68,6.64-6.07,3.56-10.71,1.86-12.52-4.3-.54-1.85-.5-4.3-3.14-3.97-2.41.3-2.57,2.66-2.48,4.61.23,5.21-2.12,8.07-7.34,8.66-3.84.43-5.87,2.95-7.46,6.28-3.41,7.15-6.72,14.28-12.86,19.82-6.99,6.31-6.63,6.74-.57,13.9,3.07,3.62,6.58,3.69,10.43,2.13,5.97-2.41,11.85-5.05,17.8-7.52,4.58-1.91,9.29-3.66,14.34-3.08,18.74,2.16,37.7,3.73,53.17,16.51,1.31,1.08,2.93,1.79,4.38,2.7,6.14,3.87,6.75,6.17,3.18,12.7-3.5,6.41-6.53,13.17-10.76,19.06-6.02,8.37-6.33,16.48-1.26,25.1,1.16,1.98.79,5.84,4.62,4.93,2.89-.68,3.91-3.32,3.59-6.11-.5-4.46,1.84-7.16,5.03-9.73,7.18-5.8,14.09-11.94,21.35-17.65,3.38-2.66,4.7-5.63,4.62-9.9-.21-12.24-.08-24.48,0-36.73.02-3.74,1.78-6.29,5.82-6.16,3.71.12,5.16,2.65,5.26,6.06.09,3,.2,6.02.04,9.02-.21,3.83,1.31,5.43,5.24,5.36,9.45-.16,18.9-.14,28.35,0,3.18.05,5.2-1.28,6.94-3.76,2.59-3.69,5.33-7.28,8.1-10.83,2.73-3.51,5.5-8.56,10.74-4.81,5.26,3.77,1.49,7.93-1.18,11.59-1.65,2.25-3.34,4.47-5,6.72-10.61,14.43-12.93,30.3-8.11,47.35.89,3.13,1.67,6.06.51,9.4-1.27,3.65-6.15,7.6-3.35,10.59,1.97,2.09,7.72.64,11.78.76.21,0,.43,0,.64,0ZM356.78,260.09c-3.2,7.88-5.65,14.96-8.9,21.65-2.82,5.8-2.71,10.88.81,16.24,4.98,7.59,7.59,15.39,1.2,23.71-1.95,2.54-1.32,4.07,2.37,4.29,9.05.55,20.42-11.63,21.81-21.91,2.41-17.77-8.4-29.75-17.29-43.99ZM221.4,309.45c-3.16,2.56-5.42,4.5-7.8,6.3-2.74,2.07-2.86,4.38-1.32,7.28,2,3.78,5.39,3.16,8.43,2.61,3.28-.59,2.41-3.63,2.24-5.82-.25-3.15-.91-6.27-1.55-10.37Z"/>
</svg>