<?xml version="1.0" encoding="UTF-8"?>
<svg id="Quete_ENG" data-name="Quete ENG" xmlns="http://www.w3.org/2000/svg" viewBox="0 0 500 500">
  <defs>
    <style>
      .cls-1 {
        fill: #0c4d53;
      }

      .cls-1, .cls-2 {
        stroke-width: 0px;
      }

      .cls-2 {
        fill: #fff;
      }
    </style>
  </defs>
  <g>
    <g>
      <path class="cls-1" d="M155.23,464.59c-1.04-.4-1.72-.99-2.05-1.77-.33-.78-.29-1.7.11-2.74l8.71-22.77c.41-1.07,1-1.77,1.77-2.1.77-.33,1.67-.3,2.71.1l9.97,3.82c3.23,1.23,5.41,3,6.53,5.3,1.13,2.3,1.14,4.9.03,7.8s-2.85,4.83-5.23,5.81c-2.38.97-5.18.84-8.41-.4l-6.85-2.62-2.87,7.51c-.4,1.04-.97,1.74-1.73,2.11-.75.37-1.65.36-2.69-.04ZM164.4,450.09l5.79,2.21c1.64.63,3.03.74,4.18.33,1.14-.41,1.99-1.33,2.53-2.75.54-1.42.52-2.65-.07-3.69s-1.71-1.88-3.35-2.5l-5.79-2.21-3.3,8.62Z"/>
      <path class="cls-1" d="M190.05,476.12c-2.25-.56-4.09-1.48-5.54-2.77-1.45-1.29-2.42-2.88-2.92-4.75-.5-1.87-.48-3.93.08-6.18.42-1.68,1.04-3.12,1.89-4.33.84-1.21,1.87-2.17,3.09-2.88,1.22-.71,2.57-1.15,4.06-1.31,1.49-.16,3.07-.03,4.75.38,2.25.55,4.09,1.48,5.54,2.77,1.45,1.29,2.43,2.86,2.95,4.71.52,1.85.51,3.9-.05,6.14-.42,1.71-1.06,3.16-1.92,4.37s-1.89,2.17-3.09,2.9c-1.21.73-2.56,1.17-4.06,1.33-1.5.16-3.09.03-4.77-.39ZM191.24,471.3c.94.23,1.8.21,2.6-.08s1.5-.83,2.12-1.63c.62-.8,1.1-1.89,1.45-3.29.51-2.08.46-3.71-.15-4.9-.61-1.19-1.61-1.96-3.01-2.3-.91-.22-1.77-.21-2.57.04-.8.25-1.51.78-2.11,1.58-.6.8-1.08,1.9-1.42,3.29-.51,2.08-.47,3.72.14,4.94.6,1.22,1.59,2,2.95,2.34Z"/>
      <path class="cls-1" d="M214.7,480.85c-2.58-.38-4.4-1.39-5.46-3.01-1.06-1.62-1.38-3.86-.96-6.69l2.92-19.6c.16-1.1.57-1.89,1.22-2.37.65-.48,1.51-.64,2.58-.48,1.04.16,1.8.56,2.29,1.21.48.65.64,1.52.48,2.62l-2.88,19.34c-.18,1.19-.05,2.1.37,2.74s1.05,1.02,1.89,1.15c.23.03.45.05.66.05s.43.02.66.05c.47.01.78.2.92.56.14.36.13,1.04-.01,2.02-.13.87-.4,1.5-.82,1.9-.41.4-1,.61-1.74.65-.29-.01-.63-.03-1.02-.04-.38-.01-.75-.04-1.1-.1Z"/>
      <path class="cls-1" d="M230.55,482.45c-2.6-.21-4.48-1.09-5.65-2.63-1.17-1.55-1.64-3.75-1.41-6.61l1.58-19.75c.09-1.11.44-1.93,1.06-2.45.62-.52,1.46-.74,2.54-.66,1.05.08,1.84.43,2.36,1.05.52.61.74,1.48.65,2.59l-1.56,19.49c-.1,1.2.09,2.1.55,2.71.46.61,1.12.95,1.97,1.02.23.02.45.02.66,0,.21-.01.43,0,.66,0,.47-.02.79.14.95.5.16.35.2,1.02.12,2.02-.07.88-.3,1.53-.69,1.95-.39.42-.95.68-1.69.77-.29,0-.63.02-1.02.03-.38.01-.75,0-1.1-.02Z"/>
      <path class="cls-1" d="M247.19,483c-1.82.03-3.33-.28-4.54-.94s-2.11-1.66-2.71-3.01-.91-3.04-.94-5.06l-.16-9.93c-.02-1.11.25-1.95.82-2.52.56-.57,1.37-.86,2.42-.87,1.05-.02,1.88.25,2.47.79s.9,1.38.92,2.49l.16,10.1c.02,1.29.3,2.24.84,2.87.54.62,1.38.92,2.52.9,1.26-.02,2.28-.48,3.08-1.39.79-.91,1.17-2.09,1.15-3.56l-.15-9.05c-.02-1.11.25-1.95.82-2.52.56-.57,1.37-.86,2.42-.87,1.08-.02,1.92.25,2.5.79.58.55.88,1.38.9,2.49l.25,15.59c.04,2.26-1.01,3.4-3.15,3.43-1.05.02-1.87-.26-2.43-.84-.57-.58-.86-1.41-.88-2.49l-.05-2.94.69,1.7c-.62,1.5-1.52,2.68-2.71,3.51s-2.6,1.27-4.24,1.3Z"/>
      <path class="cls-1" d="M277.44,481.01c-2.01.23-3.73.08-5.16-.44s-2.54-1.38-3.34-2.58c-.8-1.21-1.31-2.79-1.53-4.74l-.93-8.21-1.83.21c-.82.09-1.47-.05-1.97-.44s-.79-.96-.88-1.71c-.09-.81.06-1.46.47-1.93.4-.47,1.01-.75,1.83-.85l1.83-.21-.37-3.32c-.12-1.11.07-1.98.59-2.61.52-.63,1.3-1.01,2.35-1.13,1.08-.12,1.92.07,2.54.58.62.5.99,1.31,1.11,2.42l.38,3.32,4.15-.47c.81-.09,1.46.05,1.95.42.48.37.77.97.86,1.78.09.76-.07,1.38-.45,1.86-.39.49-.99.78-1.8.87l-4.15.47.9,7.95c.14,1.22.52,2.11,1.16,2.65s1.58.75,2.83.61c.44-.05.84-.14,1.21-.27.37-.13.71-.23,1.03-.29.4-.08.75.01,1.05.26.29.25.49.84.6,1.77.08.7.03,1.32-.14,1.87-.17.55-.54.97-1.09,1.27-.36.19-.86.37-1.51.55-.64.18-1.2.29-1.66.34Z"/>
      <path class="cls-1" d="M285.06,453.43c-1.21.22-2.19.12-2.94-.32-.75-.44-1.22-1.18-1.42-2.22-.2-1.07-.03-1.94.52-2.62.54-.68,1.42-1.14,2.63-1.36,1.21-.22,2.18-.12,2.92.33.74.44,1.21,1.2,1.4,2.26.19,1.04.02,1.89-.5,2.57-.53.68-1.4,1.13-2.61,1.36ZM289.8,478.87c-1.07.2-1.94.04-2.61-.47s-1.12-1.33-1.33-2.46l-2.75-14.77c-.21-1.15-.1-2.09.35-2.81s1.2-1.18,2.27-1.38c1.04-.19,1.89-.03,2.57.48s1.12,1.35,1.34,2.5l2.75,14.77c.21,1.12.1,2.04-.33,2.77s-1.18,1.18-2.25,1.38Z"/>
      <path class="cls-1" d="M309.8,474.37c-2.23.62-4.29.73-6.18.31-1.89-.41-3.52-1.31-4.88-2.7-1.36-1.38-2.35-3.19-2.97-5.42-.46-1.66-.63-3.23-.49-4.7s.56-2.81,1.27-4.03,1.67-2.26,2.89-3.13c1.22-.87,2.66-1.54,4.32-2,2.23-.62,4.29-.72,6.19-.31s3.52,1.3,4.89,2.65c1.37,1.35,2.36,3.14,2.98,5.37.47,1.69.63,3.28.48,4.75s-.57,2.82-1.27,4.05c-.69,1.23-1.65,2.28-2.88,3.15-1.23.88-2.68,1.54-4.34,2.01ZM308.47,469.59c.93-.26,1.67-.71,2.22-1.35.55-.64.9-1.46,1.05-2.46.15-1,.03-2.19-.36-3.57-.58-2.06-1.42-3.46-2.54-4.2s-2.37-.91-3.75-.53c-.9.25-1.64.69-2.21,1.3-.57.62-.93,1.42-1.06,2.42-.13.99,0,2.18.38,3.57.58,2.06,1.42,3.47,2.55,4.24,1.13.77,2.37.96,3.72.58Z"/>
      <path class="cls-1" d="M329.92,467.78c-1,.42-1.88.46-2.63.14-.75-.32-1.34-.98-1.75-1.98l-5.98-14.4c-.42-1-.47-1.87-.16-2.62.31-.75.94-1.32,1.88-1.71.97-.4,1.83-.45,2.56-.14.73.31,1.31.97,1.72,1.97l.96,2.31-1-1.15c.07-1.58.57-2.99,1.51-4.22.93-1.23,2.18-2.17,3.75-2.82,1.6-.66,3.03-.9,4.32-.72,1.28.18,2.43.78,3.46,1.8s1.93,2.47,2.72,4.37l3.83,9.21c.42,1,.47,1.88.17,2.64s-.96,1.35-1.96,1.76c-.97.41-1.84.45-2.59.12-.75-.32-1.34-.98-1.75-1.98l-3.71-8.93c-.57-1.38-1.24-2.27-1.99-2.67-.75-.4-1.64-.39-2.67.04-1.3.54-2.16,1.38-2.6,2.51-.43,1.13-.37,2.37.19,3.73l3.47,8.36c.87,2.08.28,3.55-1.75,4.39Z"/>
    </g>
    <path class="cls-1" d="M143.56,449c-.63,0-1.27-.15-1.87-.47-75.14-39.87-121.82-117.43-121.82-202.42,0-61.17,23.82-118.67,67.07-161.93C130.2,40.94,187.7,17.12,248.87,17.12s118.67,23.82,161.93,67.07c43.25,43.25,67.07,100.76,67.07,161.93,0,84.36-46.17,161.65-120.5,201.72-1.94,1.05-4.37.32-5.42-1.62-1.05-1.94-.32-4.37,1.62-5.42,71.73-38.66,116.3-113.26,116.3-194.67,0-121.86-99.14-221-221-221S27.87,124.26,27.87,246.12c0,82.02,45.05,156.87,117.57,195.35,1.95,1.04,2.69,3.46,1.66,5.41-.72,1.35-2.1,2.13-3.54,2.13Z"/>
  </g>
  <g>
    <g>
      <path class="cls-1" d="M208.06,252.65c4.21-.95,7.61-1.72,11.43-2.58-1.72-10.91-3.46-21.85-5.16-32.81-.44-2.8-.97-5.62-1.08-8.44-.26-7.26,4.56-13.24,11.35-14.35,7.31-1.2,13.85,2.79,15.8,10.03,1.14,4.25,1.71,8.65,2.54,12.97.98.11,1.58.31,2.14.23,5.37-.84,10.73-1.72,16.86-2.72-.56-3.72-1.08-7.24-1.62-10.75-1.35-8.72,3.26-15.81,11.25-17.3,7.9-1.46,14.8,3.64,16.26,12.48,3.45,20.87,6.71,41.78,10.27,64.03,4.49-9.86,8.46-18.63,12.47-27.39,5.66-12.38,13.19-15.07,25.34-9.03,11.21,5.57,22.43,11.13,33.6,16.8,10.21,5.18,12.82,12.63,8.15,23.14-3.27,7.36-6.66,14.65-10.18,22.38,1.6.18,2.59.48,3.52.36,6.13-.81,8.14,2.55,8.83,8.03,1.54,12.27,3.4,24.49,5.17,36.73.23,1.58.68,3.13,1,4.56.57.27.92.55,1.28.58,3.39.26,7.83-.2,7.79,4.58-.05,5.21-4.69,4.59-8.28,4.59-91.96.02-183.93.02-275.89.01-1.21,0-2.75.39-3.57-.19-1.75-1.27-3.11-3.06-4.64-4.64,1.51-1.38,3.21-4.1,4.51-3.92,5.71.78,7.42-2.75,8.91-6.96,3.39-9.61,8.31-17.85,18.35-22,1.43-.59,2.65-2.92,3-4.64.96-4.76,1.74-9.61,1.97-14.45.26-5.41,3.07-7,7.89-6.69,2.37.15,4.76.03,8.2.03-2.01-3.73-3.43-6.57-5.03-9.31-5.1-8.73-6.14-17.81-2.97-27.48.79-2.42,1.13-5.22.74-7.7-.22-1.39-2.17-3.16-3.67-3.58-6-1.69-11.38-7.41-12.08-13.61-.71-6.25,3.53-8.95,8.15-11.46,5.33-2.89,10.62-5.86,15.84-8.93,4.35-2.56,8.95-3.94,12.77.09,4.02,4.25,8.16,9.41,5.33,15.69-2.19,4.86-.09,7.71,3.47,8.39,15.1,2.88,24.72,11.95,29.98,25.24ZM206.25,338.51c.14.41.28.82.42,1.22,2.13,0,4.25,0,6.38,0,39.95,0,79.91-.32,119.85.25,8.8.13,13.78-2.03,16.31-10.6.92-3.11,1-5.07-1.05-7.55-4.76-5.77-9.53-11.57-13.75-17.73-2.81-4.1-5.88-4.98-10.64-4.3-20.96,2.98-41.98,5.51-62.96,8.3-5.58.74-12.1.26-16.47,3.05-13.15,8.4-25.46,18.14-38.1,27.36ZM312.96,252.32c-6.44,14.26-12.62,27.92-19.19,42.46,12.3-1.57,23.51-2.77,34.62-4.55,4.22-.67,6.87.44,9.29,3.75,3.43,4.7,7.17,9.17,11.22,14.31,5.24-11.42,10.14-22.1,15.2-33.11-17.3-7.73-33.97-15.19-51.14-22.86ZM186.33,283.41c6.4-2.84,7.58-14.24,17.21-8.51,2.69-5.03,2.39-9.4-.68-13.9-2.72-4-4.2-9-7.4-12.47-3.81-4.13-8.4-8.52-13.51-10.23-6.74-2.25-12.7-4.74-16.86-10.97-3.41,1.96-6.49,3.74-8.62,4.96.27,5.64,2.08,11.03.45,15-5.66,13.78.38,24.29,7.93,35.27,1.53-2.45,2.9-4.67,4.29-6.87,4.1-6.5,6.62-6.65,11.11-.63,2.05,2.75,4.04,5.54,6.09,8.35ZM286.88,249.72c-2.75-17.37-5.11-33.4-8.04-49.32-.34-1.83-3.83-3.08-5.86-4.6-1.29,2.17-3.6,4.31-3.64,6.5-.09,4.4.79,8.89,1.77,13.22,1.12,4.96-.79,7.28-5.51,8.01-7.98,1.24-15.96,2.51-23.93,3.84-4.61.77-6.77-1.26-7.33-5.76-.55-4.42-.87-9-2.36-13.12-.79-2.18-3.88-3.53-5.93-5.26-1.28,2.2-3.89,4.57-3.63,6.58,1.73,13.62,4.06,27.16,6.14,40.34,6.55,2.56,8.08-1.88,9.47-5.87,2.16-6.19,5.97-7.69,12.22-6.17,7.99,1.94,14.26,6.09,18.99,12.64q10.77-8.86,17.63-1.04ZM235.38,306.17c-12.56-7.98-24.11-15.31-35.93-22.82-2.53,2.82-4.8,5.36-7.48,8.36,2.63,3,4.67,6.52,7.7,8.57,6.85,4.64,14.13,8.65,21.37,12.66,1.27.7,3.58.74,4.81.04,3.11-1.77,5.89-4.14,9.53-6.79ZM191.52,315.65c-6,3.27-11.37,5.74-16.13,9.08-1.32.93-.83,4.45-1.16,6.78,2.31-.1,4.77.27,6.88-.42,3.89-1.27,7.69-2.97,11.3-4.91,2-1.07,3.54-3,5.29-4.54-1.75-1.7-3.51-3.41-6.17-6ZM163.18,321.84c-2.77-1.96-4.32-3.97-6.04-4.11-7.23-.59-13.63,1.91-18.39,7.39-1.16,1.33-.48,4.27-.65,6.46,2.17-.04,4.5.43,6.46-.22,4.28-1.41,8.43-3.28,12.52-5.21,1.79-.84,3.29-2.3,6.09-4.31Z"/>
      <path class="cls-2" d="M108.68,349.42c-.62,0-1.2-.09-1.65-.42-1.28-.93-2.37-2.14-3.42-3.3-.42-.47-.85-.94-1.29-1.39l-.36-.37.38-.35c.46-.42.95-.98,1.43-1.53,1.2-1.38,2.33-2.66,3.49-2.51,5.33.73,6.88-2.43,8.37-6.63,2.81-7.96,7.46-17.68,18.63-22.3,1.2-.5,2.37-2.61,2.7-4.28,1.13-5.61,1.76-10.18,1.96-14.37.13-2.61.83-4.45,2.15-5.63,1.38-1.23,3.37-1.72,6.27-1.54,1.56.1,3.16.08,5.01.05.72,0,1.49-.02,2.32-.03-.52-.97-.99-1.87-1.45-2.73-1.14-2.15-2.12-4.01-3.18-5.83-5.24-8.96-6.23-18.09-3.01-27.89.82-2.49,1.08-5.21.73-7.46-.18-1.12-1.91-2.78-3.31-3.18-6.39-1.8-11.74-7.84-12.44-14.04-.73-6.43,3.56-9.33,8.41-11.96,5.83-3.17,11.01-6.08,15.83-8.92,3.64-2.15,8.99-4.46,13.39.18,3.02,3.19,8.63,9.12,5.42,16.24-.97,2.16-1.11,4.03-.4,5.4.61,1.18,1.83,1.97,3.5,2.29,14.38,2.74,24.54,11.2,30.19,25.15l10.55-2.38-1.31-8.32c-1.26-8-2.53-16.01-3.77-24.03-.08-.52-.17-1.05-.25-1.57-.37-2.26-.75-4.6-.83-6.93-.27-7.45,4.68-13.7,11.76-14.86,7.65-1.25,14.38,3.02,16.36,10.39.8,2.96,1.32,6.02,1.83,8.99.21,1.22.42,2.45.65,3.66.21.03.4.06.57.09.45.08.78.13,1.06.09,4.12-.64,8.24-1.31,12.7-2.04l3.67-.6-.46-3.03c-.37-2.45-.72-4.84-1.09-7.22-1.39-8.99,3.4-16.33,11.65-17.86,3.79-.7,7.53.07,10.52,2.17,3.32,2.33,5.56,6.14,6.32,10.72,2.46,14.84,4.78,29.5,7.25,45.03.91,5.71,1.82,11.49,2.76,17.36l3.55-7.82c2.84-6.25,5.53-12.16,8.23-18.07,2.92-6.39,6.37-10.22,10.55-11.7,4.16-1.47,9.22-.68,15.47,2.42l3.42,1.7c9.91,4.92,20.15,10.01,30.18,15.1,10.4,5.28,13.15,13.06,8.38,23.79-2.25,5.06-4.51,10.01-6.92,15.25-.98,2.15-1.98,4.31-2.98,6.52.3.04.57.08.83.13.76.12,1.36.22,1.89.15,2.68-.35,4.71.04,6.22,1.21,1.71,1.32,2.71,3.62,3.17,7.25,1.2,9.54,2.61,19.22,3.98,28.58.4,2.71.79,5.43,1.19,8.14.15,1.06.41,2.12.66,3.14.1.39.19.77.27,1.14.12.06.23.12.33.18.24.13.43.24.56.25.42.03.85.05,1.29.07,3.12.15,7,.34,6.96,5.01-.02,1.62-.44,2.83-1.31,3.67-1.54,1.5-4.14,1.46-6.42,1.42-.35,0-.7-.01-1.04-.01h0c-91.96.02-183.93.02-275.89.01-.33,0-.69.03-1.05.06-.39.03-.78.07-1.16.07ZM103.39,343.97c.32.35.64.7.96,1.06,1.02,1.13,2.07,2.29,3.26,3.16.43.31,1.3.24,2.14.17.39-.03.77-.07,1.13-.07,91.96,0,183.92,0,275.89-.01h0c.34,0,.7,0,1.05.01,2.2.03,4.47.07,5.71-1.14.67-.65,1-1.62,1.01-2.96.03-3.45-2.36-3.83-6.01-4-.45-.02-.89-.04-1.32-.08-.35-.03-.65-.19-.96-.37-.15-.08-.31-.17-.5-.26l-.22-.1-.05-.24c-.1-.44-.21-.89-.32-1.36-.26-1.04-.52-2.12-.68-3.24-.39-2.71-.79-5.43-1.18-8.14-1.37-9.36-2.78-19.05-3.98-28.6-.42-3.35-1.31-5.44-2.79-6.59-1.29-.99-3.08-1.32-5.47-1.01-.68.09-1.34-.02-2.18-.15-.43-.07-.91-.15-1.46-.21l-.69-.08.29-.63c1.1-2.42,2.19-4.79,3.26-7.14,2.4-5.24,4.67-10.18,6.91-15.24,4.57-10.29,2.05-17.44-7.92-22.49-10.03-5.09-20.27-10.18-30.18-15.1l-3.42-1.7c-5.99-2.97-10.79-3.75-14.69-2.38-3.91,1.38-7.17,5.04-9.97,11.17-2.7,5.9-5.39,11.81-8.23,18.06l-4.93,10.84-.26-1.64c-1.03-6.44-2.03-12.76-3.02-19.01-2.46-15.53-4.79-30.19-7.25-45.03-.72-4.32-2.81-7.9-5.91-10.07-2.77-1.94-6.24-2.66-9.77-2-7.69,1.43-12.15,8.3-10.85,16.73.37,2.38.73,4.77,1.09,7.23l.6,4.01-4.64.76c-4.47.73-8.59,1.4-12.71,2.04-.44.07-.88,0-1.38-.09-.26-.04-.55-.09-.89-.13l-.37-.04-.07-.36c-.26-1.34-.49-2.69-.72-4.04-.5-2.94-1.03-5.99-1.81-8.9-1.85-6.86-8.12-10.84-15.24-9.67-6.58,1.08-11.18,6.9-10.93,13.84.08,2.26.46,4.57.82,6.8.09.53.17,1.05.25,1.58,1.25,8.02,2.51,16.03,3.77,24.03l1.46,9.24-12.3,2.77-.16-.4c-5.49-13.85-15.45-22.23-29.61-24.93-1.96-.37-3.46-1.37-4.2-2.81-.86-1.65-.73-3.82.37-6.27,2.7-6-1.29-10.96-5.24-15.14-3.01-3.18-6.76-3.18-12.15,0-4.83,2.85-10.01,5.77-15.86,8.94-4.71,2.55-8.55,5.14-7.89,10.97.66,5.82,5.7,11.49,11.72,13.19,1.61.46,3.77,2.33,4.03,3.99.38,2.41.1,5.3-.76,7.93-3.12,9.52-2.16,18.37,2.92,27.08,1.07,1.83,2.06,3.7,3.2,5.86.57,1.07,1.17,2.22,1.84,3.46l.4.74h-.84c-1.15,0-2.19.01-3.14.03-1.88.02-3.5.05-5.09-.05-2.61-.17-4.37.24-5.54,1.28-1.11.99-1.7,2.6-1.82,4.93-.21,4.25-.84,8.86-1.98,14.52-.33,1.65-1.58,4.29-3.3,5-10.8,4.46-15.33,13.94-18.07,21.71-1.52,4.32-3.4,8.11-9.45,7.29-.65-.08-1.72,1.17-2.6,2.18-.38.43-.76.87-1.14,1.26ZM333.64,340.49c-.25,0-.5,0-.75,0-29.38-.42-59.26-.36-88.15-.3-10.57.02-21.13.04-31.7.04h-6.74l-.65-1.91.3-.22c3.54-2.58,7.12-5.25,10.58-7.83,8.88-6.63,18.07-13.49,27.54-19.54,3.28-2.1,7.71-2.41,11.98-2.7,1.56-.11,3.18-.22,4.69-.42,7.7-1.02,15.41-2.01,23.11-3,13.07-1.68,26.58-3.41,39.84-5.29,5.26-.74,8.38.52,11.12,4.52,4.26,6.21,9.07,12.05,13.72,17.69,2.18,2.65,2.1,4.78,1.14,8.01-2.66,9.01-8.12,10.96-16.05,10.96ZM276.24,339.14c18.83,0,37.85.07,56.67.34,8.11.14,13.25-1.52,15.82-10.24.89-3.02.97-4.76-.95-7.09-4.67-5.66-9.49-11.52-13.77-17.77-2.52-3.68-5.27-4.79-10.16-4.09-13.27,1.88-26.79,3.62-39.85,5.3-7.71.99-15.41,1.98-23.11,3-1.54.2-3.17.32-4.75.43-4.15.29-8.44.59-11.51,2.55-9.45,6.04-18.62,12.88-27.49,19.5-3.36,2.51-6.84,5.11-10.29,7.62l.18.54h6.02c10.57,0,21.13-.02,31.7-.04,10.39-.02,20.92-.04,31.5-.04ZM141.95,332.2c-.6,0-1.21-.03-1.81-.06-.67-.04-1.36-.07-2.03-.06h-.55s.04-.54.04-.54c.05-.66.02-1.43-.01-2.16-.07-1.73-.14-3.53.78-4.59,4.83-5.56,11.33-8.17,18.81-7.56,1.27.1,2.39,1.05,3.8,2.24.72.61,1.53,1.29,2.48,1.96l.57.4-.57.41c-.96.69-1.77,1.32-2.49,1.88-1.37,1.06-2.46,1.9-3.67,2.48-3.93,1.86-8.18,3.77-12.58,5.23-.88.29-1.83.37-2.78.37ZM138.63,331.08c.52,0,1.05.04,1.56.06,1.52.08,2.96.16,4.22-.26,4.35-1.44,8.56-3.34,12.47-5.18,1.12-.53,2.17-1.34,3.49-2.37.58-.45,1.23-.95,1.96-1.5-.75-.56-1.4-1.11-1.99-1.61-1.28-1.08-2.29-1.93-3.24-2.01-7.14-.58-13.36,1.91-17.97,7.22-.66.76-.6,2.35-.53,3.89.02.58.05,1.17.04,1.74ZM173.64,332.04l.09-.6c.1-.71.13-1.56.15-2.38.06-2.04.11-3.96,1.22-4.74,3.44-2.42,7.24-4.4,11.26-6.5,1.59-.83,3.23-1.69,4.92-2.61l.32-.18,6.82,6.63-.41.36c-.54.47-1.05.98-1.57,1.49-1.17,1.15-2.37,2.34-3.81,3.11-3.84,2.06-7.67,3.73-11.38,4.94-1.54.5-3.23.47-4.87.44-.71-.01-1.45-.03-2.15,0l-.6.03ZM175.2,330.99c.41,0,.81,0,1.21.02,1.63.03,3.16.06,4.54-.39,3.65-1.2,7.43-2.84,11.22-4.87,1.31-.71,2.42-1.79,3.58-2.94.4-.39.8-.79,1.21-1.17l-5.53-5.37c-1.58.86-3.12,1.66-4.61,2.44-3.99,2.08-7.76,4.05-11.15,6.43-.7.49-.75,2.33-.8,3.95-.02.64-.04,1.29-.09,1.9.14,0,.28,0,.41,0ZM223.53,313.97c-.99,0-1.99-.21-2.73-.61l-.24-.13c-7.07-3.91-14.38-7.95-21.18-12.55-2.14-1.45-3.75-3.53-5.45-5.74-.75-.97-1.52-1.98-2.34-2.91l-.29-.33,8.06-9,36.9,23.45-.59.43c-1.08.79-2.09,1.56-3.05,2.29-2.31,1.76-4.31,3.28-6.53,4.54-.68.38-1.62.58-2.57.58ZM192.64,291.71c.73.86,1.42,1.76,2.09,2.62,1.65,2.14,3.21,4.16,5.22,5.52,6.76,4.57,14.05,8.6,21.1,12.5l.24.13c1.15.63,3.25.65,4.32.04,2.16-1.22,4.13-2.73,6.42-4.47.79-.6,1.61-1.22,2.47-1.86l-34.95-22.21-6.91,7.71ZM349.02,309.25l-.51-.64c-1.24-1.58-2.46-3.09-3.64-4.56-2.68-3.34-5.21-6.49-7.59-9.76-2.33-3.2-4.8-4.19-8.81-3.55-7.91,1.26-15.82,2.23-24.21,3.25-3.4.42-6.87.84-10.43,1.29l-.89.11,19.76-43.73,52.06,23.27-15.75,34.31ZM330.6,289.55c3.14,0,5.41,1.29,7.5,4.15,2.37,3.25,4.89,6.39,7.56,9.72,1.02,1.28,2.07,2.58,3.14,3.93l14.65-31.91-50.22-22.45-18.62,41.19c3.25-.41,6.43-.8,9.55-1.18,8.37-1.02,16.28-1.99,24.17-3.25.81-.13,1.57-.19,2.28-.19ZM186.17,284.03l-2.16-2.97c-1.39-1.92-2.76-3.82-4.17-5.7-2.2-2.94-3.78-4.21-5.23-4.18-1.45.06-3.01,1.53-5.06,4.78-.93,1.47-1.85,2.95-2.82,4.51l-1.87,3.01-.43-.63c-7.76-11.28-13.72-21.76-7.98-35.74,1.05-2.55.59-5.85.1-9.34-.24-1.76-.5-3.58-.59-5.44l-.02-.31,9.29-5.35.26.39c4.14,6.21,10.22,8.64,16.6,10.78,5.33,1.78,10.13,6.48,13.72,10.37,1.93,2.09,3.26,4.74,4.54,7.31.89,1.77,1.8,3.6,2.9,5.22,3.21,4.72,3.44,9.31.71,14.42l-.25.46-.45-.27c-5.85-3.48-8.29-.34-11.13,3.31-1.6,2.05-3.25,4.17-5.62,5.23l-.37.16ZM174.71,270.17c1.76,0,3.55,1.38,5.94,4.58,1.41,1.89,2.79,3.79,4.18,5.72l1.67,2.3c1.96-1.01,3.44-2.91,4.87-4.75,2.8-3.59,5.68-7.31,11.97-3.82,2.32-4.62,2.04-8.63-.89-12.93-1.14-1.67-2.07-3.53-2.97-5.33-1.31-2.62-2.55-5.09-4.38-7.08-3.51-3.8-8.19-8.39-13.3-10.1-6.42-2.15-12.54-4.6-16.85-10.78l-.1.06-7.86,4.52c.1,1.71.33,3.41.56,5.05.5,3.63.98,7.06-.17,9.86-5.44,13.26.07,23.37,7.44,34.17l1.06-1.71c.97-1.56,1.89-3.04,2.82-4.51,2.28-3.6,4.03-5.17,5.87-5.24.04,0,.09,0,.13,0ZM269.16,251.48l-.31-.43c-4.66-6.45-10.78-10.52-18.71-12.45-6.27-1.52-9.65.17-11.63,5.85-.89,2.55-1.89,5.41-4.27,6.5-1.55.71-3.47.61-5.86-.33l-.27-.1-.04-.28c-.5-3.19-1.02-6.41-1.54-9.64-1.62-10.02-3.29-20.38-4.6-30.71-.2-1.57,1.05-3.22,2.25-4.82.52-.69,1.06-1.4,1.45-2.07l.3-.51.46.38c.62.52,1.36,1.02,2.07,1.5,1.67,1.13,3.4,2.3,4,3.96,1.26,3.47,1.7,7.27,2.12,10.96.09.76.17,1.52.27,2.28.28,2.28.97,3.8,2.11,4.64,1.08.8,2.59,1.03,4.64.69,7.69-1.29,15.52-2.54,23.93-3.85,2.33-.36,3.86-1.11,4.67-2.29.8-1.18.94-2.85.43-5.11-.91-4.04-1.88-8.73-1.78-13.34.03-1.67,1.21-3.25,2.34-4.77.48-.65.99-1.33,1.37-1.98l.28-.48.45.33c.62.46,1.41.92,2.17,1.36,1.85,1.07,3.6,2.07,3.88,3.55,2.25,12.23,4.16,24.46,6.17,37.42.61,3.91,1.23,7.88,1.87,11.92l.27,1.71-1.14-1.3c-3.31-3.78-4.98-5.67-6.94-5.56-2.04.12-4.7,2.31-10,6.66l-.41.34ZM229.02,249.79c2,.74,3.58.82,4.81.25,1.99-.92,2.88-3.44,3.73-5.88,2.18-6.24,6.01-8.19,12.82-6.53,7.99,1.95,14.2,6.01,18.97,12.41,9.94-8.16,10.88-8.55,16.77-1.94-.54-3.46-1.08-6.86-1.6-10.22-2.02-12.95-3.92-25.18-6.17-37.39-.19-1.02-1.82-1.96-3.39-2.87-.62-.36-1.26-.72-1.83-1.11-.35.54-.75,1.08-1.14,1.61-1.04,1.4-2.11,2.84-2.14,4.19-.09,4.5.86,9.12,1.76,13.1.58,2.55.39,4.48-.58,5.9-.97,1.42-2.72,2.31-5.34,2.72-8.41,1.3-16.24,2.56-23.92,3.84-2.33.39-4.09.1-5.4-.87-1.36-1.02-2.18-2.76-2.5-5.32-.09-.76-.18-1.52-.27-2.28-.42-3.62-.85-7.37-2.07-10.73-.49-1.35-2.08-2.43-3.62-3.48-.57-.39-1.16-.79-1.71-1.21-.37.56-.79,1.13-1.21,1.68-1.08,1.44-2.21,2.92-2.06,4.09,1.31,10.31,2.98,20.66,4.59,30.68.51,3.14,1.01,6.26,1.5,9.36Z"/>
    </g>
    <g>
      <path class="cls-1" d="M377.43,167.35c-1.73,4.89-3.06,9.98-5.42,14.55-.83,1.62-4.16,1.94-6.34,2.85-.44-2.28-1.99-5.17-1.14-6.74,5.17-9.49,3.5-17.74-2.88-25.91-6.36-8.14-9.36-17.41-7.32-27.9.64-3.28,1.26-6.99,5.64-6.4,4.61.63,3.77,4.14,3.13,7.56-1.59,8.55,1.17,15.97,6.44,22.63,4.4,5.56,7.14,11.74,7.9,19.36Z"/>
      <path class="cls-2" d="M365.3,185.44l-.12-.6c-.13-.69-.38-1.47-.62-2.22-.57-1.76-1.15-3.59-.46-4.85,4.76-8.73,3.86-16.79-2.84-25.36-6.86-8.79-9.36-18.31-7.42-28.3l.04-.2c.63-3.23,1.39-7.24,6.16-6.6,1.59.22,2.68.77,3.34,1.68,1.13,1.57.7,3.86.29,6.07l-.07.39c-1.44,7.74.63,15.01,6.34,22.22,4.65,5.87,7.27,12.29,8,19.62v.11s-.03.11-.03.11c-.49,1.38-.95,2.77-1.4,4.16-1.15,3.51-2.34,7.13-4.04,10.45-.67,1.3-2.55,1.84-4.37,2.36-.77.22-1.57.45-2.22.72l-.57.24ZM359.06,118.23c-2.84,0-3.53,2.36-4.2,5.86l-.04.2c-1.88,9.69.55,18.94,7.23,27.49,6.97,8.93,7.9,17.33,2.93,26.46-.48.88.04,2.5.54,4.07.19.58.38,1.18.52,1.76.57-.2,1.18-.38,1.78-.55,1.62-.46,3.29-.94,3.76-1.86,1.67-3.24,2.85-6.83,3.98-10.3.45-1.37.89-2.73,1.37-4.08-.74-7.18-3.21-13.22-7.78-18.99-5.9-7.45-8.04-14.98-6.54-23.03l.07-.39c.38-2,.77-4.08-.11-5.3-.49-.68-1.37-1.1-2.67-1.28-.3-.04-.58-.06-.84-.06Z"/>
    </g>
    <g>
      <path class="cls-1" d="M328.63,136.53c-4.03,12.52,1.62,21.19,7.75,30.1,6.54,9.51,6.32,19.88.59,29.77-1.06,1.84-4.74,3.81-6.47,3.28-3.9-1.2-2.84-4.53-1.21-7.46,4.79-8.66,3.31-16.58-2.59-24.21-7.13-9.23-10.71-19.52-7.14-31.17.53-1.73,3.17-3.57,5.06-3.86,1.19-.18,2.81,2.41,4.01,3.54Z"/>
      <path class="cls-2" d="M331.14,200.27c-.28,0-.55-.03-.79-.11-1.42-.44-2.36-1.19-2.78-2.23-.76-1.89.36-4.3,1.28-5.95,4.42-7.99,3.59-15.73-2.54-23.66-8.15-10.54-10.51-20.88-7.23-31.62.61-1.99,3.44-3.89,5.46-4.21,1.11-.18,2.23,1.15,3.31,2.43.4.48.79.93,1.12,1.25l.23.22-.1.3c-4.05,12.59,1.91,21.27,7.68,29.66,6.45,9.37,6.66,19.85.61,30.31-.99,1.72-4.14,3.62-6.26,3.62ZM324.75,133.48s-.04,0-.06,0c-1.66.26-4.18,1.96-4.66,3.51-3.18,10.4-.87,20.45,7.06,30.71,6.4,8.28,7.26,16.38,2.63,24.75-1.28,2.3-1.67,3.97-1.22,5.09.31.76,1.01,1.3,2.15,1.65,1.43.44,4.9-1.35,5.89-3.05,5.84-10.1,5.64-20.21-.57-29.24-5.59-8.13-11.92-17.33-7.9-30.24-.31-.32-.64-.71-.98-1.11-.71-.84-1.76-2.09-2.34-2.09Z"/>
    </g>
    <g>
      <path class="cls-1" d="M186.93,116.65c-3.17,11.65.64,19.91,6.6,27.89,7.51,10.04,7.94,20.97,1.79,31.81-1.03,1.82-4.35,2.33-6.61,3.45-.41-2.44-1.94-5.46-1.03-7.21,4.68-9.04,3.48-17-2.64-24.8-7.08-9.03-10.32-19.23-7.24-30.62.5-1.85,3.35-3.82,5.38-4.18,1.15-.21,2.86,2.75,3.74,3.67Z"/>
      <path class="cls-2" d="M188.33,180.54l-.11-.66c-.12-.74-.36-1.57-.6-2.37-.54-1.86-1.1-3.78-.38-5.16,4.46-8.61,3.64-16.32-2.58-24.26-7.76-9.91-10.23-20.36-7.32-31.06.56-2.08,3.57-4.15,5.78-4.54,1.12-.2,2.31,1.36,3.34,2.74.32.43.63.84.85,1.07l.19.2-.07.27c-3.29,12.07,1.19,20.33,6.52,27.46,7.51,10.04,8.14,21.23,1.83,32.36-.8,1.41-2.69,2.08-4.52,2.73-.79.28-1.61.58-2.3.92l-.6.3ZM183.33,113.47s-.03,0-.04,0c-1.87.33-4.54,2.16-4.99,3.82-2.82,10.38-.41,20.54,7.15,30.18,6.4,8.17,7.28,16.46,2.69,25.34-.53,1.02-.03,2.75.46,4.42.18.61.36,1.24.5,1.84.59-.25,1.21-.47,1.82-.69,1.66-.59,3.38-1.2,3.99-2.29,6.1-10.75,5.49-21.56-1.76-31.26-5.44-7.28-10.02-15.71-6.75-28.05-.22-.26-.46-.58-.73-.95-.58-.77-1.77-2.36-2.32-2.36Z"/>
    </g>
    <g>
      <path class="cls-1" d="M151.55,131.57c-4,12.53,1.66,21.19,7.78,30.1,6.39,9.28,6.33,19.49.82,29.24-1.13,1.99-4.92,4.21-6.76,3.7-3.97-1.11-2.75-4.55-1.15-7.43,4.79-8.68,3.27-16.59-2.62-24.21-7.14-9.23-10.68-19.52-7.13-31.16.53-1.72,3.21-3.54,5.1-3.8,1.2-.17,2.79,2.44,3.96,3.57Z"/>
      <path class="cls-2" d="M153.99,195.18c-.26,0-.51-.03-.73-.09-1.41-.4-2.34-1.11-2.77-2.12-.78-1.87.37-4.34,1.31-6.03,4.41-7.98,3.56-15.72-2.58-23.66-8.14-10.52-10.5-20.87-7.21-31.62.6-1.96,3.5-3.87,5.51-4.15,1.13-.15,2.22,1.18,3.29,2.46.39.48.76.92,1.09,1.24l.22.22-.09.3c-4.02,12.59,1.95,21.27,7.72,29.66,6.34,9.22,6.63,19.52.84,29.77-1.08,1.91-4.39,4.03-6.6,4.03ZM147.71,128.5s-.03,0-.05,0c-1.67.23-4.22,1.91-4.69,3.45-3.18,10.42-.88,20.46,7.04,30.71,6.41,8.29,7.28,16.39,2.66,24.75-.84,1.51-1.88,3.7-1.26,5.16.3.73,1,1.23,2.11,1.55,1.54.43,5.12-1.58,6.19-3.46,5.59-9.9,5.31-19.83-.8-28.71-5.86-8.53-11.93-17.34-7.94-30.24-.3-.32-.62-.7-.95-1.1-.7-.85-1.74-2.11-2.33-2.11Z"/>
    </g>
    <g>
      <path class="cls-1" d="M261.27,315.73c2.69,2.45,4.37,3.98,6.05,5.52-1.76,1.68-3.28,3.78-5.33,4.95-3.56,2.02-7.35,3.77-11.23,5.03-2.06.67-4.52.09-6.8.07.29-2.15-.2-5.44,1-6.25,4.95-3.39,10.41-6.05,16.31-9.31Z"/>
      <path class="cls-2" d="M248.39,332.04c-.76,0-1.54-.06-2.3-.13-.71-.06-1.44-.12-2.13-.12h-.57s.08-.57.08-.57c.09-.65.1-1.44.11-2.2.03-1.9.07-3.7,1.1-4.4,3.61-2.48,7.49-4.56,11.59-6.76,1.55-.83,3.14-1.68,4.76-2.58l.31-.17,6.71,6.12-.39.37c-.54.51-1.06,1.08-1.57,1.62-1.17,1.26-2.38,2.56-3.86,3.4-3.78,2.15-7.59,3.86-11.32,5.07-.81.26-1.67.35-2.54.35ZM244.52,330.81c.55.02,1.11.07,1.65.11,1.61.13,3.12.26,4.44-.17,3.67-1.19,7.42-2.87,11.14-4.99,1.35-.76,2.45-1.95,3.62-3.21.4-.43.81-.87,1.23-1.29l-5.4-4.92c-1.51.84-3,1.63-4.45,2.41-4.08,2.19-7.93,4.26-11.5,6.7-.6.42-.63,2.1-.66,3.59-.01.59-.02,1.2-.07,1.76Z"/>
    </g>
    <g>
      <path class="cls-1" d="M326.74,322.29c-.96,4.22-3.29,4.92-6.8,3.69-4.78-1.67-9.7-2.96-14.4-4.84-1.56-.62-3.54-2.49-3.62-3.89-.08-1.42,1.64-3.7,3.11-4.31,5.11-2.12,16.85,1.77,20.32,6.38.68.91.99,2.09,1.39,2.96Z"/>
      <path class="cls-2" d="M322.65,327.02c-.84,0-1.79-.19-2.88-.57-1.88-.66-3.81-1.26-5.68-1.85-2.89-.91-5.88-1.85-8.74-2.99-1.74-.7-3.84-2.74-3.93-4.32-.1-1.7,1.84-4.14,3.42-4.8,5.24-2.17,17.17,1.56,20.91,6.54.52.69.83,1.5,1.11,2.22.11.29.22.58.34.83l.07.15-.04.16c-.48,2.1-1.3,3.45-2.53,4.13-.59.33-1.27.49-2.05.49ZM308.54,312.87c-1.28,0-2.42.17-3.32.54-1.32.55-2.87,2.65-2.8,3.82.07,1.15,1.9,2.89,3.31,3.45,2.83,1.13,5.8,2.06,8.67,2.97,1.88.59,3.82,1.2,5.71,1.86,1.81.63,3.15.68,4.11.15.93-.51,1.58-1.6,2-3.32-.1-.23-.19-.47-.29-.73-.27-.69-.54-1.4-.97-1.98-2.75-3.66-10.91-6.76-16.42-6.76Z"/>
    </g>
  </g>
</svg>