<?xml version="1.0" encoding="UTF-8"?>
<svg id="Quete_ENG" data-name="Quete ENG" xmlns="http://www.w3.org/2000/svg" viewBox="0 0 500 500">
  <defs>
    <style>
      .cls-1 {
        fill: #0c4d53;
        stroke-width: 0px;
      }
    </style>
  </defs>
  <g>
    <path class="cls-1" d="M94.04,426.68c-2.63-2.29-4.42-4.73-5.38-7.31s-1.13-5.18-.52-7.8c.61-2.62,1.96-5.13,4.06-7.53,1.62-1.86,3.36-3.28,5.22-4.28,1.86-1,3.79-1.56,5.77-1.67,1.98-.12,3.99.21,6.03.97,2.03.76,4.02,1.99,5.97,3.68,1.19,1.04,2.27,2.21,3.23,3.51.96,1.3,1.72,2.75,2.29,4.33.23.67.25,1.28.06,1.83-.19.55-.52,1.02-.99,1.41-.47.38-1,.63-1.57.73-.58.1-1.12.01-1.64-.26-.52-.28-.94-.79-1.26-1.53-.38-1.03-.9-2-1.55-2.9-.65-.9-1.47-1.77-2.44-2.62-1.57-1.37-3.14-2.22-4.71-2.56-1.57-.34-3.11-.17-4.62.52-1.51.69-2.99,1.86-4.43,3.51-2.17,2.5-3.22,4.91-3.13,7.24.09,2.33,1.31,4.52,3.68,6.58.79.69,1.68,1.33,2.65,1.9.97.58,1.99,1.08,3.06,1.5l-2.78,1.25,5.54-6.36-2.98-2.6c-.66-.58-1.03-1.19-1.09-1.82-.06-.64.15-1.25.65-1.82.52-.6,1.1-.9,1.73-.91.63-.01,1.28.27,1.94.85l5.2,4.53c.66.58,1.01,1.19,1.04,1.84.03.65-.24,1.31-.81,1.97l-6.7,7.68c-.5.58-1.03.96-1.6,1.17s-1.19.17-1.88-.12c-1.3-.51-2.67-1.2-4.1-2.05s-2.75-1.81-3.96-2.87Z"/>
    <path class="cls-1" d="M115.16,442.8c-2.14-1.49-3.33-3.2-3.55-5.12-.23-1.93.47-4.07,2.11-6.42l11.31-16.27c.63-.91,1.35-1.44,2.15-1.58s1.64.1,2.53.71c.87.6,1.37,1.3,1.51,2.1.14.79-.1,1.65-.74,2.56l-11.16,16.05c-.69.99-.98,1.86-.89,2.62.09.76.49,1.38,1.19,1.87.19.13.38.25.57.34.18.09.37.21.57.34.42.22.61.52.57.91-.04.39-.34.99-.91,1.8-.5.72-1.03,1.17-1.57,1.34s-1.16.11-1.85-.19c-.26-.14-.55-.31-.89-.49s-.65-.37-.94-.57Z"/>
    <path class="cls-1" d="M131.12,452.67c-2.01-1.14-3.54-2.53-4.59-4.16-1.04-1.63-1.56-3.42-1.54-5.36.02-1.94.6-3.92,1.74-5.93.85-1.5,1.84-2.73,2.98-3.66s2.39-1.59,3.75-1.94,2.78-.41,4.26-.17c1.48.25,2.97.79,4.47,1.65,2.01,1.14,3.54,2.53,4.59,4.16,1.04,1.63,1.57,3.41,1.58,5.33,0,1.92-.56,3.89-1.7,5.9-.87,1.53-1.87,2.76-3.02,3.69-1.15.93-2.4,1.58-3.76,1.96-1.36.38-2.78.44-4.27.18-1.49-.25-2.99-.81-4.49-1.66ZM133.57,448.35c.84.48,1.68.68,2.53.62s1.67-.39,2.48-.99c.81-.6,1.57-1.53,2.28-2.78,1.05-1.86,1.45-3.45,1.18-4.76-.27-1.31-1.03-2.32-2.28-3.03-.82-.46-1.64-.68-2.48-.65-.84.03-1.66.35-2.46.96-.8.61-1.55,1.54-2.26,2.79-1.05,1.86-1.45,3.46-1.2,4.8.25,1.34.99,2.35,2.21,3.04Z"/>
    <path class="cls-1" d="M159.2,466.19c-1.6-.66-2.85-1.64-3.75-2.95-.9-1.31-1.28-2.71-1.14-4.2l1-1.16-1.04,2.52c-.41,1-.99,1.67-1.73,2-.74.33-1.59.29-2.57-.11-.97-.4-1.61-.98-1.92-1.74s-.25-1.64.17-2.64l9.55-23.1c.43-1.03,1.01-1.7,1.76-2.01s1.62-.26,2.62.16c.97.4,1.62.98,1.93,1.72s.25,1.63-.17,2.66l-3.98,9.62-.49-.2c.94-1.04,2.17-1.69,3.7-1.94,1.53-.25,3.08-.06,4.65.59,1.76.73,3.12,1.78,4.07,3.16s1.47,2.99,1.57,4.83c.09,1.84-.3,3.84-1.19,5.97-.88,2.14-2.02,3.84-3.4,5.11s-2.9,2.05-4.56,2.35c-1.66.29-3.36.09-5.09-.63ZM159.27,460.84c.87.36,1.72.46,2.56.3.84-.16,1.62-.59,2.34-1.29.72-.7,1.35-1.72,1.9-3.04.82-1.98,1.01-3.6.59-4.87s-1.29-2.17-2.59-2.71c-.87-.36-1.71-.47-2.55-.34-.83.13-1.61.55-2.34,1.24-.73.7-1.37,1.71-1.92,3.03-.82,1.98-1.02,3.61-.6,4.91.41,1.3,1.28,2.22,2.61,2.77Z"/>
    <path class="cls-1" d="M181.03,473.71c-1.52-.43-2.81-1.1-3.86-2.03-1.05-.93-1.77-2-2.16-3.2-.39-1.2-.41-2.44-.06-3.71.42-1.52,1.16-2.62,2.19-3.29,1.04-.67,2.5-.95,4.38-.83s4.29.58,7.23,1.4l2.24.63-.92,3.3-2.2-.61c-1.44-.4-2.62-.65-3.56-.74-.93-.09-1.64,0-2.12.25-.48.26-.82.72-1,1.36-.22.79-.13,1.52.28,2.18.41.66,1.13,1.14,2.18,1.43.82.23,1.6.24,2.34.04s1.39-.59,1.94-1.15c.55-.56.95-1.26,1.18-2.11l1.36-4.87c.35-1.24.31-2.2-.11-2.88-.42-.68-1.3-1.21-2.66-1.59-.76-.21-1.61-.35-2.55-.42-.94-.06-2-.04-3.19.09-.7.11-1.27.02-1.7-.27-.44-.29-.72-.67-.86-1.15-.14-.48-.14-.97,0-1.46.14-.49.41-.93.82-1.32s.97-.6,1.69-.65c1.48-.17,2.83-.18,4.05-.06,1.22.13,2.33.33,3.32.61,2.17.61,3.87,1.42,5.09,2.45,1.22,1.02,2,2.29,2.34,3.8.34,1.51.22,3.29-.35,5.35l-2.62,9.39c-.29,1.04-.77,1.78-1.43,2.2-.67.42-1.48.5-2.44.23-.96-.27-1.62-.76-1.99-1.47-.37-.71-.4-1.59-.11-2.63l.44-1.57.22.34c-.44.91-1.03,1.64-1.77,2.17-.74.54-1.59.88-2.54,1.02-.95.14-1.98.06-3.08-.24Z"/>
    <path class="cls-1" d="M207.04,479.68c-2.57-.47-4.35-1.53-5.36-3.19-1.01-1.66-1.25-3.9-.74-6.72l3.56-19.49c.2-1.09.63-1.87,1.3-2.33.67-.46,1.53-.59,2.6-.4,1.04.19,1.79.62,2.25,1.28.46.66.59,1.54.39,2.64l-3.52,19.23c-.22,1.18-.12,2.1.28,2.75.4.65,1.02,1.06,1.86,1.21.23.04.45.07.66.08.21,0,.42.03.66.08.47.03.77.22.9.59s.1,1.04-.08,2.02c-.16.86-.45,1.49-.88,1.87-.43.38-1.02.58-1.76.59-.29-.02-.63-.05-1.01-.07-.38-.03-.75-.07-1.09-.13Z"/>
    <path class="cls-1" d="M238.36,482.76c-.88-.01-1.62-.24-2.23-.67-.61-.43-1.1-1.12-1.46-2.07l-5.95-15.43c-.31-.83-.4-1.55-.27-2.18s.45-1.13.97-1.52c.52-.39,1.23-.57,2.14-.56.76.01,1.39.21,1.88.58.49.38.91,1.08,1.24,2.11l4.62,12.95-1.01-.02,5.23-13.36c.25-.7.6-1.21,1.06-1.54.46-.33,1.06-.49,1.79-.48.73.01,1.32.2,1.77.56.45.36.8.88,1.05,1.56l4.7,13.52h-.84s5-12.98,5-12.98c.37-.93.83-1.57,1.39-1.91.56-.34,1.16-.51,1.81-.5.82.01,1.45.23,1.9.65.45.42.7.95.77,1.59.06.65-.07,1.35-.41,2.1l-6.4,15.23c-.37.9-.87,1.57-1.5,2s-1.39.64-2.27.62c-.85-.01-1.58-.25-2.21-.69-.62-.45-1.12-1.13-1.48-2.05l-5.05-13.79,2.86.05-5.36,13.58c-.37.9-.86,1.58-1.48,2.02-.62.44-1.37.66-2.25.64Z"/>
    <path class="cls-1" d="M276.62,481.08c-1.57.22-3.02.11-4.35-.33-1.33-.44-2.42-1.13-3.26-2.08s-1.35-2.08-1.53-3.38c-.22-1.57.02-2.86.71-3.89.69-1.03,1.92-1.86,3.69-2.5,1.77-.64,4.17-1.17,7.19-1.59l2.31-.32.47,3.39-2.26.31c-1.48.2-2.67.45-3.56.74-.89.29-1.51.64-1.85,1.08-.34.43-.46.98-.37,1.65.11.81.49,1.44,1.12,1.88.64.44,1.49.59,2.57.44.84-.12,1.56-.42,2.16-.9.6-.48,1.04-1.09,1.32-1.82.28-.73.36-1.54.24-2.41l-.69-5c-.18-1.28-.59-2.14-1.25-2.6s-1.68-.59-3.07-.4c-.78.11-1.62.32-2.51.63-.89.32-1.85.77-2.9,1.35-.6.38-1.16.52-1.67.43-.52-.09-.93-.33-1.25-.71-.32-.38-.51-.83-.58-1.34-.07-.51,0-1.02.23-1.54.22-.52.65-.94,1.29-1.26,1.29-.74,2.52-1.29,3.7-1.66,1.18-.37,2.27-.62,3.29-.76,2.23-.31,4.11-.24,5.64.22,1.53.46,2.75,1.31,3.66,2.56.91,1.25,1.51,2.93,1.81,5.05l1.33,9.66c.15,1.07,0,1.94-.44,2.59-.44.65-1.16,1.05-2.14,1.18-.99.14-1.79-.05-2.41-.56s-1-1.3-1.15-2.37l-.22-1.61.34.22c-.04,1.01-.29,1.91-.76,2.7-.47.79-1.11,1.44-1.93,1.95-.82.51-1.79.85-2.92,1Z"/>
    <path class="cls-1" d="M298.78,477.09c-1.08.26-1.98.17-2.68-.26-.71-.43-1.19-1.17-1.44-2.23l-3.65-15.16c-.25-1.05-.17-1.92.25-2.61.42-.69,1.13-1.15,2.13-1.39,1.03-.25,1.88-.16,2.55.27.67.42,1.14,1.16,1.39,2.22l.54,2.22-.43.1c-.07-1.79.37-3.3,1.31-4.52s2.32-2.11,4.15-2.67c.7-.23,1.29-.18,1.77.14s.85.95,1.11,1.88c.27.87.26,1.61-.03,2.22-.29.61-.9,1.09-1.84,1.44l-.96.32c-1.59.53-2.68,1.29-3.27,2.28-.59.99-.71,2.23-.34,3.74l1.91,7.94c.25,1.05.17,1.93-.25,2.63-.42.7-1.15,1.18-2.21,1.44Z"/>
    <path class="cls-1" d="M318.81,471.98c-1.01.39-1.89.42-2.63.08-.75-.34-1.31-1.01-1.71-2.02l-5.64-14.54c-.39-1.01-.42-1.89-.1-2.62.33-.74.97-1.29,1.92-1.67.98-.38,1.84-.41,2.56-.08.72.33,1.28,1,1.68,2.01l1.02,2.62-1.09-1.46c.06-1.47.51-2.81,1.36-4.02s2.05-2.12,3.61-2.72c1.56-.6,3-.74,4.32-.4,1.32.33,2.5,1.18,3.53,2.54l-.57.22c.06-1.63.56-3.08,1.49-4.37.93-1.29,2.2-2.24,3.81-2.87,1.56-.6,2.95-.79,4.19-.56,1.24.23,2.34.87,3.31,1.92.97,1.05,1.83,2.53,2.57,4.44l3.61,9.3c.39,1.01.43,1.89.11,2.64-.32.75-.97,1.32-1.96,1.7-1.01.39-1.89.42-2.63.08-.74-.34-1.31-1.01-1.71-2.03l-3.53-9.09c-.52-1.34-1.11-2.23-1.77-2.68-.66-.45-1.5-.48-2.51-.09-1.17.46-1.93,1.22-2.27,2.29-.34,1.07-.21,2.36.37,3.86l3.19,8.23c.39,1.01.43,1.89.11,2.64-.32.75-.97,1.32-1.96,1.7-.98.38-1.85.41-2.61.07-.76-.33-1.33-1.01-1.72-2.02l-3.53-9.09c-.52-1.34-1.11-2.23-1.77-2.68-.66-.45-1.5-.48-2.51-.09-1.17.46-1.93,1.22-2.27,2.29-.34,1.07-.21,2.36.37,3.86l3.19,8.23c.82,2.1.2,3.55-1.85,4.35Z"/>
    <path class="cls-1" d="M344.46,432.66c-1.09.58-2.05.77-2.9.57-.85-.2-1.52-.76-2.02-1.69-.51-.96-.61-1.84-.29-2.66s1.01-1.51,2.1-2.09c1.09-.58,2.05-.77,2.88-.56s1.51.78,2.02,1.74c.49.93.59,1.8.29,2.61-.3.81-.99,1.5-2.08,2.08ZM356.61,455.51c-.96.51-1.84.62-2.64.33-.8-.29-1.47-.94-2-1.95l-7.05-13.27c-.55-1.03-.72-1.96-.51-2.79.21-.82.79-1.49,1.75-2,.93-.5,1.8-.6,2.6-.31.8.29,1.48.95,2.03,1.98l7.05,13.27c.54,1.01.71,1.92.51,2.74-.2.82-.77,1.48-1.73,1.99Z"/>
    <path class="cls-1" d="M368.38,448.99c-.91.59-1.76.8-2.56.62s-1.49-.72-2.08-1.63l-8.5-13.07c-.59-.91-.8-1.76-.63-2.55.17-.79.68-1.46,1.54-2.02.88-.57,1.71-.77,2.49-.6.78.17,1.46.72,2.05,1.62l1.37,2.1-1.2-.95c-.22-1.57.02-3.04.71-4.42s1.75-2.53,3.18-3.46c1.45-.94,2.82-1.44,4.11-1.49s2.54.33,3.73,1.14c1.19.81,2.35,2.08,3.47,3.8l5.44,8.36c.59.91.81,1.76.65,2.57-.16.8-.69,1.5-1.6,2.09-.88.57-1.73.77-2.52.59s-1.49-.72-2.08-1.63l-5.27-8.1c-.81-1.25-1.63-2.01-2.44-2.26-.81-.26-1.69-.08-2.62.53-1.18.77-1.88,1.75-2.1,2.94-.22,1.19.07,2.4.87,3.63l4.93,7.59c1.23,1.89.92,3.43-.92,4.63Z"/>
    <path class="cls-1" d="M402.31,434.35c-1.21,1.02-2.46,1.89-3.73,2.62-1.28.73-2.51,1.25-3.71,1.57-.7.21-1.31.22-1.83.05-.51-.18-.92-.49-1.23-.92s-.47-.9-.5-1.42c-.03-.51.08-.98.34-1.41.25-.42.66-.72,1.21-.88,1.36-.38,2.52-.86,3.47-1.43.95-.57,1.73-1.11,2.34-1.62,1.43-1.21,2.24-2.44,2.41-3.69.17-1.25-.31-2.55-1.44-3.9l-2.15-2.56.3-.25c.53,1.31.54,2.74.04,4.27-.51,1.54-1.4,2.84-2.68,3.92-1.48,1.24-3.05,1.99-4.73,2.23-1.67.24-3.34,0-4.99-.74-1.65-.74-3.17-1.92-4.54-3.56-1.04-1.23-1.81-2.5-2.31-3.8-.5-1.3-.73-2.58-.7-3.83s.34-2.46.92-3.62c.58-1.16,1.42-2.2,2.51-3.12,1.32-1.11,2.76-1.78,4.32-2,1.56-.22,2.94.04,4.14.79l.57,1.36-1.61-1.92c-.7-.83-1.01-1.65-.94-2.45s.51-1.55,1.31-2.23c.81-.68,1.61-.98,2.4-.9.79.08,1.54.53,2.24,1.36l10.35,12.3c2.32,2.76,3.31,5.47,2.98,8.14s-1.92,5.21-4.77,7.6ZM393.47,423.64c.76-.64,1.27-1.37,1.51-2.19.25-.82.25-1.69,0-2.62-.24-.92-.75-1.85-1.52-2.77-1.17-1.39-2.42-2.18-3.75-2.38s-2.56.17-3.68,1.12c-.76.64-1.28,1.37-1.54,2.19-.27.82-.28,1.69-.02,2.6.25.92.77,1.83,1.54,2.75,1.17,1.39,2.42,2.19,3.75,2.41,1.33.22,2.57-.15,3.71-1.11Z"/>
  </g>
  <path class="cls-1" d="M409.95,404.97c-.99,0-1.98-.36-2.75-1.1-1.6-1.52-1.67-4.05-.15-5.65,39.12-41.23,60.67-95.25,60.67-152.1,0-121.86-99.14-221-221-221S25.71,124.26,25.71,246.12c0,54,19.69,105.99,55.44,146.39,1.46,1.65,1.31,4.18-.35,5.65-1.66,1.46-4.18,1.31-5.65-.35-37.04-41.86-57.44-95.73-57.44-151.69,0-61.17,23.82-118.67,67.07-161.93C128.04,40.94,185.55,17.12,246.71,17.12s118.67,23.82,161.93,67.07c43.25,43.25,67.07,100.76,67.07,161.93s-22.33,114.89-62.87,157.61c-.79.83-1.84,1.25-2.9,1.25Z"/>
  <g>
    <path class="cls-1" d="M226.16,160.44c.23.44.33.71.49.92,5.89,7.6.55,16.9-6.45,19.09-4.49,1.4-8.67,3.31-11.79,7.02-1.22,1.45-2.35,2.99-3.67,4.35-5.31,5.48-13.68,4.03-16.21-2.79-1.1-2.95-.49-5.81.7-8.61.58-1.36,1.27-2.69,1.65-4.1.72-2.63.25-5.02-1.92-6.89-1.95-1.69-4.16-1.63-6.34-.71-8.99,3.83-17.16,8.99-24.66,15.24-.2.16-.32.42-.56.75.44.17.75.32,1.07.41,4.66,1.35,5.93,4.07,3.94,8.45-.32.7-.7,1.38-1.01,2.09-2.03,4.5-.08,8.17,4.82,9.02,2.15.38,4.33.44,6.51.51,5.18.18,9.49,3.2,10.91,7.55,1.69,5.16-1.42,10.65-7.21,12.39-2.14.64-4.41.83-6.61,1.26-10.2,2.02-16.61,11.83-14.37,21.96.32,1.44.66,2.88.86,4.34.48,3.55-1.57,7.03-4.69,8.09-3.18,1.07-6.33-.36-8.24-3.8-1.33-2.39-2.18-5.02-3.94-7.19-1.46-1.8-3.2-3.14-5.31-4.04-4.63-1.98-8.24.11-8.64,5.1-.41,4.98-.5,9.97.02,14.94,1.59,15.19,6.12,29.41,14.22,42.41,4.22,6.76,9,13.09,14.87,18.52,1.6,1.48,2.15,1.38,2.86-.75,2.26-6.84,1.63-13.28-2.91-19.13-2.38-3.06-5.46-5.46-7.79-8.57-9.21-12.31-.88-29.83,14.32-32.01,8.31-1.19,14.93,1.65,20.08,8.06,3.27,4.07,7.34,6.63,12.41,7.79,3.58.82,7,2.08,9.83,4.6,5.64,5.04,6.94,13.72,3.08,20.69-3.03,5.48-7.76,9.4-12.34,13.44-6.44,5.67-11.83,12.18-16.33,19.48-1.07,1.74-.73,2.56.98,3.36,8.72,4.05,17.79,7.01,27.27,8.6,15.98,2.66,31.8,1.76,47.41-2.51,3.11-.85,6.13-2.05,9.19-3.09,1.33-.45,2.64-.98,3.99-1.33,2.92-.75,4.92.1,6.36,2.75,1.11,2.04,2.21,4.06,3.59,5.94,1.66,2.26,1.34,4.31-.93,6.02-1.06.79-2.27,1.41-3.48,1.95-14.17,6.37-29.05,9.47-44.55,10.03-20.22.72-39.4-3.42-57.56-12.22-16.06-7.77-29.24-19.13-40-33.28-13.13-17.27-20.63-36.75-22.64-58.38-2.34-25.1,2.77-48.57,15.66-70.18,12.21-20.48,29.14-35.88,51.06-45.62,11.73-5.21,23.94-8.63,36.67-9.96,23.97-2.51,46.42,2.31,67.16,14.71.78.47,1.52,1.02,2.27,1.54,1.78,1.24,2.65,2.75,2.63,5.12-.12,14.48-.07,28.97-.07,43.45,0,3.37-.9,4.23-4.25,4.05-2.33-.12-4.34-1.15-6.23-2.39-2.35-1.54-4.56-3.29-6.91-4.84-8.09-5.35-17.42-4.71-24.71,1.66-2.08,1.82-4.2,3.52-7.03,4.04-3.05.56-6.29-.96-7.64-3.64-1.41-2.8-.85-6.21,1.44-8.33.71-.66,1.5-1.32,2.37-1.74,3.28-1.59,5.87-3.94,7.45-7.19,3.11-6.41,8.41-9.07,15.25-9.5,2.95-.19,5.82-.93,8.31-2.73,3.65-2.63,3.51-6.32-.51-8.24-8.97-4.26-18.48-6.68-28.34-7.75-1.67-.18-3.36-.27-5.04-.39-.19-.01-.4.09-.82.2Z"/>
    <path class="cls-1" d="M362,206.01c0,26.64.02,53.29-.03,79.93,0,2.09.49,3.67,2.02,5.24,8.45,8.72,12.78,19.26,12.83,31.39.09,22.66-18.13,43.38-40.61,46.44-24.68,3.35-48.27-13.66-52.49-38.23-2.6-15.16,1.36-28.57,12.35-39.61,1.3-1.31,1.83-2.61,1.83-4.44-.03-53.29-.01-106.57,0-159.86,0-10.51,4.19-19.07,12.65-25.18,18.08-13.04,43-5.08,49.95,15.27,1.14,3.35,1.54,6.83,1.54,10.38-.03,26.22-.02,52.44-.02,78.66h-.03ZM342.98,210.71c0-27.13,0-54.27,0-81.4,0-1.41.03-2.82-.1-4.21-.67-6.99-6.49-11.68-14.01-11.36-6.64.29-11.86,5.68-11.88,12.39-.03,12.51.02,25.03-.03,37.54,0,1.74.56,2.35,2.3,2.3,3.37-.11,6.75-.07,10.12-.03,2.41.02,4.62.69,6.19,2.63,1.87,2.29,2.49,4.88,1.25,7.68-1.32,3-3.78,4.51-6.98,4.63-3.58.13-7.17.08-10.75.05-1.51-.01-2.15.59-2.12,2.14.06,3.51,0,7.03.02,10.54,0,2.75.01,2.71,2.85,2.77,3.86.08,7.76-.45,11.57.29,4.99.97,7.44,6.27,5.14,10.78-1.57,3.08-4.4,4.01-7.54,4.14-3.16.13-6.33.11-9.49,0-1.86-.06-2.67.47-2.58,2.49.15,3.37.16,6.75,0,10.12-.1,2.04.71,2.56,2.57,2.43,3.71-.26,7.44-.47,11.15.02,3.37.45,5.85,2.68,6.57,5.95.66,2.94-.71,5.93-3.51,7.73-1.47.95-3.12,1.26-4.83,1.27-2.88.03-5.76,0-8.65,0q-3.28,0-3.29,3.16c0,1.69,0,3.37,0,5.06q0,6.46,6.57,6.44c2.18,0,4.37-.11,6.53.07,3.97.33,6.88,3.2,7.3,6.97.36,3.26-1.82,6.28-5.46,7.62-1.14.42-2.32.57-3.52.57-2.53,0-5.06,0-7.59,0q-3.82,0-3.83,3.71c0,6.47-.12,12.94.03,19.4.05,2.34-.69,3.67-2.73,4.86-9.7,5.62-15.19,18.81-12.22,29.55,3.13,11.3,10.39,18.78,21.9,21.33,11.17,2.48,20.61-1.2,27.82-9.96,11.42-13.87,7.22-31.82-5.89-40.76-2.12-1.45-2.99-2.85-2.98-5.41.09-27.84.05-55.67.06-83.51Z"/>
    <path class="cls-1" d="M282.83,256.83c0,8.15-.03,16.31.02,24.46.01,1.87-.51,3.37-1.75,4.79-6.54,7.49-11.14,15.9-12.91,25.87-1.48,8.32-10.85,10.91-17.77,5.23-3.77-3.1-5.69-7.11-5.76-11.94-.09-6.18,0-12.37-.06-18.56-.03-3.8-.35-7.58-1.29-11.28-.71-2.76-1.93-5.28-3.89-7.39-2.45-2.64-5.38-3.9-9.06-3.37-11.56,1.64-20.37-3.9-23.26-14.72-1.45-5.41-.88-10.84,1.39-15.88,4.8-10.63,12.53-17.9,24.47-19.71,5.87-.89,11.33.29,16.08,4.06,1.27,1,2.52,2.03,3.81,3,3.08,2.3,6.46,3.25,10.32,2.42,4.02-.87,8.04-1.24,12.05.2,2.16.78,4.04,1.94,5.72,3.48,1.32,1.21,1.94,2.62,1.92,4.47-.06,8.29-.03,16.59-.03,24.88Z"/>
    <path class="cls-1" d="M213.81,100.02c-.05-1.57.18-3.1.79-4.54,1.76-4.15,3.97-8.08,6.38-11.87,2.35-3.69,6.46-4.54,9.89-2.4,3.26,2.03,4.19,6.36,2.13,10.02-.59,1.04-1.21,2.07-1.95,3.01-2.55,3.23-2.83,6.71-1.56,10.54,1.08,3.26,2.16,6.56,2.44,10.02.25,3.07-.77,5.7-3.46,7.43-2.55,1.64-5.16,1.68-7.73,0-1.82-1.18-2.99-2.85-3.1-5.01-.2-4.14-1.39-8.01-2.86-11.83-.66-1.72-1.01-3.51-.97-5.36Z"/>
    <path class="cls-1" d="M193.88,84.06c4.7.03,8.18,5.02,6.64,9.17-.56,1.51-1.26,3-2.16,4.33-2.24,3.32-1.89,6.39.39,9.54,1.77,2.44,3.64,4.84,4.97,7.57,1.77,3.65,1.24,6.81-1.55,9.41-3.48,3.25-9.16,2.41-11-1.97-1.62-3.88-3.81-7.34-6.16-10.75-3.16-4.59-3.45-9.43-1.26-14.42,1.36-3.08,2.5-6.27,4.24-9.18,1.4-2.34,3.47-3.62,5.89-3.7Z"/>
    <path class="cls-1" d="M251.84,126.91c-3.51.02-6.73-2.43-7.01-6.01-.29-3.62-1.34-7.02-2.16-10.49-1.2-5.07-.34-9.58,3.04-13.61,2.07-2.47,3.85-5.21,6.05-7.55,2.03-2.17,4.65-3.09,7.67-1.94,2.9,1.1,4.2,3.37,4.51,6.3.2,1.85-.5,3.46-1.62,4.88-1.34,1.71-2.78,3.35-4.12,5.06-1.42,1.83-1.85,3.83-1.17,6.14.78,2.62,1.47,5.28,1.98,7.96.95,5.05-2.36,9.25-7.18,9.27Z"/>
    <path class="cls-1" d="M345.71,323.28c-.02,8.29-7.3,15.49-15.73,15.58-8.6.09-16.17-7.28-16.1-15.66.08-8.94,7.27-16.01,16.22-15.95,8.71.06,15.63,7.17,15.61,16.02Z"/>
  </g>
</svg>