<?xml version="1.0" encoding="UTF-8"?>
<svg id="Badges" xmlns="http://www.w3.org/2000/svg" viewBox="0 0 500 500">
  <defs>
    <style>
      .cls-1 {
        fill: none;
        stroke: #0c4d53;
        stroke-linecap: round;
        stroke-miterlimit: 10;
        stroke-width: 8px;
      }

      .cls-2 {
        fill: #0c4d53;
        stroke-width: 0px;
      }
    </style>
  </defs>
  <path class="cls-1" d="M32.08,326.21c-9.42-25.28-14.58-52.64-14.58-81.21C17.5,116.59,121.59,12.5,250,12.5s232.5,104.09,232.5,232.5c0,22.95-3.32,45.12-9.52,66.05"/>
  <g>
    <path class="cls-2" d="M50.27,330.4c.33-.16.67-.25,1.02-.27s.68.03.99.13.6.27.86.5c.26.23.47.5.63.82l3.86,7.92c.69,1.42,1.09,2.88,1.19,4.38.1,1.5-.07,2.94-.51,4.32-.44,1.38-1.14,2.64-2.11,3.78-.97,1.14-2.16,2.06-3.58,2.75-.96.47-1.95.79-2.96.96-1.01.17-2,.2-2.97.09-.97-.11-1.92-.35-2.83-.71-.92-.36-1.78-.85-2.59-1.45l-2.86,6.34c-.11.36-.29.67-.52.92-.24.26-.51.46-.82.6-.31.14-.63.22-.97.25s-.68-.02-1.01-.15c-.34-.12-.63-.28-.87-.5-.24-.21-.42-.46-.56-.73-.29-.59-.32-1.22-.09-1.88l4.04-9.4-2.64-5.41-5.35,2.61c-.32.15-.65.24-1,.26s-.67-.03-.98-.15-.59-.29-.85-.51-.47-.5-.63-.83c-.15-.32-.24-.65-.26-1-.02-.35.02-.67.12-.98s.26-.59.49-.85c.23-.26.5-.47.82-.62l22.95-11.2ZM50.22,336.21l-10.57,5.16,2.74,5.61c.38.78.87,1.44,1.48,1.99.61.55,1.27.96,1.98,1.24s1.46.41,2.23.39c.78-.01,1.52-.2,2.24-.55.73-.36,1.35-.84,1.87-1.46.51-.61.89-1.29,1.13-2.03.24-.74.34-1.52.29-2.34-.05-.82-.27-1.61-.64-2.37l-2.75-5.63Z"/>
    <path class="cls-2" d="M47.73,367.11c-.39.49-.69,1.03-.89,1.61-.21.58-.33,1.17-.35,1.77-.02.6.05,1.2.21,1.8.16.6.42,1.17.77,1.73.89,1.39,1.95,2.25,3.18,2.58.36.15.67.32.92.52.25.2.45.42.6.64.24.38.36.78.35,1.2,0,.42-.1.83-.29,1.21-.13.27-.3.52-.51.74-.21.22-.46.39-.73.52-.28.13-.58.21-.91.24-.33.03-.68-.02-1.05-.14-.46-.12-.93-.3-1.42-.51-.49-.22-.99-.51-1.49-.88-.5-.37-1.01-.83-1.51-1.37-.51-.54-1-1.2-1.5-1.96-.85-1.33-1.4-2.75-1.64-4.25s-.21-2.96.11-4.4.9-2.78,1.74-4.04c.84-1.26,1.93-2.31,3.26-3.16,1.33-.85,2.75-1.4,4.25-1.63,1.5-.24,2.97-.19,4.4.13,1.43.32,2.77.91,4.03,1.76,1.25.85,2.31,1.94,3.16,3.28.84,1.32,1.39,2.73,1.63,4.21.25,1.48.22,2.94-.07,4.37-.29,1.43-.85,2.78-1.68,4.04-.83,1.26-1.9,2.32-3.21,3.17-.62.4-1.25.52-1.89.36-.64-.15-1.16-.55-1.58-1.2l-7.88-12.34ZM57.75,374.78c.46-.5.81-1.05,1.05-1.65.24-.6.38-1.22.4-1.87.03-.64-.06-1.29-.25-1.95-.19-.66-.49-1.29-.88-1.92s-.85-1.15-1.37-1.59c-.52-.44-1.08-.78-1.67-1.01-.6-.24-1.21-.37-1.85-.4-.64-.03-1.27.05-1.91.25l6.47,10.14ZM67.42,365.45c-.38-.08-.71-.23-.99-.44-.28-.21-.51-.45-.68-.72-.38-.59-.49-1.24-.33-1.95.08-.35.21-.67.41-.96.2-.29.44-.52.72-.7s.6-.3.95-.36c.35-.06.7-.05,1.05.02l4.2.91c.37.07.69.21.96.41.27.21.5.45.68.73.18.28.31.6.37.94s.06.7-.01,1.05c-.07.37-.2.69-.41.97s-.44.51-.72.69c-.28.18-.59.29-.93.35s-.69.05-1.04-.03l-4.23-.92Z"/>
    <path class="cls-2" d="M63.96,386.78c-.59.47-1.07,1.05-1.45,1.76-.38.7-.63,1.45-.75,2.23s-.1,1.57.06,2.36c.16.79.5,1.52,1,2.18.54.67,1.1,1.21,1.68,1.59s1.3.66,2.16.84c.41.08.83.2,1.26.36.43.16.78.42,1.07.79.17.21.3.47.4.79s.14.68.12,1.1c-.02.36-.11.7-.28,1.01-.17.31-.4.58-.69.79-.29.22-.61.38-.98.48-.37.1-.78.13-1.21.09-1.41-.15-2.74-.59-4.01-1.33-1.27-.74-2.37-1.7-3.31-2.87-1-1.25-1.71-2.61-2.13-4.07s-.56-2.93-.42-4.39c.14-1.46.56-2.87,1.26-4.2s1.68-2.51,2.93-3.51c.02,0,.04,0,.05-.01v-.02c1.24-1,2.6-1.7,4.07-2.1s2.94-.51,4.41-.33c1.47.18,2.87.64,4.21,1.37,1.34.73,2.51,1.72,3.51,2.97.94,1.17,1.64,2.45,2.1,3.84s.61,2.78.44,4.18c-.05.43-.16.82-.34,1.17s-.41.64-.69.87c-.28.23-.59.39-.93.48-.35.09-.71.11-1.09.04-.41-.08-.75-.2-1.02-.35-.27-.16-.49-.34-.66-.55-.29-.36-.47-.77-.53-1.22-.06-.45-.09-.89-.09-1.33-.02-.84-.15-1.59-.38-2.25-.24-.65-.58-1.26-1.03-1.82-.51-.64-1.13-1.15-1.86-1.52-.73-.38-1.5-.61-2.3-.68-.8-.08-1.6-.01-2.39.19-.8.21-1.51.56-2.15,1.07h-.03Z"/>
    <path class="cls-2" d="M85.77,423.7c-.25.25-.53.43-.85.56-.32.12-.64.18-.98.18-.33,0-.66-.08-.97-.21-.31-.13-.6-.33-.86-.59-.25-.25-.44-.53-.57-.84-.13-.31-.2-.63-.2-.97,0-.33.06-.66.18-.97.12-.32.31-.6.56-.85l6.28-6.24s.07-.07.11-.11c.04-.04.08-.07.13-.09.56-.58.98-1.2,1.28-1.88s.46-1.37.49-2.06c.03-.7-.08-1.38-.33-2.05-.25-.67-.66-1.29-1.22-1.86-.58-.58-1.21-1.02-1.91-1.32-.69-.3-1.4-.46-2.12-.46-.72,0-1.43.13-2.13.41s-1.35.71-1.94,1.3l-6.47,6.43c-.25.25-.54.44-.86.57s-.65.19-.98.19c-.33,0-.65-.06-.97-.19-.32-.12-.6-.32-.86-.58-.26-.26-.45-.55-.58-.88-.13-.32-.19-.65-.19-.98s.07-.65.2-.98c.13-.32.32-.61.57-.85l18.23-18.12c.26-.26.55-.45.88-.58s.65-.19.99-.19c.34,0,.67.07.99.2.32.13.61.32.85.57.26.26.45.55.57.87s.18.64.17.98c0,.33-.08.66-.21.98-.13.32-.33.61-.59.87l-5.55,5.51c1.06.12,2.07.39,3.02.81.95.42,1.8,1.01,2.56,1.77,1.07,1.08,1.86,2.28,2.36,3.61s.73,2.68.68,4.06c-.04,1.37-.35,2.72-.93,4.05-.58,1.33-1.4,2.53-2.48,3.6l-6.38,6.34Z"/>
    <path class="cls-2" d="M94.97,420.48c.99-1.24,2.15-2.21,3.49-2.91,1.34-.7,2.74-1.14,4.2-1.3,1.46-.17,2.92-.05,4.38.34,1.46.39,2.8,1.08,4.02,2.06,1.24.99,2.22,2.15,2.93,3.49.72,1.34,1.15,2.73,1.31,4.19.16,1.46.04,2.91-.36,4.36-.4,1.45-1.09,2.8-2.08,4.04l-5.29,6.64c-.23.29-.5.51-.8.68-.31.17-.63.27-.96.31-.34.04-.68.01-1.02-.08-.35-.09-.66-.25-.95-.48-.49-.39-.79-.86-.9-1.42-.11-.56-.04-1.1.19-1.63-1.14-.03-2.25-.22-3.33-.57-1.08-.35-2.08-.89-2.99-1.62-1.23-.98-2.19-2.13-2.9-3.46-.71-1.33-1.15-2.73-1.31-4.19-.17-1.46-.05-2.93.34-4.39.39-1.47,1.08-2.81,2.05-4.04ZM99.04,423.73c-.53.66-.9,1.39-1.12,2.19s-.28,1.6-.19,2.4c.09.8.33,1.56.71,2.29.38.72.91,1.36,1.59,1.9.68.54,1.41.92,2.21,1.13.8.22,1.59.28,2.39.18.79-.1,1.55-.34,2.27-.74.72-.39,1.35-.92,1.88-1.59.54-.68.92-1.41,1.14-2.2.22-.79.29-1.58.2-2.37-.09-.79-.33-1.55-.72-2.28-.39-.73-.92-1.36-1.6-1.9-.66-.53-1.39-.9-2.19-1.12-.8-.22-1.6-.28-2.39-.2s-1.55.32-2.28.71c-.73.39-1.36.92-1.9,1.6Z"/>
    <path class="cls-2" d="M121.56,440.98c-.43.69-.71,1.42-.84,2.18-.13.76-.11,1.5.05,2.23.16.72.46,1.4.91,2.04s1.01,1.17,1.7,1.6c.71.44,1.42.7,2.14.78s1.42.02,2.09-.2c.67-.21,1.3-.56,1.89-1.04.59-.48,1.1-1.07,1.53-1.76l4.7-7.54c.19-.31.44-.56.72-.75s.6-.32.93-.38c.33-.07.67-.07,1.02-.02.34.05.66.17.96.36.31.19.56.43.75.71.19.28.32.58.39.89s.08.65.03.98c-.06.33-.18.66-.38.97l-4.66,7.47c-.81,1.3-1.8,2.39-2.96,3.27-1.16.88-2.4,1.5-3.73,1.88-1.33.37-2.69.47-4.11.28s-2.77-.68-4.07-1.49-2.37-1.82-3.19-3.02c-.83-1.2-1.39-2.49-1.7-3.87-.31-1.38-.35-2.79-.13-4.24.22-1.45.74-2.81,1.54-4.1l4.72-7.58c.19-.31.43-.56.71-.76.28-.19.58-.33.9-.4.32-.07.65-.08.99-.03.34.05.67.17.96.36.3.19.55.42.75.71.2.29.34.59.42.91.08.32.1.65.05.99-.05.34-.17.66-.37.97l-4.74,7.6Z"/>
    <path class="cls-2" d="M145.82,444.52l1.42-2.81c.47-.94,1.11-1.75,1.9-2.41.79-.67,1.66-1.16,2.6-1.47s1.92-.45,2.95-.39c1.03.05,2.02.32,2.98.8.67.34,1.12.85,1.34,1.52.22.68.17,1.35-.17,2.02-.16.31-.37.58-.64.81-.27.22-.56.38-.87.48-.32.09-.65.13-.99.1-.35-.02-.68-.12-1.01-.28l-.11-.05c-.32-.14-.65-.21-.98-.21-.33,0-.65.06-.95.18s-.58.29-.82.51c-.25.22-.45.49-.61.81l-1.38,2.74,1.56.79c.33.17.61.38.83.65s.39.55.49.87c.1.31.14.64.13.98-.02.34-.11.67-.28,1-.17.33-.38.6-.65.83-.27.23-.55.39-.87.49-.31.1-.64.14-.99.12s-.68-.12-1.01-.28l-1.57-.79-5.46,10.85c-.17.33-.38.61-.65.83s-.56.39-.88.5-.65.15-.99.13c-.34-.02-.67-.11-.98-.27s-.58-.37-.81-.64c-.23-.27-.39-.56-.5-.88s-.15-.66-.13-1c.02-.35.12-.68.28-1.01l5.46-10.84-1.09-.55c-.31-.16-.58-.37-.81-.64-.23-.27-.39-.56-.5-.88s-.15-.66-.12-1c.02-.35.11-.68.27-.99.17-.33.38-.6.64-.82.26-.22.55-.38.87-.48.32-.1.65-.14,1-.12.35.02.68.11.99.27l1.09.55Z"/>
    <path class="cls-2" d="M159.24,450.99l1.22-2.9c.41-.97.99-1.82,1.74-2.54.75-.72,1.58-1.27,2.49-1.64.92-.38,1.89-.57,2.92-.59,1.03-.01,2.04.19,3.03.6.69.29,1.17.77,1.44,1.43.27.66.26,1.34-.04,2.03-.14.32-.33.61-.58.85-.25.24-.53.42-.84.53s-.64.17-.98.17c-.35,0-.69-.07-1.03-.21l-.11-.05c-.33-.12-.66-.17-.99-.15s-.64.11-.94.24c-.29.14-.55.33-.79.57-.23.24-.42.52-.55.85l-1.2,2.83,1.61.68c.34.14.63.34.87.59.24.25.42.53.55.83.12.3.19.63.19.97,0,.34-.07.68-.21,1.02s-.34.63-.59.87c-.25.24-.53.42-.83.55-.3.12-.63.19-.98.19-.35,0-.69-.07-1.03-.21l-1.61-.68-4.73,11.18c-.14.34-.34.63-.59.87-.25.24-.53.43-.85.55-.31.13-.64.19-.98.2-.34,0-.67-.06-1-.2-.32-.14-.61-.33-.85-.58-.24-.25-.43-.53-.55-.85-.13-.31-.19-.65-.19-.99,0-.35.07-.69.21-1.03l4.73-11.18-1.13-.48c-.32-.14-.61-.33-.85-.58-.24-.25-.43-.53-.55-.85-.13-.31-.19-.65-.19-.99,0-.35.07-.68.21-1.01.14-.34.34-.63.58-.86.25-.23.53-.41.84-.53s.64-.18.99-.18c.35,0,.68.07,1.01.21l1.13.48Z"/>
    <path class="cls-2" d="M172.35,468.18c.02.63.13,1.23.34,1.81.21.58.5,1.11.86,1.59.37.48.8.9,1.31,1.25.51.36,1.07.63,1.7.83,1.57.5,2.93.49,4.1-.04.37-.12.72-.18,1.04-.18.32,0,.61.03.87.12.43.14.77.37,1.04.7.26.33.45.7.55,1.12.07.29.1.59.08.9-.02.3-.1.59-.23.87s-.31.53-.55.77c-.24.24-.53.42-.9.56-.43.2-.91.37-1.42.51-.52.15-1.09.24-1.71.27-.62.04-1.3,0-2.04-.09-.73-.09-1.54-.28-2.4-.56-1.51-.48-2.83-1.22-3.97-2.22-1.14-1-2.05-2.15-2.72-3.46-.67-1.31-1.09-2.71-1.24-4.22-.16-1.5,0-3.01.49-4.52.48-1.51,1.23-2.83,2.23-3.97,1-1.14,2.16-2.04,3.46-2.71,1.31-.67,2.71-1.07,4.22-1.22,1.51-.15,3.02.02,4.53.51,1.49.48,2.81,1.21,3.94,2.2,1.14.99,2.05,2.12,2.74,3.41.69,1.29,1.11,2.68,1.28,4.18.17,1.5.02,3-.45,4.5-.22.7-.63,1.2-1.22,1.49s-1.25.32-1.98.08l-13.94-4.48ZM184.96,467.69c.03-.68-.05-1.33-.25-1.94-.2-.62-.49-1.18-.88-1.69s-.87-.96-1.43-1.34c-.57-.38-1.2-.69-1.9-.91-.7-.23-1.39-.34-2.07-.35-.68,0-1.32.09-1.93.29-.61.2-1.17.49-1.68.87-.51.38-.95.85-1.31,1.41l11.45,3.68Z"/>
    <path class="cls-2" d="M197.05,481.88c-.13.71-.47,1.26-1.04,1.66s-1.2.53-1.91.4c-.35-.06-.67-.19-.96-.38-.29-.19-.54-.42-.74-.68-.21-.26-.35-.56-.44-.9-.09-.33-.1-.67-.04-1.02l1.99-11.13c.21-1.18.64-2.25,1.29-3.22.65-.96,1.45-1.76,2.39-2.4.94-.64,1.99-1.09,3.13-1.35s2.31-.29,3.49-.08c1.23.22,2.34.66,3.33,1.33.99.67,1.83,1.48,2.5,2.45.96-.67,2.04-1.15,3.22-1.42,1.18-.28,2.38-.3,3.61-.08,1.2.21,2.28.63,3.24,1.26.96.63,1.77,1.4,2.42,2.31.65.91,1.12,1.92,1.41,3.03.29,1.11.35,2.25.19,3.42,0,.03,0,.07,0,.11,0,.04,0,.08,0,.11l-1.98,11.08c-.06.35-.19.66-.38.94s-.42.51-.68.69-.56.31-.89.39c-.32.08-.66.09-1,.03-.35-.06-.67-.19-.97-.38s-.55-.42-.74-.68c-.2-.26-.34-.56-.43-.89-.09-.33-.1-.67-.04-1.02l1.99-11.15c.07-.51.05-.99-.08-1.45s-.33-.88-.62-1.24c-.28-.37-.63-.68-1.03-.93-.4-.25-.85-.42-1.36-.51-.5-.09-1-.08-1.49.03-.49.11-.93.29-1.33.55-.4.26-.73.59-1.01.99-.27.4-.46.85-.55,1.35l-1.97,11.03c-.13.71-.47,1.26-1.04,1.66-.57.39-1.2.53-1.91.4-.35-.06-.67-.19-.96-.38-.29-.19-.54-.42-.74-.68-.21-.26-.35-.56-.44-.9-.09-.33-.1-.67-.04-1.02l1.99-11.13c.07-.51.05-.99-.07-1.46-.12-.47-.32-.89-.59-1.25-.28-.37-.62-.68-1.03-.93s-.87-.42-1.37-.51c-.5-.09-1-.08-1.48.02s-.92.28-1.32.54c-.4.26-.73.59-1,.98-.27.39-.45.83-.54,1.32l-1.99,11.1Z"/>
    <path class="cls-2" d="M233.63,480.68c.18.6.45,1.15.8,1.66s.77.94,1.25,1.3c.48.37,1.01.65,1.59.86s1.2.33,1.86.36c1.65.07,2.96-.3,3.94-1.12.33-.21.65-.36.96-.45.31-.09.6-.13.87-.12.45.02.84.15,1.18.4.34.25.62.56.82.94.15.26.25.54.31.84s.06.6,0,.9c-.05.3-.16.6-.33.89s-.41.55-.72.77c-.37.3-.78.59-1.24.87s-.99.51-1.58.71c-.59.2-1.26.35-1.99.45-.73.1-1.56.13-2.47.09-1.58-.07-3.06-.44-4.42-1.1-1.36-.66-2.54-1.53-3.54-2.62-.99-1.08-1.76-2.33-2.31-3.74-.55-1.41-.78-2.91-.71-4.49.07-1.58.44-3.06,1.11-4.42.67-1.36,1.55-2.54,2.63-3.52s2.34-1.75,3.75-2.28c1.42-.54,2.92-.77,4.5-.7,1.57.07,3.03.43,4.38,1.08,1.36.65,2.54,1.51,3.54,2.57,1,1.06,1.78,2.29,2.33,3.7s.8,2.89.75,4.45c-.03.74-.29,1.32-.79,1.75-.49.43-1.12.63-1.89.6l-14.62-.65ZM245.67,476.89c-.15-.66-.4-1.27-.75-1.81-.35-.54-.78-1.01-1.29-1.4-.51-.39-1.09-.7-1.74-.92-.65-.22-1.34-.35-2.07-.38-.74-.03-1.43.04-2.09.21s-1.25.43-1.79.79c-.54.35-1,.78-1.39,1.28-.39.5-.69,1.07-.89,1.7l12.01.54Z"/>
    <path class="cls-2" d="M277.02,486.23c.02.37-.02.71-.14,1.03s-.28.6-.48.85c-.21.25-.46.44-.77.59-.3.15-.63.23-.98.26-.35.02-.7-.02-1.03-.12-.34-.11-.63-.27-.89-.48-.25-.21-.46-.47-.63-.78s-.26-.64-.28-1l-.59-8.91c0-.13,0-.22,0-.29-.08-.78-.29-1.5-.62-2.17-.33-.67-.76-1.24-1.29-1.72-.53-.48-1.13-.84-1.82-1.09-.68-.25-1.42-.35-2.22-.3-.81.05-1.55.25-2.22.59-.67.34-1.23.79-1.68,1.35-.45.56-.79,1.2-1.03,1.93-.23.73-.32,1.5-.27,2.31l.6,9.03c.02.37-.02.71-.12,1.03-.11.32-.27.6-.48.85-.22.25-.47.44-.77.59-.29.15-.63.23-.99.26-.35.02-.69-.02-1.02-.12-.33-.11-.62-.27-.89-.48-.26-.21-.48-.47-.64-.78-.17-.3-.26-.64-.28-1l-.6-9.03c-.1-1.53.08-2.98.54-4.35.46-1.37,1.14-2.58,2.04-3.65.9-1.06,1.99-1.92,3.27-2.58,1.28-.66,2.68-1.04,4.19-1.14,1.53-.1,2.97.09,4.32.58,1.35.49,2.53,1.2,3.56,2.13,1.02.93,1.85,2.05,2.49,3.35.64,1.3,1.01,2.71,1.11,4.24l.6,9.03Z"/>
    <path class="cls-2" d="M284.87,465l8.23-1.44c.36-.06.71-.06,1.05.02.34.08.65.22.92.41.28.2.51.44.7.73.19.29.32.62.38.98.06.35.05.69-.03,1.02s-.22.63-.42.9c-.2.27-.44.5-.73.69-.29.19-.62.32-.98.38l-8.23,1.44,1.04,5.98c.15.84.44,1.59.9,2.27.45.68,1,1.24,1.65,1.69.65.45,1.37.76,2.18.95.8.18,1.63.2,2.48.05.76-.13,1.44-.36,2.05-.69.61-.33,1.15-.78,1.61-1.37.22-.3.49-.56.79-.78.3-.22.63-.37,1-.43.58-.1,1.15.02,1.7.36.33.2.58.47.76.79s.29.68.33,1.05c.04.38.01.75-.08,1.12-.1.38-.26.72-.5,1.04-.79,1.08-1.75,1.96-2.9,2.64s-2.43,1.14-3.85,1.39c-1.56.27-3.07.24-4.54-.11s-2.8-.93-4-1.76c-1.2-.83-2.22-1.87-3.04-3.13-.83-1.26-1.38-2.67-1.65-4.23l-2.65-15.18c-.06-.36-.05-.71.04-1.05s.23-.65.42-.93c.19-.28.44-.51.73-.7.29-.19.61-.31.96-.37s.69-.05,1.02.03.63.22.9.42c.27.2.5.44.69.73.19.29.32.62.38.98l.72,4.11Z"/>
    <path class="cls-2" d="M319.39,468.44c.24.71.62,1.37,1.15,1.97.53.6,1.14,1.09,1.83,1.47.69.38,1.44.64,2.24.76.8.12,1.6.06,2.39-.19.82-.27,1.51-.62,2.07-1.03.56-.42,1.07-1,1.53-1.74.22-.36.47-.71.77-1.06.3-.34.67-.59,1.11-.74.26-.09.55-.12.88-.1.33.02.68.1,1.07.26.33.14.62.35.85.61.23.27.4.57.51.92.11.34.14.71.11,1.09-.03.38-.14.77-.33,1.17-.62,1.27-1.5,2.37-2.63,3.31s-2.41,1.64-3.83,2.12c-1.52.51-3.04.71-4.56.6-1.52-.11-2.94-.48-4.27-1.11-1.33-.64-2.5-1.51-3.51-2.63-1.02-1.12-1.78-2.44-2.29-3.96.01-.02.01-.04,0-.05h-.02c-.51-1.51-.7-3.03-.56-4.55s.54-2.94,1.21-4.25c.67-1.31,1.58-2.47,2.73-3.48s2.48-1.77,4-2.27c1.43-.48,2.87-.69,4.33-.65,1.46.04,2.82.39,4.08,1.03.38.19.71.43.98.72.27.29.46.6.58.94.12.34.17.69.13,1.04s-.14.7-.34,1.04c-.22.36-.44.64-.68.84s-.49.34-.74.43c-.44.15-.88.17-1.33.08-.45-.09-.87-.22-1.28-.37-.8-.27-1.55-.41-2.24-.42-.69,0-1.38.11-2.06.34-.77.26-1.46.67-2.07,1.22-.61.56-1.08,1.2-1.43,1.92-.35.72-.56,1.5-.64,2.32-.08.82,0,1.62.27,2.39l-.02.03Z"/>
    <path class="cls-2" d="M347.56,464.14c.34-.14.68-.21,1.03-.21.35,0,.68.08.98.22.3.14.58.33.82.58.24.24.44.53.57.85.29.68.31,1.33.06,1.96-.25.63-.72,1.09-1.42,1.39-1,.43-2.01.66-3.03.7-1.02.04-1.99-.1-2.91-.42-.92-.32-1.75-.82-2.5-1.51-.75-.69-1.36-1.54-1.83-2.56l-8.18-19.1c-.14-.34-.22-.68-.22-1.03s.06-.67.17-.97c.11-.3.28-.57.51-.82.23-.24.5-.44.82-.58.34-.14.68-.22,1.03-.22s.68.06,1,.17c.32.12.61.29.87.53.26.24.46.53.61.86l8.12,18.95c.33.76.81,1.24,1.44,1.42s1.32.11,2.05-.2Z"/>
    <path class="cls-2" d="M343.75,441.21c-.18-.36-.28-.73-.3-1.11-.02-.38.03-.75.14-1.09.12-.34.3-.66.55-.95.25-.29.54-.52.89-.69.34-.17.71-.27,1.09-.29.38-.02.75.03,1.1.14.35.11.67.29.96.54.29.25.53.55.71.91.17.34.26.7.28,1.08s-.04.74-.16,1.08c-.12.35-.31.67-.56.96-.25.29-.54.52-.89.69-.34.17-.71.27-1.09.29-.38.02-.75-.03-1.09-.14-.34-.12-.66-.29-.95-.54-.29-.24-.52-.53-.69-.88ZM359.76,461.21c.16.32.24.65.26.99.02.35-.02.68-.13.99-.11.31-.27.6-.49.86-.22.26-.49.47-.82.63-.32.16-.65.25-.99.26-.35.02-.68-.02-1-.12-.32-.1-.61-.26-.87-.49s-.47-.5-.63-.81l-7.6-15.36c-.16-.31-.24-.64-.25-.99,0-.34.04-.68.15-1s.28-.61.5-.88.5-.48.83-.64c.33-.16.66-.25.99-.26.33-.01.66.04.97.15s.6.28.85.5c.25.22.46.49.61.81l7.6,15.36Z"/>
    <path class="cls-2" d="M370.28,455.81c.38.61.5,1.25.34,1.92s-.54,1.2-1.14,1.58c-.3.19-.62.31-.96.36-.34.06-.68.05-1.01,0s-.64-.18-.93-.37-.53-.43-.71-.73l-6.02-9.57c-.64-1.02-1.04-2.1-1.21-3.25-.17-1.15-.12-2.28.15-3.38.27-1.1.74-2.14,1.41-3.11s1.51-1.77,2.52-2.41c1.06-.66,2.18-1.08,3.36-1.26,1.18-.18,2.35-.13,3.5.13.26-1.15.73-2.22,1.42-3.22.69-1,1.56-1.83,2.61-2.49,1.03-.65,2.11-1.06,3.24-1.25,1.13-.18,2.25-.15,3.34.08,1.09.24,2.12.67,3.08,1.29s1.78,1.43,2.45,2.4c.02.03.04.06.07.08.03.03.05.06.07.08l5.99,9.53c.19.3.31.62.36.95.05.34.04.66-.04.97-.08.31-.21.61-.39.88-.18.28-.43.51-.72.7-.3.19-.62.31-.97.37s-.69.06-1.01,0c-.32-.06-.63-.19-.92-.37s-.53-.43-.71-.73l-6.03-9.59c-.29-.42-.63-.76-1.04-1.02-.41-.25-.84-.42-1.3-.5-.46-.08-.92-.08-1.38,0s-.92.26-1.35.54-.79.61-1.09,1.02c-.29.41-.49.84-.61,1.3-.12.46-.14.93-.08,1.41.06.48.23.94.51,1.37l5.97,9.49c.38.61.5,1.25.34,1.92-.15.67-.54,1.2-1.14,1.58-.3.19-.62.31-.96.36-.34.06-.68.05-1.01,0-.33-.06-.64-.18-.93-.37s-.53-.43-.71-.73l-6.02-9.57c-.29-.42-.63-.77-1.03-1.04-.4-.27-.83-.44-1.28-.53-.45-.09-.91-.08-1.38,0-.47.09-.93.27-1.36.54s-.79.61-1.08,1.01-.49.83-.61,1.29c-.12.46-.14.93-.08,1.4.06.47.22.92.49,1.34l6,9.55Z"/>
    <path class="cls-2" d="M390.61,432.25c-1.02-1.21-1.73-2.55-2.16-4-.42-1.45-.57-2.91-.44-4.38.13-1.46.54-2.87,1.21-4.22.68-1.35,1.62-2.52,2.82-3.53,1.22-1.02,2.55-1.74,4-2.17,1.45-.43,2.91-.58,4.37-.44,1.46.14,2.86.55,4.2,1.23,1.34.68,2.52,1.63,3.54,2.85l5.45,6.52c.24.28.41.59.51.92s.14.67.11,1.01-.12.67-.28.99c-.16.32-.38.6-.66.84-.48.4-1,.6-1.57.59-.57,0-1.09-.18-1.56-.51-.26,1.11-.67,2.16-1.23,3.15-.56.99-1.29,1.86-2.18,2.61-1.2,1.01-2.53,1.72-3.97,2.15-1.45.43-2.9.58-4.37.44s-2.88-.54-4.24-1.21-2.54-1.62-3.55-2.82ZM394.6,428.91c.54.65,1.18,1.16,1.92,1.54.74.37,1.51.6,2.31.67.8.07,1.59,0,2.38-.24.79-.23,1.51-.62,2.17-1.18.66-.55,1.18-1.2,1.55-1.94s.59-1.51.66-2.3c.07-.79-.02-1.59-.26-2.38-.24-.79-.63-1.51-1.18-2.16-.55-.66-1.2-1.18-1.93-1.56-.73-.38-1.49-.6-2.28-.67s-1.58.01-2.37.25c-.79.24-1.52.63-2.19,1.19-.65.54-1.16,1.19-1.54,1.92-.37.74-.6,1.51-.67,2.3-.08.79,0,1.59.24,2.38.24.79.63,1.52,1.19,2.18Z"/>
    <path class="cls-2" d="M407.75,402.21l5.79-6.02c.25-.26.54-.46.86-.6.32-.14.65-.21.99-.21.34,0,.67.05,1,.18s.62.31.88.57c.25.24.45.52.58.84.13.31.2.64.2.97,0,.33-.06.66-.19.99-.12.33-.31.62-.57.88l-5.79,6.02,4.37,4.21c.61.59,1.3,1.02,2.06,1.3.76.28,1.54.41,2.32.39.79-.02,1.56-.19,2.32-.52.76-.33,1.44-.8,2.04-1.42.53-.55.95-1.14,1.25-1.76.3-.62.46-1.31.5-2.05,0-.37.06-.74.17-1.1s.3-.67.55-.94c.41-.43.94-.66,1.58-.71.38-.03.74.04,1.08.19.34.16.63.38.89.65.25.28.45.6.59.96s.21.74.21,1.13c0,1.34-.26,2.62-.79,3.84-.53,1.23-1.29,2.36-2.29,3.39-1.1,1.14-2.34,2-3.73,2.59s-2.81.9-4.27.94c-1.46.04-2.89-.21-4.31-.73s-2.69-1.34-3.83-2.44l-11.1-10.69c-.27-.25-.46-.55-.59-.87-.13-.33-.2-.66-.21-1,0-.34.05-.67.18-1,.12-.32.31-.61.55-.87.24-.25.52-.45.84-.58.31-.13.64-.2.97-.2.33,0,.66.06.99.19.33.12.62.31.89.57l3.01,2.9Z"/>
    <path class="cls-2" d="M415.53,385.94c-.31-.26-.55-.55-.72-.9-.17-.34-.28-.69-.31-1.05-.03-.36,0-.72.11-1.09.11-.37.29-.7.53-1,.25-.3.54-.53.88-.7s.7-.28,1.06-.32c.37-.04.73,0,1.1.1.37.11.71.29,1.01.54.29.25.53.54.69.87s.27.69.29,1.05c.03.37-.01.73-.12,1.1-.11.37-.28.7-.53,1-.25.3-.54.53-.88.7-.34.17-.69.28-1.05.31-.36.03-.72,0-1.08-.1-.36-.1-.69-.28-.99-.52ZM438.28,397.71c.27.22.49.49.65.8.16.31.25.63.28.95.03.33,0,.65-.1.98s-.26.63-.5.92c-.22.27-.49.49-.8.65-.31.16-.63.26-.96.29s-.66,0-1-.09-.64-.26-.91-.49l-13.19-10.94c-.27-.23-.48-.49-.63-.8-.15-.31-.24-.63-.27-.97s0-.67.1-1.01c.1-.33.27-.64.5-.92.24-.28.5-.5.8-.65.3-.15.62-.23.95-.26.33-.03.66.01.98.11.32.1.62.26.89.49l13.19,10.94Z"/>
    <path class="cls-2" d="M434.76,388.84c-1.3-.91-2.34-2.01-3.12-3.3-.78-1.29-1.3-2.66-1.56-4.11-.25-1.45-.23-2.91.07-4.39.3-1.48.9-2.86,1.8-4.14.91-1.3,2.01-2.34,3.3-3.14,1.29-.8,2.66-1.32,4.1-1.57s2.9-.22,4.38.09c1.47.31,2.86.92,4.16,1.83l13.56,9.51c.31.22.56.48.75.79.19.31.31.63.37.96.06.33.06.67-.01,1.02-.07.34-.2.67-.42.97-.44.63-1.01.98-1.7,1.07-.69.08-1.35-.1-1.98-.54l-5.7-4c-.04,1.09-.23,2.15-.56,3.18-.34,1.04-.83,2.02-1.5,2.97-.9,1.28-1.99,2.32-3.28,3.11-1.29.79-2.65,1.31-4.1,1.56-1.45.25-2.92.23-4.41-.07s-2.88-.9-4.16-1.8ZM437.75,384.58c.7.49,1.44.81,2.25.97s1.6.18,2.39.04c.79-.14,1.54-.42,2.24-.85s1.3-1,1.79-1.7c.5-.71.83-1.47,1-2.28.17-.81.18-1.61.04-2.39-.14-.78-.43-1.52-.86-2.22-.43-.69-1-1.28-1.69-1.77-.71-.5-1.46-.83-2.27-1.01-.81-.17-1.6-.19-2.38-.06-.78.14-1.52.42-2.23.86-.71.43-1.31,1-1.8,1.71-.49.69-.81,1.45-.98,2.26-.17.81-.19,1.61-.05,2.4.13.79.42,1.53.85,2.24.43.71,1,1.31,1.71,1.8Z"/>
    <path class="cls-2" d="M453.45,361.28c.72.39,1.46.62,2.23.7.77.08,1.51.02,2.22-.19.71-.21,1.37-.55,1.98-1.03s1.1-1.08,1.49-1.8c.4-.73.61-1.46.65-2.19.04-.72-.07-1.42-.32-2.07-.25-.66-.64-1.26-1.15-1.83-.51-.56-1.13-1.04-1.85-1.42l-7.81-4.23c-.32-.17-.59-.4-.79-.68-.21-.28-.35-.58-.44-.91-.09-.33-.11-.67-.08-1.01.03-.35.13-.67.3-.98.17-.32.4-.59.66-.79.26-.2.55-.35.87-.44s.64-.12.97-.09c.34.04.67.14.99.32l7.74,4.2c1.35.73,2.5,1.65,3.45,2.75.95,1.11,1.65,2.31,2.1,3.61.45,1.3.63,2.66.53,4.08-.1,1.42-.51,2.81-1.24,4.16-.73,1.35-1.67,2.47-2.82,3.37-1.15.9-2.4,1.54-3.76,1.93-1.36.39-2.77.52-4.22.39s-2.85-.56-4.19-1.29l-7.85-4.25c-.32-.17-.59-.4-.8-.67-.21-.27-.36-.56-.46-.87-.09-.31-.12-.64-.09-.99.03-.35.13-.67.3-.98.17-.31.39-.57.66-.79.27-.22.57-.38.89-.48s.65-.14.99-.11c.34.03.67.13.99.31l7.87,4.26Z"/>
    <path class="cls-2" d="M467.04,338.43c.63.03,1.24-.04,1.83-.21.59-.17,1.14-.42,1.65-.75.5-.33.95-.74,1.34-1.22.39-.48.71-1.02.96-1.63.62-1.53.7-2.89.25-4.09-.09-.38-.12-.73-.11-1.05.02-.32.08-.61.18-.86.17-.42.42-.74.77-.98.35-.24.73-.39,1.16-.46.3-.05.6-.06.9-.01s.59.14.85.29c.27.15.51.35.73.6s.38.56.49.93c.17.45.3.93.41,1.46.11.53.16,1.1.15,1.73-.01.63-.09,1.3-.23,2.03-.15.73-.39,1.51-.73,2.36-.59,1.47-1.43,2.74-2.5,3.8-1.08,1.07-2.29,1.89-3.64,2.46-1.35.58-2.79.89-4.3.93-1.51.05-3-.23-4.47-.82-1.47-.59-2.74-1.43-3.8-2.51-1.06-1.08-1.88-2.3-2.45-3.65-.57-1.35-.87-2.78-.91-4.3-.04-1.52.24-3.01.83-4.48.59-1.45,1.41-2.71,2.48-3.78,1.07-1.06,2.27-1.89,3.6-2.48s2.75-.92,4.26-.97,2.99.2,4.45.77c.68.27,1.15.72,1.39,1.32.25.61.23,1.27-.06,1.98l-5.47,13.58ZM467.47,325.81c-.67-.08-1.33-.05-1.96.1-.63.15-1.21.4-1.75.76-.54.35-1.02.8-1.44,1.33-.42.54-.77,1.15-1.05,1.83-.28.68-.44,1.36-.5,2.04-.06.68,0,1.33.15,1.95.15.62.4,1.2.75,1.74.34.54.78,1,1.31,1.41l4.49-11.15Z"/>
  </g>
  <g>
    <path class="cls-2" d="M238.55,174.17c.23.44.33.71.49.92,5.89,7.6.55,16.9-6.45,19.09-4.49,1.4-8.67,3.31-11.79,7.02-1.22,1.45-2.35,2.99-3.67,4.35-5.31,5.48-13.68,4.03-16.21-2.79-1.1-2.95-.49-5.81.7-8.61.58-1.36,1.27-2.69,1.65-4.1.72-2.63.25-5.02-1.92-6.89-1.95-1.69-4.16-1.63-6.34-.71-8.99,3.83-17.16,8.99-24.66,15.24-.2.16-.32.42-.56.75.44.17.75.32,1.07.41,4.66,1.35,5.93,4.07,3.94,8.45-.32.7-.7,1.38-1.01,2.09-2.03,4.5-.08,8.17,4.82,9.02,2.15.38,4.33.44,6.51.51,5.18.18,9.49,3.2,10.91,7.55,1.69,5.16-1.42,10.65-7.21,12.39-2.14.64-4.41.83-6.61,1.26-10.2,2.02-16.61,11.83-14.37,21.96.32,1.44.66,2.88.86,4.34.48,3.55-1.57,7.03-4.69,8.09-3.18,1.07-6.33-.36-8.24-3.8-1.33-2.39-2.18-5.02-3.94-7.19-1.46-1.8-3.2-3.14-5.31-4.04-4.63-1.98-8.24.11-8.64,5.1-.41,4.98-.5,9.97.02,14.94,1.59,15.19,6.12,29.41,14.22,42.41,4.22,6.76,9,13.09,14.87,18.52,1.6,1.48,2.15,1.38,2.86-.75,2.26-6.84,1.63-13.28-2.91-19.13-2.38-3.06-5.46-5.46-7.79-8.57-9.21-12.31-.88-29.83,14.32-32.01,8.31-1.19,14.93,1.65,20.08,8.06,3.27,4.07,7.34,6.63,12.41,7.79,3.58.82,7,2.08,9.83,4.6,5.64,5.04,6.94,13.72,3.08,20.69-3.03,5.48-7.76,9.4-12.34,13.44-6.44,5.67-11.83,12.18-16.33,19.48-1.07,1.74-.73,2.56.98,3.36,8.72,4.05,17.79,7.01,27.27,8.6,15.98,2.66,31.8,1.76,47.41-2.51,3.11-.85,6.13-2.05,9.19-3.09,1.33-.45,2.64-.98,3.99-1.33,2.92-.75,4.92.1,6.36,2.75,1.11,2.04,2.21,4.06,3.59,5.94,1.66,2.26,1.34,4.31-.93,6.02-1.06.79-2.27,1.41-3.48,1.95-14.17,6.37-29.05,9.47-44.55,10.03-20.22.72-39.4-3.42-57.56-12.22-16.06-7.77-29.24-19.13-40-33.28-13.13-17.27-20.63-36.75-22.64-58.38-2.34-25.1,2.77-48.57,15.66-70.18,12.21-20.48,29.14-35.88,51.06-45.62,11.73-5.21,23.94-8.63,36.67-9.96,23.97-2.51,46.42,2.31,67.16,14.71.78.47,1.52,1.02,2.27,1.54,1.78,1.24,2.65,2.75,2.63,5.12-.12,14.48-.07,28.97-.07,43.45,0,3.37-.9,4.23-4.25,4.05-2.33-.12-4.34-1.15-6.23-2.39-2.35-1.54-4.56-3.29-6.91-4.84-8.09-5.35-17.42-4.71-24.71,1.66-2.08,1.82-4.2,3.52-7.03,4.04-3.05.56-6.29-.96-7.64-3.64-1.41-2.8-.85-6.21,1.44-8.33.71-.66,1.5-1.32,2.37-1.74,3.28-1.59,5.87-3.94,7.45-7.19,3.11-6.41,8.41-9.07,15.25-9.5,2.95-.19,5.82-.93,8.31-2.73,3.65-2.63,3.51-6.32-.51-8.24-8.97-4.26-18.48-6.68-28.34-7.75-1.67-.18-3.36-.27-5.04-.39-.19-.01-.4.09-.82.2Z"/>
    <path class="cls-2" d="M374.39,219.73c0,26.64.02,53.29-.03,79.93,0,2.09.49,3.67,2.02,5.24,8.45,8.72,12.78,19.26,12.83,31.39.09,22.66-18.13,43.38-40.61,46.44-24.68,3.35-48.27-13.66-52.49-38.23-2.6-15.16,1.36-28.57,12.35-39.61,1.3-1.31,1.83-2.61,1.83-4.44-.03-53.29-.01-106.57,0-159.86,0-10.51,4.19-19.07,12.65-25.18,18.08-13.04,43-5.08,49.95,15.27,1.14,3.35,1.54,6.83,1.54,10.38-.03,26.22-.02,52.44-.02,78.66h-.03ZM355.37,224.43c0-27.13,0-54.27,0-81.4,0-1.41.03-2.82-.1-4.21-.67-6.99-6.49-11.68-14.01-11.36-6.64.29-11.86,5.68-11.88,12.39-.03,12.51.02,25.03-.03,37.54,0,1.74.56,2.35,2.3,2.3,3.37-.11,6.75-.07,10.12-.03,2.41.02,4.62.69,6.19,2.63,1.87,2.29,2.49,4.88,1.25,7.68-1.32,3-3.78,4.51-6.98,4.63-3.58.13-7.17.08-10.75.05-1.51-.01-2.15.59-2.12,2.14.06,3.51,0,7.03.02,10.54,0,2.75.01,2.71,2.85,2.77,3.86.08,7.76-.45,11.57.29,4.99.97,7.44,6.27,5.14,10.78-1.57,3.08-4.4,4.01-7.54,4.14-3.16.13-6.33.11-9.49,0-1.86-.06-2.67.47-2.58,2.49.15,3.37.16,6.75,0,10.12-.1,2.04.71,2.56,2.57,2.43,3.71-.26,7.44-.47,11.15.02,3.37.45,5.85,2.68,6.57,5.95.66,2.94-.71,5.93-3.51,7.73-1.47.95-3.12,1.26-4.83,1.27-2.88.03-5.76,0-8.65,0q-3.28,0-3.29,3.16c0,1.69,0,3.37,0,5.06q0,6.46,6.57,6.44c2.18,0,4.37-.11,6.53.07,3.97.33,6.88,3.2,7.3,6.97.36,3.26-1.82,6.28-5.46,7.62-1.14.42-2.32.57-3.52.57-2.53,0-5.06,0-7.59,0q-3.82,0-3.83,3.71c0,6.47-.12,12.94.03,19.4.05,2.34-.69,3.67-2.73,4.86-9.7,5.62-15.19,18.81-12.22,29.55,3.13,11.3,10.39,18.78,21.9,21.33,11.17,2.48,20.61-1.2,27.82-9.96,11.42-13.87,7.22-31.82-5.89-40.76-2.12-1.45-2.99-2.85-2.98-5.41.09-27.84.05-55.67.06-83.51Z"/>
    <path class="cls-2" d="M295.22,270.55c0,8.15-.03,16.31.02,24.46.01,1.87-.51,3.37-1.75,4.79-6.54,7.49-11.14,15.9-12.91,25.87-1.48,8.32-10.85,10.91-17.77,5.23-3.77-3.1-5.69-7.11-5.76-11.94-.09-6.18,0-12.37-.06-18.56-.03-3.8-.35-7.58-1.29-11.28-.71-2.76-1.93-5.28-3.89-7.39-2.45-2.64-5.38-3.9-9.06-3.37-11.56,1.64-20.37-3.9-23.26-14.72-1.45-5.41-.88-10.84,1.39-15.88,4.8-10.63,12.53-17.9,24.47-19.71,5.87-.89,11.33.29,16.08,4.06,1.27,1,2.52,2.03,3.81,3,3.08,2.3,6.46,3.25,10.32,2.42,4.02-.87,8.04-1.24,12.05.2,2.16.78,4.04,1.94,5.72,3.48,1.32,1.21,1.94,2.62,1.92,4.47-.06,8.29-.03,16.59-.03,24.88Z"/>
    <path class="cls-2" d="M226.21,113.74c-.05-1.57.18-3.1.79-4.54,1.76-4.15,3.97-8.08,6.38-11.87,2.35-3.69,6.46-4.54,9.89-2.4,3.26,2.03,4.19,6.36,2.13,10.02-.59,1.04-1.21,2.07-1.95,3.01-2.55,3.23-2.83,6.71-1.56,10.54,1.08,3.26,2.16,6.56,2.44,10.02.25,3.07-.77,5.7-3.46,7.43-2.55,1.64-5.16,1.68-7.73,0-1.82-1.18-2.99-2.85-3.1-5.01-.2-4.14-1.39-8.01-2.86-11.83-.66-1.72-1.01-3.51-.97-5.36Z"/>
    <path class="cls-2" d="M206.27,97.79c4.7.03,8.18,5.02,6.64,9.17-.56,1.51-1.26,3-2.16,4.33-2.24,3.32-1.89,6.39.39,9.54,1.77,2.44,3.64,4.84,4.97,7.57,1.77,3.65,1.24,6.81-1.55,9.41-3.48,3.25-9.16,2.41-11-1.97-1.62-3.88-3.81-7.34-6.16-10.75-3.16-4.59-3.45-9.43-1.26-14.42,1.36-3.08,2.5-6.27,4.24-9.18,1.4-2.34,3.47-3.62,5.89-3.7Z"/>
    <path class="cls-2" d="M264.23,140.63c-3.51.02-6.73-2.43-7.01-6.01-.29-3.62-1.34-7.02-2.16-10.49-1.2-5.07-.34-9.58,3.04-13.61,2.07-2.47,3.85-5.21,6.05-7.55,2.03-2.17,4.65-3.09,7.67-1.94,2.9,1.1,4.2,3.37,4.51,6.3.2,1.85-.5,3.46-1.62,4.88-1.34,1.71-2.78,3.35-4.12,5.06-1.42,1.83-1.85,3.83-1.17,6.14.78,2.62,1.47,5.28,1.98,7.96.95,5.05-2.36,9.25-7.18,9.27Z"/>
    <path class="cls-2" d="M358.11,337.01c-.02,8.29-7.3,15.49-15.73,15.58-8.6.09-16.17-7.28-16.1-15.66.08-8.94,7.27-16.01,16.22-15.95,8.71.06,15.63,7.17,15.61,16.02Z"/>
  </g>
</svg>