<?xml version="1.0" encoding="UTF-8"?>
<svg id="Quete_ENG" data-name="Quete ENG" xmlns="http://www.w3.org/2000/svg" viewBox="0 0 500 500">
  <defs>
    <style>
      .cls-1 {
        fill: #0c4d53;
      }

      .cls-1, .cls-2 {
        stroke-width: 0px;
      }

      .cls-2 {
        fill: #fff;
      }
    </style>
  </defs>
  <g>
    <path class="cls-1" d="M122.17,447.36c-2.81-1.81-4.85-3.91-6.13-6.3-1.28-2.39-1.81-4.94-1.59-7.63.22-2.7,1.21-5.41,2.98-8.14,1.32-2.04,2.8-3.69,4.46-4.94,1.66-1.25,3.44-2.08,5.35-2.51,1.91-.42,3.9-.42,5.98.01s4.16,1.32,6.25,2.67c1.23.79,2.38,1.75,3.45,2.88,1.07,1.12,1.89,2.27,2.46,3.44.39.74.53,1.44.42,2.1-.11.66-.38,1.22-.8,1.68-.42.46-.91.77-1.48.92s-1.13.12-1.69-.1c-.56-.22-1.04-.69-1.45-1.4-.45-.92-1.02-1.74-1.71-2.46-.69-.72-1.45-1.35-2.28-1.89-1.65-1.06-3.24-1.63-4.79-1.7-1.54-.07-2.99.33-4.35,1.19s-2.62,2.2-3.78,4c-1.14,1.77-1.84,3.47-2.08,5.09-.24,1.62-.02,3.12.68,4.49.7,1.38,1.87,2.59,3.52,3.66.79.51,1.66.93,2.61,1.26.95.33,1.94.54,2.98.61.85.09,1.49.34,1.94.76.45.41.72.9.83,1.47s.04,1.13-.19,1.68c-.23.55-.6,1-1.12,1.37-.51.37-1.15.54-1.92.54-1.31.03-2.74-.21-4.29-.73-1.55-.51-2.98-1.19-4.28-2.03Z"/>
    <path class="cls-1" d="M143.33,459.13c-2.33-1.18-3.74-2.7-4.23-4.58-.5-1.88-.09-4.09,1.2-6.65l8.95-17.68c.5-.99,1.14-1.62,1.91-1.87.77-.25,1.63-.13,2.6.36.94.48,1.54,1.1,1.79,1.87.25.77.12,1.65-.38,2.64l-8.83,17.44c-.54,1.07-.71,1.98-.51,2.72.2.74.68,1.3,1.44,1.69.21.11.41.19.61.26.2.07.4.15.61.26.44.16.68.43.69.82.02.39-.2,1.02-.65,1.91-.4.78-.85,1.3-1.37,1.55-.52.25-1.14.27-1.86.07-.27-.11-.59-.23-.95-.36s-.7-.28-1.01-.44Z"/>
    <path class="cls-1" d="M153.73,463.75c-1-.43-1.63-1.05-1.91-1.85-.27-.8-.19-1.73.27-2.78l5.95-13.8c.46-1.08,1.08-1.79,1.86-2.14.77-.35,1.66-.31,2.65.12.97.42,1.59,1.03,1.87,1.83.27.8.18,1.75-.28,2.82l-5.95,13.8c-.45,1.05-1.06,1.75-1.82,2.11-.76.36-1.64.32-2.63-.11ZM163.98,439.99c-1.13-.49-1.88-1.12-2.26-1.91s-.36-1.66.06-2.63c.43-.99,1.06-1.62,1.89-1.89.83-.26,1.81-.15,2.94.34,1.13.49,1.88,1.12,2.24,1.9.37.78.33,1.67-.1,2.66-.42.97-1.04,1.59-1.85,1.86-.82.27-1.79.16-2.92-.33Z"/>
    <path class="cls-1" d="M166.74,469.37c-1.04-.31-1.75-.82-2.13-1.55-.38-.72-.42-1.61-.11-2.64l4.43-14.95c.31-1.04.82-1.75,1.53-2.14.71-.39,1.56-.43,2.54-.14,1.01.3,1.7.8,2.07,1.51.37.71.4,1.58.09,2.62l-.8,2.7.04-1.82c.94-1.12,2.12-1.91,3.54-2.34,1.41-.44,2.92-.42,4.52.06,1.6.47,2.82,1.25,3.66,2.32.84,1.08,1.25,2.47,1.24,4.17l-.59-.17c1.04-1.25,2.33-2.1,3.85-2.55s3.11-.43,4.77.06c1.6.47,2.82,1.18,3.66,2.12.84.94,1.32,2.12,1.45,3.54.13,1.43-.1,3.12-.68,5.09l-2.84,9.56c-.31,1.04-.82,1.76-1.53,2.16-.71.4-1.58.45-2.59.15-1.04-.31-1.75-.82-2.13-1.55s-.42-1.61-.11-2.64l2.77-9.35c.41-1.38.49-2.44.24-3.21-.25-.76-.89-1.3-1.93-1.6-1.21-.36-2.27-.22-3.2.43s-1.61,1.74-2.07,3.28l-2.51,8.47c-.31,1.04-.82,1.76-1.53,2.16-.71.4-1.58.45-2.59.15s-1.71-.81-2.11-1.54c-.4-.73-.44-1.61-.13-2.65l2.77-9.35c.41-1.38.49-2.44.24-3.21-.25-.76-.89-1.3-1.93-1.6-1.21-.36-2.27-.22-3.2.43s-1.62,1.74-2.07,3.28l-2.51,8.47c-.64,2.16-2.01,2.93-4.12,2.31Z"/>
    <path class="cls-1" d="M211.13,480.33c-1.57-.22-2.93-.72-4.09-1.51-1.16-.78-2.02-1.75-2.57-2.89-.55-1.14-.73-2.37-.55-3.67.22-1.57.8-2.75,1.74-3.55s2.35-1.27,4.24-1.4,4.33.01,7.35.44l2.31.33-.48,3.39-2.26-.32c-1.48-.21-2.69-.3-3.62-.27-.94.03-1.63.21-2.07.53-.44.32-.71.82-.81,1.48-.12.81.07,1.52.57,2.12s1.27.98,2.35,1.13c.84.12,1.62.03,2.32-.27s1.3-.76,1.77-1.39c.47-.63.77-1.38.89-2.25l.71-5c.18-1.28.02-2.22-.49-2.84-.5-.62-1.45-1.03-2.84-1.22-.78-.11-1.65-.14-2.58-.08-.94.06-1.99.23-3.16.51-.68.2-1.25.19-1.72-.04-.47-.23-.81-.57-1.01-1.03-.2-.46-.27-.94-.2-1.45.07-.51.29-.98.64-1.42.36-.44.88-.72,1.59-.86,1.44-.36,2.78-.55,4.01-.59s2.36.02,3.37.17c2.23.31,4.02.9,5.37,1.75,1.34.85,2.28,2.01,2.82,3.46.54,1.45.65,3.24.35,5.35l-1.36,9.66c-.15,1.07-.53,1.86-1.13,2.37-.6.51-1.4.69-2.38.55-.99-.14-1.71-.54-2.16-1.19-.46-.66-.61-1.52-.46-2.59l.23-1.61.27.3c-.31.96-.8,1.76-1.47,2.39-.67.63-1.46,1.08-2.39,1.35-.92.27-1.95.32-3.08.16Z"/>
    <path class="cls-1" d="M240.64,482.94c-2.02-.09-3.69-.5-5.03-1.23-1.33-.73-2.3-1.75-2.9-3.07-.6-1.32-.86-2.95-.78-4.91l.35-8.25-1.84-.08c-.82-.04-1.45-.28-1.88-.74s-.64-1.07-.6-1.83c.04-.82.29-1.43.76-1.84.47-.4,1.12-.59,1.94-.55l1.84.08.14-3.34c.05-1.11.38-1.94.99-2.49.61-.54,1.44-.8,2.5-.75,1.08.05,1.89.37,2.42.96.53.59.77,1.45.73,2.56l-.14,3.34,4.17.18c.82.04,1.44.27,1.86.72.42.44.61,1.07.58,1.89-.03.76-.28,1.35-.74,1.77s-1.1.61-1.92.58l-4.17-.18-.34,7.99c-.05,1.23.19,2.16.74,2.8.54.64,1.45.99,2.7,1.04.44.02.85,0,1.23-.08.38-.07.74-.11,1.06-.13.41-.01.74.13.99.42.25.29.36.9.32,1.84-.03.7-.17,1.31-.43,1.83-.26.52-.68.88-1.28,1.09-.39.13-.91.23-1.57.31-.66.07-1.23.1-1.7.08Z"/>
    <path class="cls-1" d="M260.5,482.58c-2.54.13-4.75-.22-6.63-1.05-1.88-.83-3.35-2.06-4.41-3.69-1.07-1.63-1.66-3.59-1.78-5.87-.11-2.22.25-4.2,1.1-5.93.85-1.73,2.09-3.11,3.72-4.15,1.63-1.04,3.52-1.61,5.65-1.72,1.55-.08,2.97.11,4.25.55,1.28.45,2.4,1.12,3.36,2.03.96.9,1.7,2.02,2.24,3.36.54,1.34.85,2.84.93,4.5.03.56-.12.98-.46,1.28-.34.3-.84.46-1.52.5l-13.78.71-.18-3.42,11.06-.57-.67.65c-.06-1.2-.29-2.19-.68-2.98s-.93-1.37-1.61-1.74-1.5-.54-2.47-.49c-1.08.06-1.99.35-2.73.89-.73.54-1.28,1.28-1.64,2.24-.36.96-.51,2.09-.44,3.41l.02.35c.11,2.22.72,3.83,1.81,4.83s2.66,1.45,4.71,1.34c.7-.04,1.5-.17,2.4-.39.9-.22,1.73-.54,2.5-.96.66-.36,1.25-.5,1.78-.42.53.08.95.3,1.27.66.31.37.5.8.57,1.29.07.5-.02.99-.25,1.49s-.66.92-1.25,1.27c-.97.61-2.06,1.08-3.29,1.42-1.23.34-2.43.54-3.6.6Z"/>
    <path class="cls-1" d="M291.8,478.56c-1.09.23-1.98.11-2.67-.34-.69-.45-1.15-1.21-1.37-2.27l-3.19-15.27c-.22-1.06-.11-1.93.33-2.6.44-.68,1.17-1.12,2.17-1.33,1.03-.22,1.88-.1,2.54.34.66.45,1.1,1.2,1.32,2.26l.47,2.24-.43.09c-.02-1.79.47-3.28,1.44-4.48.98-1.19,2.39-2.04,4.23-2.54.71-.21,1.29-.14,1.77.19.47.34.82.97,1.05,1.91.24.88.21,1.62-.1,2.22-.31.6-.94,1.06-1.89,1.38l-.97.29c-1.6.49-2.72,1.21-3.34,2.18-.62.97-.77,2.21-.46,3.73l1.67,8c.22,1.06.11,1.94-.33,2.63-.44.69-1.19,1.15-2.25,1.37Z"/>
    <path class="cls-1" d="M303.55,449.11c-1.18.33-2.17.32-2.96-.05-.79-.37-1.33-1.06-1.62-2.08-.29-1.04-.2-1.93.28-2.66.48-.73,1.31-1.26,2.49-1.6s2.16-.32,2.94.06c.78.38,1.31,1.08,1.61,2.13.29,1.01.2,1.88-.27,2.61-.46.72-1.29,1.25-2.47,1.59ZM310.59,474.01c-1.04.29-1.92.22-2.65-.23-.72-.45-1.24-1.23-1.55-2.33l-4.09-14.46c-.32-1.13-.29-2.07.09-2.83.38-.76,1.09-1.29,2.13-1.58,1.01-.29,1.88-.21,2.6.25.72.45,1.24,1.24,1.56,2.37l4.09,14.46c.31,1.1.28,2.03-.08,2.79-.36.76-1.07,1.28-2.11,1.58Z"/>
    <path class="cls-1" d="M327.93,468.5c-1.21.45-2.49.8-3.85,1.05-1.36.25-2.66.31-3.89.17-.65-.07-1.17-.28-1.56-.62s-.65-.73-.79-1.18c-.14-.45-.14-.9,0-1.35.13-.45.38-.82.76-1.1.38-.28.87-.41,1.48-.38,1.3.05,2.45,0,3.46-.15,1-.15,1.96-.4,2.87-.73,1.18-.44,1.97-.94,2.37-1.51.4-.57.49-1.16.26-1.76-.2-.55-.53-.89-.99-1.04-.46-.14-1.05-.14-1.78,0l-4.62.82c-1.82.33-3.36.19-4.63-.42-1.27-.61-2.18-1.65-2.73-3.14-.51-1.37-.56-2.7-.16-3.99.4-1.29,1.18-2.45,2.34-3.49s2.61-1.88,4.34-2.52c1.24-.46,2.42-.77,3.54-.93,1.12-.17,2.26-.18,3.4-.04.59.07,1.06.27,1.42.6s.58.74.68,1.2c.09.47.07.93-.07,1.39-.14.46-.41.82-.79,1.09-.39.27-.89.39-1.52.38-1.03-.09-1.95-.08-2.76.01-.81.09-1.56.27-2.24.52-1.24.46-2.06.99-2.46,1.59s-.49,1.2-.27,1.81c.17.47.47.8.91,1,.43.2,1,.23,1.7.1l4.62-.81c1.9-.36,3.48-.26,4.74.29,1.26.55,2.18,1.59,2.75,3.13.77,2.09.56,4.03-.63,5.83s-3.15,3.2-5.87,4.21Z"/>
    <path class="cls-1" d="M345.26,461.3c-.97.48-1.84.59-2.61.32-.77-.27-1.4-.89-1.88-1.86l-11.13-22.38c-.5-1-.62-1.88-.36-2.64.26-.77.87-1.39,1.84-1.87.94-.47,1.8-.58,2.56-.32.77.26,1.4.88,1.89,1.88l6.83,13.73.08-.04,2.55-9.17c.25-.94.54-1.7.86-2.27s.89-1.06,1.7-1.46c.81-.4,1.54-.5,2.18-.3s1.11.6,1.42,1.18c.31.58.35,1.31.12,2.17l-2.67,9.72-1.12-2.24,10.52,4.38c.8.36,1.31.85,1.55,1.49.23.64.21,1.26-.07,1.88s-.79,1.11-1.53,1.47c-.89.44-1.69.63-2.4.55-.71-.07-1.51-.33-2.42-.76l-9.23-3.66-.08.04,2.82,5.67c1,2.02.52,3.52-1.44,4.5Z"/>
    <path class="cls-1" d="M372.59,446.34c-1.09.69-2.27,1.31-3.54,1.84s-2.53.87-3.77.99c-.65.07-1.2-.02-1.66-.27-.45-.25-.79-.58-1.02-.99-.23-.41-.33-.85-.3-1.32.03-.47.2-.88.51-1.24.31-.35.77-.58,1.36-.68,1.28-.22,2.4-.52,3.35-.88.95-.36,1.83-.8,2.65-1.32,1.06-.68,1.73-1.33,2-1.98.27-.64.23-1.23-.12-1.78-.31-.49-.71-.76-1.19-.8-.48-.04-1.06.08-1.74.38l-4.34,1.78c-1.71.7-3.24.89-4.61.57-1.37-.32-2.48-1.15-3.33-2.49-.79-1.24-1.12-2.52-1-3.87.12-1.34.63-2.64,1.55-3.9.92-1.26,2.15-2.39,3.71-3.38,1.11-.71,2.2-1.26,3.26-1.66s2.17-.65,3.32-.76c.59-.06,1.09.04,1.51.29.42.25.73.6.92,1.03.19.43.26.89.22,1.37-.04.48-.22.89-.54,1.23-.32.34-.79.57-1.41.69-1.03.13-1.92.33-2.69.6s-1.46.59-2.08.99c-1.11.71-1.8,1.4-2.07,2.07-.27.67-.23,1.28.12,1.82.27.42.63.68,1.1.78.46.1,1.03.02,1.68-.26l4.34-1.77c1.78-.75,3.34-.99,4.7-.73,1.35.27,2.47,1.09,3.35,2.48,1.2,1.88,1.4,3.82.62,5.83-.79,2.01-2.4,3.79-4.85,5.35Z"/>
  </g>
  <path class="cls-1" d="M389.84,423.74c-1.15,0-2.3-.5-3.09-1.45-1.41-1.7-1.17-4.22.54-5.63,51.11-42.18,80.42-104.34,80.42-170.54,0-121.86-99.14-221-221-221S25.71,124.26,25.71,246.12c0,64.19,27.86,125.12,76.44,167.17,1.67,1.45,1.85,3.97.41,5.64-1.45,1.67-3.97,1.85-5.64.41-50.33-43.57-79.2-106.7-79.2-173.22,0-61.17,23.82-118.67,67.07-161.93C128.04,40.94,185.55,17.12,246.71,17.12s118.67,23.82,161.93,67.07c43.25,43.25,67.07,100.76,67.07,161.93,0,68.59-30.37,133-83.33,176.71-.75.62-1.65.92-2.54.92Z"/>
  <g>
    <g>
      <path class="cls-1" d="M170.63,233.68c-8.62,0-17.25.14-25.87-.07-3.42-.08-5.91,1.01-8.23,3.44-6.72,7.05-13.59,13.97-20.45,20.9-.71.72-1.16,2.35-2.53,1.65-1.15-.59-.57-2.03-.67-3.11-.05-.5,0-1-.01-1.5q-.03-6.95-6.93-8.55c-3.93-.91-5.84-4.59-4.49-9.2,1.79-6.14,4.48-11.94,7.38-17.6,15.8-30.79,38.38-55.53,67.11-74.73,22-14.7,45.37-26.4,71.42-31.9,21.17-4.47,42.32-4.83,62.48,4.34,18.45,8.39,31.73,21.8,35.88,42.31,1.69,8.36,1.8,17.05-4.49,24.18-3.83,4.34-8.61,6.4-14.43,5.04-5.73-1.33-8.9-5.09-9.99-10.85-1.49-7.88-7.64-11.65-14.17-14.24-19.64-7.77-37.89-4.43-54.06,8.79-12.55,10.26-19.12,24.07-19.79,40.17-.6,14.39,4.17,27.52,11.91,39.58,8.84,13.76,19.68,25.74,31.92,36.59,7.48,6.62,7.16,4.63.06,11.13-6.44,5.9-12.87,11.83-19.19,17.87-2.17,2.07-3.75,2.13-5.93-.06-5.21-5.21-10.66-10.18-15.98-15.28-2.16-2.06-3.65-11.95-2.27-14.5.71-1.32,1.89-1.01,2.97-.94,2.58.18,4.8-.45,5.97-2.92,1.05-2.22-.03-4.09-1.39-5.84-10.6-13.59-21.25-27.15-31.74-40.82-2.29-2.99-4.89-4.09-8.61-3.98-8.62.24-17.24.08-25.87.08v.02Z"/>
      <path class="cls-2" d="M250.54,319.99c-1.08,0-2.15-.59-3.32-1.76-3.46-3.46-7.09-6.88-10.6-10.19-1.8-1.69-3.59-3.38-5.37-5.08-2.27-2.17-3.86-12.33-2.37-15.1.78-1.45,2.09-1.32,3.06-1.23l.39.03c2.79.2,4.54-.65,5.48-2.64.88-1.87.1-3.48-1.34-5.32l-6.97-8.92c-8.15-10.43-16.58-21.22-24.78-31.9-2.14-2.79-4.5-3.9-8.2-3.79-6.14.17-12.38.13-18.41.1-2.32-.01-4.65-.03-6.97-.03l-.5.02c-2.47,0-4.94.01-7.4.02-6.05.03-12.32.06-18.47-.09-3.26-.09-5.59.91-7.86,3.29-6.12,6.42-12.47,12.83-18.6,19.03l-1.85,1.87c-.15.15-.3.38-.46.62-.46.69-1.25,1.85-2.66,1.13-1.12-.57-1.03-1.76-.96-2.62.02-.32.05-.62.02-.88-.03-.36-.03-.72-.02-1.08,0-.15,0-.31,0-.46q-.03-6.56-6.54-8.06c-1.92-.45-3.42-1.51-4.34-3.08-1.07-1.82-1.25-4.22-.51-6.75,1.93-6.62,4.83-12.66,7.42-17.69,15.53-30.25,38.16-55.46,67.27-74.92,24.81-16.58,48.23-27.04,71.6-31.97,24.78-5.23,44.73-3.84,62.79,4.37,20.12,9.15,32.28,23.5,36.16,42.67,1.49,7.34,2.3,16.78-4.6,24.61-4.21,4.77-9.23,6.53-14.92,5.2-5.72-1.33-9.21-5.12-10.37-11.24-1.52-8.03-8.21-11.63-13.86-13.87-19.18-7.59-37.2-4.66-53.56,8.72-12.16,9.94-18.94,23.7-19.61,39.8-.55,13.19,3.32,26.04,11.84,39.29,8.31,12.94,18.72,24.87,31.83,36.48.9.8,1.68,1.47,2.36,2.04,2.27,1.94,3.3,2.82,3.31,3.91,0,1.04-.97,1.88-2.9,3.55-.75.64-1.64,1.42-2.69,2.37-6.14,5.62-12.71,11.68-19.18,17.86-1.18,1.13-2.25,1.69-3.31,1.69ZM231.09,287.58c-.6,0-1.01.15-1.34.76-1.29,2.41.21,12.02,2.18,13.9,1.78,1.7,3.57,3.39,5.37,5.08,3.52,3.31,7.15,6.73,10.63,10.21,1.96,1.96,3.23,1.97,5.23.05,6.48-6.19,13.06-12.25,19.2-17.88,1.05-.97,1.96-1.75,2.71-2.39,1.59-1.37,2.56-2.2,2.56-2.79,0-.63-1.11-1.58-2.96-3.15-.68-.58-1.47-1.25-2.37-2.05-13.18-11.67-23.65-23.67-32.01-36.69-8.63-13.43-12.55-26.47-11.99-39.87.68-16.39,7.59-30.41,19.98-40.53,16.66-13.62,35.02-16.61,54.56-8.87,5.89,2.33,12.87,6.1,14.48,14.61,1.1,5.78,4.24,9.2,9.62,10.45,5.3,1.24,9.99-.41,13.94-4.89,6.62-7.5,5.81-16.63,4.37-23.75-3.81-18.83-15.79-32.95-35.59-41.96-17.85-8.12-37.61-9.49-62.17-4.3-23.24,4.9-46.54,15.31-71.25,31.82-28.97,19.36-51.49,44.44-66.94,74.54-2.56,4.99-5.44,10.98-7.35,17.52-.66,2.26-.51,4.38.42,5.96.78,1.33,2.06,2.23,3.71,2.62,7.14,1.65,7.28,1.82,7.31,9.04,0,.16,0,.33,0,.49,0,.32-.01.65.02.97.03.34,0,.71-.02,1.05-.07.96-.06,1.41.42,1.66.54.28.78.08,1.37-.8.18-.27.36-.54.58-.76l1.85-1.87c6.13-6.2,12.47-12.6,18.59-19.02,2.45-2.57,5.1-3.68,8.61-3.6,6.14.15,12.4.12,18.45.09,2.3-.01,4.61-.02,6.91-.02v-.02h.5c2.49,0,4.98.01,7.47.03,6.03.03,12.26.07,18.38-.1,3.98-.09,6.69,1.14,9.02,4.18,8.19,10.68,16.62,21.47,24.77,31.9l6.97,8.92c1.44,1.85,2.62,3.9,1.45,6.37-1.12,2.38-3.25,3.43-6.46,3.21-.14,0-.28-.02-.42-.04-.28-.03-.52-.05-.74-.05Z"/>
    </g>
    <g>
      <path class="cls-1" d="M381.58,264.99c0,18.87.08,37.74-.07,56.61-.03,3.56,1.01,5.05,4.67,4.72,2.73-.24,5.5-.17,8.24,0,3.32.2,5.62,2.67,5.7,5.82.08,2.85-2.19,5.71-5.36,5.67-8.13-.1-16.45,1.78-24.24-2.57-3.77-2.11-8.21-2.35-12.46-1.8-4.32.56-7.36-1.15-10.3-4.05-13.43-13.25-26.97-26.39-40.47-39.57-1.61-1.57-3.27-3.09-4.91-4.62-2.12-1.98-4.48-3.13-7.49-2.35-2.22.58-3.32-.45-3.45-2.66-.06-1-.09-2-.09-3,0-22.24,0-44.49.02-66.73,0-6.91.99-7.92,7.71-7.92,25.24,0,50.49,0,75.73.03,6.19,0,6.87.93,6.84,7.3-.08,18.37-.03,36.74-.03,55.11h-.04ZM355.25,272.44c2.75,0,5.5-.08,8.25.02,2.61.1,3.57-1.12,3.52-3.62-.09-4.37-.14-8.75-.02-13.12.07-2.57-1.1-3.75-3.51-3.76-5.61,0-11.22.07-16.83.16-2.08.03-2.77,1.3-2.74,3.22.04,2.87-.03,5.75.01,8.62.12,9.51-1.13,8.43,8.33,8.47,1,0,2,0,3,0ZM318.01,252.3c0-.08,0-.17,0-.25-2.62,0-5.26.21-7.86-.06-2.88-.29-3.87.93-3.84,3.59.04,4.5.04,8.99-.02,13.49-.03,2.37,1.03,3.39,3.39,3.37,5.37-.05,10.74-.06,16.11.01,2.72.04,3.85-1.19,3.81-3.85-.07-4.25-.12-8.5,0-12.74.09-2.98-1.38-4.06-4.11-3.95-2.49.1-4.98.25-7.48.38ZM317.57,219.26h0c-2.87-.01-5.73,0-8.6-.02-1.49,0-2.74.18-2.71,2.17.07,5.11.07,10.22.11,15.33.01,1.9,1.09,2.65,2.87,2.64,5.73-.02,11.47-.03,17.2-.04,1.96,0,3.05-.94,3.07-2.94.03-4.74.02-9.47.04-14.21,0-2.01-.99-2.96-2.99-2.94-2.99.02-5.98,0-8.97,0ZM355.47,239.43h0c2.74-.01,5.48-.06,8.21,0,2.35.05,3.4-.97,3.36-3.35-.08-4.48-.07-8.96-.01-13.44.03-2.32-.9-3.44-3.31-3.41-5.48.05-10.95.04-16.43-.02-2.32-.02-3.43.91-3.39,3.32.08,4.48.1,8.96.04,13.44-.03,2.6,1.24,3.55,3.68,3.48,2.61-.07,5.23-.02,7.84-.02Z"/>
      <path class="cls-2" d="M383.62,338.63c-4.49,0-9.01-.53-13.34-2.95-3.19-1.78-7.28-2.37-12.15-1.74-4.01.51-7.21-.73-10.71-4.19-10.56-10.42-21.37-20.95-31.82-31.13l-8.65-8.43c-1.21-1.18-2.46-2.34-3.7-3.49l-1.21-1.12c-2.35-2.19-4.52-2.88-7.03-2.23-1.19.31-2.15.2-2.86-.31-.73-.53-1.14-1.48-1.22-2.8-.06-1.11-.1-2.1-.1-3.02,0-22.24,0-44.49.02-66.73,0-7.16,1.23-8.42,8.21-8.42,25.24,0,50.49,0,75.73.03,3.06,0,4.92.22,6.03,1.33,1.13,1.14,1.32,3,1.31,6.47-.06,13.2-.05,26.63-.04,39.61,0,5.17,0,10.33,0,15.5l-.04.5c0,4.69,0,9.38,0,14.07.01,13.78.03,28.03-.08,42.04-.01,1.88.27,2.98.93,3.59.61.57,1.63.77,3.19.63,2.99-.26,6.01-.14,8.31,0,3.54.21,6.08,2.81,6.17,6.31.04,1.65-.61,3.28-1.79,4.48-1.08,1.1-2.5,1.7-4,1.7h-.07c-1.96-.02-3.95.07-5.88.16-1.74.08-3.49.16-5.25.16ZM361.77,332.7c3.47,0,6.49.71,9,2.11,5.79,3.23,12.03,2.94,18.06,2.66,1.95-.09,3.96-.19,5.94-.16h.06c1.23,0,2.4-.5,3.29-1.4.98-.99,1.54-2.39,1.5-3.75-.08-2.96-2.23-5.16-5.23-5.34-2.26-.13-5.24-.26-8.17,0-1.87.17-3.12-.12-3.96-.89-.88-.82-1.27-2.15-1.26-4.33.11-14.01.09-28.25.08-42.03,0-4.86,0-9.72,0-14.57l.04-.5c0-5,0-10,0-15,0-12.98-.02-26.41.04-39.61.01-3.13-.14-4.88-1.02-5.76-.86-.86-2.6-1.03-5.32-1.04-25.24-.02-50.48-.03-75.73-.03-6.46,0-7.21.76-7.21,7.42-.02,22.24-.02,44.49-.02,66.73,0,.9.03,1.87.09,2.97.06,1.01.33,1.7.81,2.05.45.33,1.13.38,2.02.15,2.84-.73,5.37.05,7.96,2.47l1.21,1.12c1.25,1.16,2.5,2.32,3.71,3.51l8.65,8.43c10.45,10.18,21.25,20.71,31.82,31.13,3.26,3.21,6.22,4.38,9.88,3.91,1.31-.17,2.56-.25,3.77-.25ZM363.78,272.97c-.1,0-.2,0-.3,0-1.9-.07-3.83-.05-5.71-.04-.84,0-1.68.01-2.52.01h-.3c-.9,0-1.8,0-2.7,0-.97,0-1.83,0-2.58,0-3.03.02-4.55.04-5.41-.82-.85-.85-.84-2.32-.83-5.25,0-.84,0-1.8,0-2.91-.02-1.43-.01-2.85,0-4.28,0-1.45.01-2.89,0-4.34-.04-2.44,1.05-3.69,3.23-3.73,6.25-.09,11.46-.2,16.84-.16,1.33,0,2.35.35,3.02,1.04.7.72,1.03,1.78.99,3.23-.12,4.55-.06,9.17.02,13.1.03,1.49-.29,2.54-.98,3.22-.62.61-1.52.91-2.75.91ZM360.27,271.91c1.08,0,2.17.01,3.25.05,1.1.05,1.85-.16,2.32-.62.48-.48.71-1.29.68-2.49-.08-3.94-.14-8.58-.02-13.14.03-1.16-.2-1.98-.71-2.5-.52-.53-1.38-.73-2.52-.74-5.3,0-10.45.07-16.61.16-1.6.02-2.27.83-2.25,2.71.02,1.45.01,2.91,0,4.36,0,1.42-.01,2.84,0,4.26.01,1.12,0,2.09,0,2.93-.01,2.57-.02,3.98.54,4.53.56.56,2.02.55,4.69.53.76,0,1.62-.02,2.6,0,.9,0,1.8,0,2.7,0h.3c.84,0,1.67,0,2.51-.02.83,0,1.67-.01,2.51-.01ZM325.9,272.96s-.09,0-.13,0c-4.74-.07-9.86-.07-16.1-.01h-.08c-1.31,0-2.25-.31-2.89-.95-.64-.65-.95-1.6-.93-2.93.06-4.12.06-8.53.02-13.48-.01-1.6.32-2.66,1.06-3.34.72-.66,1.81-.91,3.33-.75,1.77.18,3.61.13,5.39.09.81-.02,1.62-.04,2.42-.04h.49v.23s1.83-.1,1.83-.1c1.71-.09,3.43-.18,5.14-.26,1.62-.06,2.79.27,3.56,1.04.76.75,1.11,1.87,1.07,3.43-.12,4.17-.07,8.4,0,12.72.02,1.51-.32,2.6-1.04,3.32-.7.7-1.73,1.04-3.15,1.04ZM317.71,271.91c2.88,0,5.53.02,8.07.05,1.2.04,2.04-.23,2.55-.74.52-.52.76-1.37.75-2.6-.07-4.33-.12-8.57,0-12.76.04-1.26-.21-2.14-.77-2.69-.57-.56-1.49-.81-2.82-.75-1.71.07-3.42.16-5.13.25l-2.86.15v-.28c-.64,0-1.27.02-1.91.04-1.81.04-3.68.09-5.51-.1-1.22-.12-2.06.04-2.56.5-.51.46-.75,1.31-.74,2.59.04,4.96.04,9.37-.02,13.5-.01,1.04.19,1.76.64,2.21.45.45,1.19.65,2.25.65,2.9-.03,5.56-.04,8.05-.04ZM347.4,239.95c-1.34,0-2.32-.32-2.97-.96-.68-.67-1-1.66-.98-3.03.06-4.44.04-8.96-.04-13.42-.02-1.31.27-2.25.9-2.89.64-.65,1.62-.95,2.99-.94,5.85.06,11.22.07,16.42.02,1.35-.03,2.25.29,2.88.93.64.65.95,1.63.93,2.99-.06,4.81-.06,9.21.01,13.43.02,1.34-.28,2.31-.93,2.95-.65.64-1.61.93-2.94.91-1.91-.04-3.85-.03-5.73-.02-.66,0-1.32,0-1.97,0h-.5c-.79.01-1.59,0-2.38,0-1.78-.01-3.63-.02-5.45.03-.08,0-.17,0-.25,0ZM347.2,219.71c-1.04,0-1.76.21-2.19.65-.43.43-.63,1.14-.61,2.16.08,4.48.1,9,.04,13.46-.01,1.08.21,1.83.68,2.3.49.49,1.31.71,2.49.67,1.83-.05,3.69-.04,5.48-.03.62,0,1.25,0,1.88,0h0s.5-.01.5-.01c.82,0,1.65,0,2.47,0,1.89,0,3.84-.02,5.76.02,1.06.02,1.77-.18,2.21-.62.44-.44.65-1.17.63-2.22-.07-4.23-.08-8.63-.01-13.46.01-1.08-.2-1.83-.64-2.27-.43-.43-1.12-.64-2.16-.63-5.21.05-10.58.04-16.44-.02h-.08ZM309.21,239.89c-2.75,0-3.34-1.71-3.35-3.14-.01-1.61-.02-3.23-.02-4.84-.02-3.5-.03-6.99-.08-10.48-.01-.88.2-1.52.64-1.97.66-.66,1.69-.73,2.57-.71,2.01,0,4.02,0,6.02,0h3.08s0,.01,0,.01h2.21c2.09,0,4.18,0,6.26,0h.05c1.13,0,1.99.29,2.57.87.58.58.88,1.45.87,2.57,0,1.86,0,3.73-.01,5.59,0,2.87,0,5.75-.03,8.62-.01,2.21-1.28,3.43-3.56,3.44l-17.2.04h-.02ZM308.92,219.74c-.85,0-1.48.07-1.82.42-.24.25-.36.65-.35,1.25.05,3.5.07,7,.08,10.49,0,1.61.01,3.23.02,4.84,0,1.5.71,2.15,2.35,2.15h.02l17.2-.04c1.74,0,2.56-.78,2.57-2.45.02-2.87.02-5.74.03-8.62,0-1.86,0-3.73.01-5.59,0-.85-.19-1.48-.58-1.86-.39-.39-1.03-.55-1.91-.58-2.09.01-4.18,0-6.27,0l-3.21-.02h-2.08c-2,0-4.01,0-6.02,0h-.04Z"/>
    </g>
    <g>
      <path class="cls-1" d="M172.64,242.99c5.57-.16,13.32.35,21.06-.33,2.13-.19,3.94.48,5.29,2.21,8.61,11.03,17.23,22.05,25.85,33.07,1.37,1.75,1.04,2.82-1.24,2.76-2.38-.07-3.11,1-2.83,3.19.11.86.03,1.75.03,2.62q.02,6.2-5.98,5.96c-2.98-.12-4.77,1.89-6.68,3.66-13.12,12.12-26.25,24.24-39.31,36.42-1.93,1.8-3.76,2.48-6.39,1.74-7.66-2.14-15.15-1.01-22.35,1.99-2.96,1.24-5.91,1.78-9.09,1.75-10.75-.09-21.5-.05-32.25-.08-1.37,0-2.78.06-4.11-.2-3.23-.65-5.02-2.72-5.08-6.03-.05-2.91,2.31-5.23,5.61-5.38,4.49-.21,8.99-.24,13.49-.21,3.66.02,4.86-1.53,4.79-5.27-.22-11.99-.05-24-.04-36,0-1.87.18-3.53-2.43-4.29-2.86-.84-.57-2.31.24-3.2,7.63-8.26,15.25-16.53,23-24.66,11.62-12.19,6.47-9.38,23.12-9.72,4.37-.09,8.75-.01,15.3-.01ZM126.35,306.72h-.03c0,5.36.01,10.72,0,16.07,0,1.93.31,3.5,2.79,3.46,3.74-.05,7.48,0,11.21-.03,2.1-.01,3.26-1.06,3.26-3.22-.02-10.84-.02-21.68-.08-32.52-.01-2.44-1.39-3.59-3.82-3.57-2.99.02-5.98.09-8.97-.04-3.26-.14-4.44,1.39-4.37,4.51.11,5.11.03,10.22.03,15.32ZM177.27,297.67s.02,0,.03,0c0-2.36-.03-4.73,0-7.09.04-2.43-.94-3.72-3.53-3.67-4.23.07-8.46.03-12.69.02-1.93,0-3.11.81-3.13,2.85-.05,5.23-.09,10.45-.06,15.68,0,1.96,1.15,2.95,3.1,2.95,4.36.02,8.71.03,13.07,0,2.13-.01,3.2-1.15,3.21-3.27.01-2.49,0-4.98,0-7.47Z"/>
      <path class="cls-2" d="M131.22,338.55c-.08,0-.15,0-.23,0-7.06-.06-14.24-.06-21.19-.06-3.69,0-7.37,0-11.06-.01h-.71c-1.15,0-2.34.02-3.5-.21-3.47-.7-5.42-3.01-5.48-6.51-.05-3.19,2.56-5.73,6.09-5.89,4.95-.23,9.82-.24,13.52-.21,1.59-.03,2.67-.29,3.32-.95.69-.7,1-1.91.97-3.81-.16-8.58-.12-17.3-.08-25.73.02-3.42.03-6.85.04-10.27v-.34c.01-1.72.02-2.86-2.07-3.48-1.02-.3-1.59-.73-1.72-1.31-.21-.87.63-1.64,1.3-2.27.17-.16.32-.3.45-.43l.82-.88c7.23-7.83,14.71-15.93,22.19-23.79,1.57-1.65,2.84-3.02,3.89-4.17,5.35-5.82,5.47-5.87,12.21-5.73,1.88.04,4.22.09,7.37.02,2.89-.06,5.71-.05,9.29-.03,1.81,0,3.78.02,6.01.02,1.98-.06,4.24-.03,6.64,0,4.41.05,9.41.11,14.38-.33,2.39-.21,4.32.59,5.73,2.4l2.67,3.42c7.72,9.89,15.45,19.78,23.18,29.66.85,1.09,1.11,1.98.77,2.65-.33.65-1.15.96-2.42.92-.98-.03-1.63.15-1.99.54-.36.39-.47,1.08-.34,2.09.08.64.06,1.28.05,1.89,0,.26-.01.53-.01.79.01,3.26.02,4.89-.9,5.78-.91.88-2.48.81-5.6.69-2.45-.11-4.06,1.4-5.74,2.98l-.58.55-5.5,5.08c-11.1,10.25-22.58,20.86-33.81,31.34-2.18,2.04-4.24,2.59-6.87,1.86-6.97-1.95-14.18-1.3-22.02,1.97-2.88,1.2-5.85,1.79-9.06,1.79ZM98.75,337.47c3.69,0,7.37.01,11.06.01,6.95,0,14.13,0,21.19.06,3.22.05,6.03-.52,8.89-1.71,8.06-3.36,15.48-4.02,22.67-2.01,2.31.65,3.97.19,5.92-1.62,11.24-10.49,22.71-21.09,33.81-31.34l6.08-5.62c1.76-1.66,3.6-3.37,6.46-3.26,2.75.11,4.26.18,4.86-.41.61-.59.61-2.18.6-5.06,0-.27,0-.55.01-.82.02-.61.03-1.18-.04-1.74-.17-1.32.02-2.27.59-2.89.56-.62,1.45-.89,2.75-.87,1.21.03,1.45-.27,1.5-.37.11-.21-.01-.74-.67-1.58-7.73-9.88-15.46-19.77-23.18-29.66l-2.67-3.42c-1.2-1.54-2.79-2.19-4.85-2.02-5.03.44-10.05.38-14.48.33-2.39-.03-4.65-.06-6.6,0h-.01c-2.23,0-4.21,0-6.02-.02-3.57-.02-6.38-.03-9.26.03-3.17.06-5.52.02-7.41-.02q-6.36-.13-11.45,5.41c-1.06,1.15-2.32,2.53-3.9,4.18-7.48,7.84-14.95,15.94-22.18,23.77l-.82.88c-.14.15-.31.31-.5.49-.38.35-1.08,1-1.01,1.31.01.05.12.32,1.03.58,2.82.83,2.81,2.67,2.79,4.44v.33c0,3.43-.02,6.85-.04,10.28-.04,8.43-.08,17.14.08,25.71.04,2.21-.35,3.61-1.25,4.53-.84.85-2.1,1.25-3.96,1.25h-.08c-3.68-.02-8.54-.02-13.46.21-3.02.14-5.18,2.19-5.13,4.88.05,3.02,1.67,4.94,4.67,5.55,1.05.21,2.19.2,3.29.2h.72ZM129.02,326.75c-1.03,0-1.78-.26-2.32-.78-.79-.78-.9-1.99-.89-3.18.01-3.87,0-7.74,0-11.61v-4.97s.03,0,.03,0c0-1.35,0-2.7.01-4.05.02-3.53.03-7.18-.04-10.76-.04-1.84.35-3.13,1.19-3.95.81-.79,2.02-1.14,3.71-1.07,2.41.1,4.87.08,7.26.05l1.69-.02c1.47-.03,2.52.36,3.26,1.09.7.7,1.06,1.7,1.07,2.98.05,8.98.06,17.96.07,26.93v5.59c.01,2.38-1.32,3.7-3.74,3.72-1.62.01-3.24,0-4.86,0-2.12,0-4.24,0-6.35.02-.03,0-.06,0-.08,0ZM126.81,307.21v3.96c0,3.87,0,7.74,0,11.61,0,.97.07,1.94.6,2.47.35.34.87.48,1.68.49,2.12-.03,4.24-.03,6.37-.02,1.62,0,3.23,0,4.85,0,1.89-.01,2.76-.88,2.76-2.72v-5.59c-.02-8.98-.03-17.95-.08-26.93,0-1.01-.27-1.77-.77-2.27-.54-.54-1.39-.82-2.54-.8l-1.68.02c-2.4.03-4.87.05-7.31-.05-1.4-.06-2.36.2-2.96.79-.63.62-.92,1.67-.89,3.21.08,3.6.06,7.25.04,10.79,0,1.51-.01,3.03-.01,4.54l-.03.5ZM168.95,308.92c-2.65,0-5.3,0-7.95-.02-2.27,0-3.58-1.27-3.59-3.45-.03-5.23.02-10.54.06-15.69.01-1.53.65-3.34,3.61-3.34h2.65c3.29.02,6.7.04,10.05-.02,1.39-.02,2.36.3,3.04.98.7.7,1.02,1.75,1,3.21-.03,1.63-.02,3.27-.02,4.91v2.68s-.03,0-.03,0v1.8c0,1.72,0,3.45,0,5.17-.01,2.42-1.33,3.75-3.71,3.76-1.71,0-3.41.01-5.12.01ZM161.07,287.42c-1.79,0-2.59.72-2.61,2.35-.04,5.14-.09,10.45-.06,15.67,0,1.62.88,2.45,2.6,2.46,4.36.02,8.71.03,13.06,0,1.84,0,2.7-.89,2.71-2.77,0-1.72,0-3.44,0-5.17v-2.8s.03,0,.03,0v-1.68c-.01-1.64-.02-3.29.01-4.93.02-1.17-.21-1.98-.71-2.48-.48-.48-1.23-.7-2.31-.68-3.36.05-6.77.04-10.07.03h-2.63s-.01,0-.02,0Z"/>
    </g>
    <g>
      <path class="cls-1" d="M354.03,358.99c-8,0-16-.13-23.99.03-8.52.17-16.82-2.17-25.38-1.68-7.84.45-15.59,2.19-23.52,1.62-3.13-.22-6.21-.44-9.26-1.24-9.36-2.46-18.77-2.55-28.18-.29-6.92,1.66-13.82,1.67-20.8.22-8.41-1.75-16.86-1.74-25.26.16-3.31.75-6.63,1.13-10.03,1.13-25.99-.02-51.98-.02-77.97,0-2.02,0-4.04,0-5.69-1.39-2.06-1.72-2.58-3.97-1.77-6.43.9-2.77,3.17-3.74,5.87-3.76,8.12-.05,16.24-.12,24.36-.02,4.2.05,8.17-.58,12.02-2.32,6.24-2.82,12.66-2.96,18.93-.3,9.47,4.02,19.19,4.01,29.08,2.44,2.36-.37,4.57-1.25,6.65-2.43,7.06-4.01,14.3-3.86,21.6-.77,5.92,2.51,11.99,3.22,18.32,1.96,2.14-.43,3.98-1.32,5.72-2.62,7.03-5.3,17.21-5.92,24.6-.93,9.32,6.27,18.78,6.4,28.8,2.14,6.23-2.65,12.64-2.84,18.93-.04,10.88,4.84,21.7,4.88,32.67.16,5.85-2.51,12.03-2.6,17.9-.13,4.84,2.04,9.7,3.18,14.92,2.87.99-.06,2.01-.04,2.99.12,3.2.52,5.32,2.24,5.43,5.66.09,2.98-2.46,5.58-5.84,5.67-6.62.18-13.24.1-19.86.11-3.75,0-7.5,0-11.25,0v.06Z"/>
      <path class="cls-2" d="M284.38,359.58c-1.09,0-2.19-.03-3.28-.11h-.11c-3.04-.23-6.18-.45-9.24-1.25-9.22-2.42-18.62-2.52-27.93-.29-6.91,1.66-13.78,1.73-21.02.22-8.41-1.75-16.84-1.7-25.05.16-3.4.77-6.7,1.14-10.08,1.14h-.05c-23.32-.02-46.65-.02-69.97-.01h-8c-2.06,0-4.21,0-6.02-1.5-2.16-1.8-2.83-4.21-1.93-6.97.88-2.7,3.01-4.08,6.34-4.1l2.37-.02c7.21-.05,14.67-.09,22,0,4.45.04,8.3-.69,11.81-2.27,6.44-2.91,12.95-3.01,19.33-.3,8.16,3.47,17.31,4.23,28.81,2.41,2.15-.34,4.27-1.12,6.48-2.37,6.78-3.85,14.2-4.12,22.04-.8,5.96,2.52,11.86,3.15,18.03,1.93,2-.4,3.75-1.2,5.51-2.53,7.39-5.57,17.75-5.96,25.18-.95,8.65,5.83,17.92,6.51,28.33,2.09,6.59-2.8,13.09-2.81,19.33-.04,10.79,4.8,21.35,4.85,32.27.16,6.02-2.59,12.35-2.63,18.29-.13,5.25,2.21,9.92,3.12,14.7,2.83,1.15-.07,2.17-.03,3.1.13,3.72.61,5.74,2.73,5.85,6.13.05,1.51-.53,2.98-1.61,4.13-1.21,1.28-2.88,2.01-4.72,2.06-4.8.13-9.67.12-14.39.11-1.83,0-3.66,0-5.49,0-2.59,0-5.19,0-7.79,0h-2.96s-.5.06-.5.06c-2.44,0-4.89-.01-7.33-.02-5.46-.03-11.1-.05-16.65.06-4.02.08-8.08-.4-11.99-.87-4.37-.52-8.88-1.06-13.37-.81-2.8.16-5.65.49-8.4.82-3.89.45-7.88.92-11.9.92ZM257.25,355.32c4.95,0,9.88.64,14.76,1.93,2.96.78,5.92.99,9.05,1.21h.11c5.02.37,10.09-.22,14.99-.8,2.77-.32,5.63-.66,8.46-.82,4.58-.27,9.14.29,13.55.81,3.88.46,7.87.95,11.85.86,5.56-.11,11.21-.09,16.67-.06,2.27.01,4.55.02,6.82.02v-.06h3.96c2.59,0,5.19,0,7.78,0,1.83,0,3.66,0,5.49,0,4.71,0,9.58.02,14.36-.11,1.57-.04,3-.66,4.02-1.75.9-.95,1.38-2.17,1.34-3.41-.09-2.91-1.77-4.65-5.01-5.18-.86-.14-1.8-.18-2.88-.11-4.94.29-9.75-.64-15.15-2.91-5.69-2.4-11.74-2.35-17.51.12-11.19,4.81-22,4.76-33.07-.16-5.97-2.66-12.21-2.64-18.53.05-10.74,4.57-20.32,3.85-29.27-2.18-7.09-4.78-16.97-4.4-24.02.92-1.86,1.41-3.8,2.29-5.92,2.71-6.28,1.25-12.54.58-18.61-1.99-7.65-3.24-14.57-3-21.16.75-2.32,1.32-4.55,2.13-6.82,2.49-11.69,1.86-21.02,1.07-29.36-2.47-6.12-2.6-12.35-2.5-18.53.29-3.64,1.65-7.65,2.41-12.23,2.36-7.32-.09-14.77-.04-21.98,0l-2.37.02c-2.89.02-4.65,1.13-5.4,3.41-.77,2.37-.23,4.35,1.62,5.89,1.48,1.24,3.29,1.27,5.21,1.27h8.16c23.32,0,46.65-.01,69.97,0h.05c3.31,0,6.54-.37,9.86-1.12,8.36-1.89,16.93-1.94,25.48-.16,7.08,1.48,13.82,1.41,20.58-.22,4.54-1.09,9.11-1.63,13.66-1.63Z"/>
    </g>
    <g>
      <path class="cls-1" d="M332.62,339.3c-3.23.28-6.27-.96-9.12-2.51-10.02-5.44-20.22-5.14-30.25-.52-6.58,3.03-12.48,2.61-18.43-1.21-4.39-2.82-9.26-4.27-14.44-4.74-1.29-.12-3.14.38-3.6-1.22-.41-1.4,1.06-2.46,2.02-3.37,6.23-5.94,12.53-11.81,18.8-17.71,4.82-4.53,9.82-8.88,14.39-13.66,2.91-3.04,4.72-2.21,7.28.33,11.15,11.1,22.44,22.05,33.7,33.03,2.5,2.44,5.09,4.78,7.65,7.17,1.73,1.61,1.49,2.67-.83,3.32-2.3.65-4.6,1.16-7.16,1.07Z"/>
      <path class="cls-2" d="M331.72,339.84c-3.21,0-6.18-1.37-8.46-2.61-9.41-5.11-19.43-5.28-29.8-.5-6.75,3.11-12.76,2.71-18.91-1.24-4.11-2.64-8.76-4.17-14.22-4.67-.28-.03-.58-.02-.89-.02-1.12.02-2.68.04-3.15-1.56-.44-1.51.77-2.61,1.75-3.5.14-.13.28-.25.4-.37,4.58-4.36,9.26-8.76,13.8-13.01l5.01-4.7c1.42-1.33,2.85-2.65,4.29-3.97,3.38-3.1,6.87-6.31,10.08-9.67,1.36-1.42,2.55-2.09,3.74-2.11h.04c1.47,0,2.75.97,4.21,2.43,9.26,9.22,18.78,18.49,27.98,27.46l5.71,5.56c1.78,1.74,3.64,3.46,5.44,5.12.74.68,1.47,1.36,2.2,2.04,1.02.95,1.43,1.77,1.25,2.5-.18.74-.92,1.28-2.28,1.67-2.19.62-4.57,1.17-7.29,1.09-.31.03-.61.04-.91.04ZM308.22,332.26c5.32,0,10.5,1.36,15.52,4.09,2.53,1.37,5.55,2.73,8.84,2.45h.03s.03,0,.03,0c2.57.09,4.89-.45,7.01-1.05,1.26-.36,1.53-.74,1.58-.94.05-.2-.01-.66-.96-1.54-.73-.68-1.46-1.36-2.2-2.04-1.8-1.67-3.67-3.39-5.46-5.14l-5.71-5.57c-9.21-8.97-18.73-18.25-27.99-27.47-1.52-1.52-2.54-2.14-3.51-2.14h-.03c-.91.01-1.87.58-3.03,1.8-3.23,3.38-6.73,6.6-10.12,9.71-1.43,1.32-2.87,2.63-4.28,3.96l-5.01,4.7c-4.53,4.25-9.22,8.64-13.79,13-.13.13-.28.26-.42.39-1.01.92-1.71,1.63-1.46,2.48.23.78.87.87,2.18.84.34,0,.68,0,.99.02,5.62.51,10.42,2.09,14.67,4.82,5.84,3.75,11.54,4.13,17.95,1.18,5.15-2.37,10.22-3.55,15.17-3.55Z"/>
    </g>
    <g>
      <path class="cls-1" d="M239.23,216.59c-.55-32.48,31.19-55.13,59.12-43.51.46.19.94.35,1.37.6,1.03.59,2.75.83,2.35,2.42-.32,1.27-1.92.92-2.96,1.02-25.62,2.28-44.08,23.67-47.71,44.61-1.18,6.81-.9,13.67.45,20.48.2,1,1.01,2.4-.44,2.97-1.26.49-1.99-.78-2.62-1.66-6.11-8.41-9.65-17.7-9.56-26.91Z"/>
      <path class="cls-2" d="M250.86,245.77c-1.08,0-1.79-1.01-2.29-1.72l-.18-.25c-6.41-8.83-9.75-18.23-9.66-27.2-.27-15.95,7.32-30.74,20.31-39.56,12.1-8.22,26.5-9.83,39.5-4.42l.38.15c.35.14.71.28,1.05.47.21.12.46.23.71.34.91.39,2.29.99,1.87,2.64-.35,1.38-1.8,1.37-2.72,1.37-.24,0-.47,0-.68.02-26.12,2.32-43.85,24.5-47.26,44.19-1.11,6.4-.96,13.23.45,20.29.04.18.1.38.16.58.26.87.69,2.32-.9,2.95-.26.1-.51.15-.74.15ZM282.91,170.46c-8.06,0-16.11,2.5-23.32,7.39-12.71,8.63-20.13,23.11-19.87,38.72h0c-.09,8.77,3.18,17.97,9.46,26.62l.19.27c.67.95,1.12,1.51,1.85,1.22.64-.25.64-.61.31-1.73-.07-.23-.13-.46-.18-.67-1.43-7.18-1.58-14.13-.45-20.66,3.48-20.06,21.53-42.65,48.16-45.02.23-.02.49-.02.77-.02h.03c1.11,0,1.59-.09,1.73-.62.19-.75-.23-1.01-1.3-1.47-.29-.12-.57-.25-.81-.39-.28-.16-.59-.28-.92-.41l-.4-.16c-4.94-2.06-10.1-3.07-15.24-3.07Z"/>
    </g>
    <g>
      <path class="cls-1" d="M183.04,339.47c-2.12-.39-5.23.98-6.15-1.27-.66-1.6,2.32-2.84,3.73-4.14,11.1-10.25,22.33-20.37,33.43-30.62,1.77-1.63,2.95-1.66,4.7-.01,8.99,8.49,18.07,16.89,27.14,25.3,1.11,1.03,2.19,2,.11,3.08-2.99,1.55-5.91,3.29-9.02,4.56-4.07,1.66-8.08.71-11.97-1.04-7.68-3.46-15.59-4.22-23.77-2-2.56.69-5,1.57-7.21,3.06-3.31,2.23-6.87,3.58-10.96,3.09Z"/>
      <path class="cls-2" d="M184.72,340.07c-.58,0-1.16-.04-1.74-.1h-.03c-.63-.12-1.41-.06-2.16,0-1.69.13-3.6.27-4.36-1.57-.62-1.52,1.01-2.65,2.44-3.64.53-.37,1.03-.71,1.41-1.06,5.51-5.09,11.05-10.14,16.59-15.2,5.53-5.05,11.25-10.26,16.84-15.43,1.99-1.84,3.44-1.84,5.38,0,7.47,7.05,15.12,14.15,22.52,21.02l4.61,4.28c.79.73,1.56,1.45,1.44,2.33-.08.59-.55,1.1-1.44,1.57-.84.44-1.68.89-2.51,1.34-2.11,1.14-4.29,2.32-6.55,3.24-3.65,1.48-7.47,1.16-12.37-1.05-7.65-3.45-15.54-4.12-23.44-1.98-3.03.82-5.21,1.74-7.06,2.99-3.29,2.22-6.37,3.28-9.56,3.28ZM183.11,338.98c3.55.42,6.93-.54,10.61-3.01,2.5-1.68,5.25-2.55,7.36-3.13,8.13-2.2,16.24-1.52,24.11,2.03,4.63,2.09,8.2,2.41,11.58,1.04,2.21-.9,4.37-2.06,6.45-3.19.84-.46,1.68-.91,2.53-1.35.75-.39.89-.68.91-.81.05-.37-.55-.93-1.09-1.42l-4.65-4.32c-7.4-6.87-15.06-13.97-22.53-21.03-1.53-1.45-2.43-1.44-4.02.02-5.59,5.17-11.31,10.39-16.84,15.43-5.54,5.05-11.08,10.11-16.58,15.19-.42.39-.98.78-1.52,1.15-1.41.97-2.38,1.72-2.09,2.44.45,1.09,1.57,1.09,3.36.95.81-.06,1.65-.12,2.4,0Z"/>
    </g>
    <g>
      <path class="cls-1" d="M376.81,145.72c-5.27,0-9.38.03-13.5-.02-1.36-.02-2.76-.1-4.08-.43-2.91-.72-4.51-2.6-4.26-5.69.26-3.18,2-5.16,5.25-5.23,10.34-.22,20.68-.33,31.03-.44.98-.01,1.99.2,2.96.43,2.96.71,4.57,2.69,4.34,5.67-.22,2.9-1.92,4.83-4.96,5.21-5.96.75-11.95.44-16.78.5Z"/>
      <path class="cls-2" d="M383.36,146.24c-.94,0-1.85,0-2.74-.01-1.33,0-2.6-.02-3.8,0h-4.41c-3.33.01-6.2.02-9.1-.02-1.17-.02-2.71-.08-4.19-.44-3.25-.8-4.9-3.01-4.64-6.22.29-3.54,2.38-5.62,5.74-5.69,10.09-.22,20.35-.33,30.27-.43h.76c1.05,0,2.1.2,3.08.43,3.24.79,4.96,3.04,4.72,6.2-.25,3.2-2.21,5.27-5.4,5.67-3.5.44-7.02.52-10.29.52ZM378.16,145.22c.8,0,1.62,0,2.47.01,3.96.03,8.46.06,12.9-.5,2.71-.34,4.32-2.03,4.53-4.75.21-2.69-1.16-4.47-3.96-5.15-.92-.22-1.93-.43-2.83-.42h-.76c-9.92.11-20.17.22-30.26.44-3.62.08-4.59,2.64-4.76,4.77-.22,2.74,1.09,4.48,3.88,5.17,1.38.34,2.84.4,3.96.41,2.89.04,5.76.03,9.08.02h4.4c.44-.01.89-.01,1.35-.01Z"/>
    </g>
    <g>
      <path class="cls-1" d="M371.5,187.24c-1.62,0-3.25.08-4.87-.02-3.36-.2-5.07-2-5-5.23.07-3.16,1.74-4.87,4.89-4.95,3.49-.08,6.99-.07,10.49-.02,3.14.04,4.88,1.76,5.12,4.82.23,2.88-1.94,5.14-5.02,5.34-1.87.12-3.74.02-5.62.02,0,.01,0,.02,0,.04Z"/>
      <path class="cls-2" d="M368.47,187.77c-.62,0-1.25-.01-1.87-.05-3.6-.21-5.55-2.25-5.47-5.74.08-3.43,1.99-5.36,5.38-5.44,3.85-.09,7.64-.06,10.5-.02,3.36.04,5.35,1.92,5.62,5.28.11,1.45-.33,2.83-1.25,3.89-1.02,1.17-2.52,1.88-4.23,1.98-1.31.08-2.63.06-3.91.04-.42,0-.84-.01-1.26-.02l-.47.04c-.5,0-1.01,0-1.51.02-.5,0-1.01.01-1.52.01ZM371.9,177.48c-1.71,0-3.53.01-5.36.06-2.86.07-4.34,1.57-4.41,4.46-.07,2.95,1.46,4.54,4.53,4.72,1.09.06,2.22.05,3.31.03.34,0,.68-.01,1.03-.01v-.04h.5c.58,0,1.17,0,1.75.02,1.26.02,2.57.04,3.83-.04,1.44-.09,2.7-.67,3.54-1.64.76-.87,1.11-1.96,1.01-3.16-.23-2.86-1.78-4.32-4.63-4.36-1.49-.02-3.24-.04-5.11-.04Z"/>
    </g>
  </g>
</svg>