<?xml version="1.0" encoding="UTF-8"?>
<svg id="Calque_2" data-name="Calque 2" xmlns="http://www.w3.org/2000/svg" viewBox="0 0 411.47 103.22">
  <defs>
    <style>
      .cls-1, .cls-2, .cls-3 {
        isolation: isolate;
      }

      .cls-4 {
        fill: #00c9a7;
      }

      .cls-4, .cls-5, .cls-6 {
        stroke-width: 0px;
      }

      .cls-2, .cls-3 {
        font-family: AristotelicaSmallCaps-Regular, 'Aristotelica Small Caps';
        font-size: 60px;
      }

      .cls-2, .cls-3, .cls-5 {
        fill: #fff;
      }

      .cls-3 {
        letter-spacing: -.08em;
      }

      .cls-6 {
        fill: #00e8bb;
      }
    </style>
  </defs>
  <g id="Calque_2-2" data-name="Calque 2">
    <g id="Calque_5" data-name="Calque 5">
      <g id="Calque_4" data-name="Calque 4">
        <g class="cls-1">
          <text class="cls-2" transform="translate(83.81 81.68)"><tspan x="0" y="0">GREENPL</tspan></text>
          <text class="cls-3" transform="translate(343.04 81.68)"><tspan x="0" y="0">A</tspan></text>
          <text class="cls-2" transform="translate(375.35 81.68)"><tspan x="0" y="0">Y</tspan></text>
        </g>
      </g>
      <g id="Calque_3" data-name="Calque 3">
        <path class="cls-5" d="M26.59,103.22C58.13,69.47,62.96,35.23,27.2,0-16.28,33.19-.9,83.88,26.59,103.22Z"/>
        <path class="cls-4" d="M37.47,54.12c0,.86-.35,1.64-.91,2.2s-1.34.91-2.2.91h-6.21v6.22c0,1.72-1.39,3.11-3.11,3.11-.86,0-1.64-.35-2.2-.91-.56-.56-.91-1.34-.91-2.2v-6.22h-6.22c-1.72,0-3.11-1.39-3.11-3.11s1.39-3.11,3.11-3.11h6.22v-6.21c0-1.72,1.39-3.11,3.11-3.11s3.11,1.39,3.11,3.11v6.21h6.21c1.72,0,3.11,1.39,3.11,3.11Z"/>
        <path class="cls-5" d="M26.56,103.22c43.79-11.61,65.63-37.53,54.28-85.43C27.42,22.61,13.44,70.06,26.56,103.22Z"/>
        <g>
          <circle class="cls-6" cx="43.68" cy="61.37" r="5"/>
          <circle class="cls-6" cx="51.9" cy="52.29" r="5"/>
          <circle class="cls-6" cx="51.9" cy="69.83" r="5"/>
          <circle class="cls-6" cx="60.21" cy="61.37" r="5"/>
        </g>
      </g>
    </g>
  </g>
</svg>